<svg width="32" height="32" viewBox="0 0 32 32" fill="none" xmlns="http://www.w3.org/2000/svg">
<path d="M29.6034 5.51721H2.39656C1.07294 5.51721 0 6.59015 0 7.91377V24.0863C0 25.4098 1.07294 26.4828 2.39656 26.4828H29.6034C30.927 26.4828 32 25.4099 32 24.0863V7.91377C32 6.59015 30.9271 5.51721 29.6034 5.51721Z" fill="#FF4B55"/>
<path d="M5.31276 8.79572L5.83876 10.3728L7.50126 10.3857C7.71651 10.3873 7.80576 10.6621 7.63257 10.7899L6.2952 11.7775L6.79664 13.3626C6.86151 13.5678 6.62789 13.7375 6.45276 13.6124L5.10026 12.6456L3.74776 13.6123C3.57264 13.7375 3.33901 13.5677 3.40389 13.3625L3.90532 11.7774L2.56795 10.7899C2.39476 10.662 2.48401 10.3873 2.69926 10.3857L4.36176 10.3728L4.88776 8.79572C4.95589 8.59153 5.2447 8.59153 5.31276 8.79572Z" fill="#FFE15A"/>
<path d="M11.35 9.18434L11.7272 9.69859L12.3359 9.50821C12.4147 9.48359 12.4795 9.57346 12.4312 9.6404L12.0586 10.158L12.4277 10.678C12.4756 10.7453 12.4101 10.8348 12.3315 10.8096L11.7241 10.6152L11.3435 11.127C11.2942 11.1932 11.1889 11.1586 11.1886 11.0761L11.1858 10.4383L10.5814 10.2345C10.5032 10.208 10.5036 10.0973 10.582 10.0714L11.1876 9.87165L11.1947 9.2339C11.1956 9.15159 11.3012 9.11778 11.35 9.18434Z" fill="#FFE15A"/>
<path d="M9.05349 7.65121L9.68749 7.72008L9.95799 7.14252C9.99305 7.06777 10.1031 7.08058 10.1199 7.16139L10.2503 7.78564L10.8832 7.86439C10.9651 7.87458 10.9869 7.98321 10.9152 8.02427L10.3618 8.34114L10.4825 8.96739C10.4981 9.04852 10.4015 9.10277 10.3404 9.04733L9.86792 8.61889L9.30967 8.92714C9.23742 8.96708 9.15586 8.89196 9.18974 8.81664L9.45117 8.23489L8.98542 7.79914C8.92524 7.74302 8.97142 7.64233 9.05349 7.65121Z" fill="#FFE15A"/>
<path d="M10.0558 13.8321L9.67864 14.3464L9.06996 14.1561C8.99114 14.1314 8.92633 14.2213 8.97458 14.2883L9.34721 14.8058L8.97808 15.3259C8.93027 15.3932 8.99571 15.4826 9.07433 15.4574L9.68171 15.263L10.0623 15.7748C10.1115 15.8411 10.2168 15.8064 10.2171 15.7239L10.22 15.0861L10.8243 14.8823C10.9026 14.8559 10.9022 14.7451 10.8238 14.7193L10.2181 14.5195L10.211 13.8818C10.21 13.7993 10.1046 13.7654 10.0558 13.8321Z" fill="#FFE15A"/>
<path d="M12.352 12.3913L11.7179 12.4602L11.4474 11.8826C11.4124 11.8079 11.3024 11.8207 11.2855 11.9015L11.155 12.5258L10.5222 12.6045C10.4402 12.6147 10.4184 12.7233 10.4901 12.7644L11.0435 13.0813L10.9229 13.7075C10.9072 13.7886 11.0038 13.8429 11.065 13.7874L11.5374 13.359L12.0957 13.6673C12.1679 13.7072 12.2495 13.6321 12.2156 13.5568L11.9542 12.975L12.4199 12.5393C12.4804 12.4831 12.4342 12.3824 12.352 12.3913Z" fill="#FFE15A"/>
</svg>
