<svg width="40" height="25" viewBox="0 0 40 25" fill="none" xmlns="http://www.w3.org/2000/svg">
<g clip-path="url(#clip0_319_3982)">
<path opacity="0.07" d="M36.8421 0H3.15789C1.36842 0 0 1.35417 0 3.125V21.875C0 23.6458 1.47368 25 3.15789 25H36.8421C38.6316 25 40 23.6458 40 21.875V3.125C40 1.35417 38.5263 0 36.8421 0Z" fill="black"/>
<path d="M36.8422 1.0415C38.0001 1.0415 38.9475 1.979 38.9475 3.12484V21.8748C38.9475 23.0207 38.0001 23.9582 36.8422 23.9582H3.158C2.0001 23.9582 1.05273 23.0207 1.05273 21.8748V3.12484C1.05273 1.979 2.0001 1.0415 3.158 1.0415H36.8422Z" fill="white"/>
<path d="M15.7893 19.7918C19.8588 19.7918 23.1577 16.5272 23.1577 12.5002C23.1577 8.47309 19.8588 5.2085 15.7893 5.2085C11.7199 5.2085 8.4209 8.47309 8.4209 12.5002C8.4209 16.5272 11.7199 19.7918 15.7893 19.7918Z" fill="#EB001B"/>
<path d="M24.2107 19.7918C28.2802 19.7918 31.5791 16.5272 31.5791 12.5002C31.5791 8.47309 28.2802 5.2085 24.2107 5.2085C20.1412 5.2085 16.8423 8.47309 16.8423 12.5002C16.8423 16.5272 20.1412 19.7918 24.2107 19.7918Z" fill="#F79E1B"/>
<path d="M23.1581 12.5C23.1581 10 21.8949 7.8125 20.0002 6.5625C18.1054 7.91667 16.8423 10.1042 16.8423 12.5C16.8423 14.8958 18.1054 17.1875 20.0002 18.4375C21.8949 17.1875 23.1581 15 23.1581 12.5Z" fill="#FF5F00"/>
</g>
<defs>
<clipPath id="clip0_319_3982">
<rect width="40" height="25" fill="white"/>
</clipPath>
</defs>
</svg>
