<svg width="474" height="278" viewBox="0 0 474 278" fill="none" xmlns="http://www.w3.org/2000/svg">
<g opacity="0.6" clip-path="url(#clip0_81_1492)">
<path fill-rule="evenodd" clip-rule="evenodd" d="M246.709 70.1898L208.791 0L32.9136 21.5042L83.9787 95.056L246.709 70.1898Z" fill="url(#paint0_radial_81_1492)"/>
<path fill-rule="evenodd" clip-rule="evenodd" d="M32.9136 21.5042L31.3613 24.771L83.9787 95.056L87.8751 94.4534L32.9136 21.5042Z" fill="url(#paint1_radial_81_1492)"/>
<path fill-rule="evenodd" clip-rule="evenodd" d="M83.9789 95.056L98.8993 219.958C98.8993 219.958 155.698 249.55 235.052 278V127.598L83.9473 95.056H83.9789Z" fill="url(#paint2_radial_81_1492)"/>
<path fill-rule="evenodd" clip-rule="evenodd" d="M235.052 127.598L392.619 88.903L374.182 220.846C374.182 220.846 338.766 251.358 235.052 278.032V127.629V127.598Z" fill="url(#paint3_radial_81_1492)"/>
<path fill-rule="evenodd" clip-rule="evenodd" d="M83.9785 95.056L246.709 70.1898L392.65 88.9029L235.052 127.598L83.9785 95.056Z" fill="url(#paint4_radial_81_1492)"/>
<path fill-rule="evenodd" clip-rule="evenodd" d="M99.4375 94.4217L235.052 123.633L370.697 88.903L248.673 71.9661L99.4375 94.4217Z" fill="url(#paint5_radial_81_1492)"/>
<path fill-rule="evenodd" clip-rule="evenodd" d="M235.052 127.598L165.36 79.8318C165.36 79.8318 51.3819 69.27 0 50.1447L83.9787 95.056L235.083 127.598H235.052Z" fill="#D2715E"/>
<path fill-rule="evenodd" clip-rule="evenodd" d="M0 50.1446L1.33048 46.8461C1.33048 46.8461 60.4419 70.1581 167.166 74.1227L165.36 79.8318C165.36 79.8318 61.9308 71.5854 0 50.1446Z" fill="url(#paint6_radial_81_1492)"/>
<path fill-rule="evenodd" clip-rule="evenodd" d="M167.166 74.0911L235.052 123.633V127.598L165.36 79.8318L167.166 74.0911Z" fill="url(#paint7_radial_81_1492)"/>
<path fill-rule="evenodd" clip-rule="evenodd" d="M246.709 70.1898C246.709 70.1898 257.797 48.083 276.233 8.50012H444.888L392.619 88.8711L246.678 70.1898H246.709Z" fill="url(#paint8_radial_81_1492)"/>
<path fill-rule="evenodd" clip-rule="evenodd" d="M444.92 8.53186L447.454 13.2577L391.795 95.056L392.651 88.9029L444.92 8.53186Z" fill="url(#paint9_radial_81_1492)"/>
<path fill-rule="evenodd" clip-rule="evenodd" d="M392.65 88.9029L235.083 127.598L286.908 150.402C286.908 150.402 363.031 148.658 391.066 137.874C419.101 127.09 474.031 95.5318 474.031 95.5318L392.65 88.8712V88.9029Z" fill="url(#paint10_radial_81_1492)"/>
<path fill-rule="evenodd" clip-rule="evenodd" d="M474 95.5317L472.099 100.733C472.099 100.733 429.365 127.598 389.578 141.68C348.934 156.048 286.909 156.524 286.909 156.524V150.434C286.909 150.434 356.791 149.482 391.066 137.906C413.653 130.262 474.031 95.5635 474.031 95.5635L474 95.5317Z" fill="url(#paint11_radial_81_1492)"/>
<path fill-rule="evenodd" clip-rule="evenodd" d="M235.052 125.6V129.85L286.909 156.492V150.402L235.052 125.6Z" fill="#EE946E"/>
<path opacity="0.5" fill-rule="evenodd" clip-rule="evenodd" d="M165.392 240.796V204.765L218.769 221.639L216.52 257.891L165.392 240.796Z" fill="#FFFFCE"/>
<g style="mix-blend-mode:multiply" opacity="0.5">
<path d="M212.972 254.371L169.256 239.749V208.381L214.936 222.781L212.972 254.371ZM170.935 238.576L211.483 252.119L213.226 223.986L170.935 210.633V238.576Z" fill="#C1748D"/>
</g>
<g style="mix-blend-mode:multiply" opacity="0.5">
<path fill-rule="evenodd" clip-rule="evenodd" d="M176.764 216.057L204.768 224.874V229.695L176.764 220.846V216.057Z" fill="#C1748D"/>
</g>
<g style="mix-blend-mode:multiply" opacity="0.5">
<path fill-rule="evenodd" clip-rule="evenodd" d="M176.764 225.159L204.768 234.008V236.419L176.764 227.57V225.159Z" fill="#C1748D"/>
</g>
<path d="M151.295 228.521L156.332 230.107V215.359L152.499 214.153L151.295 228.521Z" fill="#5A4153"/>
<path d="M149.141 214.724L159.848 218.118L154.494 205.051L149.141 214.724Z" fill="#5A4153"/>
<path d="M135.868 223.637L140.905 225.223V210.506L137.071 209.301L135.868 223.637Z" fill="#5A4153"/>
<path d="M133.713 209.872L144.421 213.234L139.067 200.198L133.713 209.872Z" fill="#5A4153"/>
<path opacity="0.36" d="M0 50.1447C0 50.1447 78.4351 77.6751 165.36 79.8318L232.771 126.044L235.052 127.598V129.85V186.528L86.7347 118.336L83.9471 95.056L0 50.1447Z" fill="#791B40"/>
<g style="mix-blend-mode:soft-light" opacity="0.58">
<path d="M248.673 71.9661V119.637L370.698 88.903L248.673 71.9661Z" fill="#FFDD98"/>
</g>
<path style="mix-blend-mode:multiply" opacity="0.5" fill-rule="evenodd" clip-rule="evenodd" d="M98.8989 219.958C98.8989 219.958 124.495 211.109 149.14 218.118C174.23 225.255 218.769 272.037 218.769 272.037C218.769 272.037 129.944 237.878 98.8989 219.958Z" fill="url(#paint12_linear_81_1492)"/>
<g style="mix-blend-mode:multiply" opacity="0.5">
<path fill-rule="evenodd" clip-rule="evenodd" d="M244.746 177.711C245.189 180.026 246.361 181.295 249.086 180.724C250.828 180.375 251.873 178.853 251.557 177.013C251.24 175.142 249.339 173.587 247.407 173.841C245.443 174.095 244.429 176.632 244.746 177.711Z" fill="#E3D9D2"/>
<path fill-rule="evenodd" clip-rule="evenodd" d="M310.509 204.004C310.731 201.403 313.455 199.976 315.736 199.722C317.668 199.5 319.442 200.039 321.09 201.118C322.705 202.164 324.004 203.972 323.18 205.939C322.895 206.573 322.103 208 321.565 208.444C320.709 209.142 319.031 208.666 318.049 208.508C316.306 208.222 315.641 207.62 314.437 206.478C313.328 205.463 310.414 206.288 310.509 203.972V204.004Z" fill="#E3D9D2"/>
<path fill-rule="evenodd" clip-rule="evenodd" d="M246.488 167.688C244.967 168.322 242.813 170.67 244.999 171.621C246.203 172.16 249.909 171.462 250.891 170.701C254.977 167.561 248.515 164.865 245.822 168.164L246.456 167.688H246.488Z" fill="#E3D9D2"/>
<path fill-rule="evenodd" clip-rule="evenodd" d="M248.452 187.797C249.941 185.164 252.665 188.177 250.891 189.668C249.687 190.683 248.325 189.668 248.135 188.368L248.452 187.797Z" fill="#E3D9D2"/>
<path fill-rule="evenodd" clip-rule="evenodd" d="M252.507 177.838C253.489 176.093 255.326 178.091 254.122 179.075C253.331 179.741 252.412 179.075 252.285 178.218L252.475 177.838H252.507Z" fill="#E3D9D2"/>
<path fill-rule="evenodd" clip-rule="evenodd" d="M209.646 158.649C206.225 163.248 212.497 168.64 214.968 163.089C216.299 160.108 213.733 156.492 210.818 158.649H209.646Z" fill="#E3D9D2"/>
<path fill-rule="evenodd" clip-rule="evenodd" d="M219.973 171.97C219.53 171.082 219.086 171.304 218.611 171.875C217.788 172.826 218.326 173.017 218.896 173.746C220.163 175.332 221.304 175.3 223.046 174.19C224.44 173.302 226.784 170.828 224.25 169.591C223.173 169.052 220.892 169.845 220.258 170.638L219.973 171.97Z" fill="#E3D9D2"/>
<path fill-rule="evenodd" clip-rule="evenodd" d="M214.366 173.746C214.113 171.462 217.471 174.412 216.014 175.649C214.778 176.696 213.986 174.507 214.366 173.619V173.778V173.746Z" fill="#E3D9D2"/>
<path fill-rule="evenodd" clip-rule="evenodd" d="M221.177 165.912C222.127 167.403 224.06 165.309 223.363 164.326C222.539 163.153 221.335 165.056 221.019 165.626L221.177 165.912Z" fill="#E3D9D2"/>
<path fill-rule="evenodd" clip-rule="evenodd" d="M185.127 192.84C185.698 190.968 188.01 192.713 188.264 193.886C188.644 195.567 187.218 197.756 185.413 197.914C182.688 198.168 181.96 193.918 184.367 192.967L185.096 192.808L185.127 192.84Z" fill="#E3D9D2"/>
<path fill-rule="evenodd" clip-rule="evenodd" d="M210.66 196.233C209.044 198.612 214.556 199.12 214.493 196.424C214.461 194.299 211.262 194.299 210.66 196.107V196.265V196.233Z" fill="#E3D9D2"/>
<path fill-rule="evenodd" clip-rule="evenodd" d="M187.788 149.8C186.68 148.341 188.169 146.152 189.879 146.406C192.128 146.723 192.16 149.831 191.4 151.354C189.752 154.716 185.127 152.432 187.028 149.197L187.757 149.8H187.788Z" fill="#E3D9D2"/>
<path fill-rule="evenodd" clip-rule="evenodd" d="M220.575 142.536C218.611 147.199 226.214 145.55 226.626 141.807C227.132 137.271 221.114 138.477 220.575 142.536Z" fill="#E3D9D2"/>
<path fill-rule="evenodd" clip-rule="evenodd" d="M322.769 197.724C320.615 200.674 326.253 202.101 326.729 198.39C325.588 196.931 323.529 196.614 322.167 198.01L322.769 197.692V197.724Z" fill="#E3D9D2"/>
<path fill-rule="evenodd" clip-rule="evenodd" d="M293.276 233.406C298.028 227.316 307.183 224.937 313.709 229.409C315.419 230.583 317.859 232.708 315.831 234.611C314.057 236.26 305.567 234.611 303.192 234.611C299.77 234.611 296.222 234.738 293.276 233.374V233.406Z" fill="#E3D9D2"/>
<path fill-rule="evenodd" clip-rule="evenodd" d="M276.709 230.329C277.089 233.057 281.873 232.105 281.176 229.853C280.7 228.363 278.103 227.982 277.628 229.409L276.709 230.329Z" fill="#E3D9D2"/>
<path fill-rule="evenodd" clip-rule="evenodd" d="M102.384 146.533C101.497 150.751 106.85 149.895 106.85 146.533C106.85 143.71 103.176 142.727 102.384 145.676V146.565V146.533Z" fill="#E3D9D2"/>
<path fill-rule="evenodd" clip-rule="evenodd" d="M214.968 213.519C215.411 212.821 215.982 212.377 216.71 212.187C219.466 215.835 213.321 218.309 214.968 213.963V213.519Z" fill="#E3D9D2"/>
<path fill-rule="evenodd" clip-rule="evenodd" d="M62.6913 36.1574C58.4147 47.0681 76.3762 39.456 78.9738 34.413C81.6665 29.1797 74.824 28.3233 70.9593 29.0211C66.3976 29.8457 62.8497 33.1443 62.6913 36.1257V36.1574Z" fill="#E3D9D2"/>
<path fill-rule="evenodd" clip-rule="evenodd" d="M79.5122 38.79C79.9557 36.3795 84.4857 34.2545 83.9155 37.9336C83.5987 39.9952 80.6843 41.3591 79.8923 39.1389L79.5122 38.7583V38.79Z" fill="#E3D9D2"/>
<path fill-rule="evenodd" clip-rule="evenodd" d="M311.333 39.5195C306.835 45.7995 325.683 45.8946 326.538 39.6146C327.425 33.1761 313.012 35.3646 310.921 39.1389L311.301 39.5195H311.333Z" fill="#E3D9D2"/>
<path fill-rule="evenodd" clip-rule="evenodd" d="M324.543 32.1294C324.923 28.2282 330.308 29.9409 329.168 32.288C328.218 34.2227 325.493 32.8271 324.543 31.7488V32.1294Z" fill="#E3D9D2"/>
<path fill-rule="evenodd" clip-rule="evenodd" d="M338.925 36.7917C340.699 36.76 342.378 36.3477 343.93 35.5865C343.486 32.0659 339.146 32.8905 338.101 35.5865C338.259 36.1574 338.608 36.0305 338.925 36.3794V36.76V36.7917Z" fill="#E3D9D2"/>
<path fill-rule="evenodd" clip-rule="evenodd" d="M289.57 44.2136C289.538 42.7546 289.95 41.9934 291.439 41.9299C293.276 43.4206 292.801 46.3703 290.362 45.7677L289.57 44.2136Z" fill="#E3D9D2"/>
<path fill-rule="evenodd" clip-rule="evenodd" d="M285.103 199.056C278.356 204.734 292.865 203.053 286.339 199.881L285.103 199.056Z" fill="#E3D9D2"/>
<path fill-rule="evenodd" clip-rule="evenodd" d="M256.435 214.344C254.787 216.057 255.421 219.577 258.367 218.309C260.616 217.325 260.109 213.392 257.353 214.661L256.435 214.344Z" fill="#E3D9D2"/>
<path fill-rule="evenodd" clip-rule="evenodd" d="M269.93 223.573C270.468 221.702 272.844 221.67 272.717 223.573C272.622 225.159 271.038 225.001 270.532 223.891L269.93 223.573Z" fill="#E3D9D2"/>
<path fill-rule="evenodd" clip-rule="evenodd" d="M138.307 144.313C139.321 143.71 140.113 142.949 140.715 141.966C139.099 140.57 139.036 141.648 138.307 142.98V144.313Z" fill="#E3D9D2"/>
</g>
<path style="mix-blend-mode:multiply" opacity="0.69" fill-rule="evenodd" clip-rule="evenodd" d="M384.414 140.221C384.414 140.221 320.329 121.413 288.049 119.637C255.769 117.861 235.052 125.599 235.052 125.599L286.877 150.402C286.877 150.402 354.637 148.785 384.382 140.221H384.414Z" fill="url(#paint13_linear_81_1492)"/>
</g>
<defs>
<radialGradient id="paint0_radial_81_1492" cx="0" cy="0" r="1" gradientUnits="userSpaceOnUse" gradientTransform="translate(140.429 5.3919) scale(76.5661 76.6601)">
<stop offset="0.02" stop-color="#FFA874"/>
<stop offset="1" stop-color="#F49372"/>
</radialGradient>
<radialGradient id="paint1_radial_81_1492" cx="0" cy="0" r="1" gradientUnits="userSpaceOnUse" gradientTransform="translate(59.7766 25.6908) scale(41.1816 41.2322)">
<stop stop-color="#FFCF84"/>
<stop offset="0.98" stop-color="#FFB88B"/>
</radialGradient>
<radialGradient id="paint2_radial_81_1492" cx="0" cy="0" r="1" gradientUnits="userSpaceOnUse" gradientTransform="translate(159.943 105.459) scale(103.588 103.715)">
<stop offset="0.02" stop-color="#FFA874"/>
<stop offset="1" stop-color="#F49372"/>
</radialGradient>
<radialGradient id="paint3_radial_81_1492" cx="0" cy="0" r="1" gradientUnits="userSpaceOnUse" gradientTransform="translate(297.616 220.148) scale(107.231 107.362)">
<stop offset="0.02" stop-color="#BD4D4D"/>
<stop offset="1" stop-color="#9F3E54"/>
</radialGradient>
<radialGradient id="paint4_radial_81_1492" cx="0" cy="0" r="1" gradientUnits="userSpaceOnUse" gradientTransform="translate(239.201 73.4567) scale(89.6491 89.7593)">
<stop stop-color="#FFCF84"/>
<stop offset="0.98" stop-color="#FFB88B"/>
</radialGradient>
<radialGradient id="paint5_radial_81_1492" cx="0" cy="0" r="1" gradientUnits="userSpaceOnUse" gradientTransform="translate(235.844 74.884) scale(78.9736 79.0706)">
<stop offset="0.02" stop-color="#BD4D4D"/>
<stop offset="1" stop-color="#9F3E54"/>
</radialGradient>
<radialGradient id="paint6_radial_81_1492" cx="0" cy="0" r="1" gradientUnits="userSpaceOnUse" gradientTransform="translate(84.0738 48.7174) scale(48.8794 48.9394)">
<stop stop-color="#FFCF84"/>
<stop offset="0.98" stop-color="#FFB88B"/>
</radialGradient>
<radialGradient id="paint7_radial_81_1492" cx="0" cy="0" r="1" gradientUnits="userSpaceOnUse" gradientTransform="translate(200.428 77.1359) scale(33.7055 33.7469)">
<stop offset="0.02" stop-color="#BD4D4D"/>
<stop offset="1" stop-color="#9F3E54"/>
</radialGradient>
<radialGradient id="paint8_radial_81_1492" cx="0" cy="0" r="1" gradientUnits="userSpaceOnUse" gradientTransform="translate(346.369 13.0991) scale(68.4565 68.5406)">
<stop stop-color="#FFCF84"/>
<stop offset="0.98" stop-color="#FFB88B"/>
</radialGradient>
<radialGradient id="paint9_radial_81_1492" cx="0" cy="0" r="1" gradientUnits="userSpaceOnUse" gradientTransform="translate(419.799 13.448) scale(47.4222 47.4804)">
<stop offset="0.02" stop-color="#BD4D4D"/>
<stop offset="1" stop-color="#9F3E54"/>
</radialGradient>
<radialGradient id="paint10_radial_81_1492" cx="0" cy="0" r="1" gradientUnits="userSpaceOnUse" gradientTransform="translate(355.238 92.3918) scale(72.828 72.9175)">
<stop stop-color="#FFCF84"/>
<stop offset="0.98" stop-color="#FFB88B"/>
</radialGradient>
<radialGradient id="paint11_radial_81_1492" cx="0" cy="0" r="1" gradientUnits="userSpaceOnUse" gradientTransform="translate(380.993 99.0206) scale(60.2201 60.2941)">
<stop offset="0.02" stop-color="#BD4D4D"/>
<stop offset="1" stop-color="#9F3E54"/>
</radialGradient>
<linearGradient id="paint12_linear_81_1492" x1="98.8989" y1="243.714" x2="218.769" y2="243.714" gradientUnits="userSpaceOnUse">
<stop stop-color="#D3B8D6"/>
<stop offset="1" stop-color="white"/>
</linearGradient>
<linearGradient id="paint13_linear_81_1492" x1="235.052" y1="134.893" x2="384.414" y2="134.893" gradientUnits="userSpaceOnUse">
<stop stop-color="white"/>
<stop offset="1" stop-color="#D3B8D6"/>
</linearGradient>
<clipPath id="clip0_81_1492">
<rect width="474" height="278" fill="white"/>
</clipPath>
</defs>
</svg>
