<svg width="35" height="35" viewBox="0 0 35 35" fill="none" xmlns="http://www.w3.org/2000/svg">
<path d="M17 13.8344C14.7063 13.8344 12.8344 15.7063 12.8344 18C12.8344 20.2938 14.7063 22.1657 17 22.1657C19.2938 22.1657 21.1657 20.2938 21.1657 18C21.1657 15.7063 19.2938 13.8344 17 13.8344ZM29.4938 18C29.4938 16.275 29.5094 14.5657 29.4125 12.8438C29.3157 10.8438 28.8594 9.06879 27.3969 7.60629C25.9313 6.14066 24.1594 5.68754 22.1594 5.59066C20.4344 5.49379 18.725 5.50941 17.0031 5.50941C15.2781 5.50941 13.5688 5.49379 11.8469 5.59066C9.8469 5.68754 8.0719 6.14379 6.6094 7.60629C5.14378 9.07191 4.69065 10.8438 4.59378 12.8438C4.4969 14.5688 4.51253 16.2782 4.51253 18C4.51253 19.7219 4.4969 21.4344 4.59378 23.1563C4.69065 25.1563 5.1469 26.9313 6.6094 28.3938C8.07503 29.8594 9.8469 30.3125 11.8469 30.4094C13.5719 30.5063 15.2813 30.4907 17.0031 30.4907C18.7282 30.4907 20.4375 30.5063 22.1594 30.4094C24.1594 30.3125 25.9344 29.8563 27.3969 28.3938C28.8625 26.9282 29.3157 25.1563 29.4125 23.1563C29.5125 21.4344 29.4938 19.725 29.4938 18ZM17 24.4094C13.4532 24.4094 10.5907 21.5469 10.5907 18C10.5907 14.4532 13.4532 11.5907 17 11.5907C20.5469 11.5907 23.4094 14.4532 23.4094 18C23.4094 21.5469 20.5469 24.4094 17 24.4094ZM23.6719 12.825C22.8438 12.825 22.175 12.1563 22.175 11.3282C22.175 10.5 22.8438 9.83129 23.6719 9.83129C24.5 9.83129 25.1688 10.5 25.1688 11.3282C25.169 11.5248 25.1305 11.7196 25.0553 11.9013C24.9802 12.083 24.8699 12.2481 24.7309 12.3872C24.5919 12.5262 24.4267 12.6365 24.245 12.7116C24.0633 12.7867 23.8685 12.8253 23.6719 12.825Z" fill="#353432"/>
</svg>
