<svg width="1920" height="1255" viewBox="0 0 1920 1255" fill="none" xmlns="http://www.w3.org/2000/svg">
<rect width="1920" height="1255" fill="white"/>
<g opacity="0.6" clip-path="url(#clip0_5_28)">
<path fill-rule="evenodd" clip-rule="evenodd" d="M969.709 589.19L931.791 519L755.914 540.504L806.979 614.056L969.709 589.19Z" fill="url(#paint0_radial_5_28)"/>
<path fill-rule="evenodd" clip-rule="evenodd" d="M755.914 540.504L754.361 543.771L806.979 614.056L810.875 613.453L755.914 540.504Z" fill="url(#paint1_radial_5_28)"/>
<path fill-rule="evenodd" clip-rule="evenodd" d="M806.979 614.056L821.899 738.958C821.899 738.958 878.698 768.55 958.052 797V646.598L806.947 614.056H806.979Z" fill="url(#paint2_radial_5_28)"/>
<path fill-rule="evenodd" clip-rule="evenodd" d="M958.052 646.598L1115.62 607.903L1097.18 739.846C1097.18 739.846 1061.77 770.358 958.052 797.032V646.629V646.598Z" fill="url(#paint3_radial_5_28)"/>
<path fill-rule="evenodd" clip-rule="evenodd" d="M806.979 614.056L969.709 589.19L1115.65 607.903L958.052 646.598L806.979 614.056Z" fill="url(#paint4_radial_5_28)"/>
<path fill-rule="evenodd" clip-rule="evenodd" d="M822.438 613.422L958.052 642.633L1093.7 607.903L971.673 590.966L822.438 613.422Z" fill="url(#paint5_radial_5_28)"/>
<path fill-rule="evenodd" clip-rule="evenodd" d="M958.052 646.598L888.36 598.832C888.36 598.832 774.382 588.27 723 569.145L806.979 614.056L958.083 646.598H958.052Z" fill="#D2715E"/>
<path fill-rule="evenodd" clip-rule="evenodd" d="M723 569.145L724.33 565.846C724.33 565.846 783.442 589.158 890.166 593.123L888.36 598.832C888.36 598.832 784.931 590.585 723 569.145Z" fill="url(#paint6_radial_5_28)"/>
<path fill-rule="evenodd" clip-rule="evenodd" d="M890.166 593.091L958.052 642.633V646.598L888.36 598.832L890.166 593.091Z" fill="url(#paint7_radial_5_28)"/>
<path fill-rule="evenodd" clip-rule="evenodd" d="M969.709 589.19C969.709 589.19 980.797 567.083 999.233 527.5H1167.89L1115.62 607.871L969.678 589.19H969.709Z" fill="url(#paint8_radial_5_28)"/>
<path fill-rule="evenodd" clip-rule="evenodd" d="M1167.92 527.532L1170.45 532.258L1114.8 614.056L1115.65 607.903L1167.92 527.532Z" fill="url(#paint9_radial_5_28)"/>
<path fill-rule="evenodd" clip-rule="evenodd" d="M1115.65 607.903L958.083 646.598L1009.91 669.402C1009.91 669.402 1086.03 667.658 1114.07 656.874C1142.1 646.09 1197.03 614.532 1197.03 614.532L1115.65 607.871V607.903Z" fill="url(#paint10_radial_5_28)"/>
<path fill-rule="evenodd" clip-rule="evenodd" d="M1197 614.532L1195.1 619.733C1195.1 619.733 1152.37 646.598 1112.58 660.68C1071.93 675.048 1009.91 675.524 1009.91 675.524V669.434C1009.91 669.434 1079.79 668.482 1114.07 656.906C1136.65 649.262 1197.03 614.563 1197.03 614.563L1197 614.532Z" fill="url(#paint11_radial_5_28)"/>
<path fill-rule="evenodd" clip-rule="evenodd" d="M958.052 644.6V648.85L1009.91 675.492V669.402L958.052 644.6Z" fill="#EE946E"/>
<path opacity="0.5" fill-rule="evenodd" clip-rule="evenodd" d="M888.392 759.796V723.765L941.769 740.639L939.52 776.891L888.392 759.796Z" fill="#FFFFCE"/>
<g style="mix-blend-mode:multiply" opacity="0.5">
<path d="M935.972 773.371L892.256 758.749V727.381L937.936 741.781L935.972 773.371ZM893.935 757.576L934.483 771.119L936.226 742.986L893.935 729.633V757.576Z" fill="#C1748D"/>
</g>
<g style="mix-blend-mode:multiply" opacity="0.5">
<path fill-rule="evenodd" clip-rule="evenodd" d="M899.764 735.057L927.768 743.874V748.695L899.764 739.846V735.057Z" fill="#C1748D"/>
</g>
<g style="mix-blend-mode:multiply" opacity="0.5">
<path fill-rule="evenodd" clip-rule="evenodd" d="M899.764 744.159L927.768 753.008V755.419L899.764 746.57V744.159Z" fill="#C1748D"/>
</g>
<path d="M874.295 747.521L879.332 749.107V734.359L875.498 733.153L874.295 747.521Z" fill="#5A4153"/>
<path d="M872.141 733.724L882.848 737.118L877.494 724.051L872.141 733.724Z" fill="#5A4153"/>
<path d="M858.867 742.637L863.904 744.223V729.506L860.071 728.301L858.867 742.637Z" fill="#5A4153"/>
<path d="M856.713 728.872L867.421 732.234L862.067 719.198L856.713 728.872Z" fill="#5A4153"/>
<path opacity="0.36" d="M723 569.145C723 569.145 801.435 596.675 888.36 598.832L955.771 645.044L958.052 646.598V648.85V705.528L809.735 637.336L806.947 614.056L723 569.145Z" fill="#791B40"/>
<g style="mix-blend-mode:soft-light" opacity="0.58">
<path d="M971.673 590.966V638.637L1093.7 607.903L971.673 590.966Z" fill="#FFDD98"/>
</g>
<path style="mix-blend-mode:multiply" opacity="0.5" fill-rule="evenodd" clip-rule="evenodd" d="M821.899 738.958C821.899 738.958 847.495 730.109 872.141 737.118C897.23 744.255 941.769 791.037 941.769 791.037C941.769 791.037 852.944 756.878 821.899 738.958Z" fill="url(#paint12_linear_5_28)"/>
<g style="mix-blend-mode:multiply" opacity="0.5">
<path fill-rule="evenodd" clip-rule="evenodd" d="M967.745 696.711C968.189 699.026 969.361 700.295 972.085 699.724C973.827 699.375 974.873 697.853 974.556 696.013C974.239 694.142 972.339 692.587 970.406 692.841C968.442 693.095 967.428 695.632 967.745 696.711Z" fill="#E3D9D2"/>
<path fill-rule="evenodd" clip-rule="evenodd" d="M1033.51 723.004C1033.73 720.403 1036.46 718.976 1038.74 718.722C1040.67 718.5 1042.44 719.039 1044.09 720.118C1045.71 721.164 1047 722.972 1046.18 724.939C1045.9 725.573 1045.1 727 1044.56 727.444C1043.71 728.142 1042.03 727.666 1041.05 727.508C1039.31 727.222 1038.64 726.62 1037.44 725.478C1036.33 724.463 1033.41 725.288 1033.51 722.972V723.004Z" fill="#E3D9D2"/>
<path fill-rule="evenodd" clip-rule="evenodd" d="M969.488 686.688C967.967 687.322 965.813 689.67 967.999 690.621C969.203 691.16 972.909 690.462 973.891 689.701C977.977 686.561 971.515 683.865 968.822 687.164L969.456 686.688H969.488Z" fill="#E3D9D2"/>
<path fill-rule="evenodd" clip-rule="evenodd" d="M971.452 706.797C972.94 704.164 975.665 707.177 973.891 708.668C972.687 709.683 971.325 708.668 971.135 707.368L971.452 706.797Z" fill="#E3D9D2"/>
<path fill-rule="evenodd" clip-rule="evenodd" d="M975.506 696.838C976.488 695.093 978.326 697.091 977.122 698.075C976.33 698.741 975.411 698.075 975.285 697.218L975.475 696.838H975.506Z" fill="#E3D9D2"/>
<path fill-rule="evenodd" clip-rule="evenodd" d="M932.646 677.649C929.225 682.248 935.497 687.64 937.968 682.089C939.298 679.108 936.732 675.492 933.818 677.649H932.646Z" fill="#E3D9D2"/>
<path fill-rule="evenodd" clip-rule="evenodd" d="M942.973 690.97C942.53 690.082 942.086 690.304 941.611 690.875C940.787 691.826 941.326 692.017 941.896 692.746C943.163 694.332 944.304 694.3 946.046 693.19C947.44 692.302 949.784 689.828 947.25 688.591C946.173 688.052 943.892 688.845 943.258 689.638L942.973 690.97Z" fill="#E3D9D2"/>
<path fill-rule="evenodd" clip-rule="evenodd" d="M937.366 692.746C937.112 690.462 940.47 693.412 939.013 694.649C937.778 695.696 936.986 693.507 937.366 692.619V692.778V692.746Z" fill="#E3D9D2"/>
<path fill-rule="evenodd" clip-rule="evenodd" d="M944.177 684.912C945.127 686.403 947.059 684.309 946.363 683.326C945.539 682.153 944.335 684.056 944.018 684.626L944.177 684.912Z" fill="#E3D9D2"/>
<path fill-rule="evenodd" clip-rule="evenodd" d="M908.127 711.84C908.697 709.968 911.01 711.713 911.263 712.886C911.643 714.567 910.218 716.756 908.412 716.914C905.688 717.168 904.959 712.918 907.367 711.967L908.095 711.808L908.127 711.84Z" fill="#E3D9D2"/>
<path fill-rule="evenodd" clip-rule="evenodd" d="M933.659 715.233C932.044 717.612 937.556 718.12 937.493 715.424C937.461 713.299 934.261 713.299 933.659 715.107V715.265V715.233Z" fill="#E3D9D2"/>
<path fill-rule="evenodd" clip-rule="evenodd" d="M910.788 668.8C909.679 667.341 911.168 665.152 912.879 665.406C915.128 665.723 915.16 668.831 914.399 670.354C912.752 673.716 908.127 671.432 910.028 668.197L910.756 668.8H910.788Z" fill="#E3D9D2"/>
<path fill-rule="evenodd" clip-rule="evenodd" d="M943.575 661.536C941.611 666.199 949.213 664.55 949.625 660.807C950.132 656.271 944.113 657.477 943.575 661.536Z" fill="#E3D9D2"/>
<path fill-rule="evenodd" clip-rule="evenodd" d="M1045.77 716.724C1043.61 719.674 1049.25 721.101 1049.73 717.39C1048.59 715.931 1046.53 715.614 1045.17 717.01L1045.77 716.692V716.724Z" fill="#E3D9D2"/>
<path fill-rule="evenodd" clip-rule="evenodd" d="M1016.28 752.406C1021.03 746.316 1030.18 743.937 1036.71 748.409C1038.42 749.583 1040.86 751.708 1038.83 753.611C1037.06 755.26 1028.57 753.611 1026.19 753.611C1022.77 753.611 1019.22 753.738 1016.28 752.374V752.406Z" fill="#E3D9D2"/>
<path fill-rule="evenodd" clip-rule="evenodd" d="M999.708 749.329C1000.09 752.057 1004.87 751.105 1004.18 748.853C1003.7 747.363 1001.1 746.982 1000.63 748.409L999.708 749.329Z" fill="#E3D9D2"/>
<path fill-rule="evenodd" clip-rule="evenodd" d="M825.384 665.533C824.497 669.751 829.85 668.895 829.85 665.533C829.85 662.71 826.176 661.727 825.384 664.676V665.565V665.533Z" fill="#E3D9D2"/>
<path fill-rule="evenodd" clip-rule="evenodd" d="M937.968 732.519C938.411 731.821 938.982 731.377 939.71 731.187C942.466 734.835 936.321 737.309 937.968 732.963V732.519Z" fill="#E3D9D2"/>
<path fill-rule="evenodd" clip-rule="evenodd" d="M785.691 555.157C781.414 566.068 799.376 558.456 801.974 553.413C804.666 548.18 797.824 547.323 793.959 548.021C789.397 548.846 785.849 552.144 785.691 555.126V555.157Z" fill="#E3D9D2"/>
<path fill-rule="evenodd" clip-rule="evenodd" d="M802.512 557.79C802.956 555.379 807.486 553.254 806.915 556.934C806.599 558.995 803.684 560.359 802.892 558.139L802.512 557.758V557.79Z" fill="#E3D9D2"/>
<path fill-rule="evenodd" clip-rule="evenodd" d="M1034.33 558.519C1029.83 564.799 1048.68 564.895 1049.54 558.615C1050.43 552.176 1036.01 554.365 1033.92 558.139L1034.3 558.519H1034.33Z" fill="#E3D9D2"/>
<path fill-rule="evenodd" clip-rule="evenodd" d="M1047.54 551.129C1047.92 547.228 1053.31 548.941 1052.17 551.288C1051.22 553.223 1048.49 551.827 1047.54 550.749V551.129Z" fill="#E3D9D2"/>
<path fill-rule="evenodd" clip-rule="evenodd" d="M1061.92 555.792C1063.7 555.76 1065.38 555.348 1066.93 554.586C1066.49 551.066 1062.15 551.891 1061.1 554.586C1061.26 555.157 1061.61 555.031 1061.92 555.379V555.76V555.792Z" fill="#E3D9D2"/>
<path fill-rule="evenodd" clip-rule="evenodd" d="M1012.57 563.214C1012.54 561.755 1012.95 560.993 1014.44 560.93C1016.28 562.421 1015.8 565.37 1013.36 564.768L1012.57 563.214Z" fill="#E3D9D2"/>
<path fill-rule="evenodd" clip-rule="evenodd" d="M1008.1 718.056C1001.36 723.734 1015.86 722.053 1009.34 718.881L1008.1 718.056Z" fill="#E3D9D2"/>
<path fill-rule="evenodd" clip-rule="evenodd" d="M979.434 733.344C977.787 735.057 978.421 738.577 981.367 737.309C983.616 736.325 983.109 732.392 980.353 733.661L979.434 733.344Z" fill="#E3D9D2"/>
<path fill-rule="evenodd" clip-rule="evenodd" d="M992.929 742.573C993.468 740.702 995.844 740.67 995.717 742.573C995.622 744.159 994.038 744.001 993.531 742.891L992.929 742.573Z" fill="#E3D9D2"/>
<path fill-rule="evenodd" clip-rule="evenodd" d="M861.307 663.313C862.32 662.71 863.112 661.949 863.714 660.966C862.099 659.57 862.035 660.648 861.307 661.98V663.313Z" fill="#E3D9D2"/>
</g>
<path style="mix-blend-mode:multiply" opacity="0.69" fill-rule="evenodd" clip-rule="evenodd" d="M1107.41 659.221C1107.41 659.221 1043.33 640.413 1011.05 638.637C978.769 636.861 958.052 644.599 958.052 644.599L1009.88 669.402C1009.88 669.402 1077.64 667.785 1107.38 659.221H1107.41Z" fill="url(#paint13_linear_5_28)"/>
</g>
<path d="M766.359 851.438H761.641V859H757.688V842.547C757.688 840.964 757.286 839.786 756.484 839.016C755.693 838.234 754.573 837.844 753.125 837.844C751.698 837.844 750.578 838.234 749.766 839.016C748.964 839.797 748.562 840.974 748.562 842.547V848.75H744.641V842.547C744.641 840.859 745 839.427 745.719 838.25C746.448 837.062 747.453 836.172 748.734 835.578C750.016 834.984 751.479 834.688 753.125 834.688C754.74 834.688 756.188 834.99 757.469 835.594C758.76 836.188 759.776 837.078 760.516 838.266C761.266 839.443 761.641 840.87 761.641 842.547V848.266H766.359V851.438ZM775.781 844.875C774.281 844.875 773.146 845.562 772.375 846.938V859H768.578V842.094H772.156L772.281 844.031C773.521 842.531 775.151 841.781 777.172 841.781C780.755 841.781 782.552 843.849 782.562 847.984V859H778.766V848.031C778.766 846.896 778.521 846.089 778.031 845.609C777.542 845.12 776.792 844.875 775.781 844.875ZM793.062 855.953V859H785.594V842.094H789.391V855.953H793.062ZM811.078 862.047H799.891V865.5H796.109V862.047H793.922V859H796.109V842.094H799.594L799.75 843.797C800.896 842.453 802.417 841.781 804.312 841.781C805.688 841.781 806.87 842.083 807.859 842.688C808.849 843.292 809.604 844.172 810.125 845.328C810.656 846.484 810.922 847.865 810.922 849.469V849.781C810.922 851.167 810.651 852.417 810.109 853.531C809.578 854.646 808.812 855.526 807.812 856.172C806.823 856.807 805.667 857.125 804.344 857.125C802.5 857.125 801.016 856.516 799.891 855.297V859H811.078V862.047ZM799.891 852.094C800.589 853.417 801.719 854.078 803.281 854.078C804.094 854.078 804.786 853.88 805.359 853.484C805.943 853.089 806.38 852.562 806.672 851.906C806.974 851.25 807.125 850.536 807.125 849.766V849.453C807.125 847.984 806.797 846.854 806.141 846.062C805.484 845.271 804.521 844.875 803.25 844.875C801.688 844.875 800.568 845.526 799.891 846.828V852.094ZM839.547 859H835.875V865.5H832.078V848.031C832.078 846.896 831.833 846.089 831.344 845.609C830.854 845.12 830.104 844.875 829.094 844.875C827.594 844.875 826.458 845.562 825.688 846.938V859H821.891V842.094H825.469L825.594 844.031C826.833 842.531 828.464 841.781 830.484 841.781C834.068 841.781 835.865 843.849 835.875 847.984V855.953H839.547V859ZM845.125 845.141V853.047C845.125 854.182 845.37 854.995 845.859 855.484C846.359 855.964 847.01 856.203 847.812 856.203C849.615 856.203 850.854 855.552 851.531 854.25V848.656H855.328V859H851.75L851.656 857.344C850.552 858.656 848.969 859.312 846.906 859.312C845.177 859.312 843.818 858.807 842.828 857.797C841.839 856.786 841.339 855.214 841.328 853.078V835H845.125V842.094H856.297V845.141H845.125ZM873.984 855.953V859H866.359V855.953C866.359 856.036 866.635 855.677 867.188 854.875C867.74 854.062 868.234 853.073 868.672 851.906C869.109 850.729 869.328 849.438 869.328 848.031C869.328 846.896 869.083 846.089 868.594 845.609C868.104 845.12 867.354 844.875 866.344 844.875C864.844 844.875 863.708 845.562 862.938 846.938V859H859.141V842.094H862.719L862.844 844.031C864.083 842.531 865.714 841.781 867.734 841.781C871.318 841.781 873.115 843.849 873.125 847.984C873.125 849.401 872.906 850.698 872.469 851.875C872.031 853.052 871.536 854.047 870.984 854.859C870.432 855.672 870.156 856.036 870.156 855.953H873.984ZM882.828 860.734C882.828 859.911 883.031 859.115 883.438 858.344C883.854 857.562 884.37 856.828 884.984 856.141C885.599 855.453 886.448 854.589 887.531 853.547L888.859 852.25C889.016 852.094 889.094 851.927 889.094 851.75C889.094 851.573 889.021 851.411 888.875 851.266C888.604 851.026 888.224 850.714 887.734 850.328C886.964 849.714 886.365 849.203 885.938 848.797C885.51 848.38 885.151 847.927 884.859 847.438C884.578 846.938 884.438 846.396 884.438 845.812C884.438 845.167 884.604 844.526 884.938 843.891C885.281 843.245 885.719 842.646 886.25 842.094H890.031C889.479 842.677 889.036 843.229 888.703 843.75C888.38 844.271 888.219 844.766 888.219 845.234C888.219 845.578 888.297 845.885 888.453 846.156C888.609 846.417 888.812 846.661 889.062 846.891C889.323 847.109 889.698 847.401 890.188 847.766C890.833 848.224 891.38 848.656 891.828 849.062C892.536 849.698 892.891 850.464 892.891 851.359C892.891 851.849 892.781 852.339 892.562 852.828C892.354 853.318 892.052 853.771 891.656 854.188L890.844 855.047C889.781 856.161 888.984 857.016 888.453 857.609C887.922 858.203 887.5 858.745 887.188 859.234C886.885 859.724 886.734 860.151 886.734 860.516C886.734 861.172 886.964 861.656 887.422 861.969C887.88 862.292 888.417 862.453 889.031 862.453H895.391V865.5H888.469C887.521 865.5 886.62 865.354 885.766 865.062C884.922 864.781 884.219 864.286 883.656 863.578C883.104 862.87 882.828 861.922 882.828 860.734ZM905.438 844.875C903.938 844.875 902.802 845.562 902.031 846.938V859H898.234V842.094H901.812L901.938 844.031C903.177 842.531 904.807 841.781 906.828 841.781C910.411 841.781 912.208 843.849 912.219 847.984V859H908.422V848.031C908.422 846.896 908.177 846.089 907.688 845.609C907.198 845.12 906.448 844.875 905.438 844.875ZM922.719 855.953V859H915.25V842.094H919.047V855.953H922.719ZM939 842.094V859H935.422L935.328 857.344C934.224 858.656 932.641 859.312 930.578 859.312C928.849 859.312 927.49 858.807 926.5 857.797C925.51 856.786 925.01 855.214 925 853.078V838.047H921.312V835H928.797V853.047C928.797 854.182 929.042 854.995 929.531 855.484C930.031 855.964 930.682 856.203 931.484 856.203C933.286 856.203 934.526 855.552 935.203 854.25V842.094H939ZM946.719 845.141V853.047C946.719 854.182 946.964 854.995 947.453 855.484C947.953 855.964 948.604 856.203 949.406 856.203C951.208 856.203 952.448 855.552 953.125 854.25V848.656H956.922V859H953.344L953.25 857.344C952.146 858.656 950.562 859.312 948.5 859.312C946.771 859.312 945.411 858.807 944.422 857.797C943.432 856.786 942.932 855.214 942.922 853.078V835H946.719V842.094H957.891V845.141H946.719ZM976.766 862.047H965.578V865.5H961.797V862.047H959.609V859H961.797V842.094H965.281L965.438 843.797C966.583 842.453 968.104 841.781 970 841.781C971.375 841.781 972.557 842.083 973.547 842.688C974.536 843.292 975.292 844.172 975.812 845.328C976.344 846.484 976.609 847.865 976.609 849.469V849.781C976.609 851.167 976.339 852.417 975.797 853.531C975.266 854.646 974.5 855.526 973.5 856.172C972.51 856.807 971.354 857.125 970.031 857.125C968.188 857.125 966.703 856.516 965.578 855.297V859H976.766V862.047ZM965.578 852.094C966.276 853.417 967.406 854.078 968.969 854.078C969.781 854.078 970.474 853.88 971.047 853.484C971.63 853.089 972.068 852.562 972.359 851.906C972.661 851.25 972.812 850.536 972.812 849.766V849.453C972.812 847.984 972.484 846.854 971.828 846.062C971.172 845.271 970.208 844.875 968.938 844.875C967.375 844.875 966.255 845.526 965.578 846.828V852.094ZM1004.28 856.219C1005.81 856.219 1006.9 855.594 1007.53 854.344V842.094H1011.31V865.5H1007.53V857.234C1006.44 858.62 1004.84 859.312 1002.75 859.312C1000.51 859.312 998.969 858.453 998.125 856.734C996.896 858.453 995.161 859.312 992.922 859.312C989.224 859.312 987.37 857.25 987.359 853.125V842.094H991.156V853.062C991.156 854.25 991.411 855.073 991.922 855.531C992.432 855.99 993.193 856.219 994.203 856.219C995.047 856.219 995.745 855.995 996.297 855.547C996.849 855.089 997.234 854.469 997.453 853.688V842.094H1001.25V853.031C1001.25 854.167 1001.51 854.984 1002.02 855.484C1002.54 855.974 1003.29 856.219 1004.28 856.219ZM1032.16 856.219C1033.69 856.219 1034.77 855.594 1035.41 854.344V842.094H1039.19V859H1035.62L1035.52 857.234C1034.32 858.62 1032.69 859.312 1030.62 859.312C1028.39 859.312 1026.84 858.453 1026 856.734C1024.77 858.453 1023.04 859.312 1020.8 859.312C1017.1 859.312 1015.24 857.25 1015.23 853.125V842.094H1019.03V853.062C1019.03 854.25 1019.29 855.073 1019.8 855.531C1020.31 855.99 1021.07 856.219 1022.08 856.219C1022.92 856.219 1023.62 855.995 1024.17 855.547C1024.72 855.089 1025.11 854.469 1025.33 853.688V842.094H1029.12V853.031C1029.12 854.167 1029.38 854.984 1029.89 855.484C1030.41 855.974 1031.17 856.219 1032.16 856.219ZM1061.5 841.781C1065.2 841.781 1067.05 843.844 1067.06 847.969V859H1063.27V848.031C1063.27 846.906 1063.01 846.099 1062.48 845.609C1061.96 845.12 1061.21 844.875 1060.22 844.875C1058.7 844.875 1057.62 845.49 1056.98 846.719V859H1053.2V857.359C1052.62 858.005 1051.94 858.495 1051.17 858.828C1050.4 859.151 1049.57 859.312 1048.67 859.312C1044.97 859.312 1043.12 857.25 1043.11 853.125V842.094H1046.91V853.062C1046.91 854.188 1047.17 854.995 1047.69 855.484C1048.21 855.974 1048.96 856.219 1049.95 856.219C1051.48 856.219 1052.57 855.594 1053.2 854.344V842.094H1056.98V843.719C1057.57 843.073 1058.24 842.589 1059.02 842.266C1059.79 841.943 1060.61 841.781 1061.5 841.781ZM1088.42 862.453V865.5H1080.95V862.453H1080.97V857.344C1079.99 858.656 1078.45 859.312 1076.34 859.312C1074.6 859.312 1073.24 858.807 1072.25 857.797C1071.26 856.776 1070.77 855.203 1070.77 853.078V842.094H1074.56V853.047C1074.56 854.182 1074.81 854.995 1075.3 855.484C1075.8 855.964 1076.45 856.203 1077.25 856.203C1079.05 856.203 1080.29 855.552 1080.97 854.25V835H1084.77V862.453H1088.42ZM1093.53 845.141V853.047C1093.53 854.182 1093.78 854.995 1094.27 855.484C1094.77 855.964 1095.42 856.203 1096.22 856.203C1098.02 856.203 1099.26 855.552 1099.94 854.25V848.656H1103.73V859H1100.16L1100.06 857.344C1098.96 858.656 1097.38 859.312 1095.31 859.312C1093.58 859.312 1092.22 858.807 1091.23 857.797C1090.24 856.786 1089.74 855.214 1089.73 853.078V835H1093.53V842.094H1104.7V845.141H1093.53ZM1114.75 844.875C1113.25 844.875 1112.11 845.562 1111.34 846.938V865.5H1107.55V842.094H1111.12L1111.25 844.031C1112.49 842.531 1114.12 841.781 1116.14 841.781C1119.72 841.781 1121.52 843.849 1121.53 847.984V859H1117.73V848.031C1117.73 846.896 1117.49 846.089 1117 845.609C1116.51 845.12 1115.76 844.875 1114.75 844.875ZM1139.75 842.094V859H1136.17L1136.08 857.344C1134.97 858.656 1133.39 859.312 1131.33 859.312C1129.6 859.312 1128.24 858.807 1127.25 857.797C1126.26 856.786 1125.76 855.214 1125.75 853.078V838.047H1122.06V835H1129.55V853.047C1129.55 854.182 1129.79 854.995 1130.28 855.484C1130.78 855.964 1131.43 856.203 1132.23 856.203C1134.04 856.203 1135.28 855.552 1135.95 854.25V842.094H1139.75ZM1147.47 845.141V853.047C1147.47 854.182 1147.71 854.995 1148.2 855.484C1148.7 855.964 1149.35 856.203 1150.16 856.203C1151.96 856.203 1153.2 855.552 1153.88 854.25V848.656H1157.67V859H1154.09L1154 857.344C1152.9 858.656 1151.31 859.312 1149.25 859.312C1147.52 859.312 1146.16 858.807 1145.17 857.797C1144.18 856.786 1143.68 855.214 1143.67 853.078V835H1147.47V842.094H1158.64V845.141H1147.47ZM1168.69 844.875C1167.19 844.875 1166.05 845.562 1165.28 846.938V865.5H1161.48V842.094H1165.06L1165.19 844.031C1166.43 842.531 1168.06 841.781 1170.08 841.781C1173.66 841.781 1175.46 843.849 1175.47 847.984V859H1171.67V848.031C1171.67 846.896 1171.43 846.089 1170.94 845.609C1170.45 845.12 1169.7 844.875 1168.69 844.875Z" fill="#26AA9D"/>
<rect y="967" width="1920" height="288" fill="#F6F6F6"/>
<defs>
<radialGradient id="paint0_radial_5_28" cx="0" cy="0" r="1" gradientUnits="userSpaceOnUse" gradientTransform="translate(863.429 524.392) scale(76.5661 76.6601)">
<stop offset="0.02" stop-color="#FFA874"/>
<stop offset="1" stop-color="#F49372"/>
</radialGradient>
<radialGradient id="paint1_radial_5_28" cx="0" cy="0" r="1" gradientUnits="userSpaceOnUse" gradientTransform="translate(782.777 544.691) scale(41.1816 41.2322)">
<stop stop-color="#FFCF84"/>
<stop offset="0.98" stop-color="#FFB88B"/>
</radialGradient>
<radialGradient id="paint2_radial_5_28" cx="0" cy="0" r="1" gradientUnits="userSpaceOnUse" gradientTransform="translate(882.943 624.459) scale(103.588 103.715)">
<stop offset="0.02" stop-color="#FFA874"/>
<stop offset="1" stop-color="#F49372"/>
</radialGradient>
<radialGradient id="paint3_radial_5_28" cx="0" cy="0" r="1" gradientUnits="userSpaceOnUse" gradientTransform="translate(1020.62 739.148) scale(107.231 107.362)">
<stop offset="0.02" stop-color="#BD4D4D"/>
<stop offset="1" stop-color="#9F3E54"/>
</radialGradient>
<radialGradient id="paint4_radial_5_28" cx="0" cy="0" r="1" gradientUnits="userSpaceOnUse" gradientTransform="translate(962.202 592.457) scale(89.6491 89.7593)">
<stop stop-color="#FFCF84"/>
<stop offset="0.98" stop-color="#FFB88B"/>
</radialGradient>
<radialGradient id="paint5_radial_5_28" cx="0" cy="0" r="1" gradientUnits="userSpaceOnUse" gradientTransform="translate(958.844 593.884) scale(78.9736 79.0706)">
<stop offset="0.02" stop-color="#BD4D4D"/>
<stop offset="1" stop-color="#9F3E54"/>
</radialGradient>
<radialGradient id="paint6_radial_5_28" cx="0" cy="0" r="1" gradientUnits="userSpaceOnUse" gradientTransform="translate(807.074 567.717) scale(48.8794 48.9394)">
<stop stop-color="#FFCF84"/>
<stop offset="0.98" stop-color="#FFB88B"/>
</radialGradient>
<radialGradient id="paint7_radial_5_28" cx="0" cy="0" r="1" gradientUnits="userSpaceOnUse" gradientTransform="translate(923.428 596.136) scale(33.7055 33.7469)">
<stop offset="0.02" stop-color="#BD4D4D"/>
<stop offset="1" stop-color="#9F3E54"/>
</radialGradient>
<radialGradient id="paint8_radial_5_28" cx="0" cy="0" r="1" gradientUnits="userSpaceOnUse" gradientTransform="translate(1069.37 532.099) scale(68.4565 68.5406)">
<stop stop-color="#FFCF84"/>
<stop offset="0.98" stop-color="#FFB88B"/>
</radialGradient>
<radialGradient id="paint9_radial_5_28" cx="0" cy="0" r="1" gradientUnits="userSpaceOnUse" gradientTransform="translate(1142.8 532.448) scale(47.4222 47.4804)">
<stop offset="0.02" stop-color="#BD4D4D"/>
<stop offset="1" stop-color="#9F3E54"/>
</radialGradient>
<radialGradient id="paint10_radial_5_28" cx="0" cy="0" r="1" gradientUnits="userSpaceOnUse" gradientTransform="translate(1078.24 611.392) scale(72.828 72.9175)">
<stop stop-color="#FFCF84"/>
<stop offset="0.98" stop-color="#FFB88B"/>
</radialGradient>
<radialGradient id="paint11_radial_5_28" cx="0" cy="0" r="1" gradientUnits="userSpaceOnUse" gradientTransform="translate(1103.99 618.021) scale(60.2201 60.2941)">
<stop offset="0.02" stop-color="#BD4D4D"/>
<stop offset="1" stop-color="#9F3E54"/>
</radialGradient>
<linearGradient id="paint12_linear_5_28" x1="821.899" y1="762.714" x2="941.769" y2="762.714" gradientUnits="userSpaceOnUse">
<stop stop-color="#D3B8D6"/>
<stop offset="1" stop-color="white"/>
</linearGradient>
<linearGradient id="paint13_linear_5_28" x1="958.052" y1="653.893" x2="1107.41" y2="653.893" gradientUnits="userSpaceOnUse">
<stop stop-color="white"/>
<stop offset="1" stop-color="#D3B8D6"/>
</linearGradient>
<clipPath id="clip0_5_28">
<rect width="474" height="278" fill="white" transform="translate(723 519)"/>
</clipPath>
</defs>
</svg>
