<svg width="510" height="510" viewBox="0 0 510 510" fill="none" xmlns="http://www.w3.org/2000/svg">
<path d="M498.04 339.943L206.642 299.432C199.326 298.499 193.843 292.275 193.843 284.901L189.845 81.7161C189.845 81.7161 196.488 76.9282 200.252 75.0944C202.167 74.1607 204.372 73.7511 206.669 74.0437L497.201 111.082C504.516 112.016 510 118.239 510 125.613V325.181C510 328.751 508.369 331.9 505.843 333.977C503.518 335.888 498.04 339.946 498.04 339.946V339.943Z" fill="#C2E1DE"/>
<path d="M489.147 342.641L198.615 305.603C191.3 304.669 185.816 298.446 185.816 291.072V91.5068C185.816 84.6481 191.838 79.3473 198.643 80.2169L489.174 117.255C496.49 118.189 501.973 124.412 501.973 131.787V331.354C501.973 338.213 495.952 343.514 489.147 342.644V342.641Z" fill="white"/>
<path d="M482.972 334.417L205.557 299.051C200.238 298.374 196.249 293.848 196.249 288.485V95.9828C196.249 91.4038 200.271 87.8616 204.816 88.4413L482.23 123.808C487.549 124.485 491.539 129.011 491.539 134.373V326.873C491.539 331.452 487.516 334.994 482.972 334.414V334.417Z" fill="#D8D8D8"/>
<path d="M490.585 343.653C490.067 343.653 489.548 343.62 489.03 343.555L198.498 306.517C190.743 305.528 184.896 298.889 184.896 291.074V91.5069C184.896 87.973 186.419 84.6092 189.07 82.2737C191.721 79.9383 195.253 78.8569 198.761 79.3029L489.292 116.341C497.048 117.331 502.894 123.969 502.894 131.784V331.351C502.894 334.885 501.372 338.249 498.72 340.585C496.462 342.574 493.563 343.653 490.585 343.653ZM489.261 341.727C492.244 342.106 495.247 341.187 497.502 339.202C499.757 337.218 501.051 334.356 501.051 331.351V131.784C501.051 124.892 495.893 119.039 489.058 118.167L198.526 81.1283C195.546 80.7493 192.541 81.669 190.285 83.6561C188.03 85.6404 186.736 88.5026 186.736 91.5069V291.074C186.736 297.967 191.894 303.819 198.733 304.692L489.264 341.73L489.261 341.727Z" fill="#26AA9D"/>
<path d="M319.651 460.173L20.8507 421.652C18.5117 421.354 17.193 419.394 17.2237 417.438C17.2432 416.089 17.3547 406.58 17.3547 406.58L175.346 316.289C183.26 311.768 193.503 310.023 202.544 311.18L497.569 349.225C499.345 349.453 500.867 350.604 501.573 352.251L502.047 353.36C502.047 353.36 501.793 361.289 501.896 363.143C501.977 364.592 501.325 366.086 499.805 366.952L345.781 454.989C337.867 459.51 328.692 461.327 319.651 460.17V460.173Z" fill="#C2E1DE"/>
<path d="M57.6003 415.752L21.9185 411.145C17.9653 410.637 16.9282 405.398 20.388 403.422L173.586 315.954C181.501 311.433 190.676 309.616 199.717 310.773L497.449 349.222C501.403 349.729 502.44 354.968 498.98 356.944L345.781 444.412C337.867 448.933 328.692 450.75 319.651 449.593L57.6003 415.752Z" fill="white"/>
<path d="M377.942 401.039L119.769 367.456C116.201 366.999 115.261 362.267 118.387 360.483L179.089 326.173C186.24 322.091 194.523 320.449 202.691 321.494L460.864 355.077C464.432 355.534 465.372 360.266 462.247 362.05L401.544 396.36C394.393 400.443 386.11 402.084 377.942 401.039Z" fill="#D8D8D8"/>
<path d="M324.912 450.847C323.116 450.847 321.321 450.733 319.534 450.505L173.732 431.81C173.227 431.746 172.87 431.283 172.937 430.779C173.001 430.274 173.467 429.923 173.966 429.982L319.768 448.676C328.555 449.802 337.63 448.002 345.324 443.61L498.523 356.141C500.012 355.291 500.31 353.812 500.09 352.708C499.872 351.604 499.03 350.35 497.33 350.133L199.597 311.684C190.813 310.558 181.733 312.358 174.041 316.751L152.577 329.008C152.137 329.259 151.574 329.105 151.32 328.665C151.066 328.225 151.222 327.662 151.663 327.408L173.127 315.151C181.167 310.561 190.654 308.682 199.832 309.856L497.564 348.304C499.764 348.586 501.464 350.175 501.893 352.348C502.326 354.522 501.358 356.637 499.435 357.738L346.236 445.207C339.76 448.905 332.347 450.842 324.909 450.842L324.912 450.847Z" fill="#C2E1DE"/>
<path d="M459.88 324.961L230.436 295.952C226.486 295.453 223.285 291.668 223.285 287.499V7.6174C223.285 3.44813 226.486 0.474463 230.436 0.973326L459.88 29.9826C463.83 30.4815 467.031 34.2662 467.031 38.4354V318.32C467.031 322.489 463.83 325.463 459.88 324.964V324.961Z" fill="#C2E1DE"/>
<path d="M460.744 325.936C460.421 325.936 460.094 325.914 459.765 325.875L230.322 296.866C225.934 296.311 222.365 292.111 222.365 287.501V7.61684C222.365 5.26744 223.263 3.18281 224.891 1.74753C226.427 0.393075 228.44 -0.203331 230.553 0.0614288L459.997 29.0735C464.385 29.6281 467.953 33.8281 467.953 38.4377V318.322C467.953 320.672 467.056 322.756 465.428 324.192C464.131 325.334 462.495 325.939 460.744 325.939V325.936ZM459.997 324.047C461.58 324.247 463.075 323.807 464.209 322.806C465.436 321.725 466.111 320.131 466.111 318.317V38.4349C466.111 34.7199 463.264 31.3393 459.765 30.8962L230.319 1.88688C228.736 1.68343 227.241 2.12656 226.107 3.12707C224.88 4.2084 224.205 5.80254 224.205 7.61684V287.501C224.205 291.216 227.052 294.597 230.55 295.04L459.994 324.049L459.997 324.047Z" fill="#263238"/>
<path d="M424.12 170.121L266.787 150.228C265.142 150.019 263.807 148.444 263.807 146.708V131.614C263.807 129.877 265.139 128.637 266.787 128.846L424.12 148.739C425.765 148.948 427.1 150.523 427.1 152.259V167.353C427.1 169.09 425.765 170.33 424.12 170.121Z" fill="white"/>
<path d="M425.31 213.037L266.79 192.993C265.471 192.826 264.403 191.564 264.403 190.173V173.825C264.403 172.434 265.471 171.442 266.79 171.609L425.31 191.653C426.629 191.82 427.697 193.083 427.697 194.473V210.822C427.697 212.212 426.629 213.204 425.31 213.037Z" fill="white"/>
<path d="M400.583 254.568L290.328 240.628C288.519 240.399 287.052 238.666 287.052 236.757V222.287C287.052 220.378 288.519 219.015 290.328 219.244L400.583 233.184C402.392 233.412 403.858 235.146 403.858 237.055V251.525C403.858 253.434 402.392 254.797 400.583 254.568Z" fill="#D8D8D8"/>
<path d="M370.242 111.296C384.096 99.5225 384.554 77.3022 371.265 61.666C357.977 46.0298 335.973 42.8988 322.119 54.6728C308.266 66.4468 307.807 88.6671 321.096 104.303C334.384 119.939 356.388 123.07 370.242 111.296Z" fill="#26AA9D"/>
<path d="M353.999 87.973C358.835 83.8644 358.994 76.1097 354.355 70.6524C349.716 65.1952 342.034 64.1019 337.198 68.2106C332.362 72.3192 332.203 80.0739 336.842 85.5311C341.482 90.9884 349.163 92.0817 353.999 87.973Z" fill="white"/>
<path d="M320.738 103.867C324.889 99.745 329.929 95.7067 335.299 93.2932C336.595 92.7108 338.134 92.7303 339.556 93.3545C345.02 95.7541 349.272 95.481 353.994 94.2826C355.14 93.9928 356.411 94.199 357.507 94.8818C363.412 98.5633 368.519 103.287 372.405 109.274C357.064 124.691 332.489 119.22 320.741 103.867H320.738Z" fill="white"/>
<path d="M346.188 119.666C326.205 117.244 309.946 98.817 309.946 78.5921C309.946 58.3672 326.205 43.8835 346.188 46.3081C366.172 48.73 382.431 67.1573 382.431 87.3821C382.431 107.607 366.172 122.091 346.188 119.666ZM346.188 49.2985C327.833 47.0718 312.899 60.3766 312.899 78.9516C312.899 97.5266 327.833 114.452 346.188 116.679C364.544 118.905 379.478 105.6 379.478 87.0254C379.478 68.4504 364.544 51.5253 346.188 49.2985Z" fill="#D8D8D8"/>
<path d="M54.4775 254.961C45.9745 258.116 38.7568 264.754 33.8445 273.497C21.3103 295.801 -11.3996 361.171 4.07298 411.649C23.0249 473.48 183.246 471.824 225.003 445.51C235.61 438.824 279.017 393.723 223.305 356.236C172.24 321.873 151.133 347.097 127.586 333.558C104.04 320.019 87.0314 265.688 78.3444 257.968C72.7324 252.982 64.0064 251.424 54.4775 254.961Z" fill="#26AA9D"/>
<path d="M103.764 403.745C103.53 403.745 103.293 403.656 103.114 403.475C81.9433 382.325 32.7069 379.819 32.2134 379.797C31.706 379.774 31.313 379.343 31.3381 378.835C31.3604 378.328 31.8036 377.946 32.2999 377.957C34.3489 378.052 82.7462 380.521 104.419 402.17C104.779 402.53 104.779 403.112 104.419 403.472C104.241 403.65 104.004 403.742 103.767 403.742L103.764 403.745Z" fill="#C2E1DE"/>
<path d="M153.363 404.907C153.238 404.907 153.112 404.882 152.99 404.826C136.48 397.485 124.827 404.068 124.709 404.138C124.272 404.394 123.709 404.246 123.452 403.806C123.196 403.368 123.343 402.806 123.781 402.549C124.286 402.254 136.321 395.398 153.737 403.146C154.202 403.352 154.411 403.895 154.202 404.361C154.049 404.703 153.714 404.907 153.36 404.907H153.363Z" fill="#C2E1DE"/>
<path d="M228.552 444.033C228.7 444.518 246.389 464.5 246.389 464.5L234.596 469.141L220.353 451.809L228.552 444.033Z" fill="white"/>
<path d="M234.596 470.063C234.326 470.063 234.063 469.943 233.885 469.726L219.642 452.394C219.335 452.02 219.369 451.474 219.72 451.142L227.919 443.367C228.15 443.147 228.479 443.066 228.789 443.144C229.037 443.211 229.243 443.375 229.363 443.595C230.077 444.61 240.317 456.251 247.08 463.89C247.278 464.116 247.356 464.422 247.286 464.715C247.217 465.008 247.007 465.247 246.729 465.356L234.936 469.996C234.827 470.038 234.713 470.06 234.599 470.06L234.596 470.063ZM221.607 451.887L234.88 468.04L244.827 464.124C233.737 451.588 229.848 447.076 228.463 445.385L221.607 451.884V451.887Z" fill="#263238"/>
<path d="M234.395 461.006C234.85 460.005 235.636 458.862 236.988 458.135C239.026 457.04 241.549 457.413 243.328 458.893C247.774 462.594 259.837 473.062 266.665 483.084C269.076 486.626 267.671 491.135 261.937 490.826C252.536 490.316 237.693 485.888 225.589 474.598C224.2 473.302 223.548 471.39 223.899 469.523C224.186 467.998 224.652 466.092 225.399 464.297C226.113 462.583 227.983 461.658 229.787 462.087L231.412 462.474C232.633 462.764 233.882 462.146 234.398 461.003L234.395 461.006Z" fill="white"/>
<path d="M262.502 491.762C262.302 491.762 262.098 491.757 261.886 491.745C252 491.21 237.108 486.603 224.958 475.272C223.319 473.742 222.583 471.532 222.99 469.355C223.369 467.335 223.893 465.512 224.543 463.948C225.429 461.816 227.721 460.657 229.993 461.198L231.618 461.585C232.402 461.769 233.219 461.37 233.553 460.629C234.217 459.166 235.254 458.023 236.55 457.327C238.85 456.089 241.811 456.438 243.913 458.191C248.705 462.179 260.593 472.543 267.423 482.571C268.867 484.692 269.112 487.166 268.064 489.025C267.473 490.073 265.979 491.765 262.5 491.765L262.502 491.762ZM228.884 462.906C227.743 462.906 226.695 463.572 226.243 464.653C225.641 466.103 225.156 467.797 224.799 469.695C224.507 471.247 225.036 472.83 226.213 473.928C238.003 484.923 252.421 489.39 261.984 489.909C264.158 490.031 265.745 489.39 266.461 488.12C267.164 486.874 266.949 485.143 265.901 483.602C259.202 473.767 247.47 463.541 242.736 459.601C241.203 458.324 239.068 458.062 237.423 458.946C236.472 459.459 235.733 460.278 235.231 461.387C234.535 462.928 232.831 463.767 231.195 463.374L229.569 462.987C229.338 462.931 229.109 462.906 228.884 462.906Z" fill="#263238"/>
<path d="M259.982 487.113C254.529 487.113 244.239 484.789 227.986 472.474C227.582 472.167 227.501 471.59 227.808 471.183C228.114 470.779 228.691 470.701 229.098 471.005C253.726 489.666 263.843 484.689 263.941 484.636C264.39 484.399 264.947 484.569 265.184 485.02C265.421 485.469 265.251 486.027 264.8 486.263C264.638 486.35 263.099 487.111 259.979 487.111L259.982 487.113Z" fill="#263238"/>
<path d="M249.768 476.548C249.545 476.548 249.319 476.467 249.143 476.302C248.77 475.957 248.748 475.374 249.093 475L253.866 469.848C254.212 469.475 254.794 469.453 255.168 469.798C255.542 470.144 255.564 470.727 255.218 471.1L250.445 476.252C250.264 476.447 250.016 476.548 249.771 476.548H249.768Z" fill="#263238"/>
<path d="M245.544 473.078C245.31 473.078 245.076 472.989 244.895 472.81C244.535 472.454 244.532 471.868 244.889 471.508L250.144 466.212C250.501 465.852 251.084 465.849 251.446 466.206C251.806 466.563 251.808 467.148 251.452 467.508L246.196 472.805C246.018 472.986 245.781 473.078 245.544 473.078Z" fill="#263238"/>
<path d="M191.663 454.721L186.23 478.563L177.3 471.766L181.429 448.849L191.663 454.721Z" fill="white"/>
<path d="M186.23 479.483C186.032 479.483 185.834 479.419 185.672 479.296L176.743 472.499C176.467 472.29 176.333 471.944 176.394 471.604L180.523 448.687C180.576 448.392 180.768 448.141 181.041 448.015C181.315 447.89 181.63 447.901 181.889 448.052L192.123 453.924C192.474 454.124 192.653 454.531 192.564 454.927L187.133 478.769C187.063 479.073 186.843 479.324 186.55 479.43C186.447 479.466 186.341 479.486 186.235 479.486L186.23 479.483ZM178.304 471.376L185.647 476.966L190.609 455.181L182.098 450.298L178.301 471.376H178.304Z" fill="#263238"/>
<path d="M189.307 474.241C188.76 481.66 187.45 496.578 181.838 507.157C180.333 509.995 174.453 509.783 172.32 505.914C167.871 497.846 162.184 484.137 165.529 467.586C165.791 466.292 166.656 465.2 167.851 464.645C169.257 463.996 171.478 463.179 174.64 462.602C176.215 462.315 177.709 463.419 177.902 465.01L178.607 470.844L179.351 469.876C180.469 468.419 182.438 467.914 184.119 468.653C185.025 469.051 186.026 469.489 186.929 469.888C188.621 470.632 189.446 472.399 189.31 474.244L189.307 474.241Z" fill="white"/>
<path d="M177.938 510C175.254 510 172.736 508.576 171.512 506.357C164.342 493.362 162.025 480.258 164.624 467.401C164.944 465.827 166.004 464.483 167.462 463.806C168.819 463.176 171.136 462.301 174.47 461.694C175.471 461.513 176.511 461.752 177.328 462.357C178.148 462.962 178.688 463.887 178.811 464.896L179.26 468.619C180.673 467.371 182.703 467.022 184.484 467.805L187.294 469.04C189.246 469.896 190.395 471.964 190.222 474.305C189.525 483.775 187.983 497.528 182.647 507.584C181.855 509.077 180.116 509.978 177.997 509.994C177.977 509.994 177.955 509.994 177.936 509.994L177.938 510ZM175.139 463.475C175.028 463.475 174.916 463.486 174.802 463.505C171.657 464.079 169.497 464.896 168.237 465.478C167.308 465.908 166.634 466.763 166.43 467.766C163.921 480.182 166.174 492.866 173.127 505.468C174.233 507.475 176.419 508.177 177.986 508.158C179.396 508.146 180.562 507.597 181.025 506.722C186.795 495.845 187.952 480.099 188.387 474.171C188.504 472.593 187.802 471.272 186.556 470.726L183.746 469.492C182.449 468.923 180.941 469.31 180.077 470.434L179.332 471.401C179.104 471.696 178.722 471.827 178.359 471.727C178 471.629 177.735 471.32 177.688 470.949L176.982 465.116C176.921 464.6 176.653 464.146 176.235 463.837C175.912 463.597 175.53 463.475 175.137 463.475H175.139Z" fill="#263238"/>
<path d="M176.943 505.357C176.639 505.357 176.341 505.206 176.165 504.93C165.753 488.582 168.111 469.756 168.217 468.962C168.284 468.458 168.739 468.101 169.251 468.171C169.756 468.237 170.11 468.7 170.043 469.205C170.018 469.391 167.676 488.175 177.721 503.944C177.994 504.373 177.869 504.942 177.439 505.215C177.286 505.312 177.116 505.36 176.946 505.36L176.943 505.357Z" fill="#263238"/>
<path d="M187.479 485.33C187.395 485.33 187.309 485.319 187.222 485.294L180.278 483.293C179.79 483.151 179.508 482.643 179.647 482.153C179.79 481.665 180.3 481.384 180.788 481.523L187.732 483.524C188.22 483.666 188.502 484.173 188.362 484.664C188.245 485.068 187.877 485.33 187.479 485.33Z" fill="#263238"/>
<path d="M186.143 491.366C186.034 491.366 185.925 491.347 185.819 491.308L179.26 488.841C178.783 488.663 178.543 488.131 178.722 487.657C178.9 487.18 179.432 486.941 179.906 487.119L186.466 489.585C186.943 489.764 187.183 490.296 187.004 490.77C186.865 491.138 186.514 491.366 186.143 491.366Z" fill="#263238"/>
<path d="M131.108 345.79C131.108 345.79 164.353 341.838 194.306 358.777C201.855 363.047 206.486 371.079 206.439 379.749C206.344 396.964 204.521 428.431 193.971 455.746C193.372 457.301 191.59 458.034 190.066 457.36L176.583 451.393C175.677 450.992 175.036 450.161 174.883 449.183C173.89 442.873 170.542 418.875 173.899 401.465C177.793 381.26 112.669 359.845 112.669 359.845L131.108 345.787V345.79Z" fill="#263238"/>
<path d="M232.184 448.236L220.169 456.131C219.366 456.658 218.298 456.524 217.651 455.816C210.258 447.714 168.521 402.209 158.055 396.251C146.561 389.707 125.086 379.855 105.579 379.972C86.0753 380.089 81.9604 366.545 81.9604 366.545L109.775 348.58C109.775 348.58 157.905 354.028 178.242 370.563C196.606 385.496 227.055 435.951 232.792 445.607C233.325 446.505 233.057 447.661 232.184 448.236Z" fill="#263238"/>
<path d="M206.221 403.809C205.934 403.809 205.652 403.675 205.474 403.424C197.364 392.143 184.743 377.032 177.662 371.274C170.001 365.045 157.48 359.675 140.455 355.313C139.962 355.188 139.666 354.686 139.792 354.193C139.917 353.7 140.416 353.402 140.912 353.53C158.2 357.958 170.954 363.446 178.824 369.845C186.025 375.7 198.788 390.97 206.968 402.349C207.263 402.761 207.171 403.335 206.759 403.633C206.597 403.751 206.407 403.806 206.223 403.806L206.221 403.809Z" fill="#26AA9D"/>
<path d="M109.334 304.797L112.897 312.127C117.137 320.85 123.658 328.261 131.768 333.575L135.055 335.73C137.163 337.112 139.669 337.753 142.181 337.558L142.566 337.527C146.404 337.229 150.218 338.349 153.285 340.676L144.662 343.447C139.404 345.136 133.681 344.74 128.754 342.243C124.035 339.851 118.267 335.925 113.455 329.662C103.377 316.536 101.046 308.454 101.046 308.454L109.337 304.8L109.334 304.797Z" fill="white"/>
<path d="M138.116 345.4C134.737 345.4 131.403 344.614 128.336 343.062C122.089 339.893 116.834 335.573 112.724 330.22C102.655 317.107 100.257 309.044 100.159 308.707C100.031 308.264 100.251 307.796 100.672 307.612L108.963 303.958C109.418 303.757 109.948 303.953 110.162 304.398L113.725 311.728C117.89 320.298 124.305 327.586 132.273 332.809L135.56 334.963C137.486 336.225 139.811 336.819 142.108 336.643L142.49 336.613C146.558 336.289 150.586 337.48 153.837 339.946C154.11 340.152 154.247 340.495 154.188 340.835C154.13 341.172 153.89 341.451 153.564 341.557L144.941 344.327C142.694 345.049 140.394 345.408 138.116 345.408V345.4ZM102.186 308.952C103.023 311.235 106.078 318.545 114.182 329.099C118.124 334.233 123.168 338.377 129.167 341.42C133.867 343.803 139.268 344.21 144.378 342.568L151.183 340.383C148.607 338.892 145.629 338.212 142.635 338.444L142.251 338.474C139.546 338.686 136.814 337.981 134.548 336.499L131.261 334.344C123.014 328.94 116.379 321.396 112.066 312.528L108.891 305.998L102.186 308.955V308.952Z" fill="#263238"/>
<path d="M98.3582 375.078C98.3582 375.078 87.427 383.422 81.4163 381.02C75.4057 378.621 85.7514 368.342 88.7986 367.944C91.8457 367.545 98.3582 375.076 98.3582 375.076V375.078Z" fill="#263238"/>
<path d="M100.262 252.01C105.18 251.327 110.787 255.633 110.229 262.971C109.775 268.965 103.519 270.777 100.622 273.979C91.2577 284.333 100.246 295.569 92.9248 305.898C85.9524 315.736 75.3669 308.964 61.199 320.262C50.0475 329.155 90.5858 315.641 76.3928 325.025C65.0713 332.51 43.8278 331.883 31.8261 318.127C20.4126 305.045 17.7864 285.405 29.4815 275.93C39.9945 267.41 47.4158 277.348 58.6258 269.355C69.6769 261.477 66.6381 253.838 73.5408 250.546C82.9805 246.045 86.3176 253.946 100.26 252.012L100.262 252.01Z" fill="#263238"/>
<path d="M42.0879 325.295C42.7152 321.608 43.6268 317.274 44.5579 314.418C47.4211 305.625 49.3726 299.903 59.1858 294.675C60.655 293.892 62.1967 293.256 63.7774 292.73L69.7072 290.751C69.7072 290.751 94.1819 283.753 103.987 293.212C104.781 293.978 105.785 294.842 106.429 295.857L112.816 305.483L112.757 305.508C107.081 307.827 104.706 314.61 107.742 319.936C111.232 326.059 116.044 333.21 120.831 336.184C122.342 337.123 134.528 342.128 134.528 342.128C134.528 342.128 137.519 351.242 118.768 359.056C100.017 366.871 86.3535 369.702 82.4199 379.351C80.092 385.064 70.6105 357.677 64.5051 332.014C63.3314 327.076 58.7091 323.751 53.6547 324.222L42.0907 325.295H42.0879Z" fill="white"/>
<path d="M81.6199 381.034C81.5781 381.034 81.5363 381.034 81.5 381.028C80.6135 380.959 78.5365 380.8 73.0193 364.978C69.7798 355.689 66.3508 343.75 63.6103 332.226C62.5481 327.761 58.2966 324.712 53.7385 325.136L42.1744 326.209C41.8929 326.24 41.6085 326.128 41.4134 325.919C41.2182 325.71 41.1318 325.42 41.182 325.139C41.9235 320.78 42.8575 316.667 43.6827 314.13C46.4817 305.533 48.5057 299.321 58.7539 293.858C60.1952 293.089 61.7424 292.434 63.4849 291.852L69.4146 289.873C70.474 289.569 94.5556 282.83 104.623 292.546C104.756 292.674 104.896 292.805 105.038 292.938C105.774 293.632 106.607 294.418 107.204 295.358L113.583 304.97C113.736 305.201 113.775 305.485 113.694 305.75C113.613 306.015 113.418 306.227 113.162 306.333L113.103 306.358C110.63 307.369 108.712 309.395 107.842 311.92C106.978 314.426 107.232 317.182 108.539 319.479C113.151 327.569 117.569 333.073 121.316 335.403C122.378 336.064 130.006 339.277 134.876 341.278C135.124 341.381 135.317 341.587 135.4 341.841C135.534 342.245 138.436 351.857 119.122 359.906C114.896 361.667 110.851 363.206 107.282 364.56C95.0267 369.22 86.1725 372.587 83.2731 379.699C82.8103 380.833 82.0827 381.037 81.6199 381.037V381.034ZM54.586 323.258C59.6599 323.258 64.2069 326.78 65.4029 331.8C71.2909 356.55 78.8989 377.508 81.5167 379.122C81.5335 379.089 81.5502 379.049 81.5725 379.002C84.773 371.149 93.9422 367.665 106.633 362.838C110.19 361.486 114.218 359.953 118.417 358.203C133.873 351.763 133.954 344.519 133.725 342.789C131.283 341.782 121.762 337.842 120.346 336.961C116.284 334.436 111.773 328.859 106.942 320.384C105.37 317.628 105.066 314.323 106.103 311.316C107.031 308.623 108.955 306.402 111.456 305.092L105.66 296.358C105.177 295.6 104.433 294.898 103.775 294.276C103.627 294.137 103.482 294 103.346 293.867C94.0314 284.881 70.2008 291.559 69.9583 291.629L64.0675 293.596C62.4255 294.145 60.9674 294.761 59.6181 295.48C50.0251 300.591 48.1962 306.204 45.4335 314.696C44.7086 316.923 43.8918 320.437 43.2032 324.264L53.5684 323.302C53.9086 323.272 54.2487 323.255 54.586 323.255V323.258Z" fill="#263238"/>
<path d="M115.161 348.335L106.081 345.749C104.731 345.364 103.279 345.712 102.247 346.663L98.3027 350.311C97.5499 351.008 96.5602 351.384 95.5343 351.375C91.0598 351.328 70.4296 346.546 68.1743 343.126C67.0591 341.434 65.3641 335.515 64.0873 330.613C63.0167 326.505 59.1277 323.779 54.8985 324.175L45.7905 325.028C45.7905 325.028 49.6935 346.855 57.5497 353.468C63.6496 358.605 77.4383 360.575 97.1485 358.281C97.1485 358.281 101.258 357.585 104.492 353.257C106.558 350.492 112.027 351.554 115.183 350.592C116.304 350.249 116.29 348.661 115.164 348.34L115.161 348.335Z" fill="white"/>
<path d="M82.0383 360.148C70.3181 360.148 61.6423 358.117 56.9587 354.173C48.938 347.423 45.0489 326.095 44.8872 325.189C44.8426 324.935 44.904 324.676 45.0601 324.47C45.2162 324.264 45.4504 324.135 45.7069 324.11L54.8148 323.258C59.5151 322.82 63.7889 325.813 64.9793 330.378C67.3184 339.341 68.467 341.894 68.9437 342.618C70.8506 345.511 90.6332 350.402 95.5454 350.455C96.3205 350.464 97.0983 350.174 97.6782 349.636L101.623 345.988C102.88 344.826 104.687 344.394 106.332 344.865L115.412 347.451C116.312 347.707 116.923 348.51 116.931 349.446C116.939 350.383 116.343 351.197 115.448 351.47C114.244 351.838 112.827 351.93 111.328 352.024C108.863 352.183 106.315 352.348 105.225 353.805C101.81 358.376 97.4802 359.156 97.299 359.187C91.7763 359.831 86.6661 360.148 82.0355 360.148H82.0383ZM46.8889 325.847C47.7559 330.136 51.5614 347.223 58.1435 352.763C64.1987 357.86 78.3778 359.538 97.0425 357.364C97.0425 357.364 100.801 356.654 103.756 352.702C105.353 350.561 108.467 350.361 111.213 350.185C112.602 350.096 113.915 350.012 114.916 349.706C115.035 349.669 115.097 349.586 115.097 349.46C115.097 349.335 115.033 349.251 114.913 349.218L105.833 346.632C104.798 346.336 103.666 346.607 102.878 347.337L98.9327 350.985C98.0211 351.829 96.8334 352.292 95.5845 352.292H95.5315C91.1267 352.245 69.9334 347.451 67.4132 343.63C66.4541 342.175 65.0379 337.872 63.2035 330.841C62.2417 327.151 58.7903 324.74 54.9904 325.086L46.8945 325.844L46.8889 325.847Z" fill="#263238"/>
<path d="M70.7229 290.907C70.7229 290.907 75.8358 274.428 76.0115 272.427C76.0115 272.427 74.3834 271.569 74.4754 269.06C74.6482 264.289 79.3848 266.653 79.3848 266.653L79.8503 266.764C82.5657 267.419 85.4121 267.277 88.0522 266.357L93.5917 264.426C93.5917 264.426 94.7515 266.46 93.4021 270.387C92.7581 272.26 92.8836 274.434 93.2237 276.708C93.3129 277.307 92.9003 277.867 92.3009 277.959L90.8206 278.185C90.0483 279.977 89.3569 281.042 88.0773 282.193C87.726 282.507 87.266 282.68 86.7977 282.655C86.1593 282.622 85.1752 282.485 84.0712 282.023L83.2376 289.015L86.912 288.926C86.912 288.926 88.2362 293.307 81.2777 296.478C77.4361 298.229 71.9969 297.875 67.8932 297.203C65.7884 296.86 65.2643 294.076 67.1098 293.006L70.7257 290.905L70.7229 290.907Z" fill="white"/>
<path d="M74.1039 298.672C71.8485 298.672 69.621 298.421 67.7392 298.114C66.3899 297.894 65.3556 296.882 65.1075 295.542C64.8622 294.204 65.4616 292.897 66.6408 292.214L69.9444 290.294C71.8262 284.218 74.5026 275.272 75.0072 272.828C74.3799 272.265 73.4711 271.086 73.5464 269.03C73.6077 267.374 74.1625 266.22 75.2023 265.604C76.8946 264.601 79.136 265.526 79.6852 265.783L80.056 265.872C82.6069 266.485 85.2609 266.354 87.7366 265.49L93.276 263.559C93.6942 263.414 94.1598 263.587 94.38 263.971C94.4358 264.069 95.7294 266.415 94.2602 270.688C93.6357 272.508 93.8392 274.684 94.1236 276.574C94.288 277.672 93.5297 278.703 92.4313 278.87L91.4472 279.021C90.6666 280.729 89.9111 281.777 88.6817 282.881C88.1464 283.36 87.4411 283.611 86.7385 283.577C86.259 283.552 85.5983 283.474 84.84 283.265L84.2685 288.07L86.8807 288.006C87.3017 288.025 87.6641 288.265 87.784 288.661C87.8481 288.873 89.256 293.853 81.6507 297.317C79.4399 298.326 76.7496 298.672 74.1011 298.672H74.1039ZM77.0033 266.99C76.6855 266.99 76.3872 267.045 76.1446 267.187C75.6819 267.463 75.4282 268.107 75.3919 269.097C75.325 270.953 76.4067 271.596 76.4513 271.621C76.7608 271.8 76.9559 272.151 76.9252 272.508C76.7468 274.548 72.1273 289.483 71.6004 291.18C71.5307 291.4 71.383 291.587 71.185 291.704L67.5692 293.806C66.8081 294.246 66.8806 294.993 66.9224 295.21C67.006 295.664 67.3434 296.188 68.0403 296.3C71.8736 296.924 77.218 297.323 80.8924 295.645C85.4422 293.571 86.075 291.06 86.0917 289.87L83.2537 289.94C82.9861 289.926 82.7296 289.837 82.5511 289.639C82.3727 289.441 82.2863 289.176 82.317 288.912L83.1505 281.919C83.184 281.632 83.3513 281.379 83.6022 281.234C83.8503 281.089 84.1542 281.069 84.4218 281.181C85.4059 281.593 86.2813 281.716 86.8389 281.744C87.0675 281.76 87.2821 281.671 87.455 281.518C88.5841 280.503 89.2197 279.573 89.9696 277.828C90.0951 277.538 90.3627 277.329 90.675 277.282L92.1553 277.056C92.2529 277.039 92.3226 276.947 92.3087 276.85C91.9936 274.74 91.7706 272.288 92.5261 270.094C93.2677 267.937 93.1785 266.432 93.0084 265.61L88.3499 267.235C85.5397 268.216 82.5261 268.364 79.6295 267.667L79.1639 267.555C79.097 267.539 79.0301 267.516 78.9687 267.483C78.637 267.318 77.77 266.995 77.0005 266.995L77.0033 266.99Z" fill="#263238"/>
<path d="M84.0623 282.945C83.9312 282.945 83.7974 282.918 83.672 282.859L82.6544 282.382C82.1944 282.168 81.9965 281.618 82.2111 281.158C82.4258 280.698 82.975 280.498 83.435 280.715L84.4526 281.192C84.9126 281.407 85.1105 281.956 84.8958 282.416C84.7397 282.75 84.408 282.945 84.0623 282.945Z" fill="#263238"/>
<path d="M158.964 339.734L117.029 352.482L131.03 304.911C131.548 303.122 132.965 301.701 134.782 301.149L168.814 290.804C170.974 290.146 172.993 292.063 172.377 294.19L158.959 339.737L158.964 339.734Z" fill="#263238"/>
<path d="M148.966 320.979C148.47 322.693 146.823 324.461 145.287 324.929C143.75 325.398 142.906 324.386 143.399 322.671C143.895 320.957 145.543 319.189 147.079 318.721C148.615 318.252 149.46 319.264 148.966 320.979Z" fill="white"/>
<path d="M157.498 342.942L91.7155 362.938C90.3578 363.351 88.9193 362.584 88.5067 361.224L88.3115 360.873L159.014 339.38L159.21 339.732C159.622 341.092 158.856 342.53 157.498 342.942Z" fill="#263238"/>
<path d="M201.309 106.411L251.518 120.998L287.144 81.3733L201.309 106.411Z" fill="white"/>
<path d="M226.33 129.958L219.318 111.642L265.992 92.5769L228.144 114.206L238.641 117.255L226.33 129.958Z" fill="#D8D8D8"/>
<path d="M227.523 124.697C227.489 124.697 227.453 124.697 227.419 124.691C226.951 124.635 226.617 124.209 226.675 123.741L227.67 115.536C227.726 115.068 228.161 114.728 228.621 114.792C229.089 114.848 229.423 115.274 229.365 115.742L228.37 123.947C228.317 124.382 227.949 124.7 227.523 124.7V124.697Z" fill="white"/>
<path d="M16.3504 249.771C16.1163 249.771 15.8793 249.681 15.7009 249.5C15.3412 249.14 15.3412 248.558 15.7009 248.198L17.842 246.057C18.2016 245.697 18.7843 245.697 19.1439 246.057C19.5035 246.417 19.5035 246.999 19.1439 247.359L17.0028 249.5C16.8244 249.679 16.5874 249.771 16.3532 249.771H16.3504Z" fill="#F8931F"/>
<path d="M24.4383 241.683C24.2042 241.683 23.9672 241.593 23.7888 241.412C23.4291 241.053 23.4291 240.47 23.7888 240.11L25.9298 237.969C26.2895 237.61 26.8721 237.61 27.2318 237.969C27.5914 238.329 27.5914 238.911 27.2318 239.271L25.0907 241.412C24.9123 241.591 24.6753 241.683 24.4411 241.683H24.4383Z" fill="#F8931F"/>
<path d="M26.5794 249.771C26.3452 249.771 26.1083 249.681 25.9298 249.5L23.7888 247.359C23.4291 246.999 23.4291 246.417 23.7888 246.057C24.1484 245.697 24.7311 245.697 25.0907 246.057L27.2318 248.198C27.5914 248.558 27.5914 249.14 27.2318 249.5C27.0534 249.679 26.8164 249.771 26.5822 249.771H26.5794Z" fill="#F8931F"/>
<path d="M18.4891 241.683C18.2549 241.683 18.0179 241.593 17.8395 241.412L15.6984 239.271C15.3388 238.911 15.3388 238.329 15.6984 237.969C16.0581 237.61 16.6407 237.61 17.0004 237.969L19.1414 240.11C19.5011 240.47 19.5011 241.053 19.1414 241.412C18.963 241.591 18.7261 241.683 18.4919 241.683H18.4891Z" fill="#F8931F"/>
<path d="M120.146 24.4122C119.892 24.4122 119.638 24.3062 119.457 24.1027C119.12 23.7208 119.156 23.1409 119.535 22.8036L121.802 20.7963C122.183 20.459 122.766 20.4952 123.101 20.8744C123.438 21.2563 123.402 21.8362 123.023 22.1735L120.756 24.1808C120.58 24.3369 120.363 24.4122 120.146 24.4122Z" fill="#F8931F"/>
<path d="M128.71 16.8348C128.456 16.8348 128.203 16.7288 128.021 16.5253C127.684 16.1434 127.72 15.5635 128.099 15.2262L130.366 13.2189C130.748 12.8816 131.331 12.9178 131.665 13.297C132.002 13.6789 131.966 14.2588 131.587 14.5961L129.321 16.6034C129.145 16.7595 128.927 16.8348 128.71 16.8348Z" fill="#F8931F"/>
<path d="M130.355 25.0339C130.101 25.0339 129.848 24.9279 129.666 24.7244L127.659 22.4579C127.322 22.0759 127.358 21.4961 127.737 21.1587C128.119 20.8214 128.699 20.8576 129.036 21.2368L131.044 23.5033C131.381 23.8853 131.345 24.4651 130.965 24.8025C130.79 24.9586 130.572 25.0339 130.355 25.0339Z" fill="#F8931F"/>
<path d="M122.775 16.4725C122.521 16.4725 122.267 16.3665 122.086 16.163L120.079 13.8965C119.742 13.5173 119.778 12.9347 120.157 12.5973C120.539 12.26 121.122 12.2962 121.456 12.6754L123.463 14.9419C123.801 15.3239 123.765 15.9037 123.385 16.2411C123.21 16.3972 122.992 16.4725 122.775 16.4725Z" fill="#F8931F"/>
<path d="M98.3607 52.2693C98.2632 52.2693 98.1684 52.2665 98.0708 52.2609C96.8107 52.1829 95.6565 51.6227 94.8229 50.678C93.9866 49.7332 93.5684 48.5209 93.6465 47.2612C93.7245 46.0015 94.2849 44.8505 95.23 44.0144C96.175 43.1783 97.3794 42.763 98.6479 42.8383C101.246 42.9971 103.231 45.2378 103.072 47.8381C102.919 50.338 100.834 52.2721 98.3607 52.2721V52.2693ZM98.3551 44.6693C97.6526 44.6693 96.9807 44.9229 96.451 45.3911C95.874 45.9011 95.531 46.6062 95.4837 47.3726C95.3861 48.9584 96.5988 50.3268 98.1851 50.4243C99.7658 50.5219 101.14 49.3096 101.238 47.7238C101.335 46.138 100.123 44.7696 98.5391 44.6749C98.4778 44.6721 98.4193 44.6693 98.3579 44.6693H98.3551Z" fill="#F8931F"/>
<path d="M315.764 484.679C315.511 484.679 315.257 484.573 315.076 484.37C314.738 483.988 314.774 483.408 315.154 483.071L317.42 481.063C317.802 480.726 318.385 480.762 318.719 481.141C319.057 481.523 319.02 482.103 318.641 482.44L316.375 484.448C316.199 484.604 315.982 484.679 315.764 484.679Z" fill="#F8931F"/>
<path d="M324.331 477.098C324.078 477.098 323.824 476.992 323.643 476.789C323.305 476.407 323.342 475.827 323.721 475.49L325.987 473.483C326.369 473.145 326.949 473.181 327.286 473.561C327.624 473.943 327.588 474.522 327.208 474.86L324.942 476.867C324.766 477.023 324.549 477.098 324.331 477.098Z" fill="#F8931F"/>
<path d="M325.976 485.301C325.722 485.301 325.469 485.195 325.287 484.991L323.28 482.725C322.943 482.343 322.979 481.763 323.358 481.426C323.737 481.088 324.323 481.124 324.657 481.504L326.665 483.77C327.002 484.152 326.966 484.732 326.587 485.069C326.411 485.225 326.194 485.301 325.976 485.301Z" fill="#F8931F"/>
<path d="M318.396 476.736C318.142 476.736 317.889 476.63 317.707 476.427L315.7 474.16C315.363 473.778 315.399 473.198 315.778 472.861C316.157 472.524 316.74 472.56 317.077 472.939L319.085 475.206C319.422 475.588 319.386 476.167 319.007 476.505C318.831 476.661 318.613 476.736 318.396 476.736Z" fill="#F8931F"/>
<path d="M92.0246 198.035C89.8779 198.035 87.7118 197.965 85.5874 197.831C85.08 197.798 84.6953 197.36 84.7287 196.853C84.7622 196.346 85.1664 195.953 85.7073 195.995C88.1104 196.148 90.5665 196.212 93.0003 196.19H93.0087C93.5133 196.19 93.9231 196.597 93.9287 197.101C93.9343 197.608 93.5244 198.024 93.017 198.029C92.6881 198.032 92.3563 198.035 92.0274 198.035H92.0246ZM100.357 197.7C99.8836 197.7 99.4793 197.335 99.4403 196.853C99.4012 196.346 99.7776 195.903 100.285 195.864C102.677 195.674 105.116 195.398 107.539 195.041C108.046 194.969 108.509 195.315 108.584 195.819C108.657 196.321 108.311 196.789 107.807 196.864C105.345 197.224 102.864 197.505 100.433 197.7C100.408 197.7 100.383 197.703 100.357 197.703V197.7ZM78.325 197.09C78.2832 197.09 78.2386 197.087 78.1968 197.082C75.7463 196.739 73.2846 196.296 70.8787 195.769C70.3824 195.66 70.0674 195.17 70.1761 194.674C70.2848 194.178 70.7755 193.86 71.2717 193.971C73.6303 194.49 76.0446 194.922 78.4477 195.259C78.9523 195.329 79.3036 195.794 79.2311 196.298C79.167 196.758 78.7739 197.09 78.3194 197.09H78.325ZM114.918 195.577C114.492 195.577 114.11 195.278 114.018 194.846C113.912 194.348 114.233 193.86 114.729 193.757C117.076 193.263 119.465 192.686 121.835 192.043C122.329 191.909 122.83 192.199 122.964 192.689C123.098 193.18 122.808 193.684 122.317 193.818C119.914 194.47 117.489 195.055 115.108 195.557C115.044 195.571 114.98 195.577 114.916 195.577H114.918ZM63.9508 193.932C63.8616 193.932 63.7724 193.918 63.6832 193.893C61.3302 193.183 58.9661 192.372 56.655 191.474C56.1811 191.29 55.9441 190.758 56.1281 190.284C56.3121 189.81 56.8474 189.573 57.3185 189.757C59.5878 190.635 61.9073 191.432 64.2157 192.129C64.7035 192.277 64.9768 192.79 64.8318 193.275C64.7119 193.673 64.3467 193.929 63.9508 193.929V193.932ZM129.131 191.728C128.743 191.728 128.384 191.483 128.256 191.095C128.097 190.613 128.359 190.092 128.841 189.933C131.116 189.183 133.435 188.353 135.733 187.464C136.207 187.28 136.739 187.517 136.923 187.99C137.107 188.464 136.87 188.997 136.396 189.181C134.068 190.078 131.721 190.92 129.418 191.68C129.323 191.711 129.226 191.728 129.128 191.728H129.131ZM50.2457 188.587C50.0979 188.587 49.9502 188.553 49.8108 188.478C47.639 187.313 45.5565 185.853 43.6245 184.136C43.2454 183.799 43.2091 183.216 43.5493 182.837C43.8866 182.458 44.4692 182.425 44.8484 182.762C46.6717 184.384 48.6343 185.761 50.6806 186.859C51.1294 187.099 51.2967 187.656 51.057 188.105C50.8897 188.414 50.5747 188.59 50.2457 188.59V188.587ZM142.875 186.43C142.521 186.43 142.184 186.224 142.033 185.881C141.827 185.415 142.039 184.872 142.504 184.668C144.704 183.701 146.94 182.659 149.148 181.572C149.605 181.349 150.157 181.536 150.38 181.99C150.606 182.447 150.416 182.999 149.962 183.222C147.732 184.32 145.471 185.374 143.249 186.352C143.129 186.405 143.003 186.43 142.878 186.43H142.875ZM156.098 179.928C155.772 179.928 155.457 179.755 155.289 179.446C155.047 179 155.211 178.44 155.66 178.197C157.776 177.046 159.923 175.828 162.042 174.577C162.479 174.321 163.043 174.463 163.305 174.9C163.564 175.338 163.419 175.901 162.981 176.16C160.846 177.425 158.68 178.654 156.541 179.814C156.402 179.889 156.251 179.925 156.104 179.925L156.098 179.928ZM39.2699 178.95C38.9911 178.95 38.7151 178.824 38.5339 178.582C37.0703 176.642 35.7293 174.504 34.5389 172.228C34.3047 171.776 34.4803 171.221 34.9292 170.987C35.3808 170.753 35.9356 170.926 36.1698 171.378C37.31 173.565 38.6008 175.616 40.0003 177.475C40.307 177.882 40.2261 178.459 39.8191 178.763C39.6546 178.888 39.4595 178.947 39.2671 178.947L39.2699 178.95ZM168.786 172.423C168.482 172.423 168.186 172.272 168.01 171.999C167.737 171.57 167.86 171.001 168.289 170.728C170.324 169.424 172.382 168.055 174.406 166.665C174.824 166.378 175.398 166.481 175.685 166.902C175.973 167.32 175.869 167.894 175.449 168.181C173.408 169.586 171.334 170.962 169.282 172.278C169.128 172.375 168.956 172.423 168.786 172.423ZM32.4368 165.971C32.0577 165.971 31.7008 165.734 31.5698 165.358C30.7558 163.047 30.0727 160.628 29.5403 158.165C29.4343 157.669 29.7493 157.178 30.2456 157.069C30.739 156.966 31.2325 157.278 31.3412 157.774C31.857 160.163 32.5177 162.509 33.3067 164.745C33.4767 165.224 33.223 165.748 32.7435 165.918C32.6431 165.954 32.54 165.971 32.4368 165.971ZM180.932 164.067C180.651 164.067 180.372 163.939 180.191 163.694C179.89 163.284 179.976 162.707 180.386 162.406C182.34 160.968 184.308 159.472 186.235 157.961C186.633 157.649 187.213 157.719 187.528 158.117C187.841 158.516 187.771 159.095 187.372 159.41C185.432 160.932 183.447 162.44 181.479 163.889C181.314 164.009 181.122 164.067 180.932 164.067ZM192.538 154.968C192.273 154.968 192.011 154.856 191.83 154.636C191.504 154.246 191.557 153.666 191.947 153.34C193.829 151.771 195.702 150.16 197.52 148.55C197.899 148.212 198.482 148.246 198.819 148.628C199.156 149.007 199.123 149.589 198.741 149.926C196.909 151.548 195.022 153.173 193.126 154.753C192.953 154.898 192.744 154.968 192.538 154.968ZM29.32 151.618C28.8517 151.618 28.4502 151.261 28.4056 150.785C28.2188 148.789 28.124 146.76 28.124 144.757C28.124 144.28 28.1296 143.801 28.1408 143.321C28.1519 142.82 28.5617 142.421 29.0607 142.421H29.083C29.5904 142.432 29.9947 142.853 29.9835 143.363C29.9724 143.829 29.9668 144.291 29.9668 144.757C29.9668 146.705 30.0588 148.672 30.24 150.612C30.2874 151.119 29.9166 151.568 29.4092 151.615C29.3786 151.618 29.3507 151.621 29.3228 151.621L29.32 151.618ZM203.57 145.175C203.327 145.175 203.082 145.077 202.903 144.888C202.552 144.52 202.569 143.937 202.937 143.586C205.359 141.29 207.119 139.512 208.167 138.425C208.521 138.057 209.104 138.048 209.469 138.4C209.834 138.754 209.845 139.336 209.494 139.701C208.432 140.802 206.653 142.6 204.205 144.921C204.027 145.091 203.798 145.175 203.572 145.175H203.57ZM29.6546 136.928C29.6127 136.928 29.5681 136.925 29.5235 136.92C29.0189 136.847 28.6704 136.382 28.7401 135.88C29.0914 133.394 29.596 130.933 30.2372 128.562C30.371 128.071 30.8784 127.781 31.3663 127.912C31.857 128.046 32.1469 128.551 32.0159 129.041C31.3942 131.34 30.9063 133.729 30.5662 136.137C30.5021 136.596 30.1062 136.928 29.6546 136.928ZM33.5074 122.759C33.3903 122.759 33.2676 122.737 33.1533 122.687C32.685 122.492 32.4647 121.951 32.6599 121.483C33.6328 119.159 34.7675 116.909 36.0304 114.797C36.2925 114.362 36.8584 114.22 37.2933 114.479C37.731 114.741 37.8732 115.304 37.6111 115.742C36.3928 117.779 35.2972 119.95 34.3605 122.193C34.2127 122.547 33.8698 122.759 33.5102 122.759H33.5074ZM41.0597 110.185C40.8534 110.185 40.6443 110.115 40.4742 109.973C40.0812 109.649 40.0282 109.07 40.3516 108.677C41.9462 106.748 43.7054 104.937 45.5732 103.295C45.9552 102.958 46.5378 102.997 46.8724 103.379C47.2097 103.761 47.1707 104.34 46.7887 104.678C44.9934 106.258 43.3039 107.997 41.7706 109.85C41.5894 110.07 41.3245 110.185 41.0597 110.185ZM52.069 100.505C51.7651 100.505 51.4668 100.355 51.2911 100.076C51.0179 99.6471 51.1462 99.0786 51.5783 98.8054C53.6608 97.49 55.8855 96.3111 58.1967 95.2967C58.6622 95.0932 59.2059 95.305 59.4094 95.7705C59.6129 96.2359 59.401 96.7793 58.9355 96.9828C56.708 97.9582 54.5641 99.0953 52.5596 100.361C52.4063 100.458 52.2362 100.503 52.069 100.503V100.505Z" fill="#F8931F"/>
<path d="M154.419 284.065C154.325 284.065 154.227 284.051 154.132 284.018C153.65 283.859 153.388 283.338 153.547 282.855C153.555 282.83 154.4 280.264 155.668 275.818C155.808 275.331 156.318 275.049 156.806 275.186C157.294 275.325 157.578 275.835 157.439 276.323C156.159 280.807 155.303 283.404 155.295 283.43C155.167 283.817 154.807 284.062 154.419 284.062V284.065ZM158.495 269.882C158.417 269.882 158.339 269.874 158.261 269.852C157.77 269.723 157.475 269.219 157.603 268.728C158.219 266.379 158.821 263.982 159.396 261.599C159.516 261.106 160.012 260.802 160.505 260.919C160.999 261.039 161.303 261.535 161.186 262.029C160.608 264.423 160.004 266.833 159.385 269.194C159.276 269.606 158.902 269.882 158.495 269.882ZM161.947 255.555C161.883 255.555 161.816 255.549 161.749 255.532C161.252 255.424 160.937 254.93 161.049 254.434C161.573 252.057 162.083 249.638 162.563 247.241C162.663 246.742 163.148 246.422 163.647 246.519C164.146 246.62 164.47 247.105 164.369 247.603C163.887 250.009 163.374 252.442 162.847 254.83C162.752 255.259 162.37 255.552 161.949 255.552L161.947 255.555ZM164.843 241.107C164.79 241.107 164.735 241.101 164.679 241.093C164.177 241.004 163.845 240.525 163.934 240.026C164.369 237.601 164.785 235.165 165.161 232.78C165.242 232.278 165.71 231.938 166.215 232.016C166.717 232.097 167.06 232.568 166.979 233.069C166.6 235.466 166.184 237.916 165.746 240.352C165.666 240.798 165.278 241.11 164.84 241.11L164.843 241.107ZM167.149 226.556C167.107 226.556 167.065 226.556 167.023 226.548C166.519 226.478 166.167 226.016 166.234 225.511C166.566 223.075 166.873 220.623 167.143 218.223C167.199 217.719 167.653 217.351 168.161 217.412C168.665 217.468 169.028 217.925 168.972 218.43C168.699 220.843 168.392 223.31 168.058 225.759C167.994 226.222 167.6 226.556 167.146 226.556H167.149ZM168.796 211.917C168.769 211.917 168.741 211.917 168.716 211.914C168.208 211.869 167.835 211.423 167.879 210.916C168.097 208.447 168.281 205.983 168.423 203.595C168.454 203.088 168.877 202.7 169.399 202.731C169.906 202.761 170.293 203.196 170.263 203.706C170.118 206.111 169.934 208.592 169.714 211.078C169.672 211.557 169.27 211.917 168.799 211.917H168.796ZM169.683 197.218C169.683 197.218 169.663 197.218 169.652 197.218C169.145 197.201 168.746 196.778 168.76 196.271C168.838 193.835 168.874 191.402 168.874 189.041V188.938C168.874 188.431 169.287 188.018 169.794 188.018C170.302 188.018 170.714 188.431 170.714 188.938V189.041C170.714 191.421 170.675 193.874 170.597 196.329C170.581 196.828 170.174 197.221 169.677 197.221L169.683 197.218ZM169.666 182.492C169.173 182.492 168.766 182.102 168.746 181.606C168.657 179.136 168.523 176.676 168.345 174.287C168.306 173.78 168.688 173.34 169.195 173.301C169.694 173.264 170.143 173.643 170.182 174.151C170.363 176.561 170.5 179.047 170.589 181.539C170.606 182.046 170.21 182.472 169.702 182.492C169.691 182.492 169.68 182.492 169.669 182.492H169.666ZM168.551 167.808C168.091 167.808 167.695 167.465 167.639 166.997C167.347 164.541 166.995 162.105 166.597 159.753C166.51 159.252 166.85 158.778 167.35 158.694C167.843 158.605 168.325 158.948 168.409 159.447C168.813 161.827 169.167 164.296 169.463 166.779C169.524 167.284 169.162 167.741 168.657 167.802C168.621 167.808 168.585 167.808 168.546 167.808H168.551ZM166.075 153.299C165.654 153.299 165.275 153.009 165.178 152.582C164.629 150.169 164.01 147.789 163.341 145.515C163.198 145.027 163.477 144.514 163.965 144.372C164.453 144.233 164.966 144.509 165.108 144.996C165.788 147.31 166.416 149.726 166.973 152.178C167.085 152.674 166.775 153.168 166.279 153.279C166.209 153.296 166.142 153.302 166.075 153.302V153.299ZM161.902 139.188C161.528 139.188 161.177 138.96 161.041 138.589C160.176 136.276 159.228 134.016 158.225 131.87C158.01 131.41 158.208 130.861 158.668 130.646C159.128 130.429 159.677 130.63 159.892 131.09C160.918 133.28 161.885 135.588 162.766 137.945C162.945 138.422 162.702 138.952 162.225 139.13C162.119 139.169 162.011 139.188 161.905 139.188H161.902ZM155.646 125.884C155.328 125.884 155.022 125.719 154.852 125.427C153.617 123.308 152.284 121.263 150.887 119.34C150.589 118.927 150.681 118.353 151.091 118.055C151.501 117.757 152.078 117.849 152.376 118.258C153.806 120.229 155.172 122.33 156.441 124.498C156.697 124.939 156.549 125.502 156.109 125.758C155.964 125.845 155.802 125.884 155.646 125.884ZM147.004 114.006C146.753 114.006 146.502 113.902 146.321 113.702C144.695 111.907 142.961 110.19 141.166 108.607C140.784 108.27 140.748 107.69 141.085 107.309C141.422 106.927 142.002 106.891 142.384 107.228C144.233 108.858 146.017 110.622 147.687 112.47C148.027 112.846 147.999 113.429 147.623 113.769C147.447 113.928 147.227 114.006 147.006 114.006H147.004ZM135.994 104.293C135.813 104.293 135.629 104.24 135.468 104.129C133.505 102.757 131.428 101.478 129.301 100.322C128.855 100.079 128.69 99.519 128.933 99.0731C129.175 98.6272 129.736 98.4628 130.182 98.7053C132.37 99.8953 134.503 101.211 136.524 102.621C136.942 102.911 137.043 103.485 136.753 103.903C136.574 104.159 136.287 104.296 135.997 104.296L135.994 104.293ZM123.103 97.2644C122.986 97.2644 122.866 97.2421 122.752 97.1947C120.558 96.2834 118.258 95.4585 115.916 94.7394C115.431 94.5917 115.158 94.0761 115.306 93.5912C115.453 93.1035 115.969 92.8332 116.454 92.9809C118.855 93.7166 121.21 94.5639 123.457 95.4947C123.929 95.6898 124.149 96.2277 123.954 96.6987C123.806 97.0526 123.466 97.2672 123.103 97.2672V97.2644Z" fill="#F8931F"/>
<path d="M418.299 474.901C418.299 474.901 388.747 417.134 403.107 360.968C403.587 359.09 410.894 361.18 411.474 359.307C412.215 356.913 406.269 350.562 407.186 348.187C410.598 339.358 415.26 330.685 421.463 322.403C421.463 322.403 433.169 339.445 439.244 366.049C439.701 368.056 432.235 373.641 432.62 375.753C432.985 377.749 441.209 376.263 441.496 378.348C445.226 405.297 442.015 439.432 418.296 474.901H418.299Z" fill="#C2E1DE"/>
<path d="M392.578 406.707C391.348 405.027 384.345 411.094 383.096 409.497C381.864 407.923 385.187 396.541 383.944 395.05C359.528 365.801 333.537 352.39 333.537 352.39C331.234 367.587 331.493 382.138 333.623 395.914C333.963 398.112 343.916 401.786 344.348 403.946C344.822 406.314 336.698 409.274 337.278 411.596C345.831 445.87 364.504 472.68 383.01 493.635C397.451 488.552 410.548 482.167 422.363 474.681C416.682 446.087 405.896 424.903 392.583 406.71L392.578 406.707Z" fill="#26AA9D"/>
<path d="M399.877 474.391C399.581 474.391 399.291 474.249 399.113 473.985C392.57 464.269 386.194 454.245 380.161 444.192C379.899 443.757 380.041 443.192 380.476 442.93C380.911 442.668 381.477 442.81 381.739 443.245C387.758 453.269 394.117 463.266 400.64 472.956C400.925 473.377 400.813 473.951 400.392 474.233C400.233 474.339 400.055 474.389 399.879 474.389L399.877 474.391Z" fill="#D8D8D8"/>
<path d="M372.525 430.199C372.204 430.199 371.892 430.032 371.725 429.733C361.973 412.541 352.868 394.704 344.657 376.723L340.905 368.501C340.693 368.039 340.897 367.492 341.359 367.283C341.822 367.072 342.369 367.275 342.578 367.738L346.33 375.959C354.518 393.893 363.601 411.682 373.325 428.828C373.576 429.271 373.42 429.831 372.979 430.082C372.834 430.162 372.681 430.201 372.525 430.201V430.199Z" fill="#D8D8D8"/>
<path d="M416.626 478.128C416.626 478.128 404.931 416.392 465.388 394.963C465.388 394.963 470.454 448.854 416.626 478.128Z" fill="#26AA9D"/>
<path d="M427.479 462.056C427.378 462.056 427.275 462.04 427.175 462.006C426.695 461.839 426.442 461.312 426.612 460.833C433.548 441.032 455.12 410.367 455.338 410.06C455.631 409.645 456.208 409.548 456.62 409.84C457.036 410.133 457.133 410.707 456.841 411.122C456.626 411.429 435.198 441.882 428.349 461.443C428.215 461.822 427.861 462.059 427.479 462.059V462.056Z" fill="#D8D8D8"/>
</svg>
