<svg width="510" height="450" viewBox="0 0 510 450" fill="none" xmlns="http://www.w3.org/2000/svg">
<path d="M448.219 232.148C448.197 232.095 448.219 232.03 448.273 232.009C448.327 231.988 448.38 232.009 448.413 232.063C451.522 239.193 453.696 246.687 455.525 254.235C457.278 261.815 458.559 269.492 459.452 277.222L460.011 283.035C460.097 284.01 460.205 284.973 460.27 285.947L460.431 288.859C460.517 290.808 460.635 292.746 460.689 294.694L460.635 300.529L460.571 303.452C460.528 304.426 460.453 305.401 460.388 306.364C460.237 308.302 460.119 310.251 459.947 312.188C459.57 316.064 458.989 319.908 458.387 323.741C458.387 323.794 458.333 323.826 458.29 323.826C458.236 323.826 458.182 323.783 458.182 323.719C458.182 321.771 458.279 319.833 458.322 317.895C458.376 315.957 458.548 314.03 458.516 312.092C458.516 310.154 458.559 308.227 458.58 306.3L458.634 303.409L458.58 300.519L458.559 294.737L458.397 288.956L458.333 286.065C458.301 285.102 458.225 284.138 458.171 283.174L457.816 277.393C457.139 269.706 456.073 262.04 454.524 254.46C452.975 246.891 451.07 239.354 448.23 232.148H448.219Z" fill="#263238"/>
<path d="M447.39 262.404C447.39 262.404 447.401 262.297 447.455 262.276C447.509 262.254 447.563 262.276 447.584 262.34C449.263 267.147 450.597 272.061 451.727 277.04C452.802 282.018 453.652 287.061 454.169 292.146C454.685 297.21 455.256 302.274 455.32 307.371C455.395 312.456 455.32 317.552 454.771 322.638C454.771 322.681 454.728 322.723 454.675 322.734C454.621 322.734 454.567 322.702 454.556 322.638C453.964 317.563 453.609 312.51 453.254 307.456C452.889 302.403 452.845 297.339 452.512 292.285C452.2 287.243 451.565 282.232 450.694 277.243C449.844 272.254 448.778 267.286 447.369 262.415L447.39 262.404Z" fill="#263238"/>
<path d="M430.53 273.057C430.53 273.057 430.627 272.993 430.67 273.025C434.888 275.68 438.654 279.031 441.946 282.8C443.56 284.716 445.066 286.718 446.358 288.902L447.261 290.605L447.972 292.371C448.23 292.96 448.402 293.56 448.585 294.159C448.768 294.759 448.972 295.358 449.134 295.968C450.403 300.829 451.242 305.786 451.468 310.765C451.673 315.743 451.576 320.721 450.909 325.668C450.909 325.711 450.866 325.753 450.812 325.753C450.758 325.753 450.704 325.711 450.704 325.657L449.424 310.904C448.908 306.022 448.596 301.118 447.541 296.354C447.412 295.765 447.24 295.176 447.089 294.587C446.939 293.998 446.788 293.41 446.573 292.853L445.97 291.151L445.196 289.545C444.055 287.414 442.656 285.38 441.161 283.442C438.148 279.577 434.608 276.055 430.573 273.185C430.573 273.185 430.52 273.089 430.541 273.046L430.53 273.057Z" fill="#263238"/>
<path d="M438.686 292.007C440.988 293.485 442.516 295.808 443.807 298.142C445.034 300.529 446.013 303.056 446.68 305.658C446.885 306.3 447.046 306.953 447.186 307.606L447.649 309.565C447.885 310.882 448.068 312.21 448.144 313.548C448.165 314.886 448.197 316.225 448.111 317.552C448.004 318.891 447.842 320.218 447.584 321.535C447.584 321.578 447.541 321.61 447.498 321.621C447.444 321.631 447.39 321.599 447.38 321.535C447.057 320.218 446.842 318.912 446.669 317.617C446.465 316.321 446.261 315.026 446.099 313.741C445.906 312.456 445.733 311.171 445.637 309.876C445.454 308.602 445.357 307.285 445.077 306.022C444.625 303.463 443.883 300.968 442.882 298.581C441.881 296.215 440.58 293.849 438.578 292.189H438.568C438.568 292.189 438.514 292.082 438.546 292.039C438.578 291.996 438.643 291.975 438.686 292.007Z" fill="#263238"/>
<path d="M462.335 306.782C462.895 300.23 463.971 293.752 465.004 287.264C466.037 280.787 467.166 274.32 468.361 267.875C469.598 261.43 470.889 255.006 472.277 248.593C472.288 248.54 472.342 248.507 472.395 248.518C472.449 248.518 472.492 248.582 472.481 248.636C471.352 255.092 470.34 261.569 469.372 268.046C468.382 274.524 467.457 281.001 466.628 287.5C465.821 293.998 465.197 300.508 464.38 306.996L461.969 326.492C461.969 326.492 461.926 326.578 461.873 326.578C461.819 326.578 461.765 326.535 461.765 326.481C461.69 324.843 461.69 323.195 461.647 321.546C461.636 319.897 461.711 318.259 461.744 316.621C461.808 313.334 462.088 310.058 462.335 306.782Z" fill="#263238"/>
<path d="M466.284 306.685C466.639 304.095 467.113 301.514 467.608 298.945L468.533 295.123C468.834 293.849 469.125 292.575 469.501 291.311C470.814 286.236 472.492 281.247 474.537 276.419L475.322 274.62L476.204 272.854C476.764 271.665 477.442 270.53 478.077 269.395C479.454 267.169 480.885 264.931 482.832 263.132C482.875 263.1 482.929 263.1 482.972 263.132C483.015 263.175 483.015 263.239 482.972 263.271C481.175 265.134 479.863 267.425 478.625 269.695C478.055 270.862 477.452 272.008 476.958 273.207L476.183 274.984L475.494 276.804C473.676 281.654 472.213 286.633 471.104 291.707C470.502 294.223 470.104 296.793 469.62 299.33L469.006 303.174C468.78 304.448 468.511 305.722 468.328 307.007C467.92 309.565 467.446 312.124 466.994 314.683C466.596 317.253 466.123 319.811 465.585 322.381C465.585 322.424 465.531 322.467 465.488 322.467C465.434 322.467 465.38 322.424 465.38 322.359C465.37 319.747 465.434 317.124 465.563 314.512C465.714 311.899 466.026 309.298 466.295 306.696L466.284 306.685Z" fill="#263238"/>
<path d="M471.728 307.028C472.944 303.591 474.354 300.23 475.892 296.932C477.474 293.656 479.174 290.433 481.132 287.371C481.164 287.328 481.229 287.307 481.272 287.339C481.326 287.371 481.337 287.436 481.304 287.478C479.594 290.658 478.141 293.977 476.828 297.339C475.494 300.69 474.289 304.084 473.278 307.542C472.245 310.989 471.513 314.512 470.588 317.97C469.62 321.428 468.834 324.929 467.769 328.441C467.758 328.483 467.715 328.516 467.672 328.516C467.618 328.516 467.564 328.473 467.564 328.409C467.511 324.747 467.877 321.096 468.587 317.51C469.232 313.902 470.502 310.454 471.718 307.028H471.728Z" fill="#263238"/>
<path d="M471.954 318.473C472.578 316.321 473.644 314.319 474.849 312.424C476.032 310.529 477.409 308.73 479.066 307.21C479.916 306.482 480.788 305.775 481.745 305.197C482.692 304.608 483.693 304.105 484.79 303.827C484.833 303.816 484.887 303.838 484.909 303.88C484.93 303.934 484.909 303.987 484.855 304.02H484.844C482.875 304.897 481.207 306.343 479.798 307.927C478.367 309.512 477.226 311.332 476.28 313.227C475.279 315.111 474.763 317.188 473.891 319.126C473.504 320.122 473.127 321.118 472.686 322.113C472.309 323.13 471.89 324.137 471.363 325.143C471.363 325.143 471.309 325.207 471.276 325.207C471.223 325.207 471.169 325.165 471.169 325.111C471.126 323.987 471.19 322.873 471.298 321.76C471.459 320.657 471.696 319.565 471.954 318.484V318.473Z" fill="#263238"/>
<path d="M471.545 257.972C471.545 257.972 482.326 255.499 484.823 243.936C487.308 232.384 479.292 237.33 486.48 219.172C493.667 201.014 492.01 196.882 489.525 191.657C487.039 186.432 485.651 188.081 483.445 194.955C481.229 201.839 473.213 212.566 470.168 232.651C467.123 252.736 471.556 257.972 471.556 257.972H471.545Z" fill="#F8931F"/>
<path d="M450.252 238.433C450.252 238.433 457.44 235.96 457.719 222.47C457.999 208.991 452.469 211.742 451.64 194.955C450.812 178.167 449.704 166.337 446.659 166.058C443.614 165.78 435.598 174.313 432.833 193.027C430.068 211.742 436.426 224.119 441.957 229.622C447.487 235.125 450.252 238.422 450.252 238.422V238.433Z" fill="#F8931F"/>
<path d="M475.419 274.213C475.419 274.213 477.076 264.31 480.4 259.631C483.714 254.953 490.912 250.831 495.614 241.741C500.316 232.662 505.567 228.262 505.298 241.195C505.018 254.128 499.219 260.734 492.021 265.134C484.833 269.535 475.43 274.213 475.43 274.213H475.419Z" fill="#F8931F"/>
<path d="M478.464 291.268C478.464 291.268 485.102 278.614 494.775 269.256C504.459 259.899 512.195 255.22 509.43 259.899C506.664 264.578 503.351 264.299 498.649 272.554C493.947 280.808 495.335 286.857 488.696 291.536C482.058 296.215 478.464 291.258 478.464 291.258V291.268Z" fill="#F8931F"/>
<path d="M479.292 307.51C479.572 306.685 479.841 300.626 489.245 295.679C498.649 290.722 507.493 292.649 506.396 295.133C505.287 297.607 499.477 301.739 493.678 304.212C487.868 306.685 479.292 307.51 479.292 307.51Z" fill="#F8931F"/>
<path d="M450.801 274.759C450.801 274.759 454.954 269.535 452.738 258.529C450.522 247.522 445.551 250.274 440.02 244.493C434.49 238.711 435.598 237.887 430.068 231.838C424.537 225.789 419.556 222.48 417.35 224.954C415.134 227.427 418.458 235.135 421.772 239.536C425.086 243.936 430.348 246.141 432.833 251.644C435.318 257.147 434.221 265.948 440.58 270.081C446.939 274.213 450.812 274.759 450.812 274.759H450.801Z" fill="#F8931F"/>
<path d="M436.975 277.789C436.975 277.789 427.023 266.505 419.825 258.25C412.637 249.996 409.872 243.668 409.592 249.171C409.313 254.674 407.107 259.075 412.906 266.237C418.716 273.389 436.965 277.789 436.965 277.789H436.975Z" fill="#F8931F"/>
<path d="M442.237 295.947C442.237 295.947 442.516 291.547 426.754 281.365C410.991 271.183 404.353 269.256 406.01 273.389C407.666 277.521 414.585 281.643 422.052 289.074C429.519 296.504 442.237 295.958 442.237 295.958V295.947Z" fill="#F8931F"/>
<path d="M470.889 256.805C470.889 256.805 474.59 237.062 478.464 223.026C482.337 208.991 484.823 200.458 484.823 200.458" stroke="#263238" stroke-linecap="round" stroke-linejoin="round"/>
<path d="M450.887 238.647C450.887 238.647 444.163 217.256 441.957 204.323C439.74 191.389 442.237 181.754 443.345 175.983" stroke="#263238" stroke-linecap="round" stroke-linejoin="round"/>
<path d="M476.29 273.796C476.29 273.796 480.401 266.505 486.48 259.353C492.559 252.201 497.261 248.347 500.026 241.463" stroke="#263238" stroke-linecap="round" stroke-linejoin="round"/>
<path d="M450.801 274.759C450.801 274.759 448.585 261.548 443.334 254.674C438.084 247.79 427.572 237.062 423.418 230.189" stroke="#263238" stroke-linecap="round" stroke-linejoin="round"/>
<path d="M479.938 307.21C479.938 307.21 489.245 301.182 495.884 297.885" stroke="#263238" stroke-linecap="round" stroke-linejoin="round"/>
<path d="M426.657 362.669C427.281 345.967 445.927 334.843 445.927 334.843H474.504C474.504 334.843 493.151 345.978 493.775 362.669C494.399 379.37 472.643 440.589 472.643 440.589H447.799C447.799 440.589 426.044 379.36 426.668 362.669H426.657Z" fill="#263238" stroke="#263238" stroke-linecap="round" stroke-linejoin="round"/>
<path d="M442.248 318.42H478.711L474.504 334.843H446.454L442.248 318.42Z" fill="#263238" stroke="#263238" stroke-linecap="round" stroke-linejoin="round"/>
<path d="M4.59426 440.589H504.577" stroke="#263238" stroke-linecap="round" stroke-linejoin="round"/>
<path d="M306.306 367.671C306.306 367.671 283.01 336.763 253.923 315.333C224.85 293.903 199.914 285.12 193.062 287.179C186.224 289.224 180.205 295.802 180.205 295.802L98.9636 376.962C98.9636 376.962 72.1742 398.031 69.2051 399.863C66.2359 401.694 52.4247 410.29 43.9472 412.937C35.4698 415.584 21.5914 415.17 21.5108 417.736C21.4302 420.303 23.3111 422.295 27.4625 424.02C31.6139 425.744 41.8514 428.953 51.538 429.233C61.2247 429.514 67.3107 430.985 70.1992 431.72C73.0878 432.442 81.3637 436.225 83.4059 433.07C85.4346 429.915 88.2425 411.68 88.9545 409.769C89.6666 407.857 115.408 389.342 133.438 380.558C151.468 371.775 173.541 357.324 179.883 350.439C186.224 343.554 195.588 332.899 195.588 332.899C195.588 332.899 224.487 360.118 234.442 372.938C244.398 385.772 260.399 401.667 289.391 415.063C318.384 428.458 329.052 417.523 330.986 406.654C332.921 395.785 306.306 367.671 306.306 367.671Z" fill="white" stroke="#263238" stroke-linecap="round" stroke-linejoin="round"/>
<path d="M253.923 315.333C224.85 293.903 199.914 285.12 193.062 287.179C186.224 289.224 180.205 295.802 180.205 295.802L99.9175 376C101.664 380.852 105.627 387.109 114.656 391.213C120.984 387.243 127.594 383.393 133.411 380.558C151.441 371.775 173.514 357.324 179.856 350.439C186.197 343.554 195.561 332.899 195.561 332.899C195.561 332.899 224.46 360.118 234.415 372.938C244.371 385.772 271.348 421.68 302.262 429.782C359.173 444.687 357.225 415.811 359.173 404.943C361.108 394.074 306.293 367.671 306.293 367.671C306.293 367.671 282.996 336.763 253.91 315.333H253.923Z" fill="#263238" stroke="#263238" stroke-linecap="round" stroke-linejoin="round"/>
<path d="M21.5108 417.736C21.4302 420.303 23.3111 422.295 27.4625 424.02C31.6139 425.744 41.8514 428.953 51.538 429.233C61.2247 429.514 67.3107 430.985 70.1992 431.72C73.0878 432.442 81.3637 436.225 83.4059 433.07C85.1524 430.356 87.4767 416.506 88.538 411.467C79.6844 411.761 69.6215 407.911 69.6215 407.911C69.6215 407.911 70.3336 405.678 69.2185 399.863C66.2628 401.707 52.4382 410.29 43.9607 412.937C35.4832 415.584 21.6048 415.17 21.5242 417.736H21.5108Z" fill="white" stroke="#263238" stroke-linecap="round" stroke-linejoin="round"/>
<path d="M406.222 248.865C398.524 242.033 381.22 225.63 369.142 205.123C357.05 184.615 360.355 178.065 351.286 161.929C342.218 145.806 329.038 137.879 311.183 141.421C296.673 144.309 289.244 152.972 286.96 156.113C286.449 156.822 285.925 157.504 285.361 158.172C282.754 161.22 274.492 172.463 268.325 198.826C260.909 230.536 261.178 246.124 272.45 253.503C283.708 260.883 291.675 257.608 294.98 261.164C298.272 264.72 299.374 269.091 296.633 269.091C293.892 269.091 292.508 267.447 292.508 267.447C292.508 267.447 298.823 277.019 304.868 274.278C310.914 271.538 317.78 261.698 313.386 248.584C308.993 235.456 297.184 222.074 295.249 219.614C293.328 217.154 289.485 188.719 289.485 188.719C289.485 188.719 289.754 179.147 300.475 182.436C311.183 185.711 325.746 191.727 330.422 201.299C335.097 210.871 352.402 232.461 367.503 239.025C382.617 245.589 388.663 251.605 394.144 267.728C399.626 283.85 399.639 289.05 399.639 289.05C399.639 289.05 410.898 283.85 413.101 272.099C415.304 260.348 413.92 255.696 406.236 248.865H406.222ZM273.538 249.413C268.312 243.677 271.617 233.29 271.617 233.29C269.964 248.049 287 256.257 287 256.257C287 256.257 278.764 255.161 273.538 249.426V249.413Z" fill="#263238" stroke="#263238" stroke-linecap="round" stroke-linejoin="round"/>
<path d="M307.515 370.198C307.515 370.198 271.026 363.768 261.984 366.989C252.942 370.198 229.377 408.753 225.172 413.258C220.98 417.75 216.453 419.688 212.583 419.688C208.714 419.688 194.822 417.122 186.748 418.726C178.673 420.33 168.664 425.477 169.632 430.29C170.599 435.102 175.127 437.362 189.972 439.608C204.818 441.854 220.644 436.399 224.85 434.14C229.041 431.894 233.891 428.672 235.181 428.03C236.471 427.389 248.092 424.822 254.554 420.638C261.017 416.467 268.11 409.715 268.11 409.715C268.11 409.715 295.558 422.242 305.89 427.71C316.221 433.177 332.37 436.707 341.412 436.707C350.453 436.707 370.149 434.14 374.986 431.894C379.822 429.648 388.864 420.972 388.864 411.012C388.864 401.053 389.939 387.149 386.661 386.548C383.383 385.946 380.467 387.243 377.243 386.922C374.019 386.601 356.257 376.642 351.73 374.716C347.216 372.791 307.502 370.225 307.502 370.225L307.515 370.198Z" fill="#263238" stroke="#263238" stroke-linecap="round" stroke-linejoin="round"/>
<path d="M251.008 378.433C254.904 374.048 259.767 368.754 261.984 366.976C266.014 363.768 295.961 367.203 295.961 367.203" stroke="white" stroke-linecap="round" stroke-linejoin="round"/>
<path d="M245.298 384.97C245.298 384.97 246.681 383.353 248.683 381.08" stroke="white" stroke-linecap="round" stroke-linejoin="round"/>
<path d="M224.205 414.221C220.295 418.004 216.171 419.675 212.597 419.675C208.728 419.675 194.836 417.108 186.761 418.713C178.687 420.317 168.678 425.464 169.645 430.276C170.612 435.089 175.14 437.348 189.986 439.594C204.831 441.84 220.658 436.386 224.863 434.126C228.961 431.934 233.65 428.833 235.087 428.084C228.007 424.755 225.266 418.258 224.218 414.207L224.205 414.221Z" fill="white" stroke="#263238" stroke-linecap="round" stroke-linejoin="round"/>
<path d="M213.551 426.413C211.992 423.886 213.725 421.132 215.351 419.341C214.397 419.555 213.47 419.662 212.583 419.662C208.714 419.662 194.822 417.095 186.748 418.699C178.673 420.303 168.664 425.45 169.632 430.263C170.599 435.075 175.127 437.335 189.972 439.581C204.818 441.827 220.644 436.372 224.85 434.113C225.495 433.765 226.153 433.404 226.811 433.03C222.727 432.469 215.808 430.049 213.551 426.413Z" fill="white" stroke="#263238" stroke-linecap="round" stroke-linejoin="round"/>
<path d="M313.091 237.394C313.091 237.394 287.82 237.662 285.065 247.234C282.325 256.805 284.797 303.823 284.515 319.397C284.232 334.971 284.246 345.092 286.167 348.915C288.088 352.738 299.36 359.85 300.18 360.118C300.999 360.385 299.911 368.861 299.911 368.861C299.911 368.861 319.419 371.321 330.409 371.588C341.398 371.855 351.287 375.96 361.457 383.887C371.627 391.815 378.21 397.015 378.21 397.015L384.525 390.184C384.525 390.184 386.997 413.418 389.751 424.086C392.492 434.741 401.842 435.289 404.583 435.289C407.324 435.289 416.393 435.022 416.393 435.022C416.393 435.022 407.606 418.899 403.75 407.964C399.908 397.028 397.436 387.737 397.436 387.737C397.436 387.737 399.357 384.729 399.357 378.165C399.357 371.601 397.987 367.778 398.255 361.214C398.524 354.65 410.347 325.948 405.403 293.97C400.459 261.992 402.111 252.969 390.02 246.672C377.928 240.375 351.555 236.552 344.139 236.017C336.723 235.469 313.091 237.381 313.091 237.381V237.394Z" fill="#F8931F" stroke="#263238" stroke-linecap="round" stroke-linejoin="round"/>
<path d="M295.236 219.627C294.819 219.093 294.295 217.288 293.744 214.815C287.981 205.229 282.768 195.323 281.398 190.631C279.329 183.505 280.927 169.95 282.002 162.824C278.281 168.706 272.759 179.856 268.312 198.853C260.896 230.563 261.164 246.151 272.436 253.53C283.695 260.91 291.662 257.634 294.967 261.19C298.258 264.746 299.36 269.118 296.619 269.118C293.879 269.118 292.495 267.474 292.495 267.474C292.495 267.474 298.809 277.045 304.855 274.305C310.901 271.564 317.766 261.725 313.373 248.611C308.98 235.483 297.17 222.101 295.236 219.641V219.627ZM273.538 249.426C268.312 243.691 271.617 233.303 271.617 233.303C269.964 248.062 287 256.271 287 256.271C287 256.271 278.764 255.174 273.538 249.439V249.426Z" fill="#263238" stroke="#263238" stroke-linecap="round" stroke-linejoin="round"/>
<path d="M348.022 363.754C352.765 364.436 355.868 364.877 355.868 364.877" stroke="#263238" stroke-linecap="round" stroke-linejoin="round"/>
<path d="M303.445 321.71C303.445 321.71 297.923 354.704 300.261 356.04C301.832 356.936 326.378 360.613 342.326 362.925" stroke="#263238" stroke-linecap="round" stroke-linejoin="round"/>
<path d="M302.598 357.698L299.898 368.874" stroke="#263238" stroke-linecap="round" stroke-linejoin="round"/>
<path d="M361.887 378.54C361.887 378.54 378.465 384.208 386.674 386.534C394.883 388.874 396.052 388.031 396.052 388.031" stroke="#263238" stroke-linecap="round" stroke-linejoin="round"/>
<path d="M334.09 262.046L346.477 269.051L346.813 258.717" stroke="#263238" stroke-linecap="round" stroke-linejoin="round"/>
<path d="M317.175 260.722L314.824 262.554" stroke="#263238" stroke-linecap="round" stroke-linejoin="round"/>
<path d="M301.59 283.048L301.429 276.711" stroke="#263238" stroke-linecap="round" stroke-linejoin="round"/>
<path d="M295.733 174.789C295.733 174.789 281.398 187.235 281.398 190.618C281.398 194 286.086 208.772 287.914 214.735C289.741 220.697 294.174 227.448 298.339 231.86C302.504 236.271 310.592 241.458 312.419 241.458C314.246 241.458 316.584 240.162 316.584 240.162C316.584 240.162 317.632 261.431 321.273 268.957C324.927 276.484 326.741 276.217 327.534 274.398C328.313 272.58 337.959 241.191 337.959 241.191L342.648 218.879L332.746 193.465C332.746 193.465 318.935 181.273 309.544 178.158C300.153 175.043 295.733 174.789 295.733 174.789Z" fill="white" stroke="#263238" stroke-linecap="round" stroke-linejoin="round"/>
<path d="M316.584 240.162C316.584 240.162 325.182 233.424 329.885 227.194C329.885 227.194 324.672 239.386 323.113 242.501C321.555 245.616 320.762 247.942 320.762 247.942L316.597 240.162H316.584Z" fill="#263238" stroke="#263238" stroke-linecap="round" stroke-linejoin="round"/>
<path d="M370.78 270.468C370.78 270.468 367.758 280.856 368.859 287.968C369.961 295.08 368.308 318.034 368.308 319.13C368.308 320.226 362.263 322.953 362.545 324.865C362.814 326.777 363.915 330.333 363.915 330.333L355.129 326.777L343.319 342.364C343.319 342.364 352.657 351.388 368.591 360.131C384.525 368.874 395.514 366.147 395.514 366.147C395.514 366.147 401.829 327.605 402.662 310.387C403.481 293.168 407.337 270.482 401.291 254.346C396.576 241.739 375.738 240.135 371.076 261.725" fill="#F8931F"/>
<path d="M370.78 270.468C370.78 270.468 367.758 280.856 368.859 287.968C369.961 295.08 368.308 318.034 368.308 319.13C368.308 320.226 362.263 322.953 362.545 324.865C362.814 326.777 363.915 330.333 363.915 330.333L355.129 326.777L343.319 342.364C343.319 342.364 352.657 351.388 368.591 360.131C384.525 368.874 395.514 366.147 395.514 366.147C395.514 366.147 401.829 327.605 402.662 310.387C403.481 293.168 407.337 270.482 401.291 254.346C396.576 241.739 375.738 240.135 371.076 261.725" stroke="#263238" stroke-linecap="round" stroke-linejoin="round"/>
<path d="M385.411 313.675L388.085 312.566" stroke="#263238" stroke-linecap="round" stroke-linejoin="round"/>
<path d="M371.6 319.397L382.066 315.066" stroke="#263238" stroke-linecap="round" stroke-linejoin="round"/>
<path d="M365.836 330.881C365.836 330.881 388.918 325.146 388.636 327.057C388.367 328.969 380.669 329.785 380.669 329.785" stroke="#263238" stroke-linecap="round" stroke-linejoin="round"/>
<path d="M368.309 331.977C368.309 331.977 385.344 333.889 388.367 341.001" stroke="#263238" stroke-linecap="round" stroke-linejoin="round"/>
<path d="M385.465 348.046C386.795 348.808 387.897 349.329 388.635 349.463" stroke="#263238" stroke-linecap="round" stroke-linejoin="round"/>
<path d="M366.938 334.437C366.938 334.437 375.993 341.87 382.671 346.295" stroke="#263238" stroke-linecap="round" stroke-linejoin="round"/>
<path d="M260.56 284.051C260.56 284.051 254.366 297.219 256.704 299.384C259.055 301.55 273.122 315.052 274.452 315.721C275.795 316.389 279.638 328.047 281.653 332.552C283.668 337.057 284.837 347.551 288.693 349.049C292.549 350.546 300.744 342.712 300.919 338.715C301.08 334.718 300.919 333.22 297.237 328.047C293.556 322.886 285.186 306.216 285.186 306.216L262.239 281.39L260.56 284.051Z" fill="white" stroke="#263238" stroke-linecap="round" stroke-linejoin="round"/>
<path d="M249.852 267.714L275.809 309.705L295.733 312.379L276.306 274.211L249.852 267.714Z" fill="#263238" stroke="#263238" stroke-linecap="round" stroke-linejoin="round"/>
<path d="M355.129 326.777C355.129 326.777 325.464 306.002 317.766 300.801C310.068 295.601 306.776 292.607 306.776 292.607C306.776 292.607 305.957 287.406 304.035 285.227C302.114 283.035 300.193 282.5 296.619 282.767C293.046 283.035 290.023 283.583 287.833 282.767C285.629 281.952 281.518 275.107 280.968 278.115C280.417 281.123 280.699 283.315 283.44 285.494C286.18 287.687 290.036 288.502 291.138 289.051C292.24 289.599 289.391 290.04 289.391 290.04C289.391 290.04 283.829 292.366 275.661 291.537C268.809 290.842 263.166 288.208 262.293 287.954C260.372 287.406 260.64 290.147 262.844 291.778C265.047 293.422 266.417 294.238 266.417 294.238C266.417 294.238 259.552 293.141 260.372 295.334C261.191 297.526 264.214 299.438 266.135 300.801C268.056 302.165 269.978 304.625 271.63 305.454C273.283 306.269 273.551 310.106 276.306 311.737C279.046 313.381 278.24 313.194 285.267 313.836C296.485 314.852 307.354 313.649 307.354 313.649L343.346 342.351L355.156 326.763L355.129 326.777Z" fill="white" stroke="#263238" stroke-linecap="round" stroke-linejoin="round"/>
<path d="M266.39 294.251C266.39 294.251 273.256 297.526 274.357 297.526H289.19" stroke="#263238" stroke-linecap="round" stroke-linejoin="round"/>
<path d="M264.94 300.213C264.94 300.213 268.648 300.735 269.615 301.376C270.582 302.018 276.87 303.261 278.805 303.582C280.739 303.903 287.51 303.743 287.51 303.743" stroke="#263238" stroke-linecap="round" stroke-linejoin="round"/>
<path d="M271.603 305.454C271.603 305.454 279.275 309.184 280.726 309.504C282.177 309.825 290.076 309.184 290.076 309.184" stroke="#263238" stroke-linecap="round" stroke-linejoin="round"/>
<path d="M361.712 219.628C346.329 203.505 334.52 185.725 334.52 185.725C334.52 185.725 331.497 228.638 338.094 246.953C344.69 265.268 368.86 257.608 377.378 252.969C385.895 248.316 388.918 244.774 394.131 245.589C394.131 245.589 377.095 235.75 361.712 219.614V219.628Z" fill="#263238" stroke="#263238" stroke-linecap="round" stroke-linejoin="round"/>
<path d="M299.844 172.624C290.251 161.287 295.746 174.803 295.746 174.803C295.746 174.803 314.112 192.262 332.76 193.479C332.76 193.479 309.437 183.96 299.844 172.624Z" fill="#263238" stroke="#263238" stroke-linecap="round" stroke-linejoin="round"/>
<path d="M129.617 245.723C129.433 245.723 129.247 245.654 129.107 245.511C128.824 245.229 128.824 244.772 129.107 244.49L130.79 242.811C131.073 242.529 131.531 242.529 131.814 242.811C132.097 243.093 132.097 243.55 131.814 243.832L130.13 245.511C129.99 245.651 129.804 245.723 129.62 245.723H129.617Z" fill="#26AA9D"/>
<path d="M135.977 239.38C135.793 239.38 135.606 239.31 135.466 239.168C135.183 238.886 135.183 238.429 135.466 238.147L137.149 236.467C137.432 236.185 137.89 236.185 138.173 236.467C138.456 236.75 138.456 237.207 138.173 237.489L136.49 239.168C136.349 239.308 136.163 239.38 135.979 239.38H135.977Z" fill="#26AA9D"/>
<path d="M137.66 245.723C137.476 245.723 137.29 245.654 137.149 245.511L135.466 243.832C135.183 243.55 135.183 243.093 135.466 242.811C135.749 242.529 136.207 242.529 136.49 242.811L138.173 244.49C138.456 244.772 138.456 245.229 138.173 245.511C138.033 245.651 137.847 245.723 137.662 245.723H137.66Z" fill="#26AA9D"/>
<path d="M131.299 239.38C131.115 239.38 130.928 239.31 130.788 239.168L129.105 237.489C128.822 237.207 128.822 236.75 129.105 236.467C129.387 236.185 129.846 236.185 130.128 236.467L131.812 238.147C132.095 238.429 132.095 238.886 131.812 239.168C131.672 239.308 131.485 239.38 131.301 239.38H131.299Z" fill="#26AA9D"/>
<path d="M211.228 68.9718C211.029 68.9718 210.83 68.8887 210.687 68.7291C210.422 68.4295 210.45 67.9747 210.748 67.7102L212.531 66.1358C212.831 65.8713 213.289 65.8997 213.552 66.1971C213.817 66.4966 213.789 66.9514 213.491 67.216L211.709 68.7903C211.57 68.9128 211.399 68.9718 211.228 68.9718Z" fill="#26AA9D"/>
<path d="M217.962 63.0287C217.763 63.0287 217.563 62.9456 217.421 62.786C217.156 62.4864 217.184 62.0316 217.482 61.767L219.264 60.1927C219.565 59.9281 220.023 59.9566 220.286 60.2539C220.551 60.5535 220.523 61.0083 220.225 61.2729L218.442 62.8472C218.304 62.9696 218.133 63.0287 217.962 63.0287Z" fill="#26AA9D"/>
<path d="M219.256 69.4593C219.056 69.4593 218.857 69.3762 218.715 69.2166L217.136 67.439C216.871 67.1394 216.9 66.6846 217.198 66.42C217.498 66.1554 217.954 66.1839 218.219 66.4812L219.797 68.2589C220.063 68.5585 220.034 69.0133 219.736 69.2778C219.598 69.4003 219.427 69.4593 219.256 69.4593Z" fill="#26AA9D"/>
<path d="M213.296 62.7445C213.096 62.7445 212.897 62.6614 212.754 62.5018L211.176 60.7241C210.911 60.4267 210.939 59.9697 211.237 59.7052C211.538 59.4406 211.996 59.469 212.259 59.7664L213.837 61.5441C214.102 61.8436 214.074 62.2984 213.776 62.563C213.638 62.6854 213.467 62.7445 213.296 62.7445Z" fill="#26AA9D"/>
<path d="M194.1 90.8205C194.023 90.8205 193.949 90.8183 193.872 90.814C192.881 90.7528 191.974 90.3134 191.318 89.5724C190.661 88.8314 190.332 87.8806 190.393 86.8926C190.455 85.9046 190.895 85.0018 191.638 84.3461C192.381 83.6903 193.328 83.3646 194.326 83.4236C196.369 83.5482 197.929 85.3057 197.804 87.345C197.684 89.3057 196.044 90.8227 194.1 90.8227V90.8205ZM194.096 84.8597C193.543 84.8597 193.015 85.0587 192.598 85.4259C192.145 85.8259 191.875 86.3789 191.838 86.98C191.761 88.2238 192.715 89.297 193.962 89.3735C195.205 89.45 196.285 88.4992 196.362 87.2554C196.439 86.0117 195.485 84.9384 194.24 84.8641C194.192 84.8619 194.146 84.8597 194.098 84.8597H194.096Z" fill="#26AA9D"/>
<path d="M365.038 429.966C364.838 429.966 364.639 429.882 364.496 429.723C364.231 429.423 364.26 428.968 364.558 428.704L366.34 427.13C366.64 426.865 367.098 426.893 367.361 427.191C367.627 427.49 367.598 427.945 367.3 428.21L365.518 429.784C365.38 429.906 365.209 429.966 365.038 429.966Z" fill="#F8931F"/>
<path d="M371.774 424.02C371.574 424.02 371.375 423.937 371.232 423.777C370.967 423.478 370.996 423.023 371.294 422.758L373.076 421.184C373.376 420.919 373.832 420.948 374.097 421.245C374.363 421.545 374.334 422 374.036 422.264L372.254 423.838C372.116 423.961 371.945 424.02 371.774 424.02Z" fill="#F8931F"/>
<path d="M373.067 430.453C372.868 430.453 372.668 430.37 372.526 430.21L370.948 428.433C370.682 428.133 370.711 427.678 371.009 427.414C371.307 427.149 371.767 427.178 372.03 427.475L373.609 429.253C373.874 429.552 373.845 430.007 373.547 430.272C373.409 430.394 373.238 430.453 373.067 430.453Z" fill="#F8931F"/>
<path d="M367.107 423.736C366.908 423.736 366.708 423.653 366.566 423.493L364.987 421.715C364.722 421.416 364.751 420.961 365.049 420.696C365.347 420.432 365.805 420.46 366.07 420.758L367.648 422.535C367.914 422.835 367.885 423.29 367.587 423.554C367.449 423.677 367.278 423.736 367.107 423.736Z" fill="#F8931F"/>
<path d="M320.944 46.8254C318.715 46.8254 316.466 46.8975 314.261 47.0358C313.734 47.0704 313.335 47.523 313.369 48.0477C313.404 48.5723 313.824 48.9788 314.385 48.9356C316.88 48.777 319.43 48.7107 321.957 48.7338H321.966C322.49 48.7338 322.915 48.3129 322.921 47.7911C322.927 47.2664 322.501 46.8369 321.974 46.8312C321.633 46.8283 321.288 46.8254 320.947 46.8254H320.944ZM329.595 47.1713C329.103 47.1713 328.684 47.549 328.643 48.0477C328.603 48.5723 328.993 49.0307 329.52 49.071C332.003 49.2671 334.536 49.5525 337.051 49.9215C337.578 49.9964 338.058 49.639 338.137 49.1172C338.212 48.5983 337.853 48.114 337.329 48.0361C334.773 47.6643 332.197 47.3731 329.673 47.1713C329.647 47.1713 329.621 47.1684 329.595 47.1684V47.1713ZM306.721 47.8026C306.678 47.8026 306.631 47.8055 306.588 47.8113C304.044 48.1659 301.488 48.6242 298.99 49.1691C298.475 49.2815 298.148 49.7888 298.261 50.302C298.374 50.8151 298.883 51.1437 299.398 51.0284C301.847 50.4922 304.354 50.0454 306.848 49.6966C307.372 49.6245 307.737 49.1431 307.662 48.6213C307.595 48.1457 307.187 47.8026 306.715 47.8026H306.721ZM344.713 49.368C344.27 49.368 343.873 49.6764 343.778 50.1233C343.668 50.6393 344.001 51.1437 344.516 51.2504C346.953 51.7606 349.433 52.3574 351.893 53.0233C352.406 53.1617 352.927 52.8618 353.066 52.3545C353.205 51.8471 352.904 51.3254 352.394 51.187C349.899 50.5124 347.381 49.907 344.909 49.3881C344.843 49.3737 344.776 49.368 344.71 49.368H344.713ZM291.798 51.0688C291.705 51.0688 291.613 51.0832 291.52 51.1091C289.077 51.8442 286.623 52.6831 284.223 53.6114C283.731 53.8016 283.485 54.3522 283.676 54.8423C283.867 55.3324 284.423 55.5774 284.912 55.3871C287.268 54.4791 289.676 53.6546 292.073 52.9339C292.579 52.7811 292.863 52.2507 292.712 51.7491C292.588 51.3369 292.209 51.0717 291.798 51.0717V51.0688ZM359.468 53.349C359.066 53.349 358.692 53.6027 358.559 54.0034C358.394 54.5021 358.666 55.0412 359.167 55.2055C361.529 55.981 363.937 56.84 366.322 57.7596C366.814 57.9499 367.367 57.7048 367.558 57.2148C367.749 56.7247 367.503 56.1741 367.011 55.9838C364.594 55.0556 362.157 54.185 359.766 53.398C359.668 53.3663 359.566 53.349 359.465 53.349H359.468ZM277.569 56.5979C277.416 56.5979 277.262 56.6325 277.118 56.7103C274.863 57.9153 272.701 59.4258 270.695 61.2016C270.301 61.5504 270.264 62.1529 270.617 62.545C270.967 62.937 271.572 62.9716 271.966 62.6228C273.858 60.945 275.896 59.521 278.021 58.3852C278.487 58.1373 278.66 57.5607 278.411 57.0966C278.238 56.7766 277.911 56.595 277.569 56.595V56.5979ZM373.737 58.8291C373.37 58.8291 373.019 59.0424 372.863 59.397C372.649 59.8784 372.869 60.4406 373.352 60.651C375.636 61.6513 377.957 62.7295 380.25 63.8537C380.724 64.0844 381.297 63.8912 381.529 63.4213C381.763 62.9485 381.566 62.3778 381.095 62.1471C378.779 61.0113 376.432 59.9217 374.125 58.9098C374.001 58.8551 373.87 58.8291 373.74 58.8291H373.737ZM387.465 65.5545C387.127 65.5545 386.799 65.7333 386.626 66.0533C386.374 66.5145 386.545 67.0939 387.011 67.3447C389.208 68.5353 391.436 69.795 393.636 71.0894C394.09 71.3546 394.675 71.2076 394.947 70.755C395.216 70.3024 395.066 69.7201 394.611 69.452C392.394 68.1432 390.145 66.872 387.925 65.6727C387.781 65.5949 387.624 65.5574 387.471 65.5574L387.465 65.5545ZM266.174 66.5664C265.885 66.5664 265.598 66.6961 265.41 66.9469C263.89 68.9533 262.498 71.1643 261.262 73.5195C261.019 73.9865 261.201 74.5602 261.667 74.8024C262.136 75.0445 262.712 74.8658 262.955 74.3988C264.139 72.1358 265.479 70.0141 266.932 68.0913C267.251 67.6705 267.167 67.0737 266.744 66.7595C266.573 66.6298 266.371 66.5693 266.171 66.5693L266.174 66.5664ZM400.637 73.3177C400.322 73.3177 400.015 73.4734 399.833 73.7559C399.549 74.1999 399.677 74.7879 400.122 75.0705C402.235 76.4196 404.371 77.835 406.472 79.2735C406.907 79.5704 407.503 79.4637 407.801 79.0285C408.099 78.596 407.992 78.0022 407.555 77.7053C405.436 76.2524 403.283 74.8283 401.153 73.4677C400.993 73.3668 400.814 73.3177 400.637 73.3177ZM259.08 79.9913C258.686 79.9913 258.316 80.2363 258.18 80.6255C257.335 83.0153 256.625 85.5175 256.073 88.0658C255.963 88.579 256.29 89.0863 256.805 89.1988C257.317 89.3054 257.83 88.9825 257.942 88.4694C258.478 85.9989 259.164 83.5717 259.983 81.2597C260.159 80.7639 259.896 80.2219 259.398 80.0461C259.294 80.0086 259.187 79.9913 259.08 79.9913ZM413.248 81.9602C412.956 81.9602 412.666 82.0928 412.478 82.3465C412.166 82.7702 412.255 83.367 412.681 83.6783C414.71 85.1658 416.753 86.7138 418.753 88.2763C419.167 88.5991 419.769 88.5271 420.096 88.1148C420.42 87.7026 420.348 87.103 419.934 86.7772C417.92 85.2033 415.859 83.6437 413.815 82.1447C413.645 82.0207 413.445 81.9602 413.248 81.9602ZM425.297 91.3723C425.022 91.3723 424.75 91.4876 424.562 91.7154C424.224 92.119 424.279 92.7186 424.684 93.0559C426.637 94.6788 428.583 96.3451 430.47 98.0113C430.863 98.3601 431.468 98.3255 431.818 97.9306C432.169 97.5385 432.134 96.936 431.737 96.5872C429.836 94.9095 427.876 93.2288 425.908 91.5943C425.729 91.4444 425.512 91.3723 425.297 91.3723ZM255.844 94.8374C255.358 94.8374 254.941 95.2064 254.895 95.6993C254.701 97.7634 254.602 99.862 254.602 101.935C254.602 102.428 254.608 102.923 254.62 103.419C254.631 103.938 255.057 104.35 255.575 104.35H255.598C256.125 104.339 256.544 103.904 256.533 103.376C256.521 102.895 256.515 102.416 256.515 101.935C256.515 99.9197 256.611 97.8844 256.799 95.8781C256.848 95.3534 256.463 94.8893 255.937 94.8403C255.905 94.8374 255.876 94.8345 255.847 94.8345L255.844 94.8374ZM436.75 101.502C436.499 101.502 436.244 101.603 436.059 101.799C435.694 102.18 435.711 102.782 436.093 103.145C438.609 105.521 440.435 107.36 441.523 108.484C441.891 108.865 442.496 108.873 442.875 108.51C443.254 108.144 443.266 107.542 442.901 107.164C441.798 106.025 439.952 104.166 437.41 101.765C437.225 101.589 436.988 101.502 436.753 101.502H436.75ZM256.191 110.032C256.148 110.032 256.102 110.035 256.055 110.041C255.531 110.116 255.17 110.597 255.242 111.116C255.607 113.688 256.131 116.233 256.796 118.686C256.935 119.194 257.462 119.493 257.968 119.358C258.478 119.22 258.779 118.698 258.643 118.19C257.997 115.812 257.491 113.342 257.138 110.851C257.071 110.375 256.66 110.032 256.191 110.032ZM260.191 124.688C260.07 124.688 259.942 124.711 259.824 124.763C259.337 124.965 259.109 125.524 259.311 126.008C260.322 128.413 261.5 130.739 262.811 132.924C263.083 133.374 263.67 133.521 264.122 133.253C264.576 132.982 264.724 132.399 264.452 131.947C263.187 129.84 262.049 127.594 261.077 125.273C260.924 124.907 260.568 124.688 260.194 124.688H260.191ZM268.032 137.695C267.818 137.695 267.601 137.767 267.424 137.914C267.016 138.249 266.961 138.848 267.297 139.255C268.953 141.249 270.779 143.123 272.718 144.821C273.115 145.17 273.72 145.13 274.067 144.735C274.417 144.34 274.377 143.74 273.98 143.391C272.116 141.757 270.362 139.958 268.77 138.041C268.582 137.813 268.307 137.695 268.032 137.695ZM279.462 147.707C279.147 147.707 278.837 147.862 278.654 148.151C278.371 148.595 278.504 149.183 278.953 149.465C281.115 150.826 283.424 152.045 285.824 153.095C286.307 153.305 286.872 153.086 287.083 152.605C287.294 152.123 287.074 151.561 286.591 151.351C284.278 150.342 282.052 149.165 279.971 147.857C279.812 147.756 279.636 147.71 279.462 147.71V147.707Z" fill="#26AA9D"/>
<path d="M126.852 194.413C126.891 194.35 126.94 194.29 127.002 194.241C127.307 193.984 127.764 194.023 128.021 194.327C128.034 194.343 129.406 195.962 131.861 198.635C132.13 198.929 132.108 199.385 131.816 199.655C131.522 199.924 131.063 199.905 130.794 199.611C128.317 196.914 126.93 195.275 126.917 195.259C126.71 195.014 126.694 194.673 126.853 194.414L126.852 194.413ZM134.672 202.963C134.705 202.911 134.742 202.862 134.789 202.819C135.077 202.544 135.537 202.554 135.813 202.841C137.132 204.218 138.49 205.605 139.849 206.967C140.13 207.25 140.129 207.706 139.848 207.988C139.564 208.268 139.107 208.268 138.825 207.987C137.459 206.618 136.093 205.223 134.767 203.84C134.536 203.598 134.505 203.235 134.672 202.963ZM142.847 211.155C142.874 211.112 142.905 211.07 142.944 211.032C143.221 210.745 143.681 210.737 143.968 211.015C145.344 212.342 146.754 213.677 148.162 214.982C148.455 215.254 148.47 215.709 148.199 216.003C147.926 216.295 147.468 216.312 147.175 216.04C145.763 214.73 144.345 213.387 142.962 212.054C142.713 211.814 142.675 211.439 142.848 211.158L142.847 211.155ZM151.331 219.025C151.353 218.99 151.38 218.955 151.408 218.921C151.675 218.623 152.132 218.598 152.43 218.862C153.875 220.149 155.335 221.427 156.778 222.659C157.081 222.919 157.115 223.371 156.855 223.676C156.595 223.979 156.138 224.014 155.835 223.754C154.386 222.516 152.916 221.232 151.465 219.939C151.2 219.702 151.15 219.315 151.33 219.022L151.331 219.025ZM160.127 226.543C160.145 226.515 160.162 226.487 160.185 226.463C160.439 226.154 160.894 226.11 161.204 226.362C162.699 227.584 164.215 228.796 165.711 229.963C166.026 230.207 166.085 230.662 165.835 230.976C165.59 231.29 165.135 231.345 164.82 231.1C163.316 229.926 161.79 228.708 160.287 227.478C160.004 227.245 159.941 226.845 160.129 226.541L160.127 226.543ZM169.254 233.658C169.266 233.64 169.277 233.621 169.29 233.605C169.528 233.285 169.981 233.218 170.302 233.457C171.867 234.616 173.441 235.751 174.982 236.828C175.309 237.056 175.394 237.499 175.159 237.834C174.929 238.161 174.479 238.241 174.15 238.011C172.598 236.926 171.013 235.784 169.439 234.616C169.135 234.391 169.059 233.975 169.253 233.66L169.254 233.658ZM178.734 240.289C178.734 240.289 178.742 240.276 178.747 240.268C178.967 239.936 179.415 239.844 179.749 240.062C181.348 241.115 182.963 242.138 184.544 243.108L184.613 243.15C184.953 243.359 185.059 243.804 184.85 244.143C184.641 244.482 184.195 244.588 183.855 244.38L183.786 244.337C182.192 243.36 180.565 242.326 178.953 241.265C178.626 241.049 178.53 240.616 178.734 240.284L178.734 240.289ZM188.604 246.328C188.808 245.998 189.236 245.886 189.577 246.077C191.267 247.032 192.971 247.953 194.644 248.815C195 248.998 195.137 249.434 194.955 249.789C194.773 250.137 194.335 250.281 193.979 250.099C192.29 249.23 190.568 248.3 188.863 247.336C188.516 247.138 188.393 246.699 188.589 246.352C188.594 246.344 188.599 246.337 188.603 246.329L188.604 246.328ZM198.899 251.615C199.088 251.308 199.481 251.184 199.818 251.339C201.583 252.152 203.359 252.918 205.098 253.618C205.47 253.767 205.647 254.188 205.498 254.556C205.354 254.922 204.926 255.104 204.557 254.955C202.797 254.247 200.997 253.469 199.212 252.647C198.849 252.48 198.692 252.05 198.859 251.688C198.87 251.662 198.885 251.637 198.901 251.611L198.899 251.615ZM209.636 255.922C209.81 255.64 210.16 255.506 210.486 255.616C212.328 256.241 214.177 256.805 215.976 257.292C216.361 257.397 216.59 257.794 216.484 258.179C216.377 258.562 215.981 258.791 215.595 258.686C213.766 258.19 211.889 257.617 210.017 256.982C209.639 256.852 209.436 256.443 209.566 256.065C209.583 256.012 209.607 255.965 209.634 255.92L209.636 255.922ZM220.806 258.93C220.96 258.68 221.258 258.54 221.562 258.601C223.467 258.973 225.372 259.269 227.222 259.48C227.619 259.525 227.905 259.883 227.859 260.278C227.815 260.675 227.455 260.96 227.058 260.914C225.169 260.7 223.225 260.398 221.283 260.018C220.89 259.941 220.635 259.562 220.712 259.17C220.729 259.083 220.761 259.003 220.805 258.932L220.806 258.93ZM232.294 260.216C232.425 260.004 232.661 259.866 232.927 259.873C234.854 259.918 236.773 259.868 238.637 259.725C239.036 259.695 239.382 259.992 239.413 260.389C239.444 260.785 239.145 261.133 238.748 261.164C236.839 261.31 234.869 261.359 232.894 261.316C232.494 261.306 232.178 260.976 232.187 260.577C232.189 260.444 232.229 260.32 232.294 260.216ZM243.809 259.322C243.912 259.154 244.084 259.029 244.293 258.99C246.165 258.641 248.029 258.188 249.829 257.639C250.212 257.522 250.615 257.736 250.732 258.118C250.849 258.501 250.634 258.903 250.251 259.02C248.398 259.585 246.481 260.052 244.556 260.409C244.164 260.481 243.785 260.224 243.713 259.832C243.678 259.65 243.717 259.471 243.808 259.323L243.809 259.322ZM254.848 255.956C254.923 255.835 255.034 255.734 255.175 255.672C256.902 254.924 258.614 254.062 260.265 253.115C260.611 252.917 261.054 253.037 261.253 253.383C261.451 253.728 261.331 254.17 260.985 254.368C259.286 255.341 257.527 256.226 255.75 256.997C255.384 257.157 254.958 256.988 254.797 256.623C254.699 256.399 254.726 256.151 254.845 255.957L254.848 255.956ZM264.865 250.231C264.913 250.153 264.977 250.082 265.056 250.025C266.57 248.933 268.07 247.736 269.516 246.466C269.815 246.203 270.272 246.232 270.536 246.53C270.802 246.829 270.771 247.285 270.472 247.548C268.991 248.85 267.453 250.076 265.904 251.194C265.58 251.429 265.129 251.355 264.894 251.031C264.717 250.787 264.714 250.472 264.863 250.23L264.865 250.231Z" fill="#26AA9D"/>
</svg>
