<svg width="100" height="100" viewBox="0 0 100 100" fill="none" xmlns="http://www.w3.org/2000/svg">
<path d="M75.3206 86.6555L91.2019 89.8603C92.0811 90.1012 92.0696 91.2357 91.7616 91.4673L80.5657 99.4268C79.9798 99.8417 75.6968 100.091 74.9902 99.969L60.7051 94.7215L74.6773 86.779C74.8679 86.6555 75.0983 86.6116 75.3206 86.6561V86.6555Z" fill="#D8D8D8"/>
<path d="M97.8947 11.6881L97.614 9.44986L95.1757 9.2133C95.0184 8.70671 94.8224 8.21988 94.5881 7.7572L96.1641 5.87463L94.8082 4.07769L92.578 5.0991C92.1941 4.74454 91.7818 4.42292 91.3449 4.13696L91.7747 1.71049L89.7072 0.836166L88.2857 2.83948C87.7817 2.72641 87.264 2.65616 86.737 2.62872L85.9031 0.312012L83.6778 0.594671L83.4419 3.04749C82.9384 3.20556 82.454 3.40315 81.9937 3.63861L80.1217 2.05407L78.3349 3.41797L79.3501 5.66113C78.9973 6.04752 78.6773 6.4619 78.3933 6.90153L75.9807 6.47014L75.1114 8.54974L77.1029 9.97895C76.9904 10.4855 76.9205 11.0064 76.8932 11.5366L74.5898 12.3758L74.8705 14.614L77.3088 14.8506C77.4661 15.3572 77.6621 15.844 77.8964 16.3067L76.3204 18.1892L77.6763 19.9862L79.9065 18.9648C80.2904 19.3193 80.7027 19.6409 81.1396 19.9269L80.7098 22.3534L82.7773 23.2277L84.1988 21.2244C84.7028 21.3375 85.2205 21.4077 85.7475 21.4351L86.5814 23.7519L88.8067 23.4692L89.0426 21.0164C89.5461 20.8583 90.0305 20.6607 90.4908 20.4247L92.3628 22.0092L94.1496 20.6453L93.1344 18.4027C93.4872 18.0163 93.8072 17.6014 94.0912 17.1623L96.5038 17.5937L97.3732 15.5141L95.3816 14.0849C95.4941 13.5783 95.564 13.0575 95.5913 12.5273L97.8947 11.6881ZM86.9642 17.7935C83.8002 18.1958 80.9119 15.9417 80.5127 12.76C80.1135 9.57774 82.3552 6.67211 85.5192 6.27035C88.6833 5.86804 91.5715 8.12218 91.9707 11.3039C92.3699 14.4861 90.1282 17.3917 86.9647 17.7935H86.9642Z" fill="white"/>
<path d="M12.5754 30.3668C12.5006 30.3668 12.4323 30.3196 12.4061 30.2477L11.6192 28.0621C11.1676 28.033 10.7214 27.9727 10.2895 27.8815L8.94827 29.7718C8.89912 29.8404 8.80956 29.8662 8.73202 29.8333L6.68146 28.9661C6.60391 28.9332 6.55914 28.8508 6.57388 28.7679L6.97908 26.4781C6.60828 26.2284 6.25278 25.9512 5.92076 25.6527L3.81668 26.6164C3.74023 26.6516 3.64958 26.6285 3.5988 26.561L2.25378 24.7789C2.203 24.7114 2.20518 24.6181 2.25924 24.5533L3.74624 22.7767C3.55129 22.3788 3.382 21.9589 3.24166 21.5264L0.940989 21.303C0.857438 21.2948 0.790269 21.2295 0.779894 21.1455L0.501389 18.9254C0.491013 18.8414 0.539615 18.7618 0.618798 18.7327L2.79223 17.9413C2.82117 17.4874 2.88178 17.0384 2.97189 16.6037L1.0928 15.2552C1.02454 15.2064 0.998874 15.1158 1.03164 15.0379L1.89391 12.9753C1.92668 12.8973 2.00859 12.8529 2.09105 12.8671L4.36714 13.2744C4.61507 12.9012 4.89084 12.5439 5.18846 12.2096L4.23062 10.0932C4.19567 10.0164 4.21861 9.9253 4.28577 9.87425L6.05783 8.52133C6.125 8.47029 6.21838 8.47248 6.28227 8.52682L8.04777 10.0219C8.44423 9.8254 8.86089 9.65526 9.29121 9.5142L9.51347 7.20024C9.52166 7.11627 9.58664 7.04876 9.6702 7.03833L11.8775 6.75787C11.9599 6.74689 12.0402 6.79629 12.0692 6.87587L12.8561 9.0614C13.3071 9.09049 13.7533 9.15086 14.1858 9.24197L15.527 7.35173C15.5756 7.28312 15.6657 7.25732 15.7432 7.29025L17.7938 8.15744C17.8713 8.19037 17.9161 8.2727 17.9014 8.35558L17.4962 10.6454C17.867 10.8946 18.2219 11.1717 18.5545 11.4709L20.6586 10.5071C20.735 10.4725 20.8257 10.495 20.8765 10.5625L22.2209 12.3446C22.2717 12.4121 22.2695 12.5054 22.2155 12.5702L20.7285 14.3468C20.9234 14.7448 21.0927 15.1646 21.233 15.5971L23.5337 15.8205C23.6173 15.8288 23.6844 15.8941 23.6948 15.978L23.9733 18.1981C23.9837 18.2821 23.9351 18.3617 23.8559 18.3908L21.6825 19.1822C21.6535 19.6361 21.5935 20.0851 21.5028 20.5198L23.3819 21.8683C23.4502 21.9172 23.4758 22.0077 23.4431 22.0857L22.5808 24.1483C22.548 24.2262 22.4661 24.2712 22.3837 24.2564L20.1076 23.8491C19.8596 24.2224 19.5839 24.5797 19.2862 24.9139L20.2441 27.0303C20.279 27.1071 20.2561 27.1982 20.1889 27.2493L18.4169 28.6022C18.3497 28.6532 18.2563 28.651 18.1924 28.5967L16.4269 27.1016C16.031 27.2976 15.6138 27.4683 15.1835 27.6093L14.9612 29.9233C14.953 30.0073 14.8881 30.0748 14.8045 30.0852L12.5972 30.3657C12.5896 30.3668 12.5819 30.3673 12.5748 30.3673L12.5754 30.3668ZM10.2125 27.4985C10.2256 27.4985 10.2387 27.5001 10.2518 27.5028C10.7378 27.6121 11.2446 27.6812 11.7579 27.7076C11.83 27.7114 11.8933 27.7581 11.9179 27.8267L12.6961 29.9886L14.6177 29.7444L14.8378 27.4556C14.8449 27.3832 14.8941 27.3223 14.9634 27.3003C15.4538 27.1461 15.9278 26.9529 16.3718 26.7251C16.4362 26.6922 16.5143 26.701 16.5695 26.7476L18.3159 28.2262L19.8591 27.0484L18.9116 24.9556C18.8816 24.8898 18.8942 24.8118 18.9428 24.7586C19.2846 24.3837 19.5981 23.9781 19.8738 23.5517C19.9132 23.4907 19.9852 23.4594 20.0562 23.4721L22.3072 23.8749L23.0581 22.0785L21.1997 20.7448C21.1408 20.7026 21.1129 20.629 21.1287 20.5582C21.2374 20.0686 21.3062 19.5588 21.3324 19.0434C21.3363 18.9709 21.3827 18.9073 21.4509 18.8826L23.6003 18.0994L23.3579 16.1663L21.0823 15.9457C21.0102 15.9385 20.9496 15.8891 20.9278 15.8194C20.7749 15.326 20.5827 14.8496 20.356 14.4034C20.3233 14.3386 20.332 14.2607 20.3784 14.2047L21.849 12.4478L20.6782 10.8962L18.5971 11.8496C18.5316 11.8798 18.454 11.8671 18.401 11.8183C18.0286 11.4747 17.625 11.1597 17.2013 10.8825C17.1407 10.843 17.1095 10.7705 17.1221 10.6992L17.5229 8.43516L15.7372 7.67994L14.4108 9.54933C14.3687 9.60861 14.2956 9.63715 14.2251 9.62068C13.7385 9.51146 13.2318 9.44231 12.719 9.41596C12.6469 9.41212 12.5836 9.36547 12.559 9.29686L11.7808 7.13493L9.85914 7.37917L9.63907 9.66788C9.63197 9.74033 9.58282 9.80125 9.51347 9.82321C9.02363 9.97689 8.54962 10.1706 8.10511 10.3984C8.04067 10.4313 7.96313 10.4226 7.90742 10.3759L6.16104 8.89729L4.6178 10.0751L5.56526 12.1685C5.59529 12.2343 5.58273 12.3123 5.53413 12.3655C5.19228 12.7398 4.87883 13.146 4.6036 13.5719C4.56428 13.6328 4.4922 13.6641 4.4212 13.6515L2.17023 13.2486L1.41936 15.0444L3.2777 16.3782C3.33667 16.4204 3.36452 16.494 3.34869 16.5648C3.24002 17.0538 3.17121 17.5637 3.145 18.0796C3.14118 18.152 3.09476 18.2157 3.0265 18.2404L0.877097 19.0236L1.11956 20.9567L3.39511 21.1773C3.46719 21.1845 3.5278 21.2338 3.54965 21.3036C3.70255 21.797 3.89478 22.2734 4.1214 22.7196C4.15417 22.7844 4.14543 22.8623 4.09901 22.9183L2.6284 24.6752L3.79921 26.2268L5.88035 25.2734C5.94588 25.2432 6.02342 25.2553 6.07639 25.3047C6.44828 25.6483 6.85184 25.9633 7.2756 26.2405C7.33622 26.28 7.36734 26.3519 7.35478 26.4238L6.95396 28.6878L8.73966 29.443L10.0661 27.5736C10.1005 27.5253 10.1551 27.4979 10.2125 27.4979V27.4985ZM12.2259 24.5039C10.9229 24.5039 9.66419 24.0725 8.61789 23.2564C7.37117 22.2838 6.57606 20.8815 6.37893 19.3068C5.97155 16.0571 8.26839 13.079 11.5001 12.6685C13.0652 12.4703 14.6139 12.8957 15.8606 13.8683C17.1074 14.8408 17.9025 16.2437 18.0996 17.8178C18.507 21.0675 16.2101 24.0456 12.9784 24.4562C12.7266 24.488 12.4754 24.5039 12.2259 24.5039ZM12.9331 24.0972C15.9677 23.7119 18.1253 20.915 17.7425 17.8628C17.5568 16.3842 16.8103 15.0669 15.6395 14.1537C14.4687 13.2404 13.015 12.8403 11.5444 13.0269C8.50976 13.4122 6.35217 16.2091 6.73498 19.2613C6.92065 20.7399 7.66715 22.0571 8.83796 22.9704C10.0088 23.8837 11.463 24.2838 12.9325 24.0972H12.9331Z" fill="white"/>
<path d="M95.5503 61.7655L37.8715 53.7034C36.4232 53.5179 35.3382 52.2791 35.3382 50.812L34.5469 10.377C34.5469 10.377 35.8619 9.42418 36.6067 9.05919C36.9857 8.87313 37.4226 8.7919 37.8769 8.85008L95.3843 16.2212C96.8325 16.4067 97.9176 17.6454 97.9176 19.1125V58.8275C97.9176 59.5382 97.5943 60.1645 97.0946 60.5778C96.6343 60.9581 95.5503 61.7655 95.5503 61.7655Z" fill="#263238"/>
<path d="M93.7897 62.3027L36.2823 54.9316C34.8341 54.7461 33.749 53.5073 33.749 52.0403V12.3253C33.749 10.9603 34.9411 9.90596 36.2878 10.0783L93.7951 17.4494C95.2434 17.6349 96.3284 18.8737 96.3284 20.3407V60.0557C96.3284 61.4207 95.1363 62.475 93.7897 62.3027Z" fill="white"/>
<path d="M33.749 21.2904C33.6496 21.2904 33.5693 21.2092 33.5693 21.1099V12.3255C33.5693 11.623 33.8702 10.9539 34.3945 10.4901C34.9187 10.0258 35.6177 9.81064 36.3107 9.89956L81.459 15.6867C81.5573 15.6993 81.6272 15.7898 81.6146 15.8886C81.6021 15.988 81.5114 16.0571 81.4137 16.0451L36.2654 10.258C35.6745 10.1817 35.0793 10.3655 34.6326 10.7613C34.1853 11.157 33.9292 11.7272 33.9292 12.3255V21.1099C33.9292 21.2098 33.8489 21.2904 33.7495 21.2904H33.749Z" fill="#263238"/>
<path d="M92.5677 60.6654L37.657 53.6275C36.6035 53.4925 35.8145 52.5918 35.8145 51.5249V13.2161C35.8145 12.3044 36.6106 11.6002 37.5101 11.7155L92.4208 18.7534C93.4736 18.8885 94.2633 19.7891 94.2633 20.8561V59.1649C94.2633 60.0765 93.4671 60.7807 92.5677 60.6654Z" fill="#CADDFF"/>
<path d="M60.2392 85.6922L1.09516 78.0263C0.632077 77.9665 0.371048 77.5774 0.377055 77.1877C0.381423 76.9188 0.402721 75.0269 0.402721 75.0269L31.675 57.0585C33.2417 56.159 35.2688 55.8115 37.0588 56.0421L95.4558 63.6135C95.8075 63.659 96.1089 63.8885 96.2482 64.2161L96.3421 64.4373C96.3421 64.4373 96.2918 66.0153 96.312 66.3841C96.3279 66.6722 96.199 66.9697 95.8987 67.1426L65.4111 84.6625C63.8444 85.5621 62.0287 85.9238 60.2386 85.6933L60.2392 85.6922Z" fill="white"/>
<path d="M60.2389 83.5864L1.30681 75.9354C0.524812 75.835 0.318937 74.7921 1.00373 74.3986L31.3274 56.9918C32.8941 56.0922 34.7099 55.7305 36.5 55.961L95.4326 63.6126C96.2151 63.713 96.4205 64.7558 95.7357 65.1494L65.412 82.5562C63.8453 83.4558 62.0295 83.8175 60.2395 83.5869L60.2389 83.5864Z" fill="white"/>
<path d="M71.7776 73.9243L20.6759 67.2409C19.9692 67.1498 19.7836 66.208 20.4023 65.8529L32.4179 59.0251C33.8328 58.2128 35.4732 57.8857 37.0896 58.0937L88.1914 64.7771C88.898 64.8682 89.0837 65.8101 88.465 66.1652L76.4494 72.9929C75.0345 73.8052 73.3941 74.1323 71.7776 73.9243Z" fill="#CADDFF"/>
<path d="M61.281 83.8339C60.9255 83.8339 60.57 83.8114 60.2167 83.7658L47.975 82.1763C47.8767 82.1637 47.8068 82.0732 47.8199 81.9738C47.8325 81.875 47.9226 81.8048 48.0214 81.8179L60.2631 83.4074C62.0029 83.6308 63.8001 83.2729 65.3231 82.3986L84.9222 71.1439C85.0085 71.0945 85.1183 71.1246 85.1674 71.2114C85.2165 71.2981 85.1865 71.4084 85.1002 71.4578L65.5012 82.7126C64.22 83.448 62.7527 83.8339 61.281 83.8339Z" fill="#263238"/>
<path d="M66.3054 60.0728C66.2977 60.0728 66.2896 60.0728 66.2819 60.0712L36.477 56.1398C34.7377 55.9158 32.9406 56.2742 31.4175 57.1485L29.7083 58.1299C29.622 58.1793 29.5122 58.1491 29.4631 58.0624C29.4139 57.9757 29.444 57.8653 29.5302 57.8159L31.2395 56.8346C32.8302 55.9213 34.7071 55.5475 36.524 55.7814L66.3294 59.7128C66.4277 59.726 66.4971 59.8165 66.4845 59.9153C66.4725 60.0064 66.3955 60.0723 66.3065 60.0723L66.3054 60.0728Z" fill="#263238"/>
<path d="M83.3108 55.0182L44.567 50.1893C43.6289 50.0724 42.8682 49.2365 42.8682 48.3227V1.63732C42.8682 0.723476 43.6289 0.0769277 44.567 0.193833L83.3108 5.02264C84.249 5.13954 85.0097 5.97544 85.0097 6.88928V53.5741C85.0097 54.488 84.249 55.1345 83.3108 55.0176V55.0182Z" fill="white"/>
<path d="M78.8297 19.1741L76.9752 14.6131C76.0742 12.3974 74.0176 10.7728 71.7421 10.4803L55.1492 8.34689C52.8742 8.05435 50.8171 9.14986 49.916 11.134L48.0615 15.218L54.0423 18.5127V38.3115L72.849 40.7297V20.931L78.8297 19.1741Z" fill="#26AA9D"/>
<path d="M64.9142 13.0814C64.4337 13.0814 63.934 13.0495 63.4234 12.9837C59.988 12.5418 57.2969 10.7893 57.2969 8.99405C57.2969 8.89416 57.3772 8.81348 57.4765 8.81348C57.5759 8.81348 57.6562 8.89471 57.6562 8.99405C57.6562 10.5841 60.2638 12.2125 63.4688 12.6247C65.6553 12.9063 67.6944 12.5341 68.6631 11.6774C69.0432 11.3415 69.2354 10.9551 69.2354 10.5292C69.2354 10.4293 69.3157 10.3486 69.4151 10.3486C69.5145 10.3486 69.5948 10.4298 69.5948 10.5292C69.5948 11.0561 69.3545 11.5468 68.9001 11.9485C68.0745 12.679 66.6159 13.0808 64.9137 13.0808L64.9142 13.0814Z" fill="#263238"/>
<path d="M68.6272 21.8178C69.3772 21.1075 69.3402 19.8437 68.5445 18.995C67.7488 18.1463 66.4957 18.0342 65.7457 18.7446C64.9957 19.4549 65.0327 20.7187 65.8285 21.5674C66.6242 22.4161 67.8772 22.5282 68.6272 21.8178Z" fill="white"/>
<path d="M83.532 55.2123C83.4523 55.2123 83.3709 55.2074 83.289 55.1969L44.5452 50.3681C43.5213 50.2408 42.6885 49.3226 42.6885 48.322V1.63772C42.6885 1.15528 42.8785 0.720585 43.2236 0.414326C43.5862 0.0926984 44.0712 -0.0494544 44.5894 0.0153102L83.3332 4.84411C84.3571 4.97145 85.1899 5.88968 85.1899 6.89023V53.5751C85.1899 54.0575 84.9999 54.4922 84.6547 54.7985C84.3495 55.0696 83.9574 55.2128 83.532 55.2128V55.2123ZM44.3475 0.361087C44.0095 0.361087 43.6998 0.473053 43.4617 0.68491C43.1952 0.922014 43.0483 1.26011 43.0483 1.63772V48.3226C43.0483 49.1469 43.7397 49.9038 44.5894 50.0097L83.3332 54.8385C83.7477 54.8896 84.1321 54.7798 84.4166 54.5273C84.6831 54.2902 84.83 53.9521 84.83 53.5745V6.88969C84.83 6.06531 84.1387 5.30844 83.289 5.20251L44.5452 0.373711C44.4786 0.365478 44.4125 0.361087 44.348 0.361087H44.3475Z" fill="#26AA9D"/>
<path d="M98.5317 71.6493L69.1413 67.8704C68.4298 67.7787 67.8525 67.1251 67.8525 66.4094V29.8739C67.8525 29.1588 68.4298 28.6527 69.1413 28.7444L98.5317 32.5232C99.2433 32.6149 99.8205 33.2686 99.8205 33.9843V70.5197C99.8205 71.2349 99.2433 71.7409 98.5317 71.6493Z" fill="white"/>
<path d="M98.6988 71.8415C98.636 71.8415 98.5727 71.8377 98.5088 71.8295L69.1183 68.0506C68.3211 67.948 67.6729 67.2125 67.6729 66.4107V29.8752C67.6729 29.4784 67.8274 29.1233 68.1075 28.8752C68.391 28.6249 68.7661 28.5151 69.1642 28.5662L98.5546 32.345C99.3519 32.4477 100 33.1831 100 33.9856V70.521C100 70.9178 99.8456 71.2729 99.5654 71.521C99.3279 71.7312 99.0254 71.8421 98.6988 71.8421V71.8415ZM68.9758 28.9153C68.7361 28.9153 68.5166 28.9948 68.3456 29.1463C68.1441 29.3247 68.0327 29.5832 68.0327 29.8747V66.4101C68.0327 67.0363 68.5406 67.6115 69.1642 67.6917L98.5546 71.4705C98.849 71.5084 99.1231 71.4299 99.3279 71.2488C99.5294 71.0704 99.6408 70.8119 99.6408 70.5205V33.985C99.6408 33.3588 99.1329 32.7836 98.5093 32.7034L69.1189 28.9246C69.0708 28.9186 69.0228 28.9153 68.9758 28.9153Z" fill="#263238"/>
<path d="M91.0639 43.4208C90.9645 43.4208 90.8843 43.3395 90.8843 43.2402L90.8853 37.1287C90.4856 35.053 88.9511 33.3872 87.2315 33.1649C86.3244 33.0486 85.496 33.2703 84.8347 33.8076C83.9724 34.509 83.4302 35.7187 83.3078 37.2132L82.8693 41.6908C82.8595 41.7901 82.7705 41.862 82.6727 41.8532C82.5739 41.8434 82.5018 41.755 82.5116 41.6557L82.9496 37.1814C83.0801 35.5903 83.6693 34.2912 84.6086 33.5271C85.348 32.9262 86.2709 32.6764 87.2773 32.8065C89.1821 33.0524 90.8122 34.8087 91.2419 37.0777C91.2441 37.0887 91.2452 37.1002 91.2452 37.1117L91.2441 43.2402C91.2441 43.3401 91.1633 43.4208 91.0645 43.4208H91.0639Z" fill="#263238"/>
<path d="M89.6572 65.8416L96.3135 64.4552C96.4063 64.436 96.4626 64.352 96.4484 64.2537C96.1715 62.352 94.1406 44.7865 92.7836 41.366L91.6057 41.1685L90.099 48.6932L89.6578 65.8416H89.6572Z" fill="#26AA9D"/>
<path d="M71.6871 62.7125C71.6477 62.8568 71.6811 63.0209 71.7772 63.157C71.8733 63.2932 72.0218 63.3859 72.1785 63.4079L89.6664 65.8843L91.6051 41.1684L78.292 39.8621C78.0686 39.8401 77.8775 39.9658 77.8218 40.1711L71.6871 62.7119V62.7125Z" fill="white"/>
<path d="M92.6918 63.5435C92.5946 63.5435 92.5149 63.4655 92.5121 63.3678L91.9415 42.3012C91.9387 42.2013 92.0168 42.1185 92.1162 42.1157C92.2162 42.108 92.2981 42.1915 92.3008 42.2914L92.8715 63.358C92.8742 63.4579 92.7961 63.5407 92.6967 63.5435C92.6951 63.5435 92.6934 63.5435 92.6918 63.5435Z" fill="white"/>
<path d="M89.4481 66.0311C89.4263 66.0311 89.4044 66.0295 89.3826 66.0262L78.48 64.4823C78.3817 64.4686 78.3129 64.3769 78.3271 64.2781C78.3407 64.1793 78.4314 64.1102 78.5302 64.1244L89.4328 65.6684C89.4558 65.6716 89.476 65.6673 89.4891 65.6568C89.5 65.6481 89.506 65.6349 89.5071 65.6179L89.737 62.6853C89.7446 62.586 89.8315 62.5119 89.9303 62.5196C90.0292 62.5273 90.1034 62.6145 90.0952 62.7139L89.8653 65.6459C89.8561 65.7628 89.8025 65.867 89.7135 65.9384C89.6387 65.9988 89.5459 66.0306 89.4476 66.0306L89.4481 66.0311Z" fill="#263238"/>
<path d="M71.8615 62.4836C71.8462 62.4836 71.8304 62.4815 71.8145 62.4776C71.7184 62.4513 71.6622 62.3519 71.6878 62.2559L77.6506 40.1283C77.7281 39.8364 77.9995 39.653 78.3124 39.6838L91.4857 40.9763C91.6588 40.9933 91.7877 41.1487 91.7729 41.3226L90.346 58.3815C90.3378 58.4809 90.251 58.5528 90.1516 58.5467C90.0528 58.5385 89.979 58.4507 89.9872 58.3513L91.4109 41.332L78.2769 40.0433C78.1388 40.0285 78.0296 40.0998 77.9973 40.2222L72.0341 62.3508C72.0122 62.4315 71.9396 62.4842 71.8604 62.4842L71.8615 62.4836Z" fill="#263238"/>
<path d="M88.6922 40.9296H88.6879C88.5885 40.9269 88.5098 40.8445 88.5126 40.7441L88.5694 38.4104C88.696 35.8286 86.9797 33.4158 84.821 33.137C83.0921 32.9147 81.6439 34.1496 81.2971 36.142L80.7368 40.0646C80.7226 40.1634 80.6309 40.2326 80.5331 40.2177C80.4348 40.2035 80.3666 40.1118 80.3808 40.013L80.9422 36.0849C81.319 33.9219 82.9698 32.5327 84.8674 32.7786C87.2047 33.0805 89.0647 35.6656 88.9292 38.4241L88.8724 40.7534C88.8702 40.8517 88.79 40.9296 88.6928 40.9296H88.6922Z" fill="#263238"/>
<path d="M88.643 46.9173C89.1699 45.7889 88.7685 44.4834 87.7466 44.0014C86.7247 43.5194 85.4691 44.0434 84.9422 45.1718C84.4154 46.3001 84.8167 47.6056 85.8387 48.0876C86.8606 48.5696 88.1161 48.0456 88.643 46.9173Z" fill="white"/>
<path d="M44.1518 47.3673L14.7614 43.5884C14.0499 43.4968 13.4727 42.8431 13.4727 42.1274V5.59192C13.4727 4.87677 14.0499 4.37073 14.7614 4.46238L44.1518 8.24123C44.8634 8.33289 45.4406 8.98657 45.4406 9.70228V46.2377C45.4406 46.9529 44.8634 47.4589 44.1518 47.3673Z" fill="white"/>
<path d="M42.5208 13.849L16.0651 10.8138C15.7527 10.7782 15.5026 11.0174 15.5059 11.349L15.6653 27.393C15.6686 27.7245 15.9242 28.022 16.2366 28.0582L42.6923 31.0934C43.0047 31.129 43.2548 30.8898 43.2515 30.5582L43.092 14.5142C43.0888 14.1827 42.8332 13.8847 42.5208 13.849Z" fill="#26AA9D"/>
<path d="M42.7545 31.2778C42.7272 31.2778 42.6999 31.2762 42.6721 31.2729L16.2163 28.2377C15.8106 28.1911 15.49 27.8211 15.4857 27.3947L15.3262 11.3506C15.324 11.1355 15.4081 10.9346 15.5567 10.8001C15.6997 10.6706 15.8876 10.6113 16.0858 10.6338L42.5416 13.669C42.9473 13.7156 43.2679 14.0861 43.2722 14.512L43.4317 30.5561C43.4339 30.7712 43.3498 30.9721 43.2012 31.1066C43.0778 31.218 42.9216 31.2773 42.7551 31.2773L42.7545 31.2778ZM16.0045 10.9911C15.9258 10.9911 15.8537 11.018 15.7975 11.0691C15.7243 11.1355 15.6844 11.2343 15.6861 11.3473L15.8455 27.3914C15.8477 27.6301 16.0367 27.8535 16.2573 27.8788L42.713 30.9139C42.807 30.9244 42.8949 30.898 42.9604 30.8387C43.0336 30.7723 43.0735 30.6735 43.0724 30.5599L42.9129 14.5159C42.9107 14.2771 42.7218 14.0537 42.5012 14.0285L16.0454 10.9933C16.0318 10.9917 16.0187 10.9911 16.005 10.9911H16.0045Z" fill="#263238"/>
<path d="M41.1637 29.1005L25.9355 27.3535V24.6416L41.1637 26.3891V29.1005Z" fill="white"/>
<path d="M44.3194 47.5589C44.2566 47.5589 44.1932 47.5551 44.1293 47.5468L30.3078 45.7987C30.2095 45.7861 30.1396 45.6961 30.1517 45.5968C30.1642 45.498 30.2538 45.4277 30.3526 45.4398L44.1741 47.1879C44.4684 47.2257 44.7431 47.1473 44.9479 46.9661C45.1494 46.7878 45.2608 46.5293 45.2608 46.2378V9.70235C45.2608 9.07611 44.7529 8.50092 44.1293 8.42078L14.7394 4.64193C14.4451 4.60406 14.1704 4.68255 13.9662 4.86367C13.7647 5.04205 13.6533 5.30056 13.6533 5.592V37.3557C13.6533 37.4556 13.573 37.5363 13.4736 37.5363C13.3742 37.5363 13.2939 37.4551 13.2939 37.3557V5.592C13.2939 5.19518 13.4485 4.84007 13.7286 4.59199C14.0121 4.34171 14.3872 4.23194 14.7853 4.28299L44.1757 8.06183C44.973 8.16447 45.6212 8.89993 45.6212 9.70235V46.2378C45.6212 46.6346 45.4667 46.9897 45.1865 47.2378C44.949 47.448 44.6465 47.5589 44.3199 47.5589H44.3194Z" fill="#263238"/>
<path d="M39.5222 20.4291C40.4798 19.5084 40.4443 17.9091 39.443 16.8571C38.4416 15.8051 36.8536 15.6986 35.896 16.6193C34.9384 17.54 34.9739 19.1392 35.9752 20.1913C36.9765 21.2433 38.5646 21.3498 39.5222 20.4291Z" fill="white"/>
<path d="M75.6212 91.0728C76.306 91.3648 77.0011 91.6721 77.5439 92.1826C78.0993 92.7045 78.4728 93.4899 78.3035 94.2353C77.9879 95.6255 76.4796 96.378 75.4005 97.0833C74.0266 97.9812 72.5964 98.8083 71.0641 99.4022C69.2401 100.109 66.8608 100.263 65.5371 98.5004C64.6563 97.3275 66.7735 93.7067 68.5947 92.2018C69.3963 91.5393 70.3749 91.0909 71.3753 90.7967C72.7864 90.3818 74.2281 90.48 75.5737 91.053C75.59 91.0601 75.6059 91.0667 75.6223 91.0739L75.6212 91.0728Z" fill="#263238"/>
<path d="M65.5306 94.8709C66.0816 94.7863 66.5365 94.5278 66.9811 93.9888C67.5577 93.2896 67.9132 92.4943 68.4102 91.7484C69.2561 90.4789 70.3187 90.0849 71.8249 90.159C73.0306 90.2182 74.2293 90.4252 75.3853 90.7748C75.9413 90.9433 76.5103 91.159 76.9018 91.5898C77.0078 91.7067 77.1022 91.8747 77.0302 92.0146C76.9936 92.0854 76.9226 92.1299 76.856 92.1727C75.8714 92.8055 75.1631 93.7753 74.8464 94.8945C74.5821 95.8281 73.9595 96.6228 73.237 97.26C71.8074 98.5196 69.753 99.3813 67.8291 99.1744C67.0641 99.0921 66.3307 98.8418 65.5705 98.7326C64.8251 98.6256 64.0666 98.6541 63.3157 98.675C61.6862 98.72 60.0578 98.8072 58.4277 98.85C55.3139 98.9324 52.2001 99.0059 49.0858 99.0773C47.4754 99.114 45.8644 99.1503 44.254 99.1854C39.8771 99.1854 35.8623 96.7446 33.8297 92.8489L29.7969 85.1177L34.4173 72.1423C34.4173 72.1423 41.6257 88.9723 41.6623 89.0585C42.0325 89.9235 43.431 90.5876 44.207 90.9724C45.5018 91.614 46.8867 92.0695 48.2748 92.4565C51.4481 93.3412 54.7209 93.8697 57.9854 94.2753C60.2735 94.5597 62.578 94.7968 64.8819 94.8999C65.1134 94.9104 65.328 94.9027 65.5296 94.8714L65.5306 94.8709Z" fill="white"/>
<path d="M68.397 99.3859C68.1982 99.3859 68.0022 99.376 67.8094 99.3551C67.3829 99.3096 66.9646 99.2119 66.5594 99.118C66.2274 99.0412 65.8839 98.9611 65.5442 98.9122C64.8529 98.8129 64.1331 98.8332 63.4374 98.8524L63.3195 98.8557C62.5271 98.8776 61.7211 98.91 60.9412 98.9413C60.1188 98.9742 59.2686 99.0088 58.4309 99.0308C55.12 99.118 51.8505 99.1943 49.0884 99.258C47.478 99.2948 45.8671 99.3315 44.2561 99.3661C39.794 99.3661 35.7388 96.9012 33.6686 92.9325L29.6357 85.2013C29.6122 85.1569 29.6089 85.1042 29.6259 85.0564L34.2463 72.081C34.2714 72.0113 34.3359 71.9636 34.4101 71.9614C34.4817 71.9559 34.5516 72.0025 34.5811 72.0706C34.5811 72.0706 41.7894 88.9006 41.826 88.9868C42.1558 89.7574 43.431 90.3874 44.1933 90.7645L44.2856 90.8101C45.3909 91.3578 46.6354 91.8117 48.3223 92.2821C51.0505 93.0428 54.0371 93.6021 58.0066 94.096C60.7124 94.4325 62.8995 94.6301 64.8895 94.719C65.1199 94.7289 65.3198 94.7206 65.5022 94.6926C66.0281 94.612 66.4409 94.3595 66.8412 93.8743C67.189 93.4522 67.4512 93.0011 67.728 92.5225C67.8951 92.2343 68.0677 91.9369 68.2594 91.6482C69.0932 90.3957 70.1614 89.8962 71.8324 89.9786C73.0557 90.0384 74.268 90.248 75.4361 90.602C76.0165 90.7777 76.6118 91.0044 77.0334 91.4687C77.2278 91.6833 77.2846 91.9127 77.1884 92.0988C77.1306 92.2107 77.0339 92.2733 76.9558 92.3232C76.0116 92.9297 75.3252 93.86 75.0177 94.9446C74.7709 95.8156 74.2112 96.6405 73.3538 97.3963C71.9285 98.6526 70.0778 99.3853 68.3959 99.3853L68.397 99.3859ZM64.3019 98.4753C64.7327 98.4753 65.1663 98.4929 65.5956 98.5544C65.9505 98.6054 66.3011 98.6866 66.6408 98.7657C67.035 98.8573 67.443 98.9517 67.8482 98.9956C69.5782 99.1817 71.5976 98.4655 73.1185 97.1252C73.9228 96.416 74.4465 95.6493 74.6737 94.8463C75.0052 93.6762 75.7457 92.6734 76.7592 92.0219C76.8073 91.9906 76.857 91.9588 76.8706 91.933C76.8914 91.893 76.8488 91.8007 76.7691 91.7129C76.4064 91.3139 75.8647 91.1097 75.3339 90.9489C74.1937 90.6037 73.0103 90.399 71.8166 90.3402C70.2679 90.2645 69.3248 90.7014 68.5597 91.8496C68.374 92.1284 68.2042 92.4209 68.0398 92.7042C67.7673 93.174 67.4861 93.6597 67.1191 94.1043C66.6588 94.6625 66.1771 94.9545 65.5579 95.0494C65.352 95.0812 65.1287 95.0906 64.8747 95.0796C62.8755 94.9901 60.6797 94.7914 57.964 94.4539C53.9759 93.9583 50.9735 93.3957 48.2278 92.6301C46.5185 92.1537 45.2543 91.6921 44.1283 91.1339L44.0366 91.0883C43.23 90.6899 41.8806 90.0225 41.4978 89.1295C41.4645 89.0515 35.5498 75.2424 34.4331 72.6354L29.9934 85.1036L33.9897 92.7645C35.9976 96.6131 39.9305 99.0044 44.2545 99.0044C45.861 98.9699 47.4715 98.9331 49.0824 98.8963C51.844 98.8332 55.1134 98.7569 58.4232 98.6696C59.2582 98.6477 60.1074 98.6136 60.9281 98.5802C61.7085 98.5489 62.5156 98.5165 63.3107 98.494L63.4281 98.4907C63.7165 98.4825 64.0086 98.4742 64.3024 98.4742L64.3019 98.4753Z" fill="#263238"/>
<path d="M23.1391 63.0504C23.1391 63.0504 31.6297 64.181 34.4497 67.6344C38.0211 72.0082 39.5605 78.5072 40.0608 81.3157C40.2076 82.1406 40.1902 82.9864 40.0089 83.8042L39.8014 84.7421C39.068 88.0534 36.0628 90.3487 32.6924 90.1725H32.8611C32.3161 90.1445 31.5216 89.9634 31.2911 89.4667L30.3994 87.8311L30.3153 88.4206C29.6447 92.773 33.1446 98.7351 33.1446 98.7351L23.102 97.3734C17.9426 96.8526 13.0327 94.8097 9.09378 91.4195C6.9553 89.5786 5.3012 87.8569 4.58801 85.7658C3.37679 82.2147 3.4871 81.2026 3.14744 76.8947C2.91589 73.961 3.77271 71.0307 5.60319 68.7338C8.29322 65.3589 13.4723 61.8177 23.1397 63.0504H23.1391Z" fill="#26AA9D"/>
<path d="M30.9744 89.5486C30.9072 89.5486 30.8428 89.5107 30.8116 89.4454L28.4334 84.4262C28.3908 84.3362 28.4291 84.228 28.5186 84.1852C28.6082 84.143 28.7158 84.1808 28.7584 84.2709L31.1366 89.2901C31.1792 89.3801 31.1409 89.4882 31.0514 89.5311C31.0263 89.5431 31 89.5486 30.9744 89.5486Z" fill="white"/>
<path d="M24.4696 45.9582L25.0933 45.5405C25.5935 45.2051 25.8043 44.569 25.5957 44.0021C24.9693 42.3012 22.6856 39.3368 14.3785 41.5882C5.90814 43.8841 7.40551 57.5439 14.6215 60.4632C21.8375 63.3826 24.2883 48.3759 24.2883 48.3759L24.4696 45.9582Z" fill="#263238"/>
<path d="M23.4291 46.2714C23.5257 45.7505 24.216 45.6358 24.477 46.0963C25.111 47.2143 25.413 47.9926 25.514 48.4673C25.65 49.1056 25.0602 49.7445 25.3781 50.4289C25.6959 51.1133 26.195 51.8883 26.2403 53.1199C26.2846 54.3236 27.4991 59.8384 23.2358 59.6645C23.0687 59.6579 22.9283 59.7901 22.9305 59.9586C22.9409 60.7984 22.9857 63.1074 23.1713 64.3571C23.2724 65.0383 22.8502 65.6859 22.1906 65.8731C20.484 66.3577 17.3063 67.0394 14.9281 66.2622C14.31 66.0602 13.9856 65.3791 14.2057 64.7644C14.4869 63.9801 14.8795 61.7753 14.6223 60.4636C14.6223 60.4636 16.0465 60.3225 17.6318 59.5915C20.069 58.4674 21.2682 55.7314 20.5949 53.1227C20.4502 52.5618 20.1367 51.7643 20.4633 50.919C21.3053 48.7396 22.5646 50.93 22.5646 50.93L23.4296 46.2708L23.4291 46.2714Z" fill="white"/>
<path d="M17.4357 66.7942C16.5494 66.7942 15.668 66.6943 14.8723 66.4342C14.5294 66.3222 14.2531 66.0801 14.0936 65.7536C13.9325 65.4232 13.9123 65.05 14.0363 64.7036C14.3071 63.9484 14.697 61.7799 14.4458 60.4989L14.4076 60.3035L14.6047 60.2837C14.6189 60.2826 16.0196 60.1361 17.5569 59.427C19.8767 58.3572 21.0808 55.7249 20.4206 53.1678C20.4015 53.0932 20.3791 53.0147 20.3561 52.9329C20.2021 52.3879 19.9913 51.6409 20.2955 50.8539C20.5598 50.17 20.9044 49.8072 21.32 49.7754C21.7951 49.7408 22.2123 50.1464 22.4673 50.4702L23.2526 46.2386C23.3105 45.9263 23.5491 45.6908 23.8604 45.6381C24.1727 45.5855 24.4764 45.7303 24.6331 46.007C25.349 47.2699 25.6029 48.0213 25.6898 48.4296C25.7591 48.7556 25.6696 49.0663 25.5833 49.3665C25.485 49.7084 25.3916 50.0317 25.5407 50.3528C25.5931 50.4653 25.6499 50.5806 25.7094 50.6997C26.0081 51.3006 26.3806 52.0482 26.4199 53.1135C26.4253 53.2584 26.4494 53.4807 26.4778 53.7381C26.6274 55.1036 26.9059 57.6459 25.6586 58.9895C25.0918 59.5998 24.2743 59.8869 23.228 59.8452C23.1963 59.8441 23.1652 59.8551 23.1423 59.8776C23.1297 59.8896 23.109 59.916 23.1095 59.9561C23.1204 60.8633 23.1663 63.1054 23.3481 64.3304C23.4617 65.0972 22.985 65.8354 22.2385 66.0472C21.0895 66.3732 19.253 66.7948 17.4351 66.7948L17.4357 66.7942ZM14.8308 60.6191C15.0296 61.9912 14.6517 64.0527 14.3743 64.8255C14.2836 65.079 14.2984 65.3518 14.4163 65.5939C14.5327 65.8321 14.7336 66.0082 14.9832 66.09C17.3204 66.854 20.4708 66.1729 22.1413 65.6987C22.7141 65.5362 23.08 64.9709 22.9932 64.3831C22.8081 63.1361 22.7616 60.8743 22.7507 59.9599C22.7491 59.8298 22.7993 59.708 22.8922 59.6174C22.985 59.5268 23.1117 59.4786 23.2433 59.4829C24.1798 59.5225 24.9039 59.2716 25.3965 58.742C26.5313 57.5197 26.2642 55.085 26.1212 53.7771C26.0911 53.5015 26.0671 53.2842 26.0611 53.1261C26.0245 52.1387 25.687 51.4598 25.3889 50.8605C25.3283 50.7381 25.2693 50.6201 25.2158 50.5048C25.0093 50.0608 25.1311 49.6382 25.2387 49.265C25.3162 48.996 25.3894 48.7414 25.3392 48.5048C25.2726 48.1909 25.0514 47.4724 24.3218 46.1853C24.223 46.0108 24.0504 45.9718 23.921 45.9938C23.7932 46.0152 23.643 46.1085 23.607 46.3039L22.653 51.4423L22.4094 51.0202C22.2609 50.7622 21.7814 50.1036 21.3478 50.1349C21.0169 50.1607 20.7755 50.6107 20.6314 50.984C20.3709 51.6585 20.5549 52.31 20.7029 52.8336C20.7269 52.9187 20.7499 52.9999 20.7695 53.0767C21.4734 55.804 20.1857 58.6125 17.7076 59.7552C16.4341 60.3424 15.277 60.5543 14.8319 60.6185L14.8308 60.6191Z" fill="#263238"/>
<path d="M10.9686 44.3491C10.9686 44.3491 6.80036 42.3496 3.76903 45.2059C0.737702 48.0621 -2.19916 54.3459 2.34811 61.2011C5.20579 65.509 6.30506 68.9146 6.72719 70.851C6.86862 71.4992 7.71397 71.6616 8.07985 71.1095C9.90979 68.3488 13.2486 62.2587 11.6316 56.5364C9.45271 48.8244 10.9686 44.3491 10.9686 44.3491Z" fill="#263238"/>
<path d="M21.9717 54.6952C21.8799 54.6952 21.7822 54.6848 21.6801 54.659C21.1951 54.5383 20.7807 54.1244 20.4476 53.4307C20.4044 53.3407 20.4421 53.2326 20.5316 53.1892C20.6207 53.1458 20.7288 53.1832 20.7719 53.2737C21.0564 53.8665 21.3912 54.2144 21.7669 54.3083C22.1672 54.4082 22.479 54.1821 22.4817 54.1799C22.562 54.1206 22.6745 54.1376 22.7329 54.2183C22.7919 54.2984 22.7744 54.412 22.6947 54.4708C22.68 54.4817 22.3856 54.6947 21.9711 54.6947L21.9717 54.6952Z" fill="#263238"/>
<path d="M9.9209 43.9722C9.9209 43.9722 13.7938 45.1445 12.2085 48.8778C12.2085 48.8778 13.998 47.5803 13.9527 45.5545C13.9073 43.5287 12.4127 42.8684 11.4161 42.8909C10.4195 42.9134 9.92145 43.9722 9.92145 43.9722H9.9209Z" fill="white"/>
<path d="M11.7889 49.4048L12.0428 48.8065C12.4889 47.756 12.5277 46.8202 12.158 46.0255C11.5224 44.6594 9.8852 44.1501 9.86881 44.1451L9.66895 44.0848L9.7585 43.8949C9.78089 43.8477 10.3166 42.7351 11.4121 42.7099C12.034 42.6956 12.6719 42.9157 13.1552 43.3142C13.586 43.6693 14.1054 44.3455 14.1327 45.5496C14.1796 47.6468 12.3901 48.9684 12.3142 49.0239L11.7894 49.4042L11.7889 49.4048ZM10.1845 43.8745C10.6825 44.0688 11.9177 44.6556 12.484 45.8729C12.8144 46.5831 12.8581 47.3839 12.6162 48.261C13.1169 47.7291 13.8001 46.7763 13.7728 45.559C13.7537 44.7143 13.4615 44.0354 12.9269 43.5946C12.5152 43.2554 11.951 43.0611 11.4202 43.0721C10.7802 43.0869 10.3641 43.5974 10.185 43.8745H10.1845Z" fill="#263238"/>
<path d="M2.53644 75.8867C5.73269 77.8285 12.2333 80.5964 22.6958 79.9542C23.4652 79.907 24.1762 80.3653 24.4482 81.0903L25.1008 83.7155C26.2481 88.3314 28.4062 92.6322 31.4174 96.3034L32.9803 98.209C33.2211 98.5021 32.9945 98.9423 32.6171 98.9149L25.7189 98.4055C13.8787 96.8314 4.67983 90.8627 1.72932 79.9893L0.942413 77.0892C0.686844 76.1479 1.7053 75.3812 2.53644 75.8861V75.8867Z" fill="white"/>
<path d="M32.7372 99.1037C32.7224 99.1037 32.7077 99.1031 32.693 99.102L31.0634 98.9818C30.9646 98.9747 30.8898 98.888 30.8974 98.7881C30.9045 98.6887 30.9897 98.6147 31.0902 98.6212L32.7197 98.7414C32.8486 98.7519 32.9081 98.6564 32.9229 98.6273C32.9382 98.5982 32.9807 98.495 32.8983 98.3946L31.278 96.4192C28.2691 92.7507 26.0722 88.3731 24.9254 83.76L24.2756 81.1452C24.0287 80.4981 23.4002 80.0947 22.7061 80.1353C21.6653 80.199 20.6616 80.2292 19.6977 80.2292C10.767 80.2292 5.13302 77.6759 2.443 76.042C2.05855 75.8082 1.67138 75.9152 1.4371 76.093C1.20502 76.2692 0.998049 76.6117 1.11546 77.0431L1.90237 79.9432C4.51376 89.5679 12.4009 95.973 24.1101 97.9796C24.2079 97.9961 24.2739 98.0899 24.257 98.1882C24.2401 98.2864 24.1472 98.3529 24.0495 98.3358C18.3265 97.355 13.5007 95.3561 9.7065 92.3945C5.6671 89.2414 2.92465 85.0838 1.55506 80.0382L0.768147 77.1381C0.630533 76.6315 0.803642 76.1205 1.22031 75.8043C1.63916 75.4866 2.17869 75.4591 2.62867 75.7324C5.57317 77.5206 12.094 80.424 22.6837 79.7742C23.5367 79.7215 24.3149 80.2254 24.6152 81.0272C24.618 81.0338 24.6196 81.0404 24.6212 81.047L25.2738 83.6721C26.4075 88.2331 28.5798 92.5614 31.5549 96.1887L33.1752 98.164C33.3231 98.3446 33.3488 98.5856 33.2418 98.793C33.1418 98.9873 32.9513 99.1031 32.7366 99.1031L32.7372 99.1037Z" fill="#263238"/>
<path d="M91.8652 82.5778C91.7658 82.5778 91.6855 82.4966 91.6855 82.3973V81.4626C91.6855 81.3627 91.7658 81.282 91.8652 81.282C91.9646 81.282 92.0449 81.3632 92.0449 81.4626V82.3973C92.0449 82.4971 91.9646 82.5778 91.8652 82.5778Z" fill="#F8931F"/>
<path d="M91.8652 84.7558C91.7658 84.7558 91.6855 84.6746 91.6855 84.5752V83.6405C91.6855 83.5406 91.7658 83.46 91.8652 83.46C91.9646 83.46 92.0449 83.5412 92.0449 83.6405V84.5752C92.0449 84.6751 91.9646 84.7558 91.8652 84.7558Z" fill="#F8931F"/>
<path d="M91.2464 83.1993H90.3164C90.217 83.1993 90.1367 83.118 90.1367 83.0187C90.1367 82.9194 90.217 82.8381 90.3164 82.8381H91.2464C91.3458 82.8381 91.426 82.9194 91.426 83.0187C91.426 83.118 91.3458 83.1993 91.2464 83.1993Z" fill="#F8931F"/>
<path d="M93.4134 83.1993H92.4834C92.384 83.1993 92.3037 83.118 92.3037 83.0187C92.3037 82.9194 92.384 82.8381 92.4834 82.8381H93.4134C93.5127 82.8381 93.593 82.9194 93.593 83.0187C93.593 83.118 93.5127 83.1993 93.4134 83.1993Z" fill="#F8931F"/>
<path d="M53.4765 43.4313C53.3771 43.4313 53.2969 43.3501 53.2969 43.2508V42.3161C53.2969 42.2162 53.3771 42.1355 53.4765 42.1355C53.5759 42.1355 53.6562 42.2167 53.6562 42.3161V43.2508C53.6562 43.3507 53.5759 43.4313 53.4765 43.4313Z" fill="#F8931F"/>
<path d="M53.4765 45.6093C53.3771 45.6093 53.2969 45.5281 53.2969 45.4287V44.494C53.2969 44.3942 53.3771 44.3135 53.4765 44.3135C53.5759 44.3135 53.6562 44.3947 53.6562 44.494V45.4287C53.6562 45.5286 53.5759 45.6093 53.4765 45.6093Z" fill="#F8931F"/>
<path d="M52.8587 44.053H51.9287C51.8293 44.053 51.749 43.9718 51.749 43.8725C51.749 43.7731 51.8293 43.6919 51.9287 43.6919H52.8587C52.9581 43.6919 53.0383 43.7731 53.0383 43.8725C53.0383 43.9718 52.9581 44.053 52.8587 44.053Z" fill="#F8931F"/>
<path d="M55.0257 44.053H54.0957C53.9963 44.053 53.916 43.9718 53.916 43.8725C53.916 43.7731 53.9963 43.6919 54.0957 43.6919H55.0257C55.1251 43.6919 55.2053 43.7731 55.2053 43.8725C55.2053 43.9718 55.1251 44.053 55.0257 44.053Z" fill="#F8931F"/>
<path d="M76.0587 24.4351C75.9626 24.4351 75.8829 24.3589 75.879 24.2617C75.8752 24.1618 75.9522 24.0778 76.0516 24.074C76.2908 24.0641 76.5338 24.0575 76.7746 24.0531C76.8729 24.0488 76.9559 24.1311 76.9576 24.231C76.9592 24.3309 76.88 24.4132 76.7806 24.4148C76.5425 24.4192 76.3023 24.4258 76.0658 24.4357C76.0631 24.4357 76.0609 24.4357 76.0587 24.4357V24.4351Z" fill="#26AA9D"/>
<path d="M72.0641 69.4759C71.9653 69.4759 71.885 69.3958 71.8844 69.2964C71.8839 69.1965 71.9642 69.1153 72.063 69.1148C72.5441 69.112 73.029 69.0961 73.503 69.0681C73.6003 69.0626 73.6871 69.1384 73.6931 69.2377C73.6991 69.3376 73.6232 69.4232 73.5238 69.4287C73.0432 69.4572 72.5523 69.4732 72.0652 69.4759H72.0641ZM70.6142 69.4457C70.6115 69.4457 70.6088 69.4457 70.6055 69.4457C70.1222 69.4232 69.6329 69.387 69.1502 69.3392C69.0513 69.3294 68.9793 69.241 68.9891 69.1417C68.9989 69.0423 69.0863 68.9688 69.1857 68.9797C69.6624 69.0269 70.1457 69.0626 70.623 69.0851C70.7224 69.0895 70.7988 69.1746 70.7945 69.2739C70.7901 69.3705 70.7104 69.4463 70.6148 69.4463L70.6142 69.4457ZM74.9578 69.3041C74.8677 69.3041 74.7896 69.2361 74.7793 69.1438C74.7678 69.0445 74.8388 68.955 74.9376 68.9441C75.4149 68.8897 75.8949 68.8211 76.3635 68.741C76.4612 68.7245 76.5546 68.7904 76.571 68.8886C76.5879 68.9869 76.5218 69.0807 76.4241 69.0972C75.949 69.1784 75.4624 69.2481 74.9786 69.303C74.9715 69.3041 74.9649 69.3041 74.9578 69.3041ZM67.7287 69.1592C67.72 69.1592 67.7107 69.1587 67.7014 69.157C67.2214 69.084 66.7381 68.9973 66.2647 68.9002C66.1675 68.8804 66.1047 68.7843 66.1243 68.6867C66.144 68.589 66.2384 68.5258 66.3367 68.5456C66.8042 68.6416 67.2815 68.7273 67.7555 68.7992C67.8538 68.814 67.9215 68.9062 67.9062 69.005C67.8925 69.0945 67.8161 69.1587 67.7287 69.1587V69.1592ZM77.8155 68.8134C77.7336 68.8134 77.6593 68.7569 77.6402 68.6729C77.6178 68.5758 77.6784 68.4786 77.7751 68.4561C78.2431 68.348 78.7116 68.2251 79.1676 68.09C79.2632 68.0621 79.3631 68.1169 79.391 68.2124C79.4188 68.3085 79.3642 68.4089 79.2692 68.4369C78.8061 68.5736 78.3305 68.6982 77.8559 68.8085C77.8423 68.8118 77.8286 68.8129 77.8155 68.8129V68.8134ZM64.888 68.5741C64.8732 68.5741 64.8579 68.5725 64.8426 68.5686C64.3736 68.4463 63.9017 68.3096 63.4397 68.1625C63.3453 68.1323 63.2928 68.0308 63.3223 67.9358C63.3524 67.8409 63.4534 67.7882 63.5484 67.8184C64.0044 67.9633 64.4702 68.0983 64.9333 68.219C65.0294 68.2443 65.0873 68.3431 65.0622 68.4397C65.0409 68.5209 64.9682 68.5752 64.888 68.5752V68.5741ZM80.5978 67.9956C80.5235 67.9956 80.4542 67.9495 80.4285 67.8749C80.3952 67.7805 80.4444 67.6773 80.5383 67.6444C80.9904 67.4836 81.4421 67.309 81.8817 67.1246C81.9734 67.0862 82.0788 67.1296 82.117 67.2218C82.1553 67.314 82.1121 67.4199 82.0204 67.4583C81.5748 67.6455 81.1166 67.8228 80.6584 67.9852C80.6388 67.9924 80.6186 67.9956 80.5984 67.9956H80.5978ZM62.1237 67.6932C62.1024 67.6932 62.0811 67.6894 62.0603 67.6817C61.6054 67.5094 61.1505 67.3228 60.7088 67.1268C60.6181 67.0868 60.5766 66.9797 60.617 66.8886C60.6569 66.7975 60.7634 66.7558 60.854 66.7964C61.2898 66.9896 61.7387 67.174 62.1876 67.3442C62.2804 67.3793 62.3274 67.4836 62.2924 67.5769C62.2651 67.6493 62.1969 67.6938 62.1242 67.6938L62.1237 67.6932ZM83.272 66.8732C83.2054 66.8732 83.1415 66.8359 83.1104 66.7717C83.0667 66.6817 83.1044 66.5736 83.1934 66.5302C83.6253 66.3195 84.054 66.0939 84.469 65.8606C84.5559 65.8118 84.6656 65.843 84.7137 65.9303C84.7623 66.0176 84.7312 66.1274 84.6449 66.1762C84.2244 66.4128 83.7886 66.6416 83.3506 66.8557C83.3255 66.8683 83.2988 66.8738 83.272 66.8738V66.8732ZM59.4708 66.5159C59.4435 66.5159 59.4151 66.5094 59.3889 66.4962C58.9547 66.2733 58.5239 66.0362 58.1077 65.7909C58.022 65.7404 57.9931 65.6295 58.0433 65.5434C58.0936 65.4572 58.2039 65.4287 58.2896 65.4792C58.6997 65.7207 59.1246 65.9545 59.5527 66.174C59.6412 66.2196 59.6761 66.3282 59.6313 66.4171C59.5997 66.4797 59.5363 66.5159 59.4708 66.5159ZM85.7998 65.4495C85.7403 65.4495 85.6824 65.4199 85.648 65.3661C85.5945 65.2821 85.6191 65.1702 85.7026 65.1164C86.1051 64.8573 86.5048 64.5829 86.8904 64.3008C86.9707 64.242 87.0831 64.2596 87.1416 64.3403C87.2 64.421 87.1825 64.534 87.1023 64.5928C86.7107 64.8793 86.305 65.1575 85.8965 65.421C85.8665 65.4402 85.8331 65.4495 85.7998 65.4495ZM56.9703 65.0417C56.9358 65.0417 56.9009 65.0318 56.8703 65.011C56.4657 64.7382 56.0654 64.4506 55.682 64.1564C55.6028 64.0961 55.5881 63.9824 55.6482 63.9029C55.7082 63.8233 55.8213 63.8084 55.9005 63.8688C56.2784 64.1586 56.6721 64.4418 57.0707 64.7108C57.1532 64.7662 57.175 64.8787 57.1199 64.9616C57.0855 65.0137 57.0281 65.0417 56.9703 65.0417ZM88.1426 63.7349C88.0907 63.7349 88.0393 63.7124 88.0039 63.669C87.9405 63.5922 87.9514 63.478 88.0284 63.4144C88.3959 63.1098 88.7596 62.7892 89.1086 62.4627C89.1812 62.3946 89.2948 62.3985 89.3631 62.472C89.4308 62.545 89.427 62.6597 89.3538 62.7278C88.9994 63.0598 88.6302 63.3847 88.2572 63.6937C88.2239 63.7217 88.183 63.7349 88.1431 63.7349H88.1426ZM54.6679 63.2722C54.6259 63.2722 54.5838 63.2574 54.55 63.2278C54.1879 62.9105 53.8335 62.5796 53.4966 62.2431L53.4797 62.2261C53.4092 62.1553 53.4092 62.0411 53.4797 61.9703C53.5501 61.8995 53.6637 61.8995 53.7341 61.9703L53.75 61.9863C54.0814 62.3172 54.4304 62.6432 54.7864 62.955C54.8613 63.0203 54.8689 63.1345 54.8039 63.2102C54.7684 63.2514 54.7182 63.2722 54.6685 63.2722H54.6679ZM90.2608 61.7525C90.216 61.7525 90.1718 61.736 90.1369 61.7025C90.0648 61.6339 90.0621 61.5192 90.1309 61.4467C90.4596 61.0999 90.7823 60.7376 91.0909 60.3704C91.1548 60.2941 91.2684 60.2843 91.3443 60.349C91.4202 60.4132 91.43 60.5274 91.3656 60.6037C91.0527 60.9764 90.7245 61.3441 90.3913 61.6959C90.3559 61.7332 90.3083 61.7519 90.2608 61.7519V61.7525ZM52.6092 61.2223C52.56 61.2223 52.5109 61.202 52.4754 61.1624C52.1609 60.8101 51.8425 60.4347 51.529 60.0472C51.4662 59.9698 51.4782 59.8556 51.5552 59.793C51.6322 59.7299 51.7458 59.742 51.8081 59.8194C52.1183 60.203 52.4328 60.5735 52.7435 60.9215C52.8096 60.9961 52.8036 61.1103 52.7299 61.1767C52.6955 61.2074 52.6529 61.2228 52.6097 61.2228L52.6092 61.2223ZM92.1301 59.5285C92.0924 59.5285 92.0547 59.517 92.0225 59.4923C91.9428 59.4324 91.9269 59.3194 91.9865 59.2393C92.2715 58.8562 92.5506 58.4577 92.8149 58.0559C92.8695 57.9725 92.9814 57.9495 93.0639 58.0049C93.1469 58.0598 93.1693 58.1723 93.1147 58.2552C92.8466 58.663 92.5637 59.0669 92.2743 59.4555C92.2388 59.5027 92.1847 59.528 92.1301 59.528V59.5285ZM50.7771 58.9637C50.7225 58.9637 50.6684 58.9385 50.6329 58.8913C50.3566 58.5197 50.0693 58.1201 49.7805 57.7052C49.7237 57.6234 49.7433 57.5109 49.8247 57.4533C49.9061 57.3962 50.018 57.416 50.0754 57.4977C50.362 57.9099 50.6466 58.3057 50.9207 58.6745C50.9802 58.7546 50.9638 58.8677 50.8847 58.9275C50.8524 58.9517 50.8148 58.9637 50.7771 58.9637ZM93.7296 57.0987C93.699 57.0987 93.6679 57.091 93.6389 57.074C93.5532 57.0235 93.5243 56.9132 93.5739 56.8271C93.8137 56.4138 94.0458 55.9862 94.2642 55.5559C94.3095 55.467 94.4176 55.4319 94.5061 55.4769C94.5946 55.5224 94.6295 55.6311 94.5847 55.72C94.3636 56.1564 94.1282 56.5899 93.8852 57.0087C93.8519 57.0663 93.7918 57.0987 93.7296 57.0987ZM49.1121 56.5779C49.0536 56.5779 48.9968 56.5493 48.9619 56.4972C48.7167 56.1267 48.4567 55.7266 48.1673 55.2749C48.1138 55.1909 48.1378 55.079 48.2214 55.0252C48.3049 54.9714 48.4163 54.9955 48.4699 55.0795C48.7582 55.5296 49.017 55.928 49.2611 56.2974C49.3163 56.3803 49.2939 56.4928 49.2109 56.5482C49.1803 56.5685 49.1459 56.5784 49.1115 56.5784L49.1121 56.5779ZM95.0484 54.5021C95.0238 54.5021 94.9992 54.4972 94.9757 54.4867C94.8851 54.4461 94.8441 54.3397 94.884 54.2485C95.0773 53.81 95.2619 53.3594 95.4328 52.9082C95.4683 52.8149 95.5721 52.7677 95.6649 52.804C95.7577 52.8396 95.8042 52.9439 95.7692 53.0372C95.5961 53.4944 95.4088 53.9511 95.2127 54.3951C95.1833 54.4626 95.1172 54.5027 95.0484 54.5027V54.5021ZM47.5393 54.1283C47.4798 54.1283 47.4214 54.0987 47.387 54.0444L47.1314 53.6388C46.9583 53.3632 46.7846 53.0883 46.611 52.8133C46.5575 52.7288 46.5826 52.6174 46.6661 52.5636C46.7502 52.5098 46.8611 52.535 46.9146 52.619C47.0888 52.894 47.2619 53.1695 47.4356 53.445L47.6911 53.8506C47.7441 53.9351 47.7195 54.0466 47.6354 54.1004C47.6054 54.1196 47.5721 54.1283 47.5393 54.1283ZM96.0827 51.776C96.0641 51.776 96.0455 51.7732 96.0275 51.7672C95.933 51.7364 95.8812 51.6349 95.9117 51.5394C96.0581 51.0839 96.1952 50.6162 96.3191 50.1503C96.3448 50.0537 96.4436 49.9971 96.5392 50.0224C96.6353 50.0482 96.6921 50.1475 96.6664 50.2436C96.5408 50.7156 96.4016 51.1887 96.2536 51.6503C96.229 51.7266 96.1586 51.7754 96.0827 51.7754V51.776ZM45.9808 51.6695C45.9218 51.6695 45.8639 51.6404 45.8295 51.5872C45.5428 51.1426 45.2818 50.7452 45.0322 50.3731C44.9765 50.2902 44.9984 50.1777 45.0808 50.1223C45.1633 50.0663 45.2752 50.0882 45.3304 50.1711C45.5811 50.5449 45.8432 50.9439 46.131 51.3901C46.185 51.4741 46.161 51.5861 46.078 51.6404C46.048 51.6602 46.0141 51.6695 45.9802 51.6695H45.9808ZM44.3567 49.254C44.3005 49.254 44.2453 49.2276 44.2098 49.1782C43.9209 48.7699 43.6326 48.3769 43.3536 48.0097C43.2935 47.9302 43.3082 47.8171 43.3874 47.7562C43.4666 47.6958 43.5791 47.7106 43.6397 47.7902C43.9215 48.1607 44.212 48.5569 44.5036 48.9686C44.561 49.0498 44.5424 49.1629 44.4616 49.2205C44.4299 49.243 44.3933 49.254 44.3573 49.254H44.3567ZM96.8335 48.962C96.821 48.962 96.8084 48.9609 96.7953 48.9582C96.6981 48.9373 96.6364 48.8407 96.6572 48.7436C96.7576 48.2754 96.8483 47.7968 96.9269 47.3204C96.9433 47.2221 97.0356 47.1557 97.1339 47.1716C97.2316 47.1881 97.2983 47.2809 97.2819 47.3797C97.2021 47.8615 97.1104 48.3462 97.0088 48.8198C96.9908 48.9044 96.916 48.9625 96.833 48.9625L96.8335 48.962ZM42.5874 46.945C42.5366 46.945 42.4858 46.9236 42.4503 46.8813C42.1374 46.5108 41.8136 46.1486 41.4876 45.8044C41.4193 45.732 41.4221 45.6178 41.4941 45.5487C41.5662 45.4801 41.6798 45.4828 41.7486 45.5553C42.079 45.9043 42.4072 46.2715 42.7245 46.6475C42.7889 46.7238 42.7796 46.8374 42.7037 46.9022C42.6699 46.9312 42.6284 46.945 42.5874 46.945ZM97.3086 46.0877C97.3015 46.0877 97.2944 46.0877 97.2873 46.0866C97.1885 46.075 97.118 45.985 97.1295 45.8857C97.1858 45.4093 97.2311 44.9241 97.266 44.4427C97.2731 44.3429 97.36 44.2688 97.4583 44.2753C97.5571 44.2825 97.6319 44.3692 97.6248 44.4685C97.5899 44.9554 97.5434 45.446 97.4872 45.9279C97.4763 46.0196 97.3987 46.0877 97.3086 46.0877ZM40.5865 44.8346C40.5429 44.8346 40.4986 44.8187 40.4642 44.7863C40.1098 44.4548 39.7445 44.1354 39.3797 43.8363C39.3027 43.7731 39.2912 43.6595 39.3535 43.5821C39.4163 43.5048 39.5293 43.4927 39.6063 43.5558C39.9776 43.8593 40.3484 44.1842 40.7089 44.5212C40.7815 44.5893 40.7859 44.7035 40.7181 44.777C40.6826 44.8154 40.6346 44.8346 40.5865 44.8346ZM97.5172 43.1809C97.5172 43.1809 97.514 43.1809 97.5123 43.1809C97.4129 43.1782 97.3348 43.0953 97.3376 42.9954C97.3414 42.8626 97.3441 42.7292 97.3458 42.5959C97.3474 42.4718 97.3485 42.3472 97.3485 42.2226C97.3485 41.9976 97.3452 41.7704 97.3392 41.5476C97.3365 41.4477 97.4146 41.3648 97.514 41.362C97.5156 41.362 97.5172 41.362 97.5189 41.362C97.6161 41.362 97.6958 41.44 97.6985 41.5377C97.7045 41.7638 97.7078 41.9943 97.7078 42.2226C97.7078 42.3489 97.7067 42.4751 97.7051 42.6008C97.7029 42.7358 97.7002 42.8703 97.6964 43.0048C97.6936 43.103 97.6139 43.1804 97.5167 43.1804L97.5172 43.1809ZM38.3356 42.9982C38.3001 42.9982 38.264 42.9877 38.2329 42.9658C37.8364 42.687 37.4302 42.4246 37.025 42.1859C36.9392 42.1354 36.9103 42.0245 36.9605 41.9383C37.0108 41.8522 37.1211 41.8236 37.2068 41.8741C37.6202 42.1178 38.0347 42.3856 38.4388 42.6694C38.5201 42.7265 38.5398 42.8395 38.483 42.9213C38.4481 42.9718 38.3924 42.9987 38.3356 42.9987V42.9982ZM35.835 41.5272C35.8094 41.5272 35.7826 41.5218 35.758 41.5097C35.3239 41.3022 34.8799 41.1145 34.4376 40.9515C34.3442 40.9169 34.2967 40.8132 34.3306 40.7199C34.365 40.626 34.4682 40.5777 34.5616 40.6123C35.0143 40.7792 35.4686 40.9713 35.9131 41.1837C36.0027 41.2265 36.0409 41.3346 35.9983 41.4246C35.9677 41.4899 35.9027 41.5278 35.8356 41.5278L35.835 41.5272ZM33.1161 40.5294C33.1013 40.5294 33.086 40.5278 33.0713 40.5239C32.6093 40.4043 32.138 40.3077 31.6695 40.2363C31.5712 40.2215 31.5035 40.1293 31.5188 40.0305C31.5335 39.9317 31.6263 39.8648 31.7235 39.879C32.2041 39.952 32.6879 40.0514 33.1614 40.1743C33.2575 40.199 33.3154 40.2978 33.2908 40.3944C33.2701 40.4756 33.1969 40.53 33.1166 40.53L33.1161 40.5294ZM97.4331 40.2682C97.3414 40.2682 97.2628 40.1979 97.254 40.1035C97.2103 39.6194 97.1508 39.1364 97.0765 38.6694C97.0607 38.5711 97.1279 38.4784 97.2262 38.4625C97.3239 38.4465 97.4162 38.514 97.432 38.6128C97.5074 39.0881 97.568 39.5788 97.6123 40.0711C97.6215 40.1705 97.5484 40.2583 97.4495 40.2676C97.4441 40.2676 97.4386 40.2682 97.4331 40.2682ZM96.975 37.3916C96.8936 37.3916 96.8193 37.3357 96.8002 37.2522C96.6899 36.7791 96.561 36.3109 96.4174 35.8614C96.3868 35.7665 96.4393 35.6644 96.5337 35.6342C96.6282 35.6035 96.7298 35.6562 96.7598 35.7511C96.9062 36.21 97.0372 36.6869 97.1503 37.1694C97.1732 37.2665 97.1131 37.3637 97.0165 37.3867C97.0028 37.39 96.9886 37.3916 96.975 37.3916ZM96.0876 34.6199C96.0171 34.6199 95.9505 34.5782 95.9216 34.5091C95.7354 34.0618 95.5284 33.6238 95.3072 33.2077C95.2603 33.1194 95.2936 33.0102 95.3809 32.9629C95.4683 32.9157 95.5775 32.9492 95.6245 33.037C95.8506 33.463 96.0625 33.9114 96.253 34.3686C96.2913 34.4608 96.2481 34.5667 96.1569 34.6051C96.134 34.6144 96.1105 34.6194 96.0876 34.6194V34.6199ZM94.7207 32.0541C94.6628 32.0541 94.606 32.0261 94.5711 31.9739C94.5263 31.907 94.481 31.84 94.4346 31.7736C94.2085 31.4481 93.966 31.1281 93.7132 30.823C93.6498 30.7461 93.6602 30.632 93.7361 30.5683C93.8126 30.5041 93.9262 30.5145 93.9895 30.5919C94.2489 30.9053 94.4979 31.233 94.7295 31.5672C94.777 31.6353 94.8234 31.7039 94.8693 31.773C94.9244 31.8559 94.9026 31.9684 94.8201 32.0239C94.7895 32.0447 94.7546 32.0546 94.7202 32.0546L94.7207 32.0541ZM92.8695 29.8169C92.8242 29.8169 92.7783 29.7999 92.7433 29.7653C92.4075 29.4338 92.0476 29.1117 91.6747 28.8081C91.5977 28.745 91.5856 28.6314 91.6479 28.554C91.7101 28.4766 91.8237 28.4646 91.9007 28.5271C92.283 28.8378 92.6511 29.1676 92.9951 29.5074C93.0661 29.5771 93.0672 29.6918 92.9973 29.7631C92.9618 29.7994 92.9154 29.8175 92.8689 29.8175L92.8695 29.8169ZM90.6207 27.9843C90.5863 27.9843 90.5513 27.9744 90.5208 27.9536C90.1303 27.6907 89.7186 27.4382 89.2959 27.2027C89.2091 27.1544 89.1779 27.0441 89.226 26.9569C89.274 26.8696 89.3838 26.8378 89.4706 26.8866C89.9021 27.127 90.3231 27.385 90.7212 27.6534C90.8036 27.7088 90.826 27.8213 90.7703 27.9042C90.7359 27.9563 90.6786 27.9843 90.6207 27.9843ZM88.0879 26.5688C88.0628 26.5688 88.0372 26.5633 88.0131 26.5524C87.5855 26.3553 87.1388 26.1693 86.6851 25.998C86.5922 25.9629 86.5447 25.8586 86.5797 25.7653C86.6146 25.672 86.7184 25.6248 86.8112 25.6594C87.2726 25.8334 87.7275 26.0233 88.1628 26.2236C88.2529 26.2653 88.2927 26.3723 88.2512 26.4634C88.2212 26.5299 88.1557 26.5688 88.0874 26.5688H88.0879ZM85.3739 25.543C85.3564 25.543 85.3389 25.5408 85.322 25.5353C84.8699 25.3981 84.4019 25.2713 83.9317 25.1588C83.835 25.1358 83.7755 25.0381 83.7984 24.9409C83.8214 24.8438 83.918 24.784 84.0152 24.807C84.4925 24.9212 84.9671 25.0496 85.4263 25.1896C85.5213 25.2186 85.5754 25.3191 85.5465 25.4146C85.523 25.4925 85.4514 25.543 85.3744 25.543H85.3739ZM82.5528 24.8657C82.5424 24.8657 82.5315 24.8646 82.5206 24.863C82.0553 24.7785 81.5759 24.7049 81.0958 24.644C80.9976 24.6314 80.9276 24.5408 80.9397 24.442C80.9522 24.3427 81.0423 24.273 81.1406 24.285C81.6266 24.3471 82.1121 24.4212 82.5839 24.5068C82.6817 24.5243 82.7467 24.6182 82.7292 24.717C82.7134 24.8043 82.638 24.8657 82.5523 24.8657H82.5528ZM79.6755 24.4986C79.6711 24.4986 79.6662 24.4986 79.6618 24.4986C79.1873 24.4623 78.7029 24.4365 78.2218 24.4223C78.1224 24.4195 78.0443 24.3361 78.047 24.2362C78.0498 24.1363 78.1311 24.0551 78.2322 24.0606C78.7187 24.0748 79.2091 24.1006 79.6891 24.1374C79.788 24.1451 79.8622 24.2318 79.8546 24.3317C79.8475 24.4267 79.7683 24.4986 79.6755 24.4986Z" fill="#F8931F"/>
<path d="M30.2393 40.0943C30.2365 40.0943 30.2338 40.0943 30.2311 40.0943C29.9941 40.0839 29.7549 40.079 29.5206 40.0801H29.5195C29.4207 40.0801 29.3404 39.9999 29.3398 39.9006C29.3393 39.8007 29.4196 39.7195 29.5184 39.7189C29.7592 39.7178 30.0039 39.7222 30.2469 39.7337C30.3463 39.7381 30.4227 39.8226 30.4184 39.9225C30.414 40.0197 30.3343 40.0954 30.2387 40.0954L30.2393 40.0943Z" fill="#26AA9D"/>
<path d="M89.9262 74.7275C89.907 74.7275 89.8885 74.7269 89.8693 74.7258C89.6222 74.7105 89.3959 74.6001 89.2325 74.4139C89.0685 74.2277 88.9865 73.9888 89.0018 73.7405C89.0171 73.4923 89.127 73.2654 89.3123 73.1007C89.4976 72.9359 89.7338 72.8541 89.9825 72.8689C90.492 72.9002 90.8812 73.3418 90.85 73.8542C90.8199 74.3469 90.411 74.728 89.9262 74.728V74.7275ZM89.9251 73.2297C89.7873 73.2297 89.6556 73.2797 89.5517 73.372C89.4386 73.4725 89.3713 73.6115 89.362 73.7625C89.3429 74.075 89.5807 74.3447 89.8917 74.3639C90.2017 74.3831 90.4712 74.1442 90.4903 73.8317C90.5094 73.5192 90.2717 73.2495 89.9612 73.2308C89.9491 73.2303 89.9377 73.2297 89.9256 73.2297H89.9251Z" fill="#F8931F"/>
</svg>
