<svg width="56" height="95" viewBox="0 0 56 95" fill="none" xmlns="http://www.w3.org/2000/svg">
<path fill-rule="evenodd" clip-rule="evenodd" d="M55.0177 81.4876C54.977 81.3357 54.9345 81.1945 54.889 81.0728C54.8572 80.9875 54.7801 80.7845 54.6297 80.6102C54.5606 80.53 54.3423 80.2966 53.9647 80.249C53.5055 80.191 53.1896 80.4415 53.0485 80.6077C52.9228 80.7559 52.8657 80.9066 52.8424 80.9732C52.8138 81.0553 52.7961 81.1322 52.7846 81.1912C52.7107 81.5698 52.7056 82.2699 52.7131 82.986C52.7174 83.3947 52.9664 83.7436 53.3194 83.895C53.3243 84.0795 53.3256 84.2702 53.3233 84.4664C53.3167 85.0185 53.7592 85.4716 54.3115 85.4783C54.8638 85.485 55.3168 85.0428 55.3233 84.4906C55.3361 83.4112 55.2531 82.3655 55.0177 81.4876ZM53.0046 81.746C53.0046 81.7456 53.007 81.7504 53.0114 81.7617C53.0067 81.752 53.0045 81.7464 53.0046 81.746ZM38.4126 31.6376C38.5999 32.1572 39.173 32.4267 39.6926 32.2396C40.2122 32.0525 40.4816 31.4796 40.2943 30.96C39.878 29.8052 39.3946 28.6805 38.834 27.5957C38.261 26.4871 37.6535 25.4294 37.0115 24.4181C36.7155 23.9517 36.0976 23.8135 35.6312 24.1093C35.1649 24.4051 35.0268 25.0229 35.3228 25.4892C35.9325 26.4499 36.5107 27.4563 37.0571 28.5133C37.5741 29.5138 38.0233 30.5576 38.4126 31.6376ZM42.0418 38.0049C41.9567 37.4593 41.4454 37.0857 40.8996 37.1706C40.3539 37.2554 39.9804 37.7666 40.0654 38.3122C40.4178 40.5733 40.6088 42.901 40.6976 45.2408C40.7185 45.7927 41.1829 46.2232 41.7349 46.2024C42.2868 46.1817 42.7173 45.7175 42.6963 45.1656C42.6054 42.7695 42.409 40.3615 42.0418 38.0049ZM54.8232 87.6051C54.8136 87.0529 54.3581 86.613 53.8059 86.6224C53.2536 86.6319 52.8138 87.0871 52.8234 87.6393C52.8342 88.2611 52.8378 88.8274 52.8291 89.2971C52.7365 89.4103 52.6673 89.5458 52.6311 89.6977C52.5283 90.1286 52.4179 90.5408 52.3026 90.9268C52.0753 90.6686 51.8175 90.3609 51.5369 90.0134C51.1899 89.5837 50.5603 89.5165 50.1305 89.8633C49.7008 90.2102 49.6338 90.8397 49.9808 91.2694C50.276 91.635 50.5623 91.9775 50.8275 92.2775C50.2465 92.1063 49.6641 91.9353 49.0809 91.7662C48.5504 91.6124 47.9958 91.9177 47.8421 92.4481C47.6884 92.9785 47.994 93.5331 48.5245 93.6869C49.2763 93.9049 50.0257 94.1258 50.7775 94.3475L50.7823 94.3489L51.4484 94.5452C52.1312 94.7462 52.7155 94.8673 53.2032 94.8793C53.7554 94.8929 54.2139 94.4563 54.2273 93.9042C54.2367 93.514 54.0212 93.1704 53.699 92.9978C53.7101 92.9746 53.72 92.9517 53.7289 92.9294C53.7885 92.779 53.8471 92.6231 53.9047 92.4622C53.9598 92.4627 54.0158 92.4585 54.072 92.4494C54.6173 92.3617 54.9881 91.8486 54.9002 91.3034C54.8278 90.854 54.7814 90.4205 54.8054 90.0003C54.8412 89.3754 54.8391 88.5174 54.8232 87.6051ZM42.7157 52.3044C42.7292 51.7523 42.2925 51.2937 41.7403 51.2801C41.1882 51.2664 40.7296 51.7029 40.7161 52.255C40.6871 53.4464 40.6468 54.6232 40.604 55.779C40.5595 56.9784 40.5279 58.1627 40.5136 59.334C40.5069 59.8862 40.9491 60.3394 41.5014 60.3463C42.0537 60.3532 42.5069 59.9111 42.5136 59.3589C42.5276 58.2071 42.5588 57.0396 42.6028 55.8537C42.6458 54.6946 42.6863 53.5081 42.7157 52.3044ZM31.067 19.9965C31.4448 20.3994 32.0776 20.42 32.4806 20.0424C32.8835 19.6649 32.9039 19.0321 32.5261 18.6291C30.8565 16.848 29.0392 15.2392 27.0801 13.7555C26.6397 13.422 26.0125 13.5085 25.679 13.9487C25.3456 14.3888 25.4323 15.016 25.8727 15.3495C27.751 16.772 29.4823 18.3061 31.067 19.9965ZM46.4658 86.5227C46.7795 86.9774 47.4023 87.0919 47.8569 86.7784C48.3116 86.465 48.4259 85.8423 48.1123 85.3877C47.7185 84.8168 47.3752 84.3024 47.113 83.8905C46.8369 83.4569 46.6866 83.192 46.6424 83.0922C46.1677 82.0199 45.7436 80.9509 45.3653 79.8825C45.1809 79.3619 44.6094 79.0891 44.0887 79.2733C43.5681 79.4575 43.2954 80.0288 43.4798 80.5494C43.875 81.6656 44.318 82.7821 44.8134 83.9012C44.9278 84.1595 45.1599 84.5466 45.4257 84.9641C45.7054 85.4033 46.0634 85.9392 46.4658 86.5227ZM42.6852 66.3361C42.6473 65.7851 42.1699 65.369 41.6189 65.4067C41.0678 65.4444 40.6518 65.9216 40.6897 66.4725C40.8548 68.8761 41.1422 71.2433 41.5966 73.5948C41.7014 74.1371 42.226 74.4918 42.7683 74.3872C43.3106 74.2826 43.6653 73.7582 43.5605 73.216C43.1237 70.956 42.8456 68.6709 42.6852 66.3361ZM42.6796 92.1293C43.2175 92.2547 43.7551 91.9203 43.8803 91.3825C44.0055 90.8447 43.6709 90.3071 43.133 90.1817C42.1346 89.9491 41.1246 89.7351 40.1002 89.547C39.5569 89.4473 39.0358 89.8067 38.9362 90.3499C38.8366 90.893 39.1962 91.4142 39.7395 91.514C40.7286 91.6956 41.7075 91.9028 42.6796 92.1293ZM20.0092 11.4942C20.4876 11.7703 21.0992 11.6065 21.3753 11.1283C21.6513 10.6501 21.4873 10.0385 21.0089 9.76236C18.9858 8.59453 16.8493 7.49169 14.6044 6.41911C14.1059 6.18099 13.5089 6.39187 13.2709 6.89013C13.0329 7.38839 13.244 7.98534 13.7424 8.22347C15.9524 9.27933 18.0412 10.3581 20.0092 11.4942ZM7.26206 5.3097C7.76985 5.52712 8.35766 5.29186 8.57496 4.78422C8.79227 4.27659 8.55679 3.68881 8.049 3.47139C6.96844 3.00872 5.86654 2.54528 4.74383 2.07823C4.73612 2.07503 4.7284 2.07193 4.72067 2.06893C4.70885 1.99178 4.69268 1.91451 4.672 1.83737C4.36715 0.700457 3.19778 0.0257466 2.06013 0.330366C0.922471 0.634985 0.247345 1.80358 0.552187 2.9405C0.857029 4.07741 2.0264 4.75212 3.16406 4.44751C3.50859 4.35525 3.8107 4.18376 4.05602 3.9579C5.14638 4.41173 6.21501 4.86137 7.26206 5.3097Z" fill="#FFB400"/>
</svg>
