<svg width="100" height="100" viewBox="0 0 100 100" fill="none" xmlns="http://www.w3.org/2000/svg">
<g clip-path="url(#clip0_1230_5079)">
<g opacity="0.3">
<path d="M68.7071 0.246338C68.825 0.246338 68.9585 0.289277 69.1009 0.370634C69.0363 0.447472 68.9652 0.54691 68.8962 0.677986C68.8139 0.630527 68.7449 0.607928 68.696 0.607928C68.2599 0.607928 67.5391 2.66221 67.0252 6.06794C66.9896 6.29167 66.9585 6.51993 66.9251 6.75496L66.5225 6.8318C66.5492 6.63744 66.5825 6.40693 66.6226 6.14704C66.7227 5.50973 66.8539 4.70294 67.023 3.8984C67.6971 0.662167 68.2755 0.246338 68.7071 0.246338Z" stroke="#263238" stroke-linecap="round" stroke-linejoin="round"/>
<path d="M72.9387 5.50753L72.5471 5.56402C72.4159 5.33803 72.3669 5.25441 72.2423 5.04424C70.8675 2.74136 69.833 1.45546 69.2168 0.917591C69.288 0.770695 69.3592 0.662218 69.4259 0.59668C70.4404 1.42834 71.7996 3.55268 72.6406 4.96288C72.7874 5.20921 72.8274 5.31543 72.9364 5.50753H72.9387Z" stroke="#263238" stroke-linecap="round" stroke-linejoin="round"/>
<path d="M64.917 7.88275L65.9804 28.0753L83.2394 24.5408L76.3362 5.69287L64.917 7.88275Z" stroke="#263238" stroke-linecap="round" stroke-linejoin="round"/>
<path d="M74.0005 6.13804L73.5956 6.21488C73.4621 5.9595 73.3309 5.71995 73.204 5.48492C71.2397 1.90292 69.9583 0.519833 69.5823 0.515313C69.5333 0.515313 69.48 0.542432 69.4288 0.598931C69.362 0.664469 69.2909 0.770686 69.2197 0.919842C68.817 1.7289 68.3387 3.71313 67.9916 6.54257C67.9583 6.7889 67.9316 7.04201 67.9027 7.30191L67.5 7.381C67.5245 7.16857 67.5534 6.9132 67.589 6.62393C67.6802 5.91883 67.8003 5.02841 67.9561 4.13799C68.2898 2.23513 68.6101 1.21589 68.8993 0.680289C68.9683 0.549212 69.0372 0.449775 69.104 0.372937C69.2797 0.165023 69.4421 0.113044 69.589 0.115304C70.5656 0.128864 72.5077 3.40577 73.6045 5.40582C73.7558 5.67927 73.8892 5.92561 74.0005 6.1403V6.13804Z" stroke="#263238" stroke-linecap="round" stroke-linejoin="round"/>
<path d="M66.307 7.4962L63.5862 7.43066L63.3838 27.0401L65.98 28.0752" stroke="#263238" stroke-linecap="round" stroke-linejoin="round"/>
<path d="M63.3838 27.0403L65.6863 24.6448" stroke="#263238" stroke-linecap="round" stroke-linejoin="round"/>
<path d="M75.559 5.79223L75.3744 5.04419L73.6035 5.40352" stroke="#263238" stroke-linecap="round" stroke-linejoin="round"/>
<path d="M73.2039 5.48486L67.9893 6.54025" stroke="#263238" stroke-linecap="round" stroke-linejoin="round"/>
<path d="M67.5881 6.61938L63.5859 7.4307" stroke="#263238" stroke-linecap="round" stroke-linejoin="round"/>
<path d="M75.377 5.04419L74.3047 6.06794" stroke="#263238" stroke-linecap="round" stroke-linejoin="round"/>
</g>
<g opacity="0.3">
<path d="M7.84654 15.0649C7.84654 15.0649 11.9689 15.3361 14.3782 15.6096C16.7875 15.8808 22.9431 15.3384 22.9431 15.3384C22.9431 15.3384 23.5861 32.6314 23.853 33.3388C24.12 34.0462 24.496 34.862 24.496 34.862C24.496 34.862 22.8364 34.7535 16.6807 34.862C10.525 34.9705 5.43945 34.1546 5.43945 34.1546C5.43945 34.1546 6.40273 32.7942 6.45613 32.2518C6.50952 31.7071 7.84877 15.0672 7.84877 15.0672L7.84654 15.0649Z" stroke="#263238" stroke-linecap="round" stroke-linejoin="round"/>
<path d="M12.4983 15.3971L13.1857 13.5733C13.3682 13.0739 13.7263 12.6626 14.1913 12.4162L14.456 12.2761L13.5061 15.4943L12.4961 15.3971H12.4983Z" stroke="#263238" stroke-linecap="round" stroke-linejoin="round"/>
<path d="M19.0833 15.6096L17.9509 15.6344L16.7541 13.2163C16.7429 13.1779 16.7252 13.1349 16.6985 13.0875C16.5005 12.7146 15.9309 12.1428 15.7797 11.9959C15.7552 11.9711 16.9543 12.5202 16.9543 12.5202C17.2368 12.6513 17.4726 12.866 17.6306 13.1372L19.0789 15.6096H19.0833Z" stroke="#263238" stroke-linecap="round" stroke-linejoin="round"/>
<path d="M16.6986 13.0875L16.0022 12.9767C15.5529 12.9067 15.0946 12.9496 14.6674 13.1055L14.1357 13.3926L14.4583 12.2761C14.4583 12.2761 15.2303 11.8807 15.782 11.9959C15.9333 12.1451 16.5028 12.7146 16.7008 13.0875H16.6986Z" stroke="#263238" stroke-linecap="round" stroke-linejoin="round"/>
</g>
<g opacity="0.3">
<path d="M4.32742 58.4783L4.73676 79.22C4.73676 79.22 6.58991 80.1692 10.7078 79.8415C14.8256 79.5138 18.2027 78.3657 19.4196 77.8866C21.3484 77.1295 22.7343 75.7329 22.7343 75.7329L15.7133 56.1279L4.3252 58.4783H4.32742Z" stroke="#263238" stroke-linecap="round" stroke-linejoin="round"/>
<path d="M6.32291 58.0534L5.97363 47.5267C6.07374 47.0046 6.36295 46.5391 6.78341 46.2204L7.02368 46.0374L7.31288 57.8591L6.32291 58.0534Z" stroke="#263238" stroke-linecap="round" stroke-linejoin="round"/>
<path d="M13.778 56.4895L12.6657 56.6997L9.44213 46.591C9.42433 46.5548 9.39986 46.5141 9.36649 46.4712C9.11288 46.1345 8.46105 45.6644 8.28752 45.5424C8.26083 45.522 9.53111 45.8678 9.53111 45.8678C9.82922 45.9514 10.0984 46.1232 10.2964 46.365L13.778 56.4872V56.4895Z" stroke="#263238" stroke-linecap="round" stroke-linejoin="round"/>
<path d="M9.36645 46.4712L8.57447 46.3763C8.12063 46.3785 7.78916 46.5051 7.36647 46.8192L7.06836 47.1356L7.02832 46.035C7.02832 46.035 7.72687 45.5175 8.28971 45.5424C8.46323 45.6644 9.11506 46.1345 9.36867 46.4712H9.36645Z" stroke="#263238" stroke-linecap="round" stroke-linejoin="round"/>
</g>
<g opacity="0.3">
<path d="M93.1924 64.7811L75.7266 62.5189L81.0813 43.0405L82.2359 43.2055L83.9156 43.4451L84.356 43.5083L89.6285 44.2564L90.0468 44.3174L92.5896 44.679L93.1924 64.7811Z" stroke="#263238" stroke-linecap="round" stroke-linejoin="round"/>
<path d="M75.7262 62.5189L73.5928 60.6929L79.9642 42.1817V42.1794L79.9709 42.1817" stroke="#263238" stroke-linecap="round" stroke-linejoin="round"/>
<path d="M73.5928 60.6929L76.5293 59.1697" stroke="#263238" stroke-linecap="round" stroke-linejoin="round"/>
<path d="M91.8213 44.5207L91.8836 43.7546L90.0928 43.5173" stroke="#263238" stroke-linecap="round" stroke-linejoin="round"/>
<path d="M83.9153 43.4451L82.2335 43.2055L79.9688 42.1817L83.0432 42.5863L83.486 42.6428C83.5816 42.1524 83.9598 40.2879 85.11 35.7703C86.2134 31.4199 87.3124 29.7792 87.9197 29.6933C88.0932 29.6707 88.2534 29.7928 88.4025 30.0527C88.418 30.0798 88.4336 30.1159 88.447 30.1521C87.1722 30.7917 86.1044 34.3194 85.5593 36.4686C84.3358 41.2936 83.9843 43.0676 83.9175 43.4428L83.9153 43.4451Z" stroke="#263238" stroke-linecap="round" stroke-linejoin="round"/>
<path d="M84.0111 42.7128L83.4883 42.645" stroke="#263238" stroke-linecap="round" stroke-linejoin="round"/>
<path d="M79.9706 42.1816H79.9639" stroke="#263238" stroke-linecap="round" stroke-linejoin="round"/>
<path d="M91.8839 43.7546L90.5469 44.3761" stroke="#263238" stroke-linecap="round" stroke-linejoin="round"/>
<path d="M90.0462 44.3174L89.6258 44.2564C89.6235 44.2429 89.6213 44.2293 89.6235 44.2112C89.6258 44.1479 89.628 44.0914 89.628 44.0372C89.6302 44.0033 89.6302 43.9717 89.6324 43.9378C89.6324 43.8971 89.6324 43.8564 89.6369 43.8112C89.6391 43.7208 89.6413 43.6372 89.6436 43.5717L89.648 43.4564C89.7637 39.7072 89.8749 31.9104 89.2809 30.864C89.192 30.7104 89.1007 30.6019 89.0029 30.5476C88.9361 30.5092 88.8671 30.4957 88.7982 30.5047C88.7292 30.5137 88.6536 30.5431 88.569 30.5974C87.9395 31.0019 86.9651 32.7307 85.9884 36.5794C85.1364 39.9309 84.707 41.8225 84.5046 42.7762C84.4223 43.1603 84.3755 43.3886 84.3555 43.5039L83.915 43.4406C83.9818 43.0654 84.3333 41.2891 85.5568 36.4664C86.1019 34.3172 87.172 30.7894 88.4445 30.1499C88.5401 30.1024 88.638 30.0685 88.7359 30.055C88.7804 30.0482 88.8293 30.0459 88.8805 30.0504C89.1163 30.0617 89.4122 30.1906 89.6636 30.638C90.3933 31.9217 90.1775 40.7467 90.0907 43.5152C90.0818 43.8496 90.0729 44.0937 90.0685 44.227C90.0685 44.2587 90.0596 44.2881 90.0462 44.3152V44.3174Z" stroke="#263238" stroke-miterlimit="10"/>
<path d="M89.6277 44.2563L84.3574 43.5082C84.3774 43.393 84.4242 43.1647 84.5065 42.7805L88.7489 43.341L89.1916 43.3975L89.6499 43.4585L89.6455 43.5738C89.641 43.6664 89.641 43.7432 89.6388 43.8133C89.6366 43.8585 89.6366 43.8992 89.6343 43.9399C89.6343 43.9738 89.6321 44.0054 89.6299 44.0393C89.6299 44.0935 89.6277 44.15 89.6254 44.2133C89.6254 44.2291 89.6254 44.245 89.6277 44.2585V44.2563Z" stroke="#263238" stroke-miterlimit="10"/>
<path d="M88.8827 30.0526C88.8316 30.0503 88.7826 30.0526 88.7381 30.0571C88.6402 30.0707 88.5424 30.1023 88.4467 30.152C88.4333 30.1159 88.4178 30.082 88.4022 30.0526C88.2531 29.7904 88.093 29.6684 87.9194 29.6933C87.3121 29.7792 86.2131 31.4199 85.1097 35.7702C83.9618 40.2879 83.5813 42.1546 83.4857 42.6427L83.043 42.5862C83.1297 42.1342 83.4946 40.3172 84.6781 35.6572C85.2654 33.3453 86.4556 29.4402 87.8572 29.2458C88.1108 29.2119 88.4778 29.2842 88.7848 29.8266C88.8204 29.8854 88.8516 29.9622 88.8805 30.0526H88.8827Z" stroke="#263238" stroke-miterlimit="10"/>
<path d="M89.1893 43.3975L88.7466 43.341C88.8556 40.3014 89.0024 32.8594 88.5664 30.5995C88.6509 30.5475 88.7244 30.5181 88.7956 30.5068C88.8645 30.4978 88.9335 30.5114 89.0002 30.5498C89.5275 33.3928 89.2316 42.2133 89.1871 43.3975H89.1893Z" stroke="#263238" stroke-miterlimit="10"/>
</g>
<path d="M45.9018 31.1577C45.9018 31.1577 45.7416 33.1171 45.7416 35.2912C45.7416 37.4652 46.2244 37.7929 46.2244 37.7929L38.8874 36.107C38.8874 36.107 39.4236 31.6459 38.8874 30.1227C38.3513 28.5995 38.1377 27.8379 38.1377 27.8379L45.9018 31.1555V31.1577Z" fill="white" stroke="#263238" stroke-linecap="round" stroke-linejoin="round"/>
<path d="M41.8018 29.8899L45.7594 33.7657L46.1132 30.247L41.8018 29.8899Z" fill="#263238" stroke="#263238" stroke-linecap="round" stroke-linejoin="round"/>
<path d="M49.1702 20.5474C49.1702 20.5474 50.861 20.283 50.8432 18.1541C50.8231 16.0253 49.0723 14.9834 47.4884 14.3213C45.9044 13.6591 42.9367 12.4026 39.9979 12.2105C37.0591 12.0184 34.2494 13.3698 32.612 15.5552C30.9746 17.7428 30.7032 22.4141 30.4763 26.1905C30.2494 29.9668 30.4029 32.1635 30.9079 32.5793C31.4129 32.9951 35.3951 33.7771 38.2004 33.7613C41.0057 33.7454 41.6842 33.3725 41.6842 33.3725C41.6842 33.3725 40.5496 31.0651 40.2871 29.9646C40.0246 28.864 39.8911 28.4843 39.8911 28.4843L39.286 22.8842L45.1369 17.2931L48.5073 18.6897L48.7297 20.8209L49.1702 20.5497V20.5474Z" fill="#263238" stroke="#263238" stroke-linecap="round" stroke-linejoin="round"/>
<path d="M43.4258 16.9202C43.4258 16.9202 43.0343 17.614 41.2768 20.3915C39.5193 23.169 39.1611 23.3995 39.1611 23.3995C39.1611 23.3995 39.5838 27.5329 39.7796 28.7894C39.9754 30.0459 44.1399 32.0302 46.418 32.3262C48.6961 32.6245 49.0209 31.368 49.1833 30.9703C49.3457 30.5725 50.4536 26.0436 50.4202 25.1848C50.3868 24.326 48.794 22.0774 48.6627 21.0853C48.5314 20.0932 48.4669 18.8367 48.4669 18.8367C48.4669 18.8367 45.0498 17.0852 43.4214 16.918L43.4258 16.9202Z" fill="white" stroke="#263238" stroke-linecap="round" stroke-linejoin="round"/>
<path d="M39.0964 78.4155C40.1976 81.1884 43.7815 86.445 46.1975 90.5333L43.6036 99.8849H58.2197C58.3086 99.0578 58.4399 96.7436 57.708 93.1345C56.7781 88.5423 56.0461 84.0179 56.0461 84.0179C56.0461 84.0179 57.0428 74.8335 57.0428 72.4041C57.0428 72.4041 49.7303 75.1725 43.7482 74.16C37.766 73.1476 38.1643 73.2832 38.1643 73.2832C38.1643 73.2832 37.5658 74.5668 39.0942 78.4155H39.0964Z" fill="#263238" stroke="#263238" stroke-linecap="round" stroke-linejoin="round"/>
<path d="M65.9285 46.7175L64.498 53.816" stroke="#263238" stroke-width="2" stroke-linecap="round" stroke-linejoin="round"/>
<path d="M66.538 44.2451L65.7705 54.8261" stroke="#263238" stroke-width="2" stroke-linecap="round" stroke-linejoin="round"/>
<path d="M60.7029 46.6C60.7029 46.6 62.1845 44.3672 62.5671 43.9311C62.9498 43.4949 65.1478 42.6203 65.8174 42.0869C66.487 41.5536 67.2034 39.418 67.6817 39.6123C68.16 39.8067 67.873 40.2926 67.7284 40.9705C67.586 41.6508 66.6294 42.9118 66.5337 43.0587C66.4381 43.2034 68.7317 45.0972 68.685 45.4859C68.6383 45.8746 68.3023 46.1661 67.824 46.4577C67.3457 46.7492 63.0922 48.399 63.0922 48.399L61.6105 50.1459L60.1289 47.0385L60.7029 46.6023V46.6Z" fill="white" stroke="#263238" stroke-linecap="round" stroke-linejoin="round"/>
<path d="M68.1092 41.7456C68.1092 41.7456 66.1026 41.3094 65.958 41.6981C65.8156 42.0868 65.4797 43.2507 65.6243 43.4451C65.7689 43.6394 66.2449 43.5422 66.2449 43.5422L66.77 42.2315C66.77 42.2315 68.394 42.523 68.4896 42.4733C68.5853 42.4236 68.4896 41.793 68.107 41.7456H68.1092Z" fill="white" stroke="#263238" stroke-linecap="round" stroke-linejoin="round"/>
<path d="M68.4921 42.4733C68.4921 42.4733 66.5722 41.8722 66.4721 42.01C66.3697 42.1479 65.8959 43.8655 65.9648 44.0033C66.0338 44.1412 66.4387 44.3807 66.541 44.2429C66.6434 44.105 67.1172 43.0406 67.1172 43.0406C67.1172 43.0406 68.8436 43.488 68.9437 43.1784C69.046 42.8688 68.4943 42.4733 68.4943 42.4733H68.4921Z" fill="white" stroke="#263238" stroke-linecap="round" stroke-linejoin="round"/>
<path d="M68.9416 43.1784C68.9416 43.1784 67.4533 42.6292 67.1151 43.0405C66.777 43.4518 66.6413 43.7275 66.5389 44.2428C66.4366 44.7581 66.708 44.862 66.9104 44.9298C67.1129 44.9976 67.4866 44.2089 67.6557 44.105C67.8248 44.001 69.144 44.3445 69.144 43.9671C69.144 43.5897 69.1106 43.4857 68.9416 43.1761V43.1784Z" fill="white" stroke="#263238" stroke-linecap="round" stroke-linejoin="round"/>
<path d="M67.791 44.8982C67.791 44.8982 68.0269 44.8643 68.2315 44.9321C68.434 44.9999 68.1292 45.4134 67.9957 45.5174C67.86 45.6213 67.117 45.5174 66.9813 45.2417C66.8456 44.966 67.3194 43.6959 67.4218 43.558C67.5241 43.4202 68.6742 43.7637 68.6742 43.7637C68.6742 43.7637 69.1481 43.7298 69.1481 43.9693C69.1481 44.4484 68.8099 45.7569 68.6742 45.8948C68.5385 46.0327 68.0981 46.2383 68.0981 46.2383" fill="white"/>
<path d="M67.791 44.8982C67.791 44.8982 68.0269 44.8643 68.2315 44.9321C68.434 44.9999 68.1292 45.4134 67.9957 45.5174C67.86 45.6213 67.117 45.5174 66.9813 45.2417C66.8456 44.966 67.3194 43.6959 67.4218 43.558C67.5241 43.4202 68.6742 43.7637 68.6742 43.7637C68.6742 43.7637 69.1481 43.7298 69.1481 43.9693C69.1481 44.4484 68.8099 45.7569 68.6742 45.8948C68.5385 46.0327 68.0981 46.2383 68.0981 46.2383" stroke="#263238" stroke-linecap="round" stroke-linejoin="round"/>
<path d="M62.4447 46.9254C62.4113 47.0294 62.7495 45.9288 63.0209 45.7231C63.2923 45.5175 66.1332 45.0022 66.1332 45.0022" stroke="#263238" stroke-linecap="round" stroke-linejoin="round"/>
<path d="M60.7916 45.9785L63.212 49.5944L61.5034 51.4747L59.083 47.4972L60.7916 45.9785Z" fill="#B0B0B0" stroke="#263238" stroke-linecap="round" stroke-linejoin="round"/>
<path d="M61.5036 51.4748C61.5036 51.4748 62.0731 52.0534 61.646 52.6319C61.2189 53.2104 55.4525 58.4173 55.4525 58.4173L55.0254 49.5945C55.0254 49.5945 58.2289 47.2804 58.4425 47.208C58.6561 47.1357 59.0832 47.4973 59.0832 47.4973L61.5036 51.4748Z" fill="#B0B0B0" stroke="#263238" stroke-linecap="round" stroke-linejoin="round"/>
<path d="M38.0328 70.5146C38.0328 70.5146 37.2341 73.3509 37.5678 73.891C37.9015 74.4311 43.085 76.0515 47.8058 75.9837C52.5243 75.9159 55.7167 74.4311 56.5799 73.9588C57.443 73.4865 57.7767 73.0819 57.9102 72.4062C58.0437 71.7305 57.71 70.1101 57.71 70.1101C57.71 70.1101 52.6578 71.8661 47.739 72.135C42.8203 72.4062 38.035 70.5146 38.035 70.5146H38.0328Z" fill="#E0E0E0" stroke="#263238" stroke-linecap="round" stroke-linejoin="round"/>
<path d="M47.5613 38.3671C47.5613 38.3671 44.5446 36.5185 41.2699 35.4631C37.9952 34.4077 36.0709 38.2089 35.3434 41.8022C34.6159 45.3932 37.7349 62.614 37.7349 62.614C37.7349 62.614 37.528 70.4311 37.6304 71.1701C37.7349 71.9091 42.1019 73.812 45.7927 73.8639C49.4834 73.9159 51.8749 73.4933 53.3832 73.1249C54.8916 72.7543 57.2319 72.0153 57.6991 71.4865C58.1663 70.9577 58.2708 70.4831 58.2708 69.7441C58.2708 69.0051 56.3465 52.9482 56.3465 52.9482C56.3465 52.9482 54.9427 46.2407 53.0718 43.4926C51.2008 40.7468 47.5613 38.3693 47.5613 38.3693V38.3671Z" fill="#E0E0E0" stroke="#263238" stroke-linecap="round" stroke-linejoin="round"/>
<g opacity="0.18">
<path d="M37.2899 60.0534L40.6625 57.755L45.2097 61.154C45.3076 61.2263 45.4233 61.2647 45.539 61.2647C45.6547 61.2647 45.7792 61.2263 45.8793 61.1472L50.3443 57.6375L55.0873 60.7449C55.2941 60.8805 55.5656 60.8624 55.7524 60.6974L57.1228 59.4884C57.0694 59.0274 57.016 58.5731 56.9626 58.1324L55.3386 59.5652L50.6157 56.4691C50.4177 56.338 50.1596 56.3493 49.9727 56.4962L45.5278 59.9901L41.0029 56.6092C40.8138 56.4691 40.5579 56.4623 40.3644 56.5957L37.083 58.8307C37.1542 59.2669 37.2232 59.676 37.2877 60.0534H37.2899Z" fill="#263238" stroke="#263238" stroke-linecap="round" stroke-linejoin="round"/>
<path d="M57.9389 66.5189L55.7766 68.4241L51.0536 65.3279C50.8556 65.1969 50.5975 65.2104 50.4107 65.3551L45.9658 68.8489L41.4408 65.4681C41.2517 65.3279 40.9959 65.3212 40.8023 65.4545L37.6233 67.6195C37.6166 68.0986 37.6099 68.5619 37.6055 68.9936L41.0982 66.6138L45.6454 70.0128C45.7433 70.0851 45.859 70.1235 45.9747 70.1235C46.0904 70.1235 46.2149 70.0851 46.3151 70.006L50.78 66.4963L55.523 69.6037C55.7299 69.7393 56.0013 69.7213 56.1881 69.5563L58.088 67.8817C58.0435 67.4749 57.9923 67.0161 57.9367 66.5189H57.9389Z" fill="#263238" stroke="#263238" stroke-linecap="round" stroke-linejoin="round"/>
<path d="M40.5554 61.8522L45.1026 65.2512C45.2005 65.3235 45.3162 65.3619 45.4319 65.3619C45.5476 65.3619 45.6722 65.3235 45.7723 65.2444L50.2372 61.7347L54.9802 64.8421C55.1871 64.9777 55.4585 64.9597 55.6454 64.7947L57.5497 63.1178C57.4985 62.6703 57.4451 62.2161 57.3917 61.7619L55.2316 63.6647L50.5086 60.5709C50.3106 60.4398 50.0525 60.4533 49.8657 60.598L45.4208 64.0918L40.8958 60.711C40.7067 60.5709 40.4509 60.5641 40.2573 60.6974L37.7012 62.4398C37.7212 62.5528 37.7323 62.6138 37.7323 62.6138C37.7323 62.6138 37.719 63.0817 37.7034 63.7981L40.5532 61.8568L40.5554 61.8522Z" fill="#263238" stroke="#263238" stroke-linecap="round" stroke-linejoin="round"/>
</g>
<path d="M38.5977 50.4013C38.5977 50.4013 41.176 49.5674 42.6977 48.3787C42.6977 48.3787 41.4096 51.1154 39.5342 55.0432" stroke="#263238" stroke-linecap="round" stroke-linejoin="round"/>
<path d="M35.7598 42.1164C36.0712 38.0485 38.307 35.7773 41.6863 35.8315C45.0656 35.8835 53.8018 40.7446 53.8018 40.7446C53.8018 40.7446 59.5215 44.7583 60.0932 47.8747C60.6649 50.9912 59.8863 52.1008 58.6894 52.311C57.4926 52.5212 52.5538 52.8918 46.2624 50.833C39.9711 48.7719 38.307 46.2385 38.307 46.2385" fill="#E0E0E0"/>
<path d="M35.7598 42.1164C36.0712 38.0485 38.307 35.7773 41.6863 35.8315C45.0656 35.8835 53.8018 40.7446 53.8018 40.7446C53.8018 40.7446 59.5215 44.7583 60.0932 47.8747C60.6649 50.9912 59.8863 52.1008 58.6894 52.311C57.4926 52.5212 52.5538 52.8918 46.2624 50.833C39.9711 48.7719 38.307 46.2385 38.307 46.2385" stroke="#263238" stroke-linecap="round" stroke-linejoin="round"/>
<path d="M36.4383 36.4258L33.5996 45.391" stroke="#263238" stroke-width="2" stroke-linecap="round" stroke-linejoin="round"/>
<path d="M45.0855 35.6168C45.0855 35.6168 43.6016 35.1603 42.6116 34.1094C41.6217 33.0585 40.4982 32.6472 39.5082 32.7851C38.5183 32.9229 37.4838 32.9229 37.4838 32.9229C37.4838 32.9229 38.1579 32.6947 38.0689 32.3738C37.9799 32.0551 37.5283 31.9625 36.9899 31.7794C36.4493 31.5964 35.7307 31.3681 35.6418 31.7794C35.5528 32.1907 34.9677 33.332 35.0122 33.8812C35.0567 34.4303 35.822 36.3942 36.1356 36.7129C36.4493 37.0315 38.1134 37.1242 38.8786 37.2146C39.6439 37.305 40.9476 36.8485 41.7107 37.1694C42.4759 37.488 43.5549 37.8993 43.5549 37.8993L45.0833 35.6145L45.0855 35.6168Z" fill="white" stroke="#263238" stroke-linecap="round" stroke-linejoin="round"/>
<path d="M37.4857 32.9228L36.7227 32.4211" stroke="#263238" stroke-linecap="round" stroke-linejoin="round"/>
<path d="M34.7852 45.1625L37.9019 32.8662" stroke="#263238" stroke-width="2" stroke-linecap="round" stroke-linejoin="round"/>
<path d="M45.4808 34.2471L42.5176 37.8381L44.8579 39.8449L48.0815 35.9352L45.4808 34.2471Z" fill="#E0E0E0" stroke="#263238" stroke-linecap="round" stroke-linejoin="round"/>
<path d="M53.2293 48.7175C53.0736 48.6113 45.7411 42.5908 45.1182 41.9038C44.4952 41.2167 44.8579 39.8427 44.8579 39.8427L48.0814 35.933C48.0814 35.933 49.1737 35.6686 50.3684 36.3036C51.5652 36.9364 58.5307 42.2202 60.0924 44.5434C61.6519 46.8666 62.5017 49.5921 61.7053 50.9345C60.326 53.2554 55.2026 52.4147 55.2026 52.4147" fill="#E0E0E0"/>
<path d="M53.2293 48.7175C53.0736 48.6113 45.7411 42.5908 45.1182 41.9038C44.4952 41.2167 44.8579 39.8427 44.8579 39.8427L48.0814 35.933C48.0814 35.933 49.1737 35.6686 50.3684 36.3036C51.5652 36.9364 58.5307 42.2202 60.0924 44.5434C61.6519 46.8666 62.5017 49.5921 61.7053 50.9345C60.326 53.2554 55.2026 52.4147 55.2026 52.4147" stroke="#263238" stroke-linecap="round" stroke-linejoin="round"/>
<path d="M28.3467 78.5259L33.875 73.24L35.1097 46.2857L32.3133 44.5681L28.3467 78.5259Z" fill="#26AA9D" stroke="#263238" stroke-linecap="round" stroke-linejoin="round"/>
<path d="M32.3135 44.5682C32.3135 44.5682 31.012 44.0394 30.8185 44.0394C30.625 44.0394 27.3725 42.4529 27.3725 42.4529L17.0322 72.9756C17.0322 72.9756 21.7152 76.3452 23.862 77.2039C26.0088 78.0627 28.3491 78.526 28.3491 78.526L32.3157 44.5682H32.3135Z" fill="#26AA9D" stroke="#263238" stroke-linecap="round" stroke-linejoin="round"/>
<path d="M25.7861 75.2988L26.5247 76.0808" stroke="#263238" stroke-linecap="round" stroke-linejoin="round"/>
<path d="M17.9395 73.1744L23.4678 72.8445L25.1741 74.6502" stroke="#263238" stroke-linecap="round" stroke-linejoin="round"/>
<path d="M26.0752 62.4488L26.3316 61.416" stroke="#263238" stroke-linecap="round" stroke-linejoin="round"/>
<path d="M23.7285 71.9201L25.8175 63.4883" stroke="#263238" stroke-linecap="round" stroke-linejoin="round"/>
<path d="M32.3137 44.5681L34.7853 45.1625L37.1924 44.8325C37.1924 44.8325 37.5817 61.6126 38.427 67.3619C39.2724 73.1111 39.3369 73.9021 39.3369 73.9021C39.3369 73.9021 35.9554 74.101 33.159 74.101C30.3626 74.101 29.1279 73.7055 29.1279 73.7055L32.3137 44.5704V44.5681Z" fill="#949494" stroke="#263238" stroke-linecap="round" stroke-linejoin="round"/>
<path d="M31.1592 72.4535L34.1514 70.6162" stroke="#263238" stroke-linecap="round" stroke-linejoin="round"/>
<path d="M29.1279 73.7033L30.5117 72.8535" stroke="#263238" stroke-linecap="round" stroke-linejoin="round"/>
<path d="M34.5922 59.7571L34.5654 48.3467" stroke="#263238" stroke-linecap="round" stroke-linejoin="round"/>
<path d="M38.1646 73.283L34.6163 70.4445L34.5918 60.5618" stroke="#263238" stroke-linecap="round" stroke-linejoin="round"/>
<path d="M37.9014 32.8662L30.2285 43.7682" stroke="#263238" stroke-width="2" stroke-linecap="round" stroke-linejoin="round"/>
<path d="M68.1348 45.2236L68.8289 54.9775" stroke="#263238" stroke-width="2" stroke-linecap="round" stroke-linejoin="round"/>
<path d="M68.2305 44.9321L73.3606 54.7651" stroke="#263238" stroke-width="2" stroke-linecap="round" stroke-linejoin="round"/>
<path d="M71.5322 54.9572L74.1907 55.2622L75.9059 54.1956L87.3074 79.8911L76.4043 84.5556L71.5322 54.9572Z" fill="white" stroke="#263238" stroke-linecap="round" stroke-linejoin="round"/>
<path d="M76.4042 84.5557L69.9282 80.1714L69.6523 55.0386L71.5322 54.9573L76.4042 84.5557Z" fill="#263238" stroke="#263238" stroke-linecap="round" stroke-linejoin="round"/>
<path d="M76.1904 62.3359L76.4602 63.1902" stroke="#263238" stroke-linecap="round" stroke-linejoin="round"/>
<path d="M74.0791 55.6555L75.9033 61.4297" stroke="#263238" stroke-linecap="round" stroke-linejoin="round"/>
<path d="M82.3401 79.0436L81.3301 78.8787" stroke="#263238" stroke-linecap="round" stroke-linejoin="round"/>
<path d="M86.8093 79.7781L83.4434 79.2244" stroke="#263238" stroke-linecap="round" stroke-linejoin="round"/>
<path d="M78.5088 81.6335L76.4043 84.5556" stroke="#263238" stroke-linecap="round" stroke-linejoin="round"/>
<path d="M65.167 54.0555L68.4484 54.5323L71.5295 54.1233L76.0834 82.8381C76.0834 82.8381 73.336 83.6539 69.049 83.9273C64.7621 84.1985 63.4229 84.1985 63.4229 84.1985L65.1648 54.0532L65.167 54.0555Z" fill="#26AA9D" stroke="#263238" stroke-linecap="round" stroke-linejoin="round"/>
<path d="M65.167 54.0555L61.5497 53.5786L56.8623 78.5509L63.4251 84.2008L65.167 54.0555Z" fill="#26AA9D" stroke="#263238" stroke-linecap="round" stroke-linejoin="round"/>
<path d="M68.4502 54.5322V58.6815" stroke="#263238" stroke-linecap="round" stroke-linejoin="round"/>
<path d="M72.9023 81.6379L75.3495 82.2933" stroke="#263238" stroke-linecap="round" stroke-linejoin="round"/>
<path d="M63.4248 84.2007L69.2534 80.6616L71.8963 81.369" fill="#26AA9D"/>
<path d="M63.4248 84.2007L69.2534 80.6616L71.8963 81.369" stroke="#263238" stroke-linecap="round" stroke-linejoin="round"/>
<path d="M68.938 77.1926L68.7842 74.605" stroke="#263238" stroke-linecap="round" stroke-linejoin="round"/>
<path d="M69.0536 79.0956L68.9912 78.0605" stroke="#263238" stroke-linecap="round" stroke-linejoin="round"/>
<path d="M57.6035 22.7893C57.5041 22.7893 57.4238 22.7085 57.4238 22.6097V21.6797C57.4238 21.5803 57.5041 21.5 57.6035 21.5C57.7029 21.5 57.7832 21.5808 57.7832 21.6797V22.6097C57.7832 22.709 57.7029 22.7893 57.6035 22.7893Z" fill="#F8931F"/>
<path d="M57.6035 24.9563C57.5041 24.9563 57.4238 24.8755 57.4238 24.7766V23.8467C57.4238 23.7473 57.5041 23.667 57.6035 23.667C57.7029 23.667 57.7832 23.7478 57.7832 23.8467V24.7766C57.7832 24.876 57.7029 24.9563 57.6035 24.9563Z" fill="#F8931F"/>
<path d="M56.9862 23.4074H56.0582C55.959 23.4074 55.8789 23.3266 55.8789 23.2278C55.8789 23.1289 55.959 23.0481 56.0582 23.0481H56.9862C57.0853 23.0481 57.1654 23.1289 57.1654 23.2278C57.1654 23.3266 57.0853 23.4074 56.9862 23.4074Z" fill="#F8931F"/>
<path d="M59.1483 23.4074H58.2203C58.1211 23.4074 58.041 23.3266 58.041 23.2278C58.041 23.1289 58.1211 23.0481 58.2203 23.0481H59.1483C59.2474 23.0481 59.3275 23.1289 59.3275 23.2278C59.3275 23.3266 59.2474 23.4074 59.1483 23.4074Z" fill="#F8931F"/>
<path d="M16.1933 42.2893C16.0939 42.2893 16.0137 42.2085 16.0137 42.1096V41.1797C16.0137 41.0803 16.0939 41 16.1933 41C16.2927 41 16.373 41.0808 16.373 41.1797V42.1096C16.373 42.209 16.2927 42.2893 16.1933 42.2893Z" fill="#F8931F"/>
<path d="M16.1933 44.4563C16.0939 44.4563 16.0137 44.3755 16.0137 44.2766V43.3467C16.0137 43.2473 16.0939 43.167 16.1933 43.167C16.2927 43.167 16.373 43.2478 16.373 43.3467V44.2766C16.373 44.376 16.2927 44.4563 16.1933 44.4563Z" fill="#F8931F"/>
<path d="M15.576 42.9074H14.648C14.5488 42.9074 14.4688 42.8266 14.4688 42.7278C14.4688 42.6289 14.5488 42.5481 14.648 42.5481H15.576C15.6752 42.5481 15.7553 42.6289 15.7553 42.7278C15.7553 42.8266 15.6752 42.9074 15.576 42.9074Z" fill="#F8931F"/>
<path d="M17.7381 42.9074H16.8101C16.711 42.9074 16.6309 42.8266 16.6309 42.7278C16.6309 42.6289 16.711 42.5481 16.8101 42.5481H17.7381C17.8373 42.5481 17.9174 42.6289 17.9174 42.7278C17.9174 42.8266 17.8373 42.9074 17.7381 42.9074Z" fill="#F8931F"/>
<path d="M55.5983 40.6929C55.5024 40.6929 55.4229 40.7542 55.4191 40.8323C55.4153 40.9125 55.4921 40.98 55.5913 40.9831C55.8299 40.991 56.0724 40.9963 56.3127 40.9999C56.4108 41.0034 56.4936 40.9372 56.4953 40.857C56.4969 40.7767 56.4179 40.7105 56.3187 40.7092C56.0811 40.7057 55.8414 40.7004 55.6054 40.6925C55.6027 40.6925 55.6005 40.6925 55.5983 40.6925V40.6929Z" fill="#26AA9D"/>
<path d="M9.87793 28.1098C9.8752 28.1098 9.87248 28.1098 9.86975 28.1098C9.63327 28.1182 9.3946 28.1222 9.16083 28.1213H9.15975C9.06112 28.1213 8.98102 28.1857 8.98047 28.2655C8.97993 28.3458 9.06003 28.411 9.15866 28.4115C9.39896 28.4124 9.64307 28.4088 9.88555 28.3996C9.98473 28.3961 10.061 28.3281 10.0567 28.2479C10.0523 28.1698 9.97274 28.1089 9.87738 28.1089L9.87793 28.1098Z" fill="#26AA9D"/>
<path d="M39.1468 8.5C39.2496 8.5 39.3331 8.58469 39.3337 8.68969C39.3343 8.79527 39.2508 8.88111 39.148 8.88169C38.6475 8.88459 38.1431 8.90142 37.6501 8.931C37.549 8.9368 37.4586 8.85675 37.4524 8.75175C37.4462 8.64618 37.5251 8.55569 37.6285 8.54989C38.1283 8.51972 38.639 8.5029 39.1457 8.5H39.1468ZM40.6549 8.5319C40.6578 8.5319 40.6606 8.5319 40.664 8.5319C41.1667 8.55568 41.6757 8.59398 42.1778 8.64444C42.2806 8.65488 42.3556 8.74828 42.3454 8.85327C42.3351 8.95827 42.2443 9.036 42.1409 9.0244C41.645 8.97451 41.1423 8.93681 40.6458 8.91302C40.5425 8.90838 40.4629 8.81846 40.4675 8.71347C40.472 8.61137 40.555 8.53133 40.6544 8.53133L40.6549 8.5319ZM36.1369 8.68157C36.2306 8.68157 36.3118 8.75349 36.3226 8.85095C36.3345 8.95594 36.2607 9.0505 36.1579 9.0621C35.6614 9.11953 35.1621 9.19204 34.6748 9.27673C34.5731 9.29414 34.4759 9.22453 34.4589 9.12069C34.4413 9.01685 34.51 8.91766 34.6117 8.90026C35.1059 8.81441 35.612 8.74074 36.1153 8.68273C36.1227 8.68157 36.1295 8.68157 36.1369 8.68157ZM43.6564 8.83471C43.6655 8.83471 43.6751 8.83529 43.6848 8.83702C44.1841 8.91418 44.6868 9.00583 45.1793 9.10851C45.2804 9.12939 45.3457 9.23091 45.3252 9.33416C45.3048 9.43742 45.2065 9.50412 45.1043 9.48324C44.618 9.38173 44.1216 9.29123 43.6285 9.21524C43.5263 9.19958 43.4559 9.10213 43.4718 8.99771C43.486 8.90316 43.5655 8.83529 43.6564 8.83529V8.83471ZM33.1644 9.20016C33.2496 9.20016 33.3268 9.25991 33.3467 9.34866C33.37 9.45134 33.3069 9.55401 33.2064 9.5778C32.7196 9.69207 32.2322 9.82201 31.7579 9.96471C31.6585 9.9943 31.5546 9.93629 31.5256 9.83536C31.4967 9.73384 31.5535 9.62768 31.6523 9.5981C32.134 9.45366 32.6287 9.32198 33.1223 9.20539C33.1365 9.2019 33.1507 9.20074 33.1644 9.20074V9.20016ZM46.6112 9.45308C46.6266 9.45308 46.6425 9.45482 46.6584 9.45888C47.1463 9.58824 47.6371 9.73268 48.1176 9.88814C48.2159 9.92004 48.2704 10.0274 48.2398 10.1277C48.2085 10.2281 48.1034 10.2838 48.0046 10.2519C47.5303 10.0987 47.0458 9.95602 46.5641 9.8284C46.4641 9.80171 46.4039 9.6973 46.43 9.5952C46.4522 9.50935 46.5277 9.45192 46.6112 9.45192V9.45308ZM30.2703 10.0645C30.3475 10.0645 30.4197 10.1132 30.4464 10.1921C30.481 10.2919 30.4299 10.4009 30.3322 10.4357C29.8619 10.6057 29.3921 10.7902 28.9349 10.9851C28.8394 11.0257 28.7298 10.9799 28.69 10.8824C28.6503 10.785 28.6952 10.673 28.7906 10.6324C29.2541 10.4346 29.7307 10.2472 30.2072 10.0755C30.2277 10.068 30.2487 10.0645 30.2697 10.0645H30.2703ZM49.4866 10.3841C49.5087 10.3841 49.5309 10.3882 49.5525 10.3963C50.0256 10.5784 50.4988 10.7757 50.9583 10.9828C51.0526 11.0251 51.0958 11.1382 51.0538 11.2345C51.0123 11.3308 50.9015 11.3749 50.8072 11.332C50.354 11.1278 49.887 10.9329 49.4201 10.753C49.3236 10.7159 49.2747 10.6057 49.3111 10.5071C49.3395 10.4305 49.4105 10.3835 49.486 10.3835L49.4866 10.3841ZM27.4887 11.2508C27.558 11.2508 27.6244 11.2902 27.6568 11.3581C27.7022 11.4532 27.6631 11.5675 27.5705 11.6133C27.1212 11.8361 26.6753 12.0745 26.2436 12.321C26.1532 12.3727 26.0391 12.3396 25.9891 12.2473C25.9385 12.1551 25.9709 12.0391 26.0606 11.9875C26.498 11.7375 26.9513 11.4956 27.4069 11.2693C27.433 11.256 27.4608 11.2502 27.4887 11.2502V11.2508ZM52.2461 11.6284C52.2745 11.6284 52.304 11.6354 52.3313 11.6493C52.7828 11.8848 53.231 12.1354 53.6638 12.3947C53.753 12.4481 53.7831 12.5652 53.7309 12.6563C53.6786 12.7474 53.5639 12.7775 53.4747 12.7242C53.0481 12.4689 52.6062 12.2218 52.1608 11.9898C52.0688 11.9416 52.0325 11.8268 52.0791 11.7328C52.112 11.6667 52.1779 11.6284 52.2461 11.6284ZM24.8593 12.7555C24.9212 12.7555 24.9814 12.7868 25.0172 12.8437C25.0729 12.9324 25.0473 13.0508 24.9604 13.1076C24.5417 13.3814 24.126 13.6715 23.7249 13.9696C23.6414 14.0317 23.5244 14.0131 23.4636 13.9279C23.4029 13.8426 23.421 13.7231 23.5045 13.661C23.9118 13.3582 24.3339 13.0641 24.7587 12.7857C24.79 12.7654 24.8246 12.7555 24.8593 12.7555ZM54.847 13.1865C54.8828 13.1865 54.9192 13.1969 54.951 13.219C55.3719 13.5073 55.7883 13.8113 56.187 14.1222C56.2694 14.186 56.2847 14.3061 56.2222 14.3902C56.1597 14.4743 56.0422 14.49 55.9598 14.4262C55.5667 14.1199 55.1572 13.8205 54.7425 13.5363C54.6568 13.4777 54.634 13.3588 54.6914 13.2712C54.7272 13.2161 54.7868 13.1865 54.847 13.1865ZM22.4225 14.5677C22.4764 14.5677 22.5298 14.5915 22.5667 14.6373C22.6326 14.7185 22.6213 14.8392 22.5412 14.9065C22.1589 15.2284 21.7806 15.5672 21.4176 15.9123C21.3421 15.9843 21.2239 15.9802 21.1529 15.9025C21.0825 15.8253 21.0865 15.7041 21.1626 15.6321C21.5312 15.2812 21.9152 14.9378 22.3032 14.6112C22.3378 14.5816 22.3804 14.5677 22.4219 14.5677H22.4225ZM57.2418 15.0567C57.2856 15.0567 57.3293 15.0724 57.3645 15.1037C57.7411 15.439 58.1098 15.7888 58.4603 16.1444L58.4779 16.1623C58.5511 16.2372 58.5511 16.3578 58.4779 16.4327C58.4046 16.5075 58.2864 16.5075 58.2132 16.4327L58.1967 16.4158C57.8519 16.066 57.4889 15.7215 57.1186 15.392C57.0408 15.323 57.0328 15.2023 57.1004 15.1223C57.1373 15.0787 57.1896 15.0567 57.2413 15.0567H57.2418ZM20.2191 16.663C20.2657 16.663 20.3117 16.6804 20.348 16.7157C20.423 16.7883 20.4258 16.9095 20.3543 16.9861C20.0123 17.3527 19.6766 17.7355 19.3557 18.1236C19.2892 18.2042 19.1711 18.2147 19.0921 18.1462C19.0132 18.0784 19.0029 17.9577 19.07 17.8771C19.3954 17.4832 19.7368 17.0945 20.0833 16.7227C20.1202 16.6833 20.1697 16.6635 20.2191 16.6635V16.663ZM59.3833 17.2233C59.4344 17.2233 59.4855 17.2448 59.5225 17.2865C59.8496 17.659 60.1808 18.0557 60.5068 18.4653C60.5722 18.5471 60.5597 18.6677 60.4796 18.7339C60.3995 18.8006 60.2813 18.7878 60.2166 18.706C59.8939 18.3005 59.5668 17.909 59.2436 17.5412C59.1748 17.4623 59.1811 17.3417 59.2578 17.2715C59.2935 17.239 59.3379 17.2227 59.3827 17.2227L59.3833 17.2233ZM18.2747 19.0135C18.3139 19.0135 18.3531 19.0256 18.3866 19.0518C18.4696 19.115 18.486 19.2345 18.4241 19.3192C18.1276 19.7241 17.8373 20.1452 17.5624 20.5698C17.5056 20.658 17.3892 20.6824 17.3034 20.6238C17.2171 20.5658 17.1938 20.4468 17.2506 20.3593C17.5295 19.9283 17.8237 19.5013 18.1248 19.0906C18.1617 19.0407 18.2179 19.014 18.2747 19.014V19.0135ZM61.289 19.6104C61.3458 19.6104 61.4021 19.6371 61.439 19.6869C61.7264 20.0797 62.0252 20.502 62.3257 20.9405C62.3847 21.0269 62.3643 21.1459 62.2797 21.2068C62.195 21.2671 62.0786 21.2462 62.0189 21.1598C61.7207 20.7241 61.4248 20.3059 61.1396 19.9161C61.0777 19.8314 61.0948 19.7119 61.1771 19.6487C61.2106 19.6231 61.2498 19.6104 61.289 19.6104ZM16.611 21.5815C16.6428 21.5815 16.6752 21.5896 16.7053 21.6076C16.7945 21.661 16.8246 21.7776 16.7729 21.8686C16.5235 22.3054 16.2821 22.7573 16.0549 23.2121C16.0077 23.3061 15.8953 23.3432 15.8032 23.2957C15.7112 23.2475 15.6749 23.1326 15.7215 23.0387C15.9515 22.5775 16.1963 22.1192 16.4491 21.6766C16.4837 21.6157 16.5462 21.5815 16.611 21.5815ZM63.0209 22.132C63.0817 22.132 63.1408 22.1622 63.1771 22.2173C63.4322 22.6088 63.7026 23.0317 64.0036 23.5091C64.0593 23.5979 64.0343 23.7162 63.9474 23.7731C63.8605 23.8299 63.7446 23.8044 63.6889 23.7156C63.389 23.24 63.1198 22.8188 62.8659 22.4284C62.8085 22.3408 62.8318 22.2219 62.9181 22.1633C62.9499 22.1419 62.9857 22.1314 63.0215 22.1314L63.0209 22.132ZM15.2392 24.3259C15.2648 24.3259 15.2903 24.3311 15.3148 24.3421C15.409 24.385 15.4516 24.4976 15.4102 24.5939C15.2091 25.0574 15.0171 25.5336 14.8393 26.0104C14.8024 26.1091 14.6945 26.159 14.5979 26.1207C14.5013 26.083 14.453 25.9727 14.4894 25.8741C14.6695 25.3909 14.8643 24.9083 15.0682 24.439C15.0989 24.3676 15.1676 24.3253 15.2392 24.3253V24.3259ZM64.6568 24.7209C64.7188 24.7209 64.7795 24.7522 64.8153 24.8097L65.0812 25.2384C65.2612 25.5296 65.4419 25.8202 65.6225 26.1108C65.6782 26.2001 65.652 26.3179 65.5651 26.3747C65.4776 26.4316 65.3623 26.4049 65.3067 26.3162C65.1255 26.0255 64.9454 25.7343 64.7648 25.4431L64.4989 25.0144C64.4438 24.9251 64.4694 24.8074 64.5569 24.7505C64.5881 24.7302 64.6228 24.7209 64.6568 24.7209ZM14.1634 27.2072C14.1827 27.2072 14.202 27.2101 14.2207 27.2164C14.319 27.2489 14.373 27.3562 14.3411 27.4572C14.1889 27.9387 14.0463 28.4329 13.9174 28.9254C13.8907 29.0275 13.7879 29.0872 13.6885 29.0605C13.5885 29.0333 13.5294 28.9283 13.5561 28.8268C13.6868 28.3279 13.8316 27.8279 13.9856 27.34C14.0111 27.2594 14.0844 27.2077 14.1634 27.2077V27.2072ZM66.278 27.3197C66.3393 27.3197 66.3995 27.3504 66.4353 27.4067C66.7335 27.8766 67.0051 28.2966 67.2646 28.6899C67.3226 28.7775 67.2999 28.8964 67.2141 28.955C67.1283 29.0141 67.0119 28.9909 66.9545 28.9033C66.6938 28.5083 66.4211 28.0866 66.1218 27.615C66.0655 27.5262 66.0905 27.4079 66.1769 27.3504C66.2081 27.3296 66.2433 27.3197 66.2786 27.3197H66.278ZM67.9673 29.8727C68.0258 29.8727 68.0832 29.9005 68.1201 29.9527C68.4206 30.3843 68.7205 30.7996 69.0108 31.1877C69.0732 31.2718 69.0579 31.3913 68.9755 31.4557C68.8932 31.5195 68.7762 31.5039 68.7131 31.4197C68.42 31.0282 68.1178 30.6094 67.8145 30.1743C67.7549 30.0884 67.7742 29.969 67.8582 29.908C67.8912 29.8843 67.9292 29.8727 67.9667 29.8727H67.9673ZM13.3823 30.1813C13.3954 30.1813 13.4085 30.1824 13.4221 30.1853C13.5232 30.2074 13.5874 30.3095 13.5658 30.4121C13.4613 30.9069 13.367 31.4128 13.2852 31.9163C13.2682 32.0201 13.1722 32.0903 13.0699 32.0735C12.9682 32.0561 12.8989 31.9581 12.916 31.8536C12.9989 31.3443 13.0943 30.8321 13.2 30.3315C13.2187 30.2422 13.2966 30.1807 13.3829 30.1807L13.3823 30.1813ZM69.8077 32.3131C69.8605 32.3131 69.9133 32.3357 69.9503 32.3804C70.2757 32.7719 70.6126 33.1548 70.9517 33.5185C71.0227 33.5951 71.0199 33.7157 70.9449 33.7888C70.8699 33.8613 70.7518 33.8584 70.6802 33.7818C70.3365 33.4129 69.9951 33.0248 69.6651 32.6275C69.5981 32.5468 69.6077 32.4268 69.6867 32.3583C69.7219 32.3276 69.7651 32.3131 69.8077 32.3131ZM12.8881 33.2192C12.8955 33.2192 12.9029 33.2192 12.9103 33.2203C13.0131 33.2325 13.0864 33.3276 13.0745 33.4326C13.0159 33.9362 12.9688 34.4489 12.9324 34.9577C12.9251 35.0633 12.8348 35.1416 12.7325 35.1346C12.6297 35.1271 12.5519 35.0354 12.5593 34.9304C12.5956 34.4159 12.6439 33.8973 12.7024 33.388C12.7138 33.2911 12.7944 33.2192 12.8881 33.2192ZM71.8889 34.5435C71.9344 34.5435 71.9804 34.5603 72.0162 34.5945C72.3848 34.9449 72.7648 35.2825 73.1443 35.5987C73.2244 35.6654 73.2363 35.7855 73.1715 35.8673C73.1062 35.949 72.9886 35.9618 72.9085 35.8951C72.5223 35.5743 72.1366 35.2309 71.7617 34.8747C71.6862 34.8028 71.6816 34.6821 71.752 34.6044C71.789 34.5638 71.839 34.5435 71.8889 34.5435ZM12.6712 36.2913C12.6712 36.2913 12.6746 36.2913 12.6763 36.2913C12.7796 36.2942 12.8609 36.3818 12.858 36.4874C12.8541 36.6277 12.8512 36.7687 12.8495 36.9097C12.8478 37.0408 12.8467 37.1724 12.8467 37.3041C12.8467 37.542 12.8501 37.7821 12.8563 38.0176C12.8592 38.1232 12.7779 38.2108 12.6746 38.2137C12.6729 38.2137 12.6712 38.2137 12.6694 38.2137C12.5683 38.2137 12.4854 38.1313 12.4826 38.0281C12.4763 37.7891 12.4729 37.5454 12.4729 37.3041C12.4729 37.1707 12.4741 37.0373 12.4758 36.9044C12.478 36.7617 12.4809 36.6196 12.4848 36.4775C12.4877 36.3737 12.5706 36.2919 12.6717 36.2919L12.6712 36.2913ZM74.2303 36.4845C74.2673 36.4845 74.3048 36.4955 74.3371 36.5187C74.7495 36.8134 75.1721 37.0907 75.5936 37.343C75.6828 37.3964 75.7129 37.5135 75.6606 37.6046C75.6084 37.6957 75.4936 37.7258 75.4044 37.6725C74.9745 37.4149 74.5433 37.1318 74.123 36.8319C74.0383 36.7716 74.0179 36.6521 74.077 36.5657C74.1133 36.5123 74.1713 36.4839 74.2303 36.4839V36.4845ZM76.8313 38.0391C76.858 38.0391 76.8859 38.0449 76.9114 38.0577C77.363 38.2769 77.8248 38.4753 78.2849 38.6476C78.382 38.6841 78.4315 38.7938 78.3962 38.8924C78.3605 38.9916 78.2531 39.0426 78.156 39.0061C77.6851 38.8298 77.2125 38.6267 76.7501 38.4022C76.6569 38.357 76.6172 38.2427 76.6615 38.1476C76.6933 38.0785 76.7609 38.0385 76.8308 38.0385L76.8313 38.0391ZM79.6595 39.0937C79.6749 39.0937 79.6908 39.0954 79.7061 39.0995C80.1867 39.2259 80.6769 39.328 81.1642 39.4035C81.2665 39.4191 81.3369 39.5166 81.321 39.621C81.3057 39.7254 81.2091 39.7962 81.108 39.7811C80.6081 39.7039 80.1049 39.5989 79.6124 39.469C79.5124 39.4429 79.4522 39.3385 79.4778 39.2364C79.4993 39.1505 79.5755 39.0931 79.659 39.0931L79.6595 39.0937ZM12.7586 39.3698C12.8541 39.3698 12.9359 39.4441 12.9449 39.5438C12.9904 40.0555 13.0523 40.5659 13.1296 41.0596C13.146 41.1634 13.0762 41.2615 12.9739 41.2783C12.8722 41.2951 12.7762 41.2238 12.7598 41.1193C12.6814 40.617 12.6183 40.0984 12.5723 39.5781C12.5627 39.4731 12.6388 39.3802 12.7416 39.3704C12.7473 39.3704 12.753 39.3698 12.7586 39.3698ZM13.2352 42.41C13.3198 42.41 13.3971 42.4692 13.417 42.5574C13.5317 43.0574 13.6658 43.5522 13.8152 44.0273C13.847 44.1277 13.7924 44.2356 13.6942 44.2675C13.5959 44.3 13.4902 44.2443 13.459 44.1439C13.3068 43.659 13.1704 43.1549 13.0529 42.645C13.029 42.5423 13.0915 42.4396 13.192 42.4153C13.2062 42.4118 13.221 42.41 13.2352 42.41ZM14.1582 45.3395C14.2315 45.3395 14.3008 45.3835 14.3309 45.4566C14.5246 45.9294 14.7399 46.3923 14.97 46.832C15.0188 46.9254 14.9842 47.0409 14.8933 47.0907C14.8024 47.1406 14.6888 47.1052 14.6399 47.0124C14.4048 46.5623 14.1844 46.0884 13.9861 45.6051C13.9464 45.5077 13.9912 45.3957 14.0861 45.3551C14.11 45.3453 14.1344 45.34 14.1582 45.34V45.3395ZM15.58 48.0514C15.6402 48.0514 15.6993 48.0809 15.7357 48.1361C15.7822 48.2068 15.8294 48.2776 15.8777 48.3478C16.1128 48.6918 16.365 49.03 16.628 49.3525C16.6939 49.4337 16.6831 49.5544 16.6042 49.6217C16.5246 49.6895 16.4065 49.6785 16.3406 49.5967C16.0708 49.2655 15.8118 48.9192 15.5709 48.5659C15.5215 48.494 15.4732 48.4215 15.4255 48.3484C15.3681 48.2608 15.3909 48.1419 15.4766 48.0833C15.5084 48.0612 15.5448 48.0508 15.5806 48.0508L15.58 48.0514ZM17.5056 50.4158C17.5528 50.4158 17.6005 50.4338 17.6368 50.4703C17.9862 50.8207 18.3605 51.1612 18.7485 51.482C18.8286 51.5487 18.841 51.6688 18.7763 51.7506C18.7115 51.8324 18.5934 51.8451 18.5133 51.779C18.1157 51.4507 17.7328 51.102 17.375 50.743C17.3011 50.6693 17.3 50.548 17.3727 50.4726C17.4096 50.4344 17.4579 50.4152 17.5062 50.4152L17.5056 50.4158ZM19.8447 52.3527C19.8805 52.3527 19.9169 52.3631 19.9487 52.3852C20.3548 52.663 20.7831 52.9299 21.2228 53.1787C21.3131 53.2298 21.3455 53.3464 21.2955 53.4386C21.2455 53.5308 21.1313 53.5645 21.041 53.5129C20.5923 53.2588 20.1543 52.9861 19.7402 52.7025C19.6545 52.6439 19.6312 52.525 19.6891 52.4374C19.7249 52.3823 19.7845 52.3527 19.8447 52.3527ZM22.4793 53.8487C22.5054 53.8487 22.5321 53.8545 22.5571 53.8661C23.0018 54.0744 23.4665 54.271 23.9385 54.452C24.0351 54.4891 24.0845 54.5994 24.0481 54.698C24.0118 54.7966 23.9039 54.8465 23.8073 54.8099C23.3273 54.626 22.8541 54.4253 22.4014 54.2136C22.3077 54.1695 22.2662 54.0564 22.3094 53.9601C22.3407 53.8899 22.4088 53.8487 22.4798 53.8487H22.4793ZM25.3023 54.9329C25.3205 54.9329 25.3387 54.9352 25.3563 54.941C25.8266 55.0861 26.3134 55.2201 26.8025 55.339C26.903 55.3633 26.9649 55.4666 26.9411 55.5693C26.9172 55.6719 26.8167 55.7352 26.7156 55.7108C26.2191 55.5901 25.7255 55.4544 25.2478 55.3065C25.149 55.2757 25.0927 55.1696 25.1228 55.0687C25.1473 54.9863 25.2217 54.9329 25.3018 54.9329H25.3023ZM28.2368 55.6487C28.2476 55.6487 28.2589 55.6499 28.2703 55.6516C28.7542 55.741 29.2529 55.8187 29.7522 55.8831C29.8545 55.8964 29.9272 55.9921 29.9147 56.0966C29.9016 56.2016 29.8079 56.2752 29.7057 56.2625C29.2001 56.1969 28.6951 56.1186 28.2044 56.0281C28.1027 56.0096 28.0351 55.9104 28.0533 55.8059C28.0698 55.7137 28.1481 55.6487 28.2373 55.6487H28.2368ZM31.2297 56.0368C31.2342 56.0368 31.2393 56.0368 31.2439 56.0368C31.7375 56.0751 32.2413 56.1024 32.7418 56.1174C32.8451 56.1203 32.9264 56.2085 32.9235 56.3141C32.9207 56.4197 32.8361 56.5055 32.731 56.4997C32.2249 56.4846 31.7148 56.4574 31.2155 56.4185C31.1127 56.4104 31.0354 56.3187 31.0434 56.2132C31.0508 56.1128 31.1331 56.0368 31.2297 56.0368Z" fill="#F8931F"/>
</g>
<defs>
<clipPath id="clip0_1230_5079">
<rect width="99.7831" height="100" fill="white"/>
</clipPath>
</defs>
</svg>
