<svg width="72" height="72" viewBox="0 0 72 72" fill="none" xmlns="http://www.w3.org/2000/svg">
<path d="M21.8111 51.5354C21.8111 53.3581 20.42 54.6974 18.5013 54.6974C16.5826 54.6974 15.1915 53.3653 15.1915 51.5354C15.1915 49.7126 16.5826 48.4078 18.5013 48.4078C20.42 48.4078 21.8111 49.7226 21.8111 51.5354ZM17.2397 51.544C17.2397 52.4031 17.8412 53.0391 18.5286 53.0391C19.216 53.0391 19.7662 52.4031 19.7662 51.544C19.7662 50.6849 19.216 50.0661 18.5286 50.0661C17.8326 50.0661 17.2397 50.6849 17.2397 51.544Z" fill="#1DA99D"/>
<path d="M27.4554 51.5613V54.5598H25.5223V52.1197C25.5223 51.7244 25.2988 51.4755 24.9635 51.4755C24.5855 51.4755 24.3452 51.7762 24.3452 52.2315V54.5598H22.4116V49.859H24.3452V50.5305C24.6627 50.0508 25.1525 49.7745 25.7713 49.7745C26.7594 49.7741 27.4554 50.4787 27.4554 51.5613Z" fill="#1DA99D"/>
<path d="M32.9367 52.6439H29.8778C30.0068 53.0133 30.2817 53.2022 30.6597 53.2022C30.9863 53.2022 31.3211 53.0583 31.6137 52.7811L32.6211 53.7692C32.1227 54.3194 31.4012 54.6288 30.4903 54.6288C28.8834 54.6288 27.9298 53.6834 27.9298 52.2304C27.9298 50.7434 28.9266 49.7903 30.439 49.7903C32.0776 49.7908 33.0398 50.9084 32.9367 52.6439ZM30.4534 51.0801C30.1176 51.0801 29.9123 51.355 29.8351 51.7517H31.0036C31.029 51.3636 30.7887 51.0801 30.4534 51.0801Z" fill="#1DA99D"/>
<path d="M45.5835 48.537L43.5473 54.5599H41.5024L40.6001 50.9599L39.6724 54.5599H37.6275L35.6081 48.537H37.7388L38.7102 52.4891L39.6724 48.537H41.6141L42.5956 52.4891L43.5492 48.537H45.5835Z" fill="#1DA99D"/>
<path d="M49.8619 51.5177V54.5593H47.9633V54.0523C47.6884 54.4308 47.2438 54.6452 46.6398 54.6452C45.6435 54.6452 45.0675 54.0609 45.0675 53.1673C45.0675 52.2396 45.6949 51.7498 46.8902 51.7326H47.9633C47.9546 51.4064 47.7057 51.2169 47.2327 51.2169C46.8806 51.2169 46.3391 51.32 45.8066 51.5177L45.3749 50.2288C46.1741 49.9371 46.9991 49.7736 47.6951 49.7736C49.0546 49.774 49.8619 50.4101 49.8619 51.5177ZM47.9633 53.056V52.6243H47.2917C47.025 52.6243 46.8792 52.7533 46.8792 53.0023C46.8792 53.2599 47.0337 53.4148 47.3085 53.4148C47.4387 53.4134 47.5665 53.38 47.6807 53.3175C47.7949 53.255 47.8919 53.1654 47.9633 53.0565V53.056Z" fill="#1DA99D"/>
<path d="M51.6573 56.3145C51.039 56.3145 50.5406 56.1427 50.0336 55.7647L50.8414 54.4917C51.0476 54.6807 51.2366 54.7665 51.4683 54.7665C51.6918 54.7665 51.8377 54.6893 51.9322 54.5267L52.0012 54.4149L50.0509 49.8608H52.0353L52.9635 52.5418L53.7281 49.8608H55.6526L53.7194 54.8874C53.3242 55.866 52.6627 56.3145 51.6573 56.3145Z" fill="#1DA99D"/>
<path d="M24.7227 61.5655C24.5669 61.5677 24.4143 61.5207 24.2867 61.4312C24.1548 61.3373 24.0515 61.2086 23.9884 61.0595C23.914 60.8862 23.8775 60.6991 23.8814 60.5107V57.0364C23.8814 56.9749 23.9058 56.916 23.9492 56.8725C23.9927 56.8291 24.0516 56.8047 24.1131 56.8047C24.1745 56.8047 24.2335 56.8291 24.2769 56.8725C24.3203 56.916 24.3448 56.9749 24.3448 57.0364V60.5107C24.3382 60.6603 24.3752 60.8086 24.4512 60.9376C24.4779 60.9866 24.5171 61.0277 24.5648 61.0566C24.6125 61.0855 24.667 61.1012 24.7227 61.1021H24.8748C24.9021 61.1014 24.9292 61.1068 24.9541 61.1179C24.979 61.1291 25.0011 61.1456 25.0187 61.1664C25.0572 61.2135 25.0768 61.2731 25.0739 61.3338C25.0749 61.3657 25.0686 61.3974 25.0553 61.4265C25.0421 61.4555 25.0223 61.4811 24.9976 61.5012C24.9415 61.5458 24.8711 61.5686 24.7995 61.5655H24.7227Z" fill="#176D7E"/>
<path d="M27.0574 61.5957C26.7526 61.601 26.4518 61.5253 26.1858 61.3765C25.9339 61.2345 25.7253 61.0268 25.5824 60.7754C25.4382 60.5064 25.3627 60.206 25.3627 59.9007C25.3627 59.5955 25.4382 59.295 25.5824 59.026C25.7248 58.7737 25.9335 58.5651 26.1858 58.4226C26.4532 58.2784 26.7522 58.2029 27.056 58.2029C27.3597 58.2029 27.6587 58.2784 27.9261 58.4226C28.1769 58.5659 28.3843 58.7744 28.5262 59.026C28.6758 59.2943 28.7535 59.5967 28.7516 59.9038C28.7568 60.209 28.6801 60.51 28.5295 60.7754C28.3855 61.0266 28.1772 61.2348 27.9261 61.3789C27.6609 61.527 27.3611 61.6018 27.0574 61.5957ZM27.0574 61.1692C27.2796 61.1726 27.4986 61.1158 27.6911 61.0047C27.8759 60.8973 28.0277 60.7411 28.13 60.5533C28.2381 60.3533 28.2928 60.1288 28.2887 59.9015C28.2927 59.6731 28.238 59.4475 28.13 59.2462C28.0284 59.0572 27.8765 58.9 27.6911 58.792C27.4972 58.684 27.279 58.6274 27.0572 58.6274C26.8353 58.6274 26.6171 58.684 26.4233 58.792C26.2374 58.9004 26.0847 59.0574 25.9815 59.2462C25.8716 59.4469 25.8159 59.6727 25.8198 59.9015C25.8157 60.1291 25.8715 60.3539 25.9815 60.5533C26.0853 60.7409 26.238 60.8969 26.4233 61.0047C26.6159 61.1158 26.835 61.1726 27.0574 61.1692Z" fill="#176D7E"/>
<path d="M31.1351 61.5957C30.8364 61.6015 30.5416 61.5268 30.2817 61.3794C30.0358 61.2371 29.8342 61.0294 29.6994 60.7793C29.5559 60.5093 29.4836 60.2072 29.4893 59.9015C29.483 59.5926 29.5588 59.2875 29.709 59.0174C29.851 58.7655 30.0598 58.5577 30.3124 58.4169C30.5815 58.2749 30.8812 58.2007 31.1854 58.2007C31.4897 58.2007 31.7894 58.2749 32.0585 58.4169C32.3094 58.5579 32.5163 58.7658 32.6561 59.0174C32.8041 59.2885 32.8805 59.5927 32.8782 59.9015L32.6043 60.0454C32.6094 60.3242 32.5445 60.5998 32.4154 60.8469C32.2959 61.0756 32.1154 61.2667 31.8939 61.3991C31.6638 61.533 31.4013 61.6011 31.1351 61.5957ZM31.196 62.8822C30.9035 62.8884 30.6136 62.8268 30.3489 62.7023C30.1121 62.5883 29.9054 62.4202 29.7454 62.2116C29.7246 62.1912 29.7086 62.1664 29.6985 62.1391C29.6885 62.1117 29.6847 62.0824 29.6874 62.0533C29.6907 62.0248 29.7003 61.9974 29.7156 61.973C29.7308 61.9487 29.7514 61.9281 29.7757 61.9128C29.8011 61.8949 29.8299 61.8825 29.8604 61.8762C29.8908 61.87 29.9222 61.87 29.9527 61.8763C30.0134 61.8859 30.0679 61.9187 30.1047 61.968C30.2281 62.118 30.3832 62.2387 30.559 62.3215C30.7605 62.4142 30.9805 62.46 31.2022 62.4553C31.4186 62.4584 31.6317 62.4014 31.8177 62.2908C32.0025 62.179 32.1533 62.0187 32.2537 61.8274C32.3654 61.611 32.421 61.37 32.4154 61.1266V60.1999L32.5919 59.8463L32.8797 59.9015V61.1448C32.8847 61.4545 32.8091 61.7601 32.6605 62.0317C32.5199 62.2887 32.3139 62.5038 32.0633 62.6553C31.8009 62.8101 31.5006 62.8886 31.196 62.8822ZM31.184 61.1693C31.407 61.1737 31.6271 61.1178 31.821 61.0076C32.0046 60.9012 32.1554 60.7462 32.2566 60.5596C32.3652 60.3575 32.4199 60.1309 32.4154 59.9015C32.4197 59.6711 32.3651 59.4433 32.2566 59.24C32.1559 59.0523 32.0051 58.8962 31.821 58.7891C31.6271 58.6789 31.407 58.6231 31.184 58.6275C30.96 58.6233 30.7389 58.6791 30.5436 58.7891C30.3582 58.8956 30.2061 59.0517 30.1047 59.24C29.9966 59.4435 29.9421 59.6711 29.9464 59.9015C29.942 60.1308 29.9965 60.3574 30.1047 60.5596C30.2067 60.7467 30.3587 60.9018 30.5436 61.0076C30.7389 61.1176 30.96 61.1734 31.184 61.1693Z" fill="#176D7E"/>
<path d="M34.1221 57.5971C34.0789 57.5979 34.0361 57.5897 33.9963 57.5732C33.9564 57.5567 33.9204 57.5322 33.8904 57.5012C33.8588 57.4699 33.834 57.4325 33.8175 57.3912C33.801 57.35 33.7931 57.3058 33.7944 57.2613C33.7925 57.2164 33.8005 57.1716 33.8179 57.1301C33.8353 57.0886 33.8617 57.0515 33.8952 57.0215C33.9596 56.9638 34.0433 56.9324 34.1297 56.9332C34.2144 56.9331 34.296 56.9646 34.3586 57.0215C34.392 57.0515 34.4184 57.0886 34.4359 57.1301C34.4533 57.1716 34.4613 57.2164 34.4593 57.2613C34.4596 57.3055 34.4511 57.3493 34.4344 57.3902C34.4176 57.4311 34.3929 57.4682 34.3616 57.4995C34.3304 57.5307 34.2933 57.5555 34.2524 57.5722C34.2115 57.589 34.1677 57.5974 34.1235 57.5971H34.1221ZM34.1278 61.5655C34.0956 61.5684 34.0632 61.5641 34.0328 61.5531C34.0024 61.5421 33.9748 61.5245 33.9519 61.5016C33.929 61.4787 33.9114 61.4511 33.9004 61.4207C33.8894 61.3903 33.8851 61.3579 33.888 61.3257V58.4668C33.8849 58.4345 33.8891 58.402 33.9 58.3715C33.911 58.341 33.9286 58.3134 33.9515 58.2905C33.9744 58.2676 34.0021 58.25 34.0326 58.239C34.063 58.228 34.0956 58.2239 34.1278 58.2269C34.1587 58.2256 34.1895 58.2306 34.2184 58.2415C34.2472 58.2525 34.2735 58.2692 34.2957 58.2907C34.3176 58.3138 34.3345 58.3412 34.3455 58.371C34.3564 58.4009 34.3612 58.4326 34.3595 58.4644V61.3233C34.3613 61.355 34.3565 61.3868 34.3456 61.4167C34.3346 61.4466 34.3176 61.4739 34.2957 61.4969C34.2739 61.5193 34.2478 61.5369 34.2189 61.5487C34.19 61.5605 34.159 61.5662 34.1278 61.5655Z" fill="#176D7E"/>
<path d="M36.7186 61.5958C36.4757 61.5954 36.2346 61.5543 36.0053 61.474C35.7862 61.4034 35.5889 61.2775 35.4326 61.1084C35.4113 61.0871 35.3952 61.0612 35.3857 61.0327C35.3761 61.0041 35.3733 60.9737 35.3774 60.9439C35.3867 60.8813 35.4194 60.8245 35.469 60.7851C35.5177 60.7479 35.5786 60.7303 35.6396 60.736C35.7006 60.7417 35.7572 60.7702 35.7981 60.8158C35.9028 60.9346 36.036 61.0247 36.1852 61.0777C36.3559 61.1405 36.5367 61.1716 36.7186 61.1694C37.0192 61.1694 37.2367 61.1175 37.371 61.0139C37.4322 60.9718 37.4828 60.9159 37.5188 60.8508C37.5548 60.7857 37.5751 60.7131 37.5782 60.6388C37.5782 60.4924 37.5091 60.3715 37.371 60.2762C37.2328 60.1809 37.0051 60.1075 36.6879 60.056C36.2776 59.9921 35.977 59.8784 35.7861 59.715C35.5952 59.5516 35.4993 59.3584 35.4983 59.1355C35.4917 58.9489 35.55 58.7658 35.6633 58.6175C35.7782 58.4754 35.9301 58.3678 36.1022 58.3066C36.2954 58.2357 36.4999 58.2006 36.7057 58.203C36.9477 58.197 37.1881 58.2449 37.4094 58.3431C37.5972 58.4289 37.7617 58.5585 37.889 58.7211C37.9079 58.7437 37.9219 58.77 37.9301 58.7983C37.9384 58.8267 37.9407 58.8563 37.937 58.8856C37.9325 58.9147 37.9215 58.9424 37.9049 58.9667C37.8883 58.991 37.8665 59.0113 37.8411 59.0261C37.7903 59.0548 37.7309 59.0645 37.6737 59.0535C37.6112 59.0437 37.554 59.0125 37.512 58.9652C37.4166 58.8519 37.2953 58.763 37.1585 58.7062C37.0109 58.6487 36.8535 58.6207 36.6951 58.6237C36.4713 58.6237 36.2925 58.6694 36.1588 58.7609C36.0245 58.8525 35.9578 58.9671 35.9578 59.1053C35.9558 59.1926 35.9824 59.2782 36.0336 59.349C36.1034 59.432 36.1939 59.495 36.296 59.5317C36.4638 59.5966 36.6387 59.6417 36.8169 59.666C37.122 59.715 37.3628 59.7871 37.5393 59.8824C37.6937 59.9576 37.8245 60.0737 37.9173 60.2182C37.9921 60.3446 38.0311 60.489 38.0301 60.636C38.0332 60.8177 37.9741 60.9951 37.8627 61.1387C37.7406 61.2896 37.5807 61.4054 37.3993 61.4744C37.1826 61.5593 36.9513 61.6006 36.7186 61.5958Z" fill="#176D7E"/>
<path d="M38.6263 58.7608C38.5984 58.7617 38.5706 58.7571 38.5445 58.7472C38.5184 58.7373 38.4945 58.7224 38.4742 58.7033C38.4544 58.6849 38.4388 58.6627 38.4282 58.6379C38.4176 58.6131 38.4124 58.5863 38.4128 58.5594C38.4119 58.5316 38.4169 58.5039 38.4275 58.4782C38.4381 58.4525 38.454 58.4293 38.4742 58.4102C38.4944 58.3909 38.5183 58.3758 38.5444 58.3659C38.5705 58.3559 38.5983 58.3512 38.6263 58.3521H40.1809C40.2088 58.3512 40.2367 58.3559 40.2628 58.3659C40.2889 58.3758 40.3127 58.3909 40.333 58.4102C40.3532 58.4293 40.3691 58.4525 40.3797 58.4782C40.3903 58.5039 40.3953 58.5316 40.3944 58.5594C40.3948 58.5863 40.3896 58.6131 40.379 58.6379C40.3684 58.6627 40.3527 58.6849 40.333 58.7033C40.3127 58.7224 40.2888 58.7373 40.2627 58.7472C40.2366 58.7571 40.2088 58.7617 40.1809 58.7608H38.6263ZM40.144 61.565C39.9448 61.5688 39.7483 61.5177 39.5763 61.4171C39.4043 61.3166 39.2633 61.1706 39.1688 60.9952C39.0698 60.8085 39.0202 60.5996 39.0249 60.3884V57.4081C39.023 57.345 39.0461 57.2836 39.0892 57.2374C39.1108 57.2151 39.1369 57.1976 39.1657 57.1862C39.1946 57.1747 39.2255 57.1694 39.2566 57.1707C39.2885 57.1691 39.3204 57.1742 39.3502 57.1857C39.38 57.1972 39.4071 57.2148 39.4297 57.2374C39.4523 57.26 39.4699 57.2871 39.4814 57.3169C39.4929 57.3467 39.498 57.3786 39.4964 57.4105V60.3913C39.4888 60.5782 39.5544 60.7608 39.6792 60.9002C39.7384 60.9651 39.811 61.0165 39.892 61.0507C39.973 61.0849 40.0604 61.1011 40.1483 61.0983H40.3133C40.343 61.0974 40.3725 61.1029 40.3998 61.1145C40.4272 61.1261 40.4517 61.1435 40.4716 61.1655C40.5131 61.2124 40.5349 61.2736 40.5325 61.3362C40.5336 61.3679 40.5276 61.3993 40.5149 61.4283C40.5022 61.4573 40.4832 61.483 40.4591 61.5036C40.4084 61.5472 40.3432 61.5702 40.2764 61.5679L40.144 61.565Z" fill="#176D7E"/>
<path d="M41.6194 57.5971C41.5763 57.5979 41.5335 57.5897 41.4936 57.5732C41.4538 57.5567 41.4177 57.5322 41.3878 57.5012C41.3562 57.4699 41.3313 57.4325 41.3148 57.3912C41.2983 57.35 41.2905 57.3058 41.2918 57.2613C41.2898 57.2164 41.2978 57.1716 41.3153 57.1301C41.3327 57.0886 41.3591 57.0515 41.3926 57.0215C41.457 56.9638 41.5407 56.9324 41.6271 56.9332C41.7117 56.9331 41.7933 56.9646 41.8559 57.0215C41.8894 57.0515 41.9158 57.0886 41.9332 57.1301C41.9507 57.1716 41.9587 57.2164 41.9567 57.2613C41.957 57.3055 41.9485 57.3493 41.9318 57.3902C41.915 57.4311 41.8903 57.4682 41.859 57.4995C41.8278 57.5307 41.7906 57.5555 41.7498 57.5722C41.7089 57.589 41.6651 57.5974 41.6209 57.5971H41.6194ZM41.6252 61.5655C41.5932 61.568 41.561 61.5635 41.5309 61.5523C41.5008 61.5411 41.4735 61.5235 41.4509 61.5006C41.4283 61.4778 41.4109 61.4503 41.4 61.4201C41.3891 61.3899 41.3849 61.3577 41.3878 61.3257V58.4668C41.3848 58.4347 41.3888 58.4024 41.3997 58.3722C41.4105 58.3419 41.4279 58.3143 41.4505 58.2915C41.4732 58.2686 41.5005 58.251 41.5307 58.2398C41.5609 58.2287 41.5931 58.2243 41.6252 58.2269C41.6561 58.2256 41.6869 58.2306 41.7157 58.2415C41.7446 58.2525 41.7709 58.2692 41.7931 58.2907C41.8149 58.3138 41.8319 58.3412 41.8428 58.371C41.8538 58.4009 41.8586 58.4326 41.8569 58.4644V61.3233C41.8587 61.355 41.8539 61.3868 41.843 61.4167C41.832 61.4466 41.815 61.4739 41.7931 61.4969C41.7713 61.5193 41.7452 61.5369 41.7163 61.5487C41.6874 61.5605 41.6564 61.5662 41.6252 61.5655Z" fill="#176D7E"/>
<path d="M44.5388 61.5957C44.2384 61.6012 43.9423 61.5244 43.6825 61.3736C43.435 61.2275 43.2308 61.018 43.0911 60.7668C42.9449 60.5028 42.8703 60.2051 42.8747 59.9034C42.8695 59.5999 42.9408 59.3 43.082 59.0313C43.2142 58.7821 43.4106 58.5728 43.6509 58.425C43.9006 58.274 44.188 58.1968 44.4798 58.2024C44.7162 58.1993 44.9504 58.2484 45.1657 58.3463C45.3808 58.4485 45.5695 58.5986 45.7173 58.7852C45.7378 58.805 45.7529 58.8296 45.7613 58.8568C45.7696 58.884 45.771 58.9128 45.7653 58.9407C45.7501 58.9999 45.7131 59.0513 45.6617 59.0846C45.6405 59.1004 45.6163 59.1116 45.5905 59.1174C45.5647 59.1232 45.5379 59.1234 45.512 59.1181C45.4549 59.107 45.4037 59.0755 45.3681 59.0294C45.259 58.9003 45.1225 58.7973 44.9684 58.7277C44.8144 58.6582 44.6468 58.6239 44.4778 58.6274C44.2661 58.623 44.0576 58.6802 43.8778 58.792C43.7044 58.9021 43.5651 59.0582 43.4753 59.2429C43.3765 59.4481 43.3272 59.6737 43.3314 59.9015C43.3274 60.1281 43.3798 60.3521 43.4839 60.5533C43.5816 60.7405 43.7294 60.8968 43.9109 61.0047C44.1009 61.1162 44.318 61.1731 44.5383 61.1693C44.6861 61.1708 44.8332 61.1491 44.9743 61.105C45.1037 61.0639 45.2231 60.9965 45.325 60.9069C45.3673 60.8691 45.4205 60.8457 45.477 60.8402C45.5294 60.8366 45.5811 60.8539 45.6209 60.8882C45.6665 60.9269 45.6959 60.9813 45.7034 61.0407C45.7063 61.0676 45.7025 61.0948 45.6924 61.1199C45.6822 61.145 45.6661 61.1672 45.6454 61.1846C45.3509 61.459 44.982 61.596 44.5388 61.5957Z" fill="#176D7E"/>
<path d="M47.8429 61.5958C47.6 61.5955 47.3589 61.5543 47.1296 61.474C46.9102 61.4035 46.7128 61.2776 46.5564 61.1084C46.5353 61.087 46.5194 61.0611 46.5099 61.0325C46.5004 61.004 46.4976 60.9737 46.5017 60.9439C46.5107 60.8812 46.5435 60.8244 46.5933 60.7851C46.6419 60.7479 46.7029 60.7303 46.7639 60.736C46.8249 60.7417 46.8815 60.7702 46.9224 60.8158C47.0271 60.9346 47.1603 61.0247 47.3095 61.0777C47.4802 61.1406 47.661 61.1716 47.8429 61.1694C48.1435 61.1694 48.3608 61.1176 48.4948 61.0139C48.556 60.9718 48.6066 60.9159 48.6426 60.8508C48.6786 60.7857 48.6989 60.7131 48.702 60.6388C48.702 60.4924 48.6329 60.3715 48.4948 60.2762C48.3566 60.1809 48.1291 60.1075 47.8122 60.056C47.4016 59.9921 47.1008 59.8784 46.9099 59.715C46.719 59.5516 46.6231 59.3584 46.6221 59.1355C46.6155 58.949 46.6737 58.766 46.7866 58.6175C46.9017 58.4756 47.0535 58.3681 47.2255 58.3066C47.4187 58.2358 47.6232 58.2007 47.829 58.203C48.0712 58.197 48.3117 58.2448 48.5331 58.3431C48.7209 58.429 48.8854 58.5586 49.0128 58.7211C49.0317 58.7437 49.0457 58.77 49.0539 58.7984C49.0622 58.8267 49.0645 58.8564 49.0608 58.8856C49.0562 58.9147 49.0452 58.9423 49.0286 58.9666C49.012 58.9909 48.9902 59.0113 48.9649 59.0262C48.914 59.0548 48.8547 59.0645 48.7974 59.0535C48.735 59.0437 48.6778 59.0125 48.6358 58.9652C48.5404 58.8519 48.4191 58.763 48.2823 58.7062C48.1347 58.6487 47.9773 58.6207 47.8189 58.6237C47.5951 58.6237 47.4163 58.6694 47.2826 58.7609C47.1489 58.8523 47.0818 58.9672 47.0812 59.1053C47.0792 59.1927 47.106 59.2783 47.1574 59.349C47.2272 59.432 47.3177 59.4951 47.4198 59.5317C47.5876 59.5966 47.7625 59.6417 47.9407 59.666C48.2452 59.715 48.486 59.7871 48.6631 59.8824C48.8174 59.9577 48.9481 60.0738 49.0411 60.2182C49.1156 60.3447 49.1546 60.4891 49.1539 60.636C49.1568 60.8178 49.0975 60.9951 48.986 61.1387C48.8641 61.2896 48.7044 61.4054 48.5231 61.4744C48.3065 61.5592 48.0754 61.6005 47.8429 61.5958Z" fill="#176D7E"/>
<path d="M41.192 30.3383C36.1218 30.3383 41.192 36.4436 41.192 36.4436C41.192 36.4436 46.2618 30.3383 41.192 30.3383ZM41.192 34.2002C40.8531 34.2003 40.5218 34.0998 40.24 33.9116C39.9582 33.7234 39.7385 33.4559 39.6087 33.1428C39.4789 32.8297 39.445 32.4852 39.511 32.1528C39.5771 31.8204 39.7402 31.515 39.9798 31.2753C40.2194 31.0357 40.5247 30.8724 40.8571 30.8063C41.1895 30.7401 41.534 30.774 41.8471 30.9037C42.1603 31.0334 42.4279 31.253 42.6162 31.5348C42.8045 31.8166 42.905 32.1478 42.905 32.4867C42.9052 32.7118 42.861 32.9347 42.775 33.1427C42.689 33.3507 42.5629 33.5397 42.4038 33.6989C42.2447 33.8581 42.0558 33.9844 41.8479 34.0706C41.64 34.1568 41.4171 34.2011 41.192 34.2011V34.2002Z" fill="#1DA99D"/>
<path d="M41.1921 31.0079C40.8994 31.0078 40.6134 31.0945 40.37 31.257C40.1267 31.4196 39.937 31.6506 39.825 31.9209C39.7129 32.1913 39.6836 32.4887 39.7407 32.7758C39.7977 33.0628 39.9386 33.3264 40.1455 33.5333C40.3525 33.7402 40.6161 33.8811 40.9031 33.9382C41.1901 33.9953 41.4876 33.9659 41.7579 33.8539C42.0283 33.7419 42.2593 33.5522 42.4218 33.3088C42.5843 33.0655 42.671 32.7794 42.6709 32.4868C42.6709 32.0946 42.5151 31.7184 42.2378 31.4411C41.9604 31.1637 41.5843 31.0079 41.1921 31.0079ZM41.1921 33.7277C40.9467 33.7276 40.7068 33.6548 40.5028 33.5184C40.2988 33.3819 40.1398 33.1881 40.0459 32.9613C39.9521 32.7346 39.9276 32.4851 39.9755 32.2444C40.0235 32.0037 40.1417 31.7826 40.3152 31.6091C40.4888 31.4356 40.7099 31.3175 40.9506 31.2697C41.1913 31.2218 41.4408 31.2464 41.6675 31.3404C41.8943 31.4343 42.088 31.5934 42.2244 31.7974C42.3607 32.0015 42.4335 32.2414 42.4335 32.4868C42.4334 32.8159 42.3025 33.1316 42.0697 33.3643C41.8369 33.597 41.5212 33.7277 41.1921 33.7277Z" fill="#1DA99D"/>
<path d="M41.7672 37.6357C41.7672 37.7495 41.7335 37.8608 41.6702 37.9555C41.607 38.0501 41.5171 38.1239 41.4119 38.1675C41.3067 38.211 41.191 38.2224 41.0793 38.2002C40.9677 38.178 40.8651 38.1232 40.7846 38.0427C40.7041 37.9622 40.6493 37.8596 40.6271 37.748C40.6048 37.6363 40.6162 37.5206 40.6598 37.4154C40.7034 37.3102 40.7772 37.2203 40.8718 37.1571C40.9665 37.0938 41.0778 37.0601 41.1916 37.0601C41.3443 37.0601 41.4907 37.1207 41.5986 37.2287C41.7066 37.3366 41.7672 37.483 41.7672 37.6357Z" fill="#1DA99D"/>
<path d="M36.6562 32.0124C36.9206 31.7316 37.1065 31.3862 37.1952 31.0108C37.284 30.6355 37.2725 30.2434 37.1618 29.874L34.8646 22.2048C34.7861 21.9432 34.7772 21.6655 34.8388 21.3994C34.9003 21.1332 35.0303 20.8877 35.2158 20.6871L37.2875 18.4441C37.8039 17.8854 38.1875 17.2172 38.4095 16.4894L38.5534 16.017C38.5797 15.9318 38.5815 15.841 38.5587 15.7548C38.5359 15.6686 38.4893 15.5906 38.4243 15.5296C38.3593 15.4686 38.2785 15.4271 38.1911 15.4098C38.1037 15.3925 38.0131 15.4001 37.9298 15.4317L37.4669 15.604C36.7541 15.8699 36.1104 16.293 35.5837 16.842L33.4702 19.0485C33.2811 19.2457 33.0439 19.3902 32.782 19.4677C32.5201 19.5453 32.2424 19.5532 31.9765 19.4908L24.1846 17.6608C23.8091 17.5726 23.417 17.5847 23.0478 17.6959C22.6785 17.8071 22.3449 18.0136 22.0807 18.2945C25.3967 19.1704 28.7775 21.0728 30.1566 21.9012C30.2006 21.9277 30.238 21.9638 30.2662 22.0067C30.2943 22.0497 30.3124 22.0984 30.3192 22.1494C30.3259 22.2003 30.3211 22.2521 30.305 22.3009C30.289 22.3497 30.2622 22.3942 30.2266 22.4312L29.6443 22.1132C29.5076 22.0381 29.3476 22.0175 29.1963 22.0555C29.0451 22.0935 28.9138 22.1873 28.8288 22.318L28.3554 23.0476C28.2913 23.1462 28.2617 23.2633 28.2714 23.3805C28.2815 23.5027 28.249 23.6245 28.1793 23.7254L28.0023 23.9825L28.2829 23.7729C28.3701 23.7076 28.4753 23.671 28.5842 23.6679L28.7679 23.6621L29.0624 23.6477L28.6144 24.1149C28.3267 24.4152 28.0781 24.7508 27.8747 25.1136L26.8521 26.9393L24.6988 26.0279C24.4747 25.9335 24.2253 25.9177 23.9911 25.9829C23.7568 26.0481 23.5515 26.1906 23.4084 26.3872L22.9628 26.9992L26.0831 28.3092L25.7987 28.8177C25.7885 28.8355 25.7845 28.8563 25.7875 28.8767C25.7905 28.897 25.8003 28.9158 25.8153 28.9299C25.8302 28.944 25.8495 28.9527 25.87 28.9545C25.8905 28.9564 25.911 28.9513 25.9282 28.94L26.4184 28.6249L27.9146 31.6588L28.5031 31.1729C28.6896 31.019 28.8189 30.8068 28.8702 30.5705C28.9215 30.3342 28.8919 30.0876 28.7861 29.8701L27.7596 27.7595L29.5004 26.6424C29.8503 26.4175 30.1702 26.1491 30.4525 25.8437L30.8919 25.3678L30.8953 25.6628L30.901 25.8466C30.9045 25.9554 30.8741 26.0626 30.8142 26.1536L30.6223 26.4466L30.8684 26.2548C30.965 26.1794 31.0846 26.1397 31.2071 26.1425C31.3246 26.145 31.4397 26.1084 31.5342 26.0384L32.2346 25.5189C32.3599 25.4262 32.4456 25.2894 32.4743 25.1361C32.5031 24.9828 32.4728 24.8243 32.3895 24.6925L32.035 24.1307C32.0697 24.0929 32.1125 24.0633 32.1603 24.0443C32.208 24.0253 32.2594 24.0174 32.3106 24.021C32.3619 24.0246 32.4116 24.0398 32.4562 24.0654C32.5007 24.0909 32.5389 24.1262 32.5679 24.1686C33.4774 25.4964 35.5813 28.7553 36.6562 32.0124Z" fill="#1DA99D"/>
<path d="M25.3391 37.5144C25.3275 37.5537 25.3141 37.5935 25.2992 37.6319C25.2927 37.6484 25.2799 37.6617 25.2637 37.6688C25.2474 37.6759 25.229 37.6762 25.2124 37.6698C25.2042 37.6666 25.1967 37.6618 25.1903 37.6557C25.184 37.6496 25.1789 37.6423 25.1754 37.6343C25.1719 37.6262 25.17 37.6175 25.1698 37.6087C25.1697 37.5999 25.1713 37.5911 25.1745 37.583C25.2258 37.4522 25.2556 37.3141 25.2628 37.1738C25.2632 37.165 25.2653 37.1564 25.269 37.1485C25.2727 37.1406 25.2779 37.1334 25.2844 37.1275C25.2908 37.1216 25.2984 37.117 25.3066 37.114C25.3148 37.111 25.3236 37.1096 25.3323 37.11C25.3411 37.1104 25.3497 37.1125 25.3576 37.1162C25.3656 37.1199 25.3727 37.1251 25.3787 37.1316C25.3846 37.138 25.3892 37.1456 25.3922 37.1538C25.3952 37.1621 25.3965 37.1708 25.3961 37.1796C25.3909 37.2931 25.3717 37.4055 25.3391 37.5144ZM25.0815 38.0094C25.0791 38.0176 25.0752 38.0252 25.07 38.0319C24.9753 38.154 24.862 38.2604 24.7342 38.3471C24.7269 38.352 24.7187 38.3554 24.7102 38.3571C24.7016 38.3588 24.6927 38.3588 24.6841 38.3572C24.6755 38.3555 24.6673 38.3521 24.66 38.3472C24.6528 38.3424 24.6465 38.3361 24.6416 38.3289C24.6367 38.3216 24.6333 38.3134 24.6316 38.3048C24.6299 38.2962 24.6299 38.2874 24.6315 38.2788C24.6332 38.2702 24.6366 38.262 24.6415 38.2547C24.6463 38.2474 24.6526 38.2412 24.6598 38.2363C24.7766 38.157 24.8802 38.0599 24.9668 37.9485C24.9724 37.9414 24.9792 37.9355 24.9871 37.9311C24.9949 37.9266 25.0035 37.9239 25.0125 37.9228C25.0214 37.9218 25.0305 37.9226 25.0391 37.9251C25.0477 37.9276 25.0558 37.9318 25.0628 37.9374C25.0727 37.9462 25.0797 37.9578 25.0831 37.9706C25.0864 37.9834 25.0859 37.9969 25.0815 38.0094ZM25.3314 36.7622C25.3282 36.7725 25.3227 36.7819 25.3152 36.7896C25.3077 36.7972 25.2984 36.803 25.2882 36.8064C25.2799 36.8092 25.2711 36.8104 25.2623 36.8098C25.2536 36.8092 25.245 36.8069 25.2372 36.8029C25.2293 36.799 25.2223 36.7936 25.2166 36.7869C25.2108 36.7802 25.2065 36.7725 25.2038 36.7641C25.1595 36.6306 25.0947 36.5047 25.0119 36.391C25.0068 36.3839 25.003 36.3758 25.001 36.3673C24.9989 36.3588 24.9986 36.3499 24.9999 36.3413C25.0013 36.3326 25.0043 36.3243 25.0089 36.3168C25.0135 36.3093 25.0195 36.3028 25.0265 36.2977C25.0336 36.2925 25.0417 36.2888 25.0502 36.2867C25.0587 36.2847 25.0676 36.2843 25.0762 36.2857C25.0849 36.287 25.0932 36.2901 25.1007 36.2946C25.1082 36.2992 25.1147 36.3052 25.1198 36.3123C25.2115 36.437 25.2831 36.5752 25.3323 36.7219C25.3354 36.7344 25.3351 36.7475 25.3314 36.7598V36.7622ZM24.3557 38.4891C24.3528 38.5007 24.3468 38.5112 24.3383 38.5197C24.3299 38.5281 24.3193 38.5341 24.3077 38.537C24.1738 38.5668 24.0355 38.571 23.9 38.5495C23.8799 38.5462 23.8602 38.5428 23.8405 38.5385C23.8319 38.5367 23.8238 38.5332 23.8165 38.5283C23.8093 38.5233 23.8031 38.517 23.7982 38.5096C23.7934 38.5023 23.7901 38.4941 23.7885 38.4854C23.7869 38.4768 23.7869 38.4679 23.7887 38.4593C23.7905 38.4507 23.794 38.4426 23.799 38.4353C23.8039 38.4281 23.8102 38.4219 23.8176 38.417C23.8249 38.4122 23.8332 38.4089 23.8418 38.4073C23.8504 38.4057 23.8593 38.4057 23.8679 38.4075L23.9211 38.4176C24.04 38.4364 24.1614 38.4327 24.279 38.4066C24.2875 38.4047 24.2964 38.4045 24.305 38.406C24.3137 38.4075 24.3219 38.4107 24.3293 38.4155C24.3367 38.4202 24.3431 38.4263 24.3482 38.4335C24.3532 38.4407 24.3567 38.4488 24.3586 38.4574C24.36 38.4673 24.359 38.4773 24.3557 38.4867V38.4891ZM24.821 36.0533C24.8184 36.0614 24.8145 36.069 24.8095 36.0758C24.804 36.0829 24.7971 36.0889 24.7892 36.0933C24.7814 36.0977 24.7727 36.1004 24.7638 36.1014C24.7548 36.1024 24.7458 36.1016 24.7371 36.099C24.7285 36.0964 24.7205 36.0921 24.7136 36.0864C24.6018 35.9979 24.4799 35.923 24.3504 35.8633C24.3357 35.855 24.3247 35.8414 24.3195 35.8253C24.3143 35.8092 24.3154 35.7918 24.3226 35.7764C24.3297 35.7611 24.3424 35.749 24.3581 35.7426C24.3737 35.7363 24.3912 35.736 24.407 35.742C24.5458 35.8063 24.6766 35.8868 24.7965 35.9818C24.8069 35.9897 24.8148 36.0004 24.8191 36.0127C24.8235 36.0249 24.8241 36.0382 24.821 36.0509V36.0533ZM21.3592 45.8709C21.3543 45.8879 21.3429 45.9024 21.3274 45.911C21.312 45.9196 21.2937 45.9218 21.2766 45.9169C21.2596 45.9121 21.2452 45.9007 21.2365 45.8852C21.2279 45.8697 21.2258 45.8515 21.2306 45.8344C21.2671 45.7001 21.3002 45.5567 21.3265 45.408C21.33 45.3907 21.3402 45.3754 21.3548 45.3654C21.3694 45.3555 21.3873 45.3516 21.4047 45.3547C21.4134 45.3564 21.4216 45.3597 21.429 45.3645C21.4363 45.3693 21.4427 45.3755 21.4476 45.3828C21.4526 45.39 21.456 45.3982 21.4578 45.4068C21.4596 45.4154 21.4596 45.4243 21.458 45.4329C21.4287 45.585 21.3951 45.7318 21.3577 45.8694L21.3592 45.8709ZM21.2234 46.2925V46.2968C21.1705 46.4376 21.1095 46.5752 21.0406 46.7089C21.0319 46.7236 21.0178 46.7344 21.0013 46.7391C20.9848 46.7438 20.9672 46.742 20.9519 46.7341C20.9367 46.7262 20.9251 46.7128 20.9195 46.6966C20.9139 46.6804 20.9147 46.6626 20.9217 46.647C20.9882 46.5182 21.0472 46.3855 21.0982 46.2498C21.1046 46.2333 21.1172 46.2199 21.1334 46.2126C21.1495 46.2053 21.1679 46.2047 21.1846 46.211C21.2002 46.2171 21.2128 46.229 21.22 46.2441C21.2273 46.2592 21.2285 46.2765 21.2234 46.2925ZM21.5285 45.0022C21.5267 45.0107 21.5232 45.0189 21.5182 45.0261C21.5132 45.0333 21.5069 45.0395 21.4995 45.0442C21.4922 45.049 21.484 45.0523 21.4754 45.0539C21.4667 45.0555 21.4579 45.0553 21.4493 45.0535C21.4408 45.0517 21.4326 45.0482 21.4254 45.0432C21.4182 45.0382 21.412 45.0319 21.4073 45.0246C21.4025 45.0172 21.3992 45.009 21.3977 45.0004C21.3961 44.9918 21.3962 44.9829 21.398 44.9744C21.4081 44.899 21.4172 44.8209 21.4258 44.7412C21.4325 44.6741 21.4393 44.6055 21.4455 44.5369C21.4483 44.5202 21.4573 44.5053 21.4707 44.495C21.4841 44.4847 21.5009 44.4798 21.5177 44.4813C21.5345 44.4828 21.5502 44.4906 21.5615 44.5031C21.5728 44.5157 21.579 44.532 21.5788 44.5489C21.5726 44.618 21.5659 44.6875 21.5587 44.7556C21.5501 44.8357 21.5405 44.9154 21.5304 44.9921C21.53 44.9955 21.5294 44.9989 21.5285 45.0022ZM23.51 38.3183C23.5081 38.3243 23.5055 38.3301 23.5024 38.3356C23.4926 38.3504 23.4775 38.3608 23.4602 38.3646C23.4429 38.3683 23.4248 38.3652 23.4098 38.3557C23.2803 38.2714 23.1638 38.1686 23.0639 38.0507C23.0536 38.037 23.0489 38.0199 23.0508 38.0028C23.0527 37.9858 23.061 37.9702 23.0741 37.9591C23.0871 37.948 23.1039 37.9423 23.121 37.9432C23.1382 37.9441 23.1543 37.9515 23.1661 37.9638C23.2571 38.072 23.3636 38.1661 23.4822 38.243C23.4943 38.2509 23.5036 38.2625 23.5086 38.276C23.5136 38.2896 23.5141 38.3044 23.51 38.3183ZM20.8142 47.0754C20.8119 47.0823 20.8087 47.0889 20.8046 47.095C20.7605 47.1564 20.7145 47.2169 20.6665 47.2744C20.6185 47.332 20.5672 47.3886 20.513 47.4423C20.5068 47.4488 20.4994 47.454 20.4911 47.4575C20.4829 47.4611 20.474 47.4629 20.465 47.4629C20.4561 47.4629 20.4472 47.4611 20.4389 47.4575C20.4307 47.454 20.4232 47.4488 20.4171 47.4423C20.4107 47.4361 20.4056 47.4286 20.4021 47.4204C20.3987 47.4121 20.3969 47.4033 20.3969 47.3943C20.3969 47.3854 20.3987 47.3766 20.4021 47.3683C20.4056 47.3601 20.4107 47.3526 20.4171 47.3464C20.4676 47.2959 20.5157 47.2429 20.561 47.1876C20.6065 47.1329 20.6507 47.0749 20.6924 47.0159C20.7017 47.003 20.7152 46.9939 20.7305 46.99C20.7459 46.9861 20.7621 46.9878 20.7763 46.9948C20.7906 47.0017 20.8019 47.0135 20.8083 47.028C20.8147 47.0424 20.8158 47.0587 20.8114 47.0739L20.8142 47.0754ZM21.6067 44.12C21.6024 44.1361 21.5923 44.15 21.5783 44.1591C21.5644 44.1681 21.5475 44.1715 21.5311 44.1688C21.5147 44.166 21.4999 44.1572 21.4897 44.1441C21.4794 44.131 21.4745 44.1146 21.4757 44.098C21.4829 43.9541 21.4877 43.8039 21.4891 43.6576C21.4906 43.6409 21.4982 43.6252 21.5106 43.6139C21.523 43.6025 21.5392 43.5962 21.5561 43.5962C21.5729 43.5962 21.5891 43.6025 21.6015 43.6139C21.6139 43.6252 21.6216 43.6409 21.623 43.6576C21.623 43.8054 21.6167 43.955 21.6095 44.1028C21.6092 44.1086 21.6083 44.1144 21.6067 44.12ZM24.0257 35.6777C24.0213 35.6942 24.0107 35.7083 23.9962 35.7172C23.9816 35.7262 23.9642 35.7292 23.9475 35.7256C23.8082 35.696 23.6659 35.6828 23.5235 35.6863C23.5057 35.6867 23.4886 35.6801 23.4757 35.6678C23.4629 35.6556 23.4554 35.6388 23.4549 35.6211C23.4546 35.6123 23.456 35.6036 23.4591 35.5953C23.4622 35.5871 23.4669 35.5796 23.4729 35.5732C23.4789 35.5668 23.4862 35.5617 23.4942 35.5582C23.5022 35.5546 23.5109 35.5527 23.5196 35.5525C23.6727 35.5486 23.8257 35.563 23.9753 35.5952C23.9839 35.5969 23.9921 35.6004 23.9993 35.6053C24.0066 35.6103 24.0128 35.6166 24.0176 35.624C24.0223 35.6314 24.0256 35.6396 24.0272 35.6482C24.0287 35.6569 24.0286 35.6657 24.0267 35.6743C24.0265 35.6759 24.0262 35.6776 24.0257 35.6791V35.6777ZM21.6172 43.2346C21.6129 43.2501 21.6032 43.2635 21.5898 43.2724C21.5764 43.2813 21.5602 43.285 21.5442 43.2829C21.5283 43.2808 21.5136 43.273 21.503 43.261C21.4923 43.2489 21.4864 43.2334 21.4863 43.2173C21.4824 43.071 21.4757 42.9228 21.4661 42.7774C21.465 42.7683 21.4658 42.7591 21.4684 42.7503C21.471 42.7416 21.4754 42.7334 21.4812 42.7264C21.4871 42.7194 21.4943 42.7136 21.5025 42.7095C21.5107 42.7054 21.5196 42.7029 21.5287 42.7024C21.5378 42.7018 21.547 42.7031 21.5556 42.7062C21.5642 42.7094 21.5721 42.7142 21.5788 42.7205C21.5854 42.7267 21.5908 42.7343 21.5944 42.7427C21.598 42.7511 21.5999 42.7601 21.6 42.7693C21.6091 42.916 21.6158 43.0657 21.6196 43.2139C21.6201 43.2209 21.6193 43.2279 21.6172 43.2346ZM20.1897 47.6956C20.1851 47.7101 20.1758 47.7228 20.1633 47.7316C20.0383 47.8175 19.9058 47.8922 19.7676 47.9546C19.7523 47.958 19.7364 47.9561 19.7225 47.949C19.7085 47.942 19.6975 47.9303 19.6913 47.916C19.685 47.9017 19.684 47.8856 19.6883 47.8706C19.6926 47.8556 19.7019 47.8426 19.7148 47.8337C19.8458 47.7749 19.9712 47.7042 20.0894 47.6227C20.0967 47.6177 20.1048 47.6141 20.1134 47.6123C20.122 47.6104 20.1309 47.6103 20.1396 47.6119C20.1482 47.6135 20.1565 47.6168 20.1638 47.6216C20.1712 47.6265 20.1775 47.6327 20.1825 47.6399C20.1878 47.6483 20.1912 47.6578 20.1925 47.6677C20.1937 47.6775 20.1928 47.6876 20.1897 47.697V47.6956ZM21.5606 42.351C21.5561 42.3658 21.5467 42.3785 21.5338 42.3871C21.521 42.3957 21.5056 42.3997 21.4903 42.3983C21.4749 42.3969 21.4605 42.3902 21.4494 42.3794C21.4384 42.3686 21.4314 42.3543 21.4297 42.339C21.4244 42.2848 21.4182 42.2306 21.4119 42.1764C21.4018 42.0881 21.3903 41.9984 21.3769 41.9015C21.3745 41.884 21.3791 41.8662 21.3898 41.852C21.4006 41.8379 21.4164 41.8286 21.434 41.8262C21.4515 41.8238 21.4693 41.8285 21.4835 41.8392C21.4976 41.8499 21.5069 41.8657 21.5093 41.8833C21.5227 41.9792 21.5342 42.0718 21.5448 42.161C21.551 42.2157 21.5573 42.2704 21.5625 42.3251C21.5636 42.3338 21.563 42.3426 21.5606 42.351ZM22.9373 37.6549C22.9333 37.6677 22.9256 37.679 22.9152 37.6874C22.9047 37.6958 22.892 37.7009 22.8786 37.702C22.8652 37.703 22.8518 37.7001 22.8402 37.6935C22.8285 37.6869 22.819 37.677 22.8131 37.665C22.7732 37.5838 22.7392 37.4997 22.7114 37.4136C22.6927 37.3556 22.6759 37.2952 22.6634 37.2338C22.6608 37.217 22.6647 37.1999 22.6742 37.1859C22.6837 37.1719 22.6981 37.162 22.7146 37.1582C22.7311 37.1543 22.7485 37.1569 22.7632 37.1653C22.7778 37.1737 22.7888 37.1874 22.7939 37.2035C22.8073 37.2611 22.8231 37.3182 22.8418 37.3729C22.8682 37.4529 22.9003 37.531 22.9378 37.6065C22.9436 37.6221 22.9434 37.6394 22.9373 37.6549ZM25.1769 29.7949C25.1748 29.8019 25.1716 29.8085 25.1673 29.8145C25.0824 29.9335 24.9985 30.0544 24.9179 30.1777C24.9081 30.1924 24.8928 30.2027 24.8755 30.2062C24.8581 30.2097 24.8401 30.2062 24.8253 30.1964C24.8106 30.1866 24.8003 30.1713 24.7968 30.154C24.7933 30.1366 24.7968 30.1185 24.8066 30.1038C24.8882 29.9805 24.9726 29.8572 25.0584 29.7368C25.0675 29.7236 25.081 29.7141 25.0965 29.7101C25.112 29.706 25.1284 29.7076 25.1428 29.7147C25.1571 29.7217 25.1685 29.7337 25.1748 29.7484C25.181 29.7631 25.1818 29.7796 25.1769 29.7949ZM21.4417 41.4736C21.4374 41.4883 21.4283 41.501 21.4159 41.5097C21.4034 41.5185 21.3884 41.5227 21.3732 41.5217C21.358 41.5207 21.3436 41.5145 21.3324 41.5042C21.3213 41.4939 21.3139 41.4801 21.3117 41.465C21.2906 41.3312 21.268 41.1974 21.246 41.0635L21.2402 41.0285C21.2387 41.0198 21.2389 41.011 21.2408 41.0024C21.2428 40.9938 21.2464 40.9857 21.2515 40.9785C21.2565 40.9713 21.263 40.9652 21.2704 40.9606C21.2779 40.9559 21.2862 40.9527 21.2949 40.9513C21.3124 40.9485 21.3303 40.9527 21.3448 40.963C21.3592 40.9734 21.3691 40.989 21.3721 41.0064L21.3779 41.0415C21.3999 41.1758 21.4225 41.3096 21.4436 41.4439C21.4454 41.4538 21.4447 41.464 21.4417 41.4736ZM24.6881 30.5345C24.6866 30.5403 24.6842 30.5458 24.6809 30.5509C24.6042 30.6751 24.5284 30.8027 24.4555 30.9293C24.4467 30.9447 24.4322 30.956 24.4151 30.9607C24.398 30.9653 24.3797 30.963 24.3644 30.9543C24.349 30.9455 24.3377 30.931 24.333 30.9139C24.3283 30.8968 24.3306 30.8785 24.3394 30.8631C24.4133 30.7346 24.4895 30.606 24.5673 30.4794C24.5756 30.4653 24.5889 30.4548 24.6045 30.4499C24.6201 30.4449 24.6369 30.4459 24.6519 30.4526C24.6668 30.4593 24.6787 30.4712 24.6854 30.4862C24.6921 30.5011 24.6931 30.518 24.6881 30.5336V30.5345ZM23.1488 35.7036C23.1455 35.7147 23.1394 35.7248 23.131 35.7328C23.1225 35.7408 23.1122 35.7464 23.1009 35.7491C22.9901 35.7792 22.8819 35.8183 22.7776 35.8662C22.7776 35.8801 22.7737 35.894 22.7723 35.9079C22.7697 35.9243 22.7612 35.9391 22.7484 35.9495C22.7356 35.9599 22.7193 35.9653 22.7028 35.9645C22.6863 35.9637 22.6707 35.9569 22.6589 35.9453C22.6471 35.9337 22.64 35.9182 22.6389 35.9017C22.6271 35.8953 22.6176 35.8854 22.6116 35.8734C22.6037 35.8577 22.6024 35.8395 22.6079 35.8228C22.6133 35.806 22.6252 35.7922 22.6409 35.7842L22.6548 35.777L22.6576 35.7578C22.6716 35.6561 22.6874 35.5525 22.7056 35.4508C22.7087 35.4334 22.7184 35.4179 22.7328 35.4076C22.7471 35.3973 22.7649 35.393 22.7824 35.3956C22.791 35.397 22.7993 35.4001 22.8068 35.4047C22.8143 35.4094 22.8208 35.4154 22.8259 35.4225C22.831 35.4297 22.8347 35.4377 22.8367 35.4463C22.8387 35.4548 22.839 35.4637 22.8375 35.4724C22.8246 35.5515 22.8121 35.6316 22.8006 35.7122C22.8876 35.6764 22.9769 35.6461 23.0678 35.6216C23.0793 35.6184 23.0914 35.6184 23.1029 35.6215C23.1144 35.6246 23.1248 35.6307 23.1332 35.6392C23.1415 35.6478 23.1474 35.6584 23.1502 35.6699C23.1531 35.6815 23.1527 35.6936 23.1493 35.705L23.1488 35.7036ZM22.7286 36.802C22.7239 36.8169 22.7142 36.8296 22.7011 36.8381C22.688 36.8465 22.6723 36.8502 22.6568 36.8484C22.6414 36.8465 22.627 36.8394 22.6162 36.8281C22.6054 36.8169 22.5989 36.8022 22.5977 36.7867C22.5888 36.6367 22.5888 36.4863 22.5977 36.3363C22.5987 36.3186 22.6067 36.302 22.6199 36.2903C22.6332 36.2785 22.6505 36.2724 22.6682 36.2734C22.6859 36.2745 22.7024 36.2825 22.7142 36.2957C22.726 36.3089 22.7321 36.3263 22.731 36.3439C22.7226 36.4887 22.7226 36.6338 22.731 36.7785C22.7315 36.7865 22.7306 36.7944 22.7286 36.802ZM24.2473 31.303C24.2461 31.3073 24.2445 31.3115 24.2425 31.3155C24.1739 31.4445 24.1063 31.5764 24.042 31.7078C24.0342 31.7237 24.0205 31.7359 24.0038 31.7417C23.987 31.7474 23.9687 31.7463 23.9528 31.7385C23.9369 31.7308 23.9247 31.717 23.919 31.7003C23.9132 31.6836 23.9143 31.6652 23.9221 31.6493C23.9868 31.5164 24.055 31.3831 24.124 31.2526C24.1313 31.2372 24.1442 31.2251 24.1602 31.2189C24.1761 31.2127 24.1938 31.2128 24.2096 31.2193C24.2254 31.2258 24.2381 31.238 24.2451 31.2536C24.2522 31.2692 24.2529 31.2869 24.2473 31.303ZM23.8578 32.0983C23.8569 32.1013 23.8558 32.1041 23.8545 32.1069C23.7945 32.2398 23.736 32.376 23.6798 32.5113C23.6765 32.5194 23.6716 32.5268 23.6654 32.533C23.6592 32.5392 23.6519 32.5441 23.6438 32.5474C23.6357 32.5508 23.6271 32.5525 23.6183 32.5526C23.6096 32.5526 23.6009 32.5509 23.5928 32.5475C23.5847 32.5442 23.5773 32.5393 23.5711 32.5331C23.5649 32.5269 23.56 32.5196 23.5566 32.5115C23.5533 32.5034 23.5515 32.4947 23.5515 32.486C23.5515 32.4772 23.5532 32.4686 23.5566 32.4605C23.6127 32.3238 23.6722 32.1861 23.7326 32.0518C23.7397 32.0362 23.7524 32.0239 23.7683 32.0174C23.7841 32.0109 23.8018 32.0107 23.8178 32.0168C23.8338 32.0229 23.8468 32.0349 23.8543 32.0503C23.8617 32.0657 23.863 32.0834 23.8578 32.0997V32.0983ZM21.2978 40.5992C21.2944 40.6116 21.2876 40.6227 21.2781 40.6312C21.2685 40.6397 21.2567 40.6453 21.244 40.6472C21.2354 40.6485 21.2265 40.6482 21.218 40.6461C21.2095 40.6441 21.2014 40.6403 21.1944 40.6352C21.1873 40.63 21.1813 40.6235 21.1767 40.616C21.1721 40.6085 21.1691 40.6002 21.1678 40.5915C21.1419 40.4284 21.1198 40.2845 21.1035 40.1521C21.1023 40.1434 21.1029 40.1346 21.1051 40.1261C21.1074 40.1176 21.1113 40.1097 21.1166 40.1027C21.1219 40.0958 21.1286 40.0899 21.1362 40.0855C21.1437 40.0811 21.1521 40.0782 21.1608 40.0771C21.1695 40.0759 21.1783 40.0765 21.1868 40.0787C21.1953 40.081 21.2032 40.0849 21.2102 40.0902C21.2172 40.0955 21.223 40.1021 21.2274 40.1097C21.2318 40.1173 21.2347 40.1257 21.2359 40.1344C21.2536 40.2658 21.2743 40.4088 21.2997 40.5709C21.3013 40.5803 21.3006 40.59 21.2978 40.5992ZM22.9138 35.0445C22.9095 35.0617 22.8986 35.0764 22.8835 35.0856C22.8683 35.0947 22.8501 35.0974 22.833 35.0932C22.8158 35.0889 22.801 35.078 22.7919 35.0629C22.7828 35.0477 22.78 35.0295 22.7843 35.0124C22.8126 34.8685 22.8442 34.7217 22.8778 34.5773C22.8798 34.5688 22.8835 34.5607 22.8886 34.5536C22.8937 34.5464 22.9001 34.5404 22.9075 34.5358C22.915 34.5311 22.9233 34.528 22.9319 34.5266C22.9405 34.5251 22.9494 34.5254 22.9579 34.5274C22.9665 34.5294 22.9745 34.533 22.9817 34.5381C22.9888 34.5432 22.9948 34.5497 22.9995 34.5571C23.0041 34.5646 23.0072 34.5728 23.0086 34.5815C23.0101 34.5901 23.0098 34.599 23.0078 34.6075C22.9747 34.7514 22.9435 34.8953 22.9152 35.0392L22.9138 35.0445ZM23.5196 32.9171V32.9214C23.4683 33.0586 23.4184 33.1982 23.3719 33.3368C23.3662 33.3536 23.354 33.3675 23.3381 33.3753C23.3222 33.3831 23.3038 33.3843 23.287 33.3786C23.2702 33.3728 23.2564 33.3607 23.2485 33.3448C23.2407 33.3288 23.2395 33.3105 23.2453 33.2937C23.2932 33.1541 23.3412 33.0131 23.3944 32.8744C23.4001 32.8576 23.4122 32.8438 23.4281 32.8359C23.444 32.828 23.4623 32.8268 23.4791 32.8325C23.4959 32.8381 23.5098 32.8502 23.5176 32.8661C23.5255 32.882 23.5267 32.9003 23.5211 32.9171H23.5196ZM23.1143 34.182C23.1095 34.1991 23.0981 34.2135 23.0826 34.2221C23.0671 34.2308 23.0488 34.2329 23.0318 34.2281C23.0148 34.2232 23.0003 34.2118 22.9917 34.1964C22.9831 34.1809 22.9809 34.1626 22.9858 34.1456C23.0241 34.0017 23.0649 33.8578 23.1076 33.7177C23.1127 33.7007 23.1243 33.6864 23.1399 33.678C23.1555 33.6696 23.1738 33.6678 23.1908 33.6728C23.2078 33.6779 23.2221 33.6896 23.2305 33.7052C23.2389 33.7208 23.2408 33.7391 23.2357 33.7561C23.1935 33.8961 23.1527 34.0381 23.1148 34.1796L23.1143 34.182ZM22.3612 36.0974C22.3572 36.111 22.349 36.1229 22.3377 36.1315C22.2232 36.2185 22.116 36.3147 22.0173 36.4193C22.0116 36.4266 22.0044 36.4327 21.9961 36.4371C21.9879 36.4415 21.9789 36.4442 21.9695 36.4449C21.9602 36.4455 21.9509 36.4443 21.9421 36.4411C21.9333 36.438 21.9253 36.433 21.9186 36.4266C21.9118 36.4201 21.9065 36.4124 21.9029 36.4037C21.8994 36.3951 21.8977 36.3858 21.898 36.3765C21.8982 36.3672 21.9004 36.358 21.9045 36.3496C21.9085 36.3412 21.9142 36.3337 21.9213 36.3276C22.0247 36.2172 22.137 36.1155 22.2571 36.0235C22.2684 36.0152 22.282 36.0105 22.296 36.0103C22.3101 36.0101 22.3238 36.0143 22.3354 36.0223C22.3469 36.0302 22.3557 36.0417 22.3604 36.0549C22.3651 36.0681 22.3656 36.0825 22.3617 36.096L22.3612 36.0974ZM21.1831 39.7214C21.1793 39.7342 21.1717 39.7456 21.1614 39.7542C21.151 39.7627 21.1384 39.768 21.1251 39.7693C21.1163 39.7701 21.1075 39.7692 21.0992 39.7666C21.0908 39.764 21.0831 39.7598 21.0763 39.7541C21.0696 39.7485 21.064 39.7416 21.06 39.7339C21.0559 39.7261 21.0534 39.7176 21.0526 39.7089L21.0488 39.6672C21.0363 39.5295 21.0272 39.3938 21.0224 39.2633C21.022 39.2545 21.0233 39.2458 21.0263 39.2375C21.0292 39.2293 21.0338 39.2217 21.0398 39.2153C21.0457 39.2089 21.0529 39.2037 21.0609 39.2001C21.0688 39.1964 21.0775 39.1945 21.0862 39.1942C21.095 39.1938 21.1038 39.1951 21.112 39.198C21.1203 39.201 21.1279 39.2056 21.1344 39.2115C21.1408 39.2175 21.1461 39.2246 21.1497 39.2326C21.1534 39.2406 21.1555 39.2492 21.1558 39.258C21.1606 39.3861 21.1697 39.5199 21.1817 39.6552L21.1855 39.6964C21.1865 39.7048 21.1858 39.7133 21.1836 39.7214H21.1831ZM21.15 38.8364C21.1453 38.8518 21.1353 38.865 21.1216 38.8735C21.108 38.8821 21.0917 38.8854 21.0758 38.8829C21.0599 38.8804 21.0454 38.8722 21.0351 38.8598C21.0248 38.8475 21.0192 38.8318 21.0195 38.8157C21.0239 38.6622 21.0339 38.5116 21.0498 38.3682C21.0507 38.3595 21.0534 38.351 21.0577 38.3433C21.0619 38.3357 21.0676 38.3289 21.0745 38.3234C21.0813 38.3179 21.0892 38.3138 21.0976 38.3114C21.1061 38.309 21.1149 38.3082 21.1236 38.3092C21.1324 38.3102 21.1408 38.3129 21.1485 38.3171C21.1562 38.3213 21.163 38.3271 21.1684 38.3339C21.1739 38.3408 21.178 38.3486 21.1804 38.3571C21.1829 38.3655 21.1836 38.3743 21.1826 38.3831C21.1673 38.5227 21.1572 38.6709 21.1529 38.8196C21.1531 38.8253 21.1523 38.831 21.1505 38.8364H21.15ZM21.7549 36.7382C21.753 36.745 21.7499 36.7513 21.7458 36.757C21.6639 36.876 21.591 37.0009 21.5275 37.1306C21.5198 37.1465 21.506 37.1587 21.4893 37.1645C21.4725 37.1702 21.4542 37.1691 21.4383 37.1613C21.4224 37.1536 21.4102 37.1398 21.4045 37.1231C21.3987 37.1063 21.3998 37.088 21.4076 37.0721C21.4737 36.9362 21.55 36.8055 21.6359 36.6812C21.6449 36.6679 21.6583 36.6583 21.6737 36.6541C21.6892 36.6499 21.7056 36.6514 21.7201 36.6583C21.7345 36.6652 21.746 36.6771 21.7524 36.6918C21.7588 36.7065 21.7597 36.723 21.7549 36.7382ZM21.2498 37.9576C21.2455 37.9748 21.2345 37.9895 21.2193 37.9986C21.2041 38.0077 21.1859 38.0104 21.1687 38.006C21.1515 38.0017 21.1368 37.9907 21.1277 37.9755C21.1186 37.9603 21.1159 37.9422 21.1203 37.925C21.1428 37.8175 21.1682 37.712 21.1999 37.6103C21.2119 37.57 21.2248 37.5297 21.2378 37.4904C21.2406 37.4821 21.245 37.4744 21.2508 37.4678C21.2566 37.4612 21.2636 37.4558 21.2714 37.4519C21.2793 37.448 21.2878 37.4457 21.2966 37.4451C21.3054 37.4445 21.3141 37.4456 21.3225 37.4484C21.3308 37.4512 21.3385 37.4556 21.3451 37.4614C21.3517 37.4672 21.3571 37.4742 21.361 37.4821C21.3649 37.4899 21.3672 37.4985 21.3678 37.5072C21.3684 37.516 21.3672 37.5248 21.3644 37.5331C21.352 37.571 21.3395 37.6098 21.328 37.6492C21.2987 37.7451 21.2733 37.8492 21.2512 37.9528L21.2498 37.9576Z" fill="#196E7E" stroke="#176D7E" stroke-width="0.148566" stroke-miterlimit="10"/>
<path d="M25.5794 29.2605C25.5769 29.2685 25.573 29.2759 25.5679 29.2825C25.5223 29.3401 25.4767 29.3991 25.4321 29.4576C25.4271 29.4655 25.4206 29.4722 25.4129 29.4774C25.4051 29.4825 25.3964 29.4861 25.3873 29.4877C25.3781 29.4893 25.3687 29.489 25.3597 29.4869C25.3507 29.4847 25.3422 29.4807 25.3348 29.475C25.3274 29.4694 25.3212 29.4623 25.3167 29.4542C25.3122 29.446 25.3095 29.4371 25.3086 29.4278C25.3077 29.4185 25.3088 29.4092 25.3117 29.4004C25.3147 29.3916 25.3194 29.3835 25.3256 29.3766C25.3707 29.3176 25.4173 29.2581 25.4628 29.1996C25.4726 29.1876 25.4862 29.1794 25.5014 29.1763C25.5165 29.1732 25.5322 29.1754 25.5459 29.1826C25.5596 29.1897 25.5704 29.2014 25.5765 29.2156C25.5826 29.2298 25.5836 29.2456 25.5794 29.2605Z" fill="#196E7E" stroke="#176D7E" stroke-width="0.148566" stroke-miterlimit="10"/>
<path d="M28.1092 16.7279L28.7328 16.4717C29.4523 15.9383 29.0297 15.5867 28.6426 15.0835C28.9055 14.5377 29.7574 14.5895 29.8648 13.8709C29.3626 13.4982 27.8228 14.5842 27.8022 13.6584C27.7902 13.0473 29.0081 12.1714 29.4993 11.9877C29.9905 11.804 31.3581 11.7805 31.8354 12.0184C32.2071 12.204 32.4072 12.5542 32.339 12.9427C32.2647 13.3663 31.8713 13.5505 31.6675 13.9501C32.1735 14.1419 32.4307 13.5073 32.6105 13.1955C32.9103 12.6751 33.1473 12.8866 33.6418 12.6962C34.0918 12.5225 34.3762 12.1724 34.8765 12.0477C35.266 11.9517 35.704 11.8663 36.1021 11.8035C36.5569 11.7311 36.8595 11.9661 37.2759 11.9675C37.9096 11.9675 37.687 11.0418 38.3082 11.5138C38.5288 11.6817 38.3192 11.7493 38.6703 11.8831C38.8195 11.9397 39.1385 11.9791 39.3107 12.0141C40.0969 12.1743 39.7031 11.8155 39.6369 11.2994C39.5529 10.6431 40.0149 11.0562 40.4293 11.2408C40.733 11.3766 40.7349 11.2495 40.8677 11.5694C40.9853 11.8519 40.7354 11.958 41.05 12.1517C41.6506 12.5197 41.6362 11.6639 41.6362 11.3823C41.6362 10.9027 41.7321 10.6302 41.2688 10.3035C41.4127 10.1831 41.5508 9.98935 41.581 9.80083C41.1493 9.58929 41.2726 9.25495 41.0471 8.94124C40.6687 8.4136 40.4739 8.88128 40.0792 9.02615C39.6714 9.17581 39.2978 8.85442 38.9044 9.10625C38.4957 9.36768 38.4626 9.7543 37.935 9.25687C38.1643 9.08803 38.3259 8.78391 38.4689 8.53735C38.3178 8.40235 38.1797 8.25348 38.0563 8.09269C38.453 7.49837 39.1452 7.88643 39.6307 8.12771C40.1746 8.39825 40.6783 7.99675 41.1834 8.20925C41.6549 8.40688 41.5043 9.28326 42.2809 9.23385C42.7241 9.20555 42.6752 8.98393 42.7126 8.69613C42.7222 8.61938 42.6603 8.39105 42.6565 8.31238C42.656 8.30424 42.656 8.29607 42.6565 8.28792C43.1079 8.47643 43.5516 8.68605 43.99 8.9115C43.9185 9.18492 43.9056 9.56435 43.8941 9.77877C43.8849 9.9361 43.9602 10.0954 43.9305 10.2551C43.8969 10.4364 43.6379 10.517 43.753 10.7314C43.931 11.0624 45.3715 10.6355 45.6679 10.6091C46.044 10.5741 46.2689 10.5674 46.3395 10.3371C47.5894 11.2222 48.7268 12.2564 49.7265 13.4167C49.7423 13.6018 49.7586 13.7927 49.7663 13.9971C49.7826 14.436 49.7399 14.7933 50.0378 15.1819C50.21 15.4064 50.9319 15.8669 50.2968 16.1796C49.7102 16.4674 49.8171 15.652 49.7783 15.4121C49.7231 15.0802 49.3096 14.4758 49.0142 14.9588C48.5743 15.6784 50.2282 16.6142 49.3773 17.1586C49.4924 17.3956 49.7423 17.8302 49.4977 18.0638C49.1955 18.3516 48.8966 17.8422 48.616 18.283C48.2184 18.9066 48.5537 19.8626 49.326 20.0578C50.1491 20.2641 50.2628 19.0059 51.0888 19.4184C51.4145 19.581 51.5334 19.7868 51.6606 20.1797C51.7646 20.4996 51.6433 20.9879 51.9661 21.1587C52.123 20.9918 52.0702 20.7634 52.1609 20.5744C52.3566 20.7884 52.6329 21.3947 52.6314 21.6878C52.6314 22.1315 52.3129 22.5618 53.0742 22.4946C53.0406 22.3838 53.0938 22.2226 53.0862 22.1468C53.7203 22.5718 53.9899 23.1287 53.8963 23.8622C53.6862 25.4998 52.841 23.5264 52.3383 24.1183C52.0472 23.7562 52.0808 23.3508 51.8788 22.9599C51.7829 22.7747 51.472 22.6332 51.4126 22.4701C51.3305 22.2466 51.5119 22.0591 51.4481 21.8499C51.1962 21.0273 49.4454 20.9208 48.7417 20.8752C48.5498 20.8627 48.3982 20.7735 48.2045 20.8603C47.873 21.0086 48.0562 21.2254 47.8466 21.4307C47.5478 21.7233 46.9981 21.5847 46.6815 21.7665C45.9221 22.2078 45.9533 23.584 45.3801 24.2536C45.0621 24.6253 44.3344 24.7736 44.2768 25.2235C44.2519 25.4154 44.4207 25.7085 44.4025 25.943C44.3862 26.1574 44.2874 26.3867 44.2946 26.6251C44.319 27.3979 44.4677 28.3381 44.579 29.1195C44.6428 29.5632 44.9287 29.8659 45.3552 30.0381C45.7068 30.182 46.2454 30.3887 46.6234 30.4419C47.1285 30.5139 47.3516 30.2889 47.638 30.7298C47.8653 31.0823 47.8778 31.6781 48.475 31.5889C48.5829 32.0954 47.8917 32.3928 47.5996 32.6825C47.225 33.0543 47.1468 33.5412 47.1679 34.0827C47.1933 34.7327 47.2158 34.8598 46.7616 35.4028C46.4066 35.8264 46.0128 36.1669 45.6132 36.554C45.2295 36.9248 44.7364 37.0702 44.4457 37.5388C44.178 37.9705 44.1344 38.4334 43.777 38.8503C43.4614 39.2177 43.1198 39.6782 42.7548 40.0015C42.3807 40.331 41.8612 40.4984 41.4683 40.8294C41.0951 41.1451 40.7905 41.6722 40.85 42.1725C40.9119 42.6963 41.322 42.693 41.8242 42.6618C42.8148 42.5999 43.6787 41.9514 44.5642 41.5686C45.4684 41.1767 46.3366 40.8491 47.1065 40.333C47.27 40.2236 47.4461 40.1252 47.6226 40.0279C45.1252 42.1469 42.1182 43.5777 38.8986 44.1791C35.6791 44.7804 32.3583 44.5313 29.2644 43.4566C26.1706 42.3819 23.4106 40.5186 21.2571 38.0508C19.1037 35.583 17.6313 32.5961 16.9854 29.3852C15.9939 24.456 16.9821 19.4362 19.7676 15.2495C21.1313 13.1869 22.8906 11.4153 24.9436 10.0372C26.9966 8.65901 29.3025 7.7017 31.7279 7.22063C31.8435 7.19761 31.9596 7.18082 32.0757 7.15971C31.9135 7.29723 31.7332 7.41183 31.5399 7.50028C31.076 7.69216 30.5944 7.5732 30.1339 7.73677C29.7142 7.88595 29.2369 8.21645 28.9323 8.49466C28.6028 8.79542 28.3654 9.26982 27.9994 9.54516C27.5341 9.89485 27.0606 9.9716 26.7628 10.5376C27.2736 11.1502 27.7499 9.83537 28.3256 10.1337C28.2143 10.6695 27.5801 11.3809 27.2256 11.8088C26.7378 12.3973 26.5104 12.4717 26.5263 13.267C26.5392 13.8968 26.4466 14.2508 26.981 14.706C27.4703 15.1224 27.5312 15.509 27.4127 16.1681C27.6751 16.4281 27.4736 16.4439 28.2282 16.7284M46.3927 9.20603C37.2975 3.1563 25.0201 5.62473 18.9699 14.7199C12.9197 23.8152 15.3891 36.0926 24.4862 42.1423C33.5833 48.192 45.8574 45.7241 51.9062 36.6289C57.9549 27.5336 55.4874 15.2562 46.3927 9.20603Z" stroke="#176D7E" stroke-width="0.25" stroke-miterlimit="10"/>
</svg>
