<svg width="195" height="195" viewBox="0 0 195 195" fill="none" xmlns="http://www.w3.org/2000/svg">
<path d="M59.0706 139.575C59.0706 144.512 55.3031 148.139 50.1066 148.139C44.9101 148.139 41.1426 144.531 41.1426 139.575C41.1426 134.638 44.9101 131.104 50.1066 131.104C55.3031 131.104 59.0706 134.665 59.0706 139.575ZM46.6899 139.598C46.6899 141.925 48.319 143.648 50.1806 143.648C52.0423 143.648 53.5324 141.925 53.5324 139.598C53.5324 137.271 52.0423 135.596 50.1806 135.596C48.2956 135.596 46.6899 137.271 46.6899 139.598Z" fill="#1DA99D"/>
<path d="M74.3596 139.645V147.766H69.1241V141.157C69.1241 140.087 68.5187 139.413 67.6106 139.413C66.5869 139.413 65.936 140.227 65.936 141.46V147.766H60.6992V135.035H65.936V136.853C66.7961 135.554 68.1225 134.806 69.7984 134.806C72.4746 134.805 74.3596 136.713 74.3596 139.645Z" fill="#1DA99D"/>
<path d="M89.2049 142.577H80.9203C81.2698 143.578 82.0142 144.09 83.0379 144.09C83.9226 144.09 84.8294 143.7 85.6219 142.949L88.3501 145.625C87.0003 147.115 85.0464 147.953 82.5793 147.953C78.2272 147.953 75.6445 145.393 75.6445 141.458C75.6445 137.43 78.3441 134.849 82.4403 134.849C86.8781 134.85 89.4842 137.877 89.2049 142.577ZM82.4793 138.342C81.5699 138.342 81.0138 139.087 80.8047 140.161H83.9694C84.0382 139.11 83.3874 138.342 82.4793 138.342Z" fill="#1DA99D"/>
<path d="M123.456 131.454L117.941 147.766H112.403L109.96 138.016L107.447 147.766H101.909L96.4395 131.454H102.21L104.841 142.158L107.447 131.454H112.706L115.364 142.158L117.947 131.454H123.456Z" fill="#1DA99D"/>
<path d="M135.043 139.527V147.765H129.901V146.392C129.157 147.417 127.953 147.997 126.317 147.997C123.619 147.997 122.059 146.415 122.059 143.995C122.059 141.482 123.758 140.156 126.995 140.109H129.901C129.878 139.226 129.204 138.713 127.923 138.713C126.969 138.713 125.503 138.992 124.061 139.527L122.891 136.036C125.056 135.246 127.29 134.803 129.175 134.803C132.857 134.805 135.043 136.527 135.043 139.527ZM129.901 143.693V142.524H128.083C127.36 142.524 126.965 142.874 126.965 143.548C126.965 144.246 127.384 144.665 128.128 144.665C128.481 144.661 128.827 144.571 129.136 144.402C129.445 144.232 129.708 143.99 129.901 143.695V143.693Z" fill="#1DA99D"/>
<path d="M139.905 152.519C138.231 152.519 136.881 152.054 135.508 151.03L137.696 147.582C138.254 148.094 138.766 148.326 139.394 148.326C139.999 148.326 140.394 148.117 140.65 147.677L140.837 147.374L135.555 135.04H140.929L143.443 142.301L145.514 135.04H150.726L145.49 148.654C144.42 151.304 142.628 152.519 139.905 152.519Z" fill="#1DA99D"/>
<path d="M66.9572 166.74C66.5351 166.746 66.1219 166.619 65.7763 166.376C65.419 166.122 65.1393 165.773 64.9682 165.37C64.7668 164.9 64.668 164.394 64.6785 163.883V154.474C64.6785 154.307 64.7446 154.148 64.8623 154.03C64.9799 153.912 65.1396 153.846 65.306 153.846C65.4724 153.846 65.632 153.912 65.7497 154.03C65.8673 154.148 65.9334 154.307 65.9334 154.474V163.883C65.9157 164.289 66.0159 164.69 66.2219 165.04C66.294 165.172 66.4001 165.283 66.5293 165.362C66.6585 165.44 66.8061 165.483 66.9572 165.485H67.369C67.4428 165.483 67.5162 165.498 67.5836 165.528C67.6511 165.558 67.7109 165.603 67.7587 165.659C67.8629 165.787 67.9161 165.948 67.9081 166.113C67.9109 166.199 67.8938 166.285 67.8579 166.364C67.8221 166.442 67.7686 166.511 67.7016 166.566C67.5495 166.687 67.359 166.749 67.165 166.74H66.9572Z" fill="#176D7E"/>
<path d="M73.2813 166.822C72.4558 166.836 71.6412 166.631 70.9207 166.228C70.2385 165.844 69.6736 165.281 69.2864 164.6C68.8958 163.872 68.6914 163.058 68.6914 162.231C68.6914 161.405 68.8958 160.591 69.2864 159.862C69.6723 159.179 70.2374 158.614 70.9207 158.228C71.6448 157.837 72.4546 157.633 73.2774 157.633C74.1001 157.633 74.9099 157.837 75.634 158.228C76.3133 158.616 76.8749 159.181 77.2592 159.862C77.6644 160.589 77.8748 161.408 77.8698 162.24C77.8839 163.066 77.6762 163.881 77.2683 164.6C76.8782 165.28 76.3142 165.844 75.634 166.234C74.9158 166.636 74.1037 166.838 73.2813 166.822ZM73.2813 165.667C73.8831 165.676 74.4761 165.522 74.9974 165.221C75.4981 164.93 75.9093 164.507 76.1861 163.999C76.4791 163.457 76.6272 162.849 76.6161 162.233C76.6268 161.615 76.4787 161.004 76.1861 160.458C75.9111 159.947 75.4996 159.521 74.9974 159.228C74.4724 158.936 73.8815 158.783 73.2806 158.783C72.6797 158.783 72.0888 158.936 71.5638 159.228C71.0605 159.522 70.6468 159.947 70.3673 160.458C70.0698 161.002 69.9189 161.614 69.9295 162.233C69.9184 162.85 70.0694 163.459 70.3673 163.999C70.6485 164.507 71.062 164.929 71.5638 165.221C72.0856 165.522 72.6791 165.676 73.2813 165.667Z" fill="#176D7E"/>
<path d="M84.3235 166.822C83.5145 166.838 82.7162 166.635 82.0124 166.236C81.3464 165.851 80.8004 165.288 80.4352 164.611C80.0467 163.879 79.8509 163.061 79.8662 162.233C79.8491 161.397 80.0545 160.57 80.4612 159.839C80.8459 159.157 81.4114 158.594 82.0955 158.212C82.8243 157.828 83.6359 157.627 84.46 157.627C85.284 157.627 86.0956 157.828 86.8244 158.212C87.504 158.595 88.0643 159.158 88.4431 159.839C88.8437 160.573 89.0507 161.397 89.0446 162.233L88.3028 162.623C88.3166 163.378 88.1406 164.125 87.7909 164.794C87.4674 165.413 86.9786 165.931 86.3788 166.289C85.7556 166.652 85.0445 166.836 84.3235 166.822ZM84.4885 170.306C83.6964 170.323 82.9112 170.156 82.1943 169.819C81.553 169.51 80.9932 169.055 80.56 168.49C80.5035 168.435 80.46 168.368 80.4328 168.293C80.4056 168.219 80.3954 168.14 80.4028 168.061C80.4116 167.984 80.4376 167.91 80.479 167.844C80.5204 167.778 80.576 167.722 80.6418 167.681C80.7107 167.632 80.7888 167.599 80.8713 167.582C80.9537 167.565 81.0388 167.565 81.1212 167.582C81.2856 167.608 81.4333 167.697 81.533 167.83C81.8671 168.236 82.2873 168.563 82.7633 168.787C83.3091 169.039 83.9048 169.162 84.5054 169.15C85.0915 169.158 85.6684 169.004 86.1722 168.704C86.6729 168.401 87.0813 167.968 87.3531 167.449C87.6557 166.863 87.8063 166.211 87.7909 165.551V163.041L88.269 162.084L89.0485 162.233V165.601C89.062 166.439 88.8574 167.267 88.4548 168.003C88.0741 168.699 87.5161 169.281 86.8374 169.692C86.1267 170.111 85.3134 170.323 84.4885 170.306ZM84.4561 165.667C85.06 165.679 85.656 165.528 86.1813 165.229C86.6786 164.941 87.0868 164.521 87.3609 164.016C87.6552 163.468 87.8033 162.855 87.7909 162.233C87.8028 161.609 87.6547 160.993 87.3609 160.442C87.0883 159.933 86.6799 159.511 86.1813 159.221C85.656 158.922 85.06 158.771 84.4561 158.783C83.8493 158.772 83.2505 158.923 82.7217 159.221C82.2194 159.509 81.8076 159.932 81.533 160.442C81.2402 160.993 81.0926 161.609 81.1043 162.233C81.0922 162.854 81.2398 163.468 81.533 164.016C81.8093 164.522 82.2208 164.942 82.7217 165.229C83.2505 165.527 83.8493 165.678 84.4561 165.667Z" fill="#176D7E"/>
<path d="M92.4155 155.992C92.2986 155.994 92.1827 155.972 92.0747 155.927C91.9668 155.883 91.8692 155.816 91.788 155.732C91.7024 155.648 91.6352 155.546 91.5905 155.435C91.5458 155.323 91.5246 155.203 91.5282 155.083C91.5228 154.961 91.5444 154.84 91.5916 154.727C91.6388 154.615 91.7103 154.515 91.801 154.433C91.9755 154.277 92.2021 154.192 92.4362 154.194C92.6654 154.194 92.8864 154.279 93.0559 154.433C93.1466 154.515 93.2181 154.615 93.2653 154.727C93.3125 154.84 93.3341 154.961 93.3288 155.083C93.3296 155.202 93.3067 155.321 93.2613 155.432C93.2159 155.542 93.1489 155.643 93.0643 155.728C92.9797 155.812 92.8791 155.879 92.7684 155.925C92.6577 155.97 92.539 155.993 92.4194 155.992H92.4155ZM92.431 166.74C92.3438 166.748 92.2559 166.736 92.1736 166.706C92.0912 166.676 92.0165 166.629 91.9545 166.567C91.8926 166.505 91.845 166.43 91.8151 166.348C91.7852 166.265 91.7737 166.178 91.7815 166.09V158.347C91.7733 158.26 91.7844 158.172 91.8141 158.089C91.8439 158.007 91.8915 157.932 91.9535 157.87C92.0156 157.808 92.0905 157.76 92.1731 157.731C92.2556 157.701 92.3437 157.69 92.431 157.698C92.5146 157.694 92.598 157.708 92.6762 157.737C92.7544 157.767 92.8257 157.812 92.8857 157.871C92.9449 157.933 92.9908 158.007 93.0205 158.088C93.0502 158.169 93.0631 158.255 93.0585 158.341V166.084C93.0633 166.17 93.0505 166.256 93.0208 166.337C92.9911 166.418 92.9451 166.492 92.8857 166.554C92.8268 166.615 92.7559 166.662 92.6777 166.694C92.5995 166.726 92.5155 166.742 92.431 166.74Z" fill="#176D7E"/>
<path d="M99.446 166.822C98.7881 166.821 98.1351 166.709 97.5142 166.492C96.9206 166.301 96.3863 165.96 95.963 165.502C95.9054 165.444 95.8619 165.374 95.8359 165.297C95.81 165.219 95.8024 165.137 95.8136 165.056C95.8386 164.887 95.9274 164.733 96.0618 164.626C96.1935 164.525 96.3584 164.478 96.5237 164.493C96.6889 164.509 96.8422 164.586 96.953 164.71C97.2366 165.031 97.5974 165.275 98.0014 165.419C98.4638 165.589 98.9534 165.673 99.446 165.667C100.26 165.667 100.849 165.527 101.213 165.246C101.379 165.132 101.516 164.981 101.613 164.804C101.711 164.628 101.766 164.431 101.774 164.23C101.774 163.834 101.587 163.506 101.213 163.248C100.839 162.99 100.222 162.791 99.3629 162.652C98.2517 162.479 97.4375 162.171 96.9205 161.728C96.4034 161.285 96.1436 160.762 96.141 160.159C96.123 159.653 96.281 159.157 96.5879 158.756C96.899 158.371 97.3104 158.079 97.7766 157.914C98.2998 157.722 98.8536 157.627 99.4109 157.633C100.066 157.617 100.717 157.747 101.317 158.013C101.826 158.245 102.271 158.596 102.616 159.036C102.667 159.098 102.705 159.169 102.727 159.246C102.75 159.322 102.756 159.403 102.746 159.482C102.734 159.561 102.704 159.636 102.659 159.702C102.614 159.767 102.555 159.822 102.486 159.863C102.348 159.94 102.188 159.966 102.033 159.937C101.863 159.91 101.709 159.826 101.595 159.698C101.336 159.39 101.008 159.15 100.637 158.996C100.238 158.84 99.8112 158.764 99.3823 158.773C98.7761 158.773 98.2919 158.896 97.9299 159.144C97.5662 159.392 97.3856 159.703 97.3856 160.077C97.3799 160.313 97.452 160.545 97.5908 160.737C97.7798 160.962 98.025 161.132 98.3015 161.232C98.756 161.408 99.2295 161.53 99.7123 161.596C100.539 161.728 101.191 161.923 101.669 162.181C102.087 162.385 102.441 162.7 102.693 163.091C102.895 163.433 103.001 163.824 102.998 164.222C103.006 164.715 102.846 165.195 102.544 165.584C102.214 165.993 101.781 166.306 101.289 166.493C100.703 166.723 100.076 166.835 99.446 166.822Z" fill="#176D7E"/>
<path d="M104.614 159.144C104.538 159.146 104.463 159.134 104.392 159.107C104.321 159.08 104.257 159.04 104.202 158.988C104.148 158.938 104.106 158.878 104.077 158.811C104.048 158.744 104.034 158.671 104.035 158.598C104.033 158.523 104.046 158.448 104.075 158.378C104.104 158.309 104.147 158.246 104.202 158.194C104.257 158.142 104.321 158.101 104.392 158.074C104.463 158.047 104.538 158.035 104.614 158.037H108.824C108.9 158.035 108.975 158.047 109.046 158.074C109.116 158.101 109.181 158.142 109.236 158.194C109.291 158.246 109.334 158.309 109.362 158.378C109.391 158.448 109.405 158.523 109.402 158.598C109.403 158.671 109.389 158.744 109.361 158.811C109.332 158.878 109.289 158.938 109.236 158.988C109.181 159.04 109.116 159.08 109.046 159.107C108.975 159.134 108.9 159.146 108.824 159.144H104.614ZM108.724 166.739C108.184 166.749 107.653 166.61 107.187 166.338C106.721 166.066 106.339 165.67 106.083 165.195C105.815 164.69 105.681 164.124 105.693 163.552V155.48C105.688 155.309 105.751 155.143 105.867 155.018C105.926 154.957 105.997 154.91 106.075 154.879C106.153 154.848 106.237 154.834 106.321 154.837C106.407 154.833 106.493 154.847 106.574 154.878C106.655 154.909 106.728 154.957 106.789 155.018C106.851 155.079 106.898 155.152 106.929 155.233C106.961 155.314 106.974 155.4 106.97 155.487V163.56C106.95 164.066 107.127 164.56 107.465 164.938C107.626 165.114 107.822 165.253 108.042 165.345C108.261 165.438 108.498 165.482 108.736 165.474H109.183C109.263 165.472 109.343 165.487 109.417 165.518C109.491 165.55 109.557 165.597 109.611 165.656C109.724 165.784 109.783 165.949 109.776 166.119C109.779 166.205 109.763 166.29 109.729 166.368C109.694 166.447 109.643 166.516 109.578 166.572C109.44 166.69 109.264 166.752 109.083 166.746L108.724 166.739Z" fill="#176D7E"/>
<path d="M112.718 155.992C112.601 155.994 112.485 155.972 112.377 155.927C112.27 155.883 112.172 155.816 112.091 155.732C112.005 155.648 111.938 155.546 111.893 155.435C111.849 155.323 111.827 155.203 111.831 155.083C111.825 154.961 111.847 154.84 111.894 154.727C111.942 154.615 112.013 154.515 112.104 154.433C112.278 154.277 112.505 154.192 112.739 154.194C112.968 154.194 113.189 154.279 113.359 154.433C113.449 154.515 113.521 154.615 113.568 154.727C113.615 154.84 113.637 154.961 113.631 155.083C113.632 155.202 113.609 155.321 113.564 155.432C113.519 155.542 113.452 155.643 113.367 155.728C113.282 155.812 113.182 155.879 113.071 155.925C112.96 155.97 112.842 155.993 112.722 155.992H112.718ZM112.734 166.74C112.647 166.747 112.56 166.734 112.478 166.704C112.397 166.674 112.323 166.626 112.262 166.564C112.2 166.502 112.153 166.428 112.124 166.346C112.094 166.264 112.083 166.177 112.091 166.09V158.347C112.083 158.261 112.094 158.173 112.123 158.091C112.152 158.009 112.199 157.935 112.261 157.873C112.322 157.811 112.396 157.763 112.478 157.733C112.56 157.703 112.647 157.691 112.734 157.698C112.817 157.694 112.901 157.708 112.979 157.737C113.057 157.767 113.128 157.812 113.188 157.871C113.248 157.933 113.293 158.007 113.323 158.088C113.353 158.169 113.366 158.255 113.361 158.341V166.084C113.366 166.17 113.353 166.256 113.324 166.337C113.294 166.418 113.248 166.492 113.188 166.554C113.129 166.615 113.059 166.662 112.98 166.694C112.902 166.726 112.818 166.742 112.734 166.74Z" fill="#176D7E"/>
<path d="M120.625 166.822C119.811 166.837 119.009 166.629 118.306 166.22C117.635 165.824 117.082 165.257 116.704 164.577C116.308 163.862 116.106 163.056 116.118 162.238C116.104 161.416 116.297 160.604 116.679 159.877C117.037 159.202 117.569 158.635 118.22 158.234C118.896 157.825 119.675 157.616 120.465 157.632C121.105 157.623 121.74 157.756 122.323 158.021C122.905 158.298 123.416 158.705 123.817 159.21C123.872 159.264 123.913 159.33 123.936 159.404C123.958 159.477 123.962 159.556 123.947 159.631C123.905 159.792 123.805 159.931 123.666 160.021C123.609 160.064 123.543 160.094 123.473 160.11C123.403 160.125 123.331 160.126 123.261 160.112C123.106 160.082 122.967 159.996 122.871 159.871C122.575 159.522 122.205 159.243 121.788 159.054C121.371 158.866 120.917 158.773 120.46 158.783C119.886 158.771 119.322 158.926 118.834 159.228C118.365 159.527 117.988 159.949 117.744 160.449C117.477 161.005 117.343 161.616 117.355 162.233C117.344 162.847 117.486 163.454 117.768 163.999C118.032 164.506 118.433 164.929 118.924 165.221C119.439 165.523 120.027 165.677 120.623 165.667C121.024 165.671 121.422 165.612 121.804 165.493C122.155 165.382 122.478 165.199 122.754 164.956C122.869 164.854 123.013 164.791 123.166 164.776C123.308 164.766 123.448 164.813 123.555 164.905C123.679 165.011 123.759 165.158 123.779 165.319C123.787 165.391 123.776 165.465 123.749 165.533C123.722 165.601 123.678 165.661 123.622 165.708C122.824 166.451 121.825 166.823 120.625 166.822Z" fill="#176D7E"/>
<path d="M129.575 166.822C128.917 166.821 128.264 166.71 127.643 166.492C127.049 166.301 126.514 165.96 126.091 165.502C126.033 165.444 125.99 165.374 125.965 165.297C125.939 165.219 125.931 165.137 125.942 165.056C125.967 164.887 126.056 164.733 126.191 164.626C126.322 164.525 126.487 164.478 126.652 164.493C126.818 164.509 126.971 164.586 127.082 164.71C127.365 165.031 127.726 165.275 128.13 165.419C128.593 165.589 129.082 165.673 129.575 165.667C130.389 165.667 130.977 165.527 131.34 165.246C131.506 165.132 131.643 164.981 131.741 164.804C131.838 164.628 131.893 164.431 131.902 164.23C131.902 163.834 131.715 163.506 131.34 163.248C130.966 162.99 130.35 162.791 129.492 162.652C128.38 162.479 127.565 162.171 127.048 161.728C126.531 161.286 126.271 160.762 126.269 160.159C126.251 159.654 126.408 159.158 126.714 158.756C127.026 158.371 127.437 158.08 127.903 157.914C128.426 157.722 128.98 157.627 129.537 157.633C130.193 157.617 130.845 157.746 131.444 158.013C131.953 158.245 132.398 158.596 132.743 159.036C132.794 159.098 132.832 159.169 132.855 159.246C132.877 159.322 132.883 159.403 132.873 159.482C132.861 159.561 132.831 159.636 132.786 159.701C132.741 159.767 132.682 159.822 132.614 159.863C132.476 159.94 132.315 159.966 132.16 159.937C131.991 159.91 131.836 159.826 131.722 159.698C131.464 159.39 131.136 159.15 130.765 158.996C130.365 158.84 129.939 158.764 129.51 158.773C128.904 158.773 128.419 158.896 128.057 159.144C127.695 159.392 127.514 159.703 127.512 160.077C127.507 160.314 127.579 160.545 127.718 160.737C127.907 160.962 128.153 161.132 128.429 161.232C128.884 161.408 129.357 161.53 129.84 161.596C130.664 161.728 131.317 161.923 131.796 162.181C132.214 162.386 132.568 162.7 132.82 163.091C133.022 163.434 133.127 163.825 133.125 164.222C133.133 164.715 132.973 165.195 132.671 165.584C132.341 165.993 131.908 166.306 131.417 166.493C130.831 166.723 130.205 166.835 129.575 166.822Z" fill="#176D7E"/>
<path d="M111.562 82.1663C97.8302 82.1663 111.562 98.7016 111.562 98.7016C111.562 98.7016 125.293 82.1663 111.562 82.1663ZM111.562 92.6256C110.644 92.6258 109.747 92.3539 108.984 91.8442C108.22 91.3344 107.625 90.6098 107.274 89.7618C106.922 88.9139 106.83 87.9808 107.009 87.0806C107.188 86.1803 107.63 85.3533 108.279 84.7042C108.928 84.0551 109.755 83.613 110.655 83.4338C111.555 83.2547 112.488 83.3465 113.336 83.6977C114.184 84.0489 114.909 84.6437 115.419 85.4068C115.929 86.17 116.201 87.0672 116.201 87.9851C116.202 88.5946 116.082 89.1983 115.849 89.7616C115.616 90.3249 115.275 90.8368 114.844 91.268C114.413 91.6992 113.901 92.0413 113.338 92.2747C112.775 92.5081 112.172 92.6282 111.562 92.6282V92.6256Z" fill="#1DA99D"/>
<path d="M111.563 83.98C110.77 83.9797 109.995 84.2145 109.336 84.6547C108.677 85.0948 108.163 85.7205 107.86 86.4527C107.557 87.1848 107.477 87.9905 107.632 88.7678C107.786 89.5451 108.168 90.2592 108.728 90.8196C109.289 91.38 110.003 91.7616 110.78 91.9161C111.557 92.0707 112.363 91.9912 113.095 91.6878C113.827 91.3844 114.453 90.8707 114.893 90.2116C115.333 89.5525 115.568 88.7777 115.568 87.9852C115.568 86.923 115.146 85.9042 114.395 85.1531C113.644 84.402 112.625 83.98 111.563 83.98ZM111.563 91.3461C110.898 91.3458 110.248 91.1485 109.696 90.779C109.143 90.4096 108.713 89.8846 108.458 89.2705C108.204 88.6563 108.138 87.9806 108.268 87.3287C108.398 86.6769 108.718 86.0782 109.188 85.6083C109.658 85.1384 110.257 84.8184 110.909 84.6888C111.561 84.5593 112.236 84.6259 112.85 84.8803C113.464 85.1347 113.989 85.5655 114.358 86.1182C114.728 86.6708 114.925 87.3206 114.925 87.9852C114.924 88.8767 114.57 89.7315 113.939 90.3618C113.309 90.992 112.454 91.3461 111.563 91.3461Z" fill="#1DA99D"/>
<path d="M113.12 101.93C113.12 102.239 113.028 102.54 112.857 102.796C112.686 103.053 112.442 103.253 112.158 103.371C111.873 103.489 111.559 103.519 111.257 103.459C110.954 103.399 110.677 103.251 110.459 103.033C110.241 102.815 110.092 102.537 110.032 102.234C109.972 101.932 110.003 101.619 110.121 101.334C110.239 101.049 110.438 100.805 110.695 100.634C110.951 100.463 111.253 100.371 111.561 100.371C111.974 100.371 112.371 100.536 112.663 100.828C112.956 101.12 113.12 101.517 113.12 101.93Z" fill="#1DA99D"/>
<path d="M99.2782 86.7002C99.9942 85.9397 100.498 85.0043 100.738 83.9877C100.978 82.9712 100.947 81.9094 100.648 80.9087L94.426 60.1381C94.2133 59.4295 94.1891 58.6776 94.3559 57.9567C94.5226 57.2358 94.8746 56.5709 95.3769 56.0277L100.988 49.9529C102.387 48.4397 103.425 46.63 104.027 44.659L104.416 43.3793C104.487 43.1487 104.492 42.9027 104.431 42.6693C104.369 42.436 104.243 42.2246 104.067 42.0595C103.891 41.8943 103.672 41.7818 103.435 41.735C103.198 41.6881 102.953 41.7087 102.727 41.7944L101.474 42.2608C99.5433 42.981 97.7999 44.1271 96.3734 45.6138L90.6494 51.5898C90.1373 52.1238 89.4948 52.5151 88.7854 52.7251C88.076 52.9352 87.3241 52.9567 86.6039 52.7876L65.5007 47.8315C64.4839 47.5924 63.4221 47.6252 62.4219 47.9264C61.4217 48.2276 60.5184 48.7868 59.8027 49.5476C68.7836 51.9198 77.9399 57.0722 81.675 59.3158C81.7941 59.3876 81.8956 59.4853 81.9718 59.6016C82.048 59.718 82.0971 59.85 82.1153 59.9879C82.1335 60.1258 82.1205 60.2661 82.0771 60.3982C82.0337 60.5304 81.9611 60.6511 81.8646 60.7513L80.2875 59.89C79.9173 59.6867 79.4839 59.6309 79.0743 59.7338C78.6647 59.8366 78.3091 60.0906 78.079 60.4447L76.7967 62.4207C76.6231 62.6878 76.5431 63.0049 76.5694 63.3223C76.5966 63.6532 76.5085 63.9832 76.3199 64.2564L75.8405 64.9527L76.6005 64.385C76.8366 64.2083 77.1216 64.1089 77.4164 64.1005L77.914 64.0849L78.7116 64.0459L77.4982 65.3113C76.719 66.1247 76.0458 67.0335 75.495 68.0161L72.7252 72.9606L66.8934 70.4922C66.2865 70.2367 65.6111 70.1938 64.9767 70.3704C64.3423 70.547 63.7862 70.9329 63.3987 71.4653L62.1918 73.123L70.6427 76.6709L69.8723 78.048C69.8446 78.0963 69.834 78.1526 69.8421 78.2077C69.8503 78.2628 69.8767 78.3136 69.9172 78.3518C69.9577 78.3901 70.0099 78.4136 70.0654 78.4186C70.1209 78.4235 70.1764 78.4097 70.2231 78.3793L71.5508 77.5258L75.6028 85.7428L77.1968 84.4268C77.7019 84.0098 78.052 83.4352 78.1911 82.7953C78.3301 82.1553 78.2499 81.4872 77.9633 80.8983L75.1832 75.1821L79.8977 72.1564C80.8454 71.5475 81.7119 70.8206 82.4765 69.9934L83.6665 68.7046L83.6756 69.5036L83.6912 70.0012C83.7005 70.2959 83.6184 70.5864 83.4561 70.8326L82.9364 71.6264L83.6029 71.1067C83.8643 70.9026 84.1884 70.7952 84.5201 70.8027C84.8385 70.8095 85.1501 70.7103 85.4061 70.5208L87.3028 69.1139C87.6424 68.8626 87.8743 68.4922 87.9522 68.0771C88.03 67.6619 87.9479 67.2326 87.7224 66.8755L86.7624 65.3542C86.8564 65.2516 86.9723 65.1716 87.1016 65.1201C87.2308 65.0687 87.37 65.0471 87.5088 65.0569C87.6476 65.0668 87.7824 65.1079 87.903 65.1771C88.0237 65.2464 88.1272 65.342 88.2057 65.4568C90.6689 69.0528 96.3669 77.8791 99.2782 86.7002Z" fill="#1DA99D"/>
<path d="M68.6257 101.601C68.5946 101.708 68.5582 101.816 68.5179 101.92C68.5002 101.964 68.4656 102 68.4215 102.019C68.3775 102.039 68.3276 102.04 68.2828 102.022C68.2605 102.014 68.2402 102.001 68.223 101.984C68.2058 101.968 68.192 101.948 68.1824 101.926C68.1729 101.904 68.1678 101.881 68.1674 101.857C68.167 101.833 68.1713 101.809 68.1801 101.787C68.3191 101.433 68.3998 101.059 68.4192 100.679C68.4202 100.655 68.4259 100.632 68.4359 100.61C68.4459 100.589 68.4601 100.57 68.4776 100.554C68.4951 100.537 68.5156 100.525 68.5379 100.517C68.5602 100.509 68.5838 100.505 68.6076 100.506C68.6313 100.507 68.6546 100.513 68.6761 100.523C68.6976 100.533 68.7169 100.547 68.733 100.565C68.749 100.582 68.7615 100.603 68.7696 100.625C68.7777 100.647 68.7814 100.671 68.7803 100.695C68.7661 101.002 68.7142 101.307 68.6257 101.601ZM67.9281 102.942C67.9217 102.964 67.9111 102.985 67.8969 103.003C67.6406 103.334 67.3337 103.622 66.9875 103.857C66.9678 103.87 66.9457 103.879 66.9224 103.884C66.8992 103.888 66.8752 103.888 66.8519 103.884C66.8287 103.879 66.8065 103.87 66.7868 103.857C66.767 103.844 66.75 103.827 66.7368 103.807C66.7236 103.788 66.7144 103.765 66.7097 103.742C66.705 103.719 66.705 103.695 66.7096 103.672C66.7141 103.648 66.7233 103.626 66.7364 103.606C66.7496 103.587 66.7665 103.57 66.7862 103.556C67.1024 103.342 67.383 103.079 67.6176 102.777C67.6326 102.758 67.6512 102.742 67.6724 102.73C67.6937 102.718 67.7171 102.71 67.7413 102.708C67.7655 102.705 67.79 102.707 67.8133 102.714C67.8367 102.72 67.8585 102.732 67.8774 102.747C67.9043 102.771 67.9234 102.802 67.9325 102.837C67.9415 102.872 67.94 102.908 67.9281 102.942ZM68.605 99.5643C68.5965 99.5921 68.5814 99.6175 68.5611 99.6382C68.5407 99.659 68.5157 99.6747 68.488 99.6838C68.4655 99.6915 68.4417 99.6946 68.418 99.6931C68.3942 99.6915 68.371 99.6852 68.3498 99.6745C68.3285 99.6639 68.3095 99.6491 68.294 99.6311C68.2785 99.613 68.2667 99.5921 68.2594 99.5695C68.1393 99.2078 67.964 98.8668 67.7397 98.5587C67.7257 98.5395 67.7157 98.5178 67.7101 98.4947C67.7045 98.4716 67.7035 98.4476 67.7072 98.4242C67.7109 98.4007 67.7192 98.3782 67.7315 98.3579C67.7439 98.3377 67.7602 98.32 67.7794 98.306C67.7986 98.2921 67.8203 98.282 67.8434 98.2764C67.8665 98.2708 67.8904 98.2698 67.9139 98.2735C67.9374 98.2772 67.9599 98.2855 67.9802 98.2978C68.0004 98.3102 68.0181 98.3265 68.032 98.3457C68.2801 98.6835 68.4743 99.0578 68.6076 99.4551C68.6159 99.489 68.615 99.5244 68.605 99.5578V99.5643ZM65.9625 104.241C65.9546 104.273 65.9383 104.301 65.9155 104.324C65.8926 104.347 65.864 104.363 65.8326 104.371C65.4699 104.452 65.0953 104.463 64.7283 104.405C64.6738 104.396 64.6205 104.387 64.5673 104.375C64.544 104.37 64.5219 104.361 64.5022 104.347C64.4826 104.334 64.4657 104.317 64.4527 104.297C64.4397 104.277 64.4307 104.255 64.4263 104.231C64.4219 104.208 64.4221 104.184 64.4269 104.161C64.4318 104.137 64.4412 104.115 64.4546 104.096C64.468 104.076 64.4852 104.059 64.5051 104.046C64.525 104.033 64.5472 104.024 64.5706 104.02C64.594 104.015 64.618 104.015 64.6413 104.02L64.7855 104.048C65.1076 104.099 65.4363 104.088 65.7547 104.018C65.7779 104.013 65.8019 104.012 65.8253 104.016C65.8487 104.02 65.871 104.029 65.8911 104.042C65.9111 104.055 65.9284 104.071 65.942 104.091C65.9556 104.11 65.9652 104.132 65.9703 104.155C65.9742 104.182 65.9715 104.209 65.9625 104.235V104.241ZM67.2227 97.6441C67.2157 97.6661 67.2052 97.6867 67.1915 97.7052C67.1766 97.7245 67.1579 97.7405 67.1366 97.7525C67.1153 97.7644 67.0919 97.7719 67.0676 97.7745C67.0434 97.7772 67.0189 97.775 66.9955 97.768C66.9722 97.761 66.9505 97.7493 66.9317 97.7338C66.629 97.4941 66.2988 97.2914 65.9482 97.1297C65.9083 97.1072 65.8784 97.0704 65.8644 97.0268C65.8504 96.9832 65.8534 96.9359 65.8728 96.8944C65.8921 96.8529 65.9264 96.8202 65.9689 96.8029C66.0113 96.7856 66.0586 96.7849 66.1015 96.801C66.4774 96.9754 66.8315 97.1934 67.1564 97.4506C67.1845 97.4719 67.2058 97.5009 67.2176 97.5342C67.2293 97.5674 67.2311 97.6034 67.2227 97.6376V97.6441ZM57.8468 124.234C57.8337 124.28 57.8028 124.319 57.7609 124.342C57.719 124.366 57.6695 124.371 57.6234 124.358C57.5772 124.345 57.5381 124.314 57.5147 124.272C57.4914 124.23 57.4856 124.181 57.4987 124.135C57.5974 123.771 57.687 123.383 57.7585 122.98C57.7679 122.933 57.7954 122.892 57.835 122.865C57.8745 122.838 57.9231 122.827 57.9703 122.836C57.9937 122.84 58.016 122.849 58.0359 122.862C58.0558 122.875 58.073 122.892 58.0864 122.912C58.0998 122.931 58.1092 122.953 58.114 122.977C58.1188 123 58.119 123.024 58.1145 123.047C58.0352 123.459 57.9443 123.857 57.8429 124.23L57.8468 124.234ZM57.4792 125.375V125.387C57.3358 125.768 57.1706 126.141 56.9842 126.503C56.9605 126.543 56.9223 126.572 56.8777 126.585C56.833 126.598 56.7852 126.593 56.744 126.571C56.7028 126.55 56.6713 126.514 56.6561 126.47C56.6409 126.426 56.643 126.378 56.662 126.336C56.8422 125.987 57.0019 125.627 57.1401 125.26C57.1573 125.215 57.1915 125.179 57.2353 125.159C57.2791 125.139 57.329 125.138 57.3739 125.155C57.4162 125.171 57.4506 125.203 57.4701 125.244C57.4896 125.285 57.4929 125.332 57.4792 125.375ZM58.3054 121.881C58.3005 121.904 58.291 121.926 58.2776 121.946C58.2641 121.965 58.2469 121.982 58.227 121.995C58.2071 122.008 58.1849 122.016 58.1615 122.021C58.1382 122.025 58.1143 122.025 58.0911 122.02C58.0679 122.015 58.0459 122.005 58.0263 121.992C58.0068 121.978 57.9901 121.961 57.9772 121.941C57.9643 121.921 57.9554 121.899 57.9511 121.876C57.9468 121.853 57.9471 121.829 57.9521 121.805C57.9793 121.601 58.004 121.39 58.0274 121.174C58.0456 120.992 58.0638 120.806 58.0807 120.621C58.0884 120.576 58.1128 120.535 58.149 120.507C58.1853 120.479 58.2307 120.466 58.2763 120.47C58.3218 120.474 58.3642 120.495 58.3949 120.529C58.4255 120.563 58.4423 120.607 58.4418 120.653C58.4249 120.84 58.4068 121.029 58.3873 121.213C58.3639 121.43 58.3379 121.646 58.3106 121.854C58.3095 121.863 58.3078 121.872 58.3054 121.881ZM63.6721 103.779C63.6669 103.795 63.6599 103.811 63.6514 103.825C63.625 103.866 63.584 103.894 63.5371 103.904C63.4903 103.914 63.4412 103.906 63.4006 103.88C63.0499 103.652 62.7343 103.373 62.464 103.054C62.436 103.017 62.4233 102.97 62.4285 102.924C62.4336 102.878 62.4561 102.836 62.4914 102.806C62.5268 102.776 62.5723 102.76 62.6186 102.763C62.6649 102.765 62.7086 102.785 62.7407 102.819C62.987 103.112 63.2755 103.366 63.5968 103.575C63.6297 103.596 63.6547 103.627 63.6683 103.664C63.6819 103.701 63.6832 103.741 63.6721 103.779ZM56.371 127.496C56.3647 127.514 56.356 127.532 56.345 127.549C56.2255 127.715 56.1008 127.879 55.9709 128.035C55.841 128.191 55.702 128.344 55.5552 128.489C55.5384 128.507 55.5183 128.521 55.4959 128.531C55.4736 128.54 55.4495 128.545 55.4252 128.545C55.4009 128.545 55.3769 128.54 55.3546 128.531C55.3322 128.521 55.3121 128.507 55.2953 128.489C55.2781 128.473 55.2643 128.452 55.2549 128.43C55.2456 128.408 55.2407 128.384 55.2407 128.36C55.2407 128.335 55.2456 128.311 55.2549 128.289C55.2643 128.267 55.2781 128.247 55.2953 128.23C55.4323 128.093 55.5624 127.949 55.6851 127.8C55.8085 127.652 55.928 127.494 56.041 127.335C56.0661 127.3 56.1027 127.275 56.1443 127.264C56.1859 127.254 56.2298 127.259 56.2684 127.277C56.3069 127.296 56.3376 127.328 56.3549 127.367C56.3723 127.406 56.3752 127.451 56.3632 127.492L56.371 127.496ZM58.5172 119.492C58.5057 119.535 58.4783 119.573 58.4405 119.597C58.4026 119.622 58.357 119.631 58.3126 119.624C58.2682 119.616 58.2281 119.592 58.2004 119.557C58.1726 119.521 58.1591 119.477 58.1625 119.432C58.182 119.042 58.195 118.636 58.1989 118.239C58.2027 118.194 58.2235 118.152 58.2571 118.121C58.2906 118.09 58.3345 118.073 58.3801 118.073C58.4257 118.073 58.4696 118.09 58.5032 118.121C58.5367 118.152 58.5575 118.194 58.5614 118.239C58.5614 118.639 58.5445 119.045 58.525 119.445C58.5241 119.461 58.5215 119.476 58.5172 119.492ZM65.0687 96.6269C65.0567 96.6716 65.0281 96.7099 64.9887 96.7341C64.9493 96.7582 64.9022 96.7664 64.857 96.7568C64.4796 96.6766 64.0942 96.6408 63.7085 96.6503C63.6605 96.6514 63.614 96.6334 63.5792 96.6003C63.5444 96.5672 63.5241 96.5216 63.5227 96.4736C63.5219 96.4499 63.5257 96.4262 63.5341 96.4039C63.5425 96.3817 63.5552 96.3613 63.5715 96.344C63.5879 96.3267 63.6075 96.3128 63.6292 96.3032C63.6509 96.2936 63.6744 96.2883 63.6981 96.2878C64.1126 96.2774 64.5269 96.3162 64.9323 96.4035C64.9556 96.4082 64.9777 96.4176 64.9973 96.431C65.017 96.4444 65.0338 96.4616 65.0467 96.4815C65.0596 96.5015 65.0685 96.5238 65.0727 96.5472C65.0769 96.5706 65.0765 96.5946 65.0713 96.6178C65.071 96.6222 65.0701 96.6266 65.0687 96.6308V96.6269ZM58.5458 117.093C58.5342 117.135 58.5078 117.172 58.4714 117.196C58.4351 117.22 58.3913 117.23 58.3481 117.225C58.3048 117.219 58.2651 117.198 58.2363 117.165C58.2074 117.132 58.1914 117.09 58.1911 117.047C58.1807 116.65 58.1625 116.249 58.1365 115.855C58.1336 115.831 58.1357 115.806 58.1427 115.782C58.1498 115.758 58.1616 115.736 58.1774 115.717C58.1933 115.698 58.2129 115.683 58.235 115.671C58.2571 115.66 58.2813 115.654 58.3061 115.652C58.3308 115.651 58.3556 115.654 58.3789 115.663C58.4022 115.671 58.4235 115.684 58.4416 115.701C58.4597 115.718 58.4741 115.739 58.484 115.761C58.4938 115.784 58.4989 115.809 58.499 115.833C58.5237 116.231 58.5419 116.636 58.5523 117.038C58.5535 117.056 58.5513 117.075 58.5458 117.093ZM54.6795 129.175C54.6671 129.215 54.642 129.249 54.6081 129.273C54.2695 129.506 53.9108 129.708 53.5363 129.877C53.4951 129.886 53.4519 129.881 53.4142 129.862C53.3764 129.843 53.3466 129.811 53.3296 129.772C53.3127 129.734 53.3098 129.69 53.3215 129.649C53.3331 129.609 53.3585 129.573 53.3934 129.55C53.7482 129.39 54.0878 129.199 54.408 128.978C54.4276 128.964 54.4497 128.955 54.473 128.95C54.4963 128.945 54.5203 128.945 54.5438 128.949C54.5672 128.953 54.5895 128.962 54.6095 128.975C54.6295 128.988 54.6466 129.005 54.6601 129.025C54.6745 129.047 54.6837 129.073 54.6871 129.1C54.6904 129.127 54.6879 129.154 54.6795 129.179V129.175ZM58.3925 114.7C58.3803 114.74 58.3547 114.775 58.3199 114.798C58.2852 114.822 58.2436 114.832 58.2019 114.828C58.1603 114.825 58.1212 114.807 58.0913 114.777C58.0615 114.748 58.0425 114.71 58.0378 114.668C58.0235 114.521 58.0066 114.374 57.9897 114.228C57.9625 113.989 57.9313 113.746 57.8949 113.483C57.8884 113.436 57.901 113.387 57.93 113.349C57.9589 113.311 58.0019 113.286 58.0495 113.279C58.097 113.273 58.1452 113.285 58.1835 113.314C58.2217 113.343 58.2469 113.386 58.2535 113.434C58.2898 113.694 58.321 113.944 58.3496 114.186C58.3665 114.334 58.3834 114.482 58.3977 114.63C58.4006 114.654 58.3988 114.678 58.3925 114.7ZM62.121 101.982C62.1102 102.017 62.0893 102.047 62.061 102.07C62.0326 102.093 61.9982 102.106 61.962 102.109C61.9258 102.112 61.8895 102.104 61.8579 102.086C61.8263 102.069 61.8007 102.042 61.7845 102.009C61.6765 101.789 61.5845 101.562 61.5091 101.328C61.4584 101.171 61.413 101.008 61.3792 100.841C61.3722 100.796 61.3827 100.75 61.4084 100.712C61.4341 100.674 61.4732 100.647 61.5179 100.637C61.5626 100.626 61.6095 100.633 61.6493 100.656C61.6891 100.679 61.7188 100.716 61.7325 100.759C61.7689 100.915 61.8118 101.07 61.8625 101.218C61.9339 101.435 62.0208 101.646 62.1223 101.851C62.1379 101.893 62.1375 101.94 62.121 101.982ZM68.1866 80.6943C68.1809 80.7134 68.1721 80.7314 68.1607 80.7476C67.9307 81.0698 67.7034 81.3972 67.4851 81.731C67.4586 81.771 67.4173 81.7988 67.3702 81.8083C67.3232 81.8178 67.2743 81.8082 67.2344 81.7817C67.1944 81.7552 67.1666 81.7139 67.1571 81.6668C67.1476 81.6198 67.1572 81.5709 67.1837 81.531C67.4046 81.1971 67.6332 80.8632 67.8658 80.5371C67.8903 80.5014 67.9268 80.4757 67.9688 80.4647C68.0107 80.4537 68.0552 80.4581 68.0941 80.4772C68.133 80.4962 68.1638 80.5287 68.1808 80.5685C68.1978 80.6084 68.1998 80.6531 68.1866 80.6943ZM58.0703 112.324C58.0588 112.364 58.0342 112.398 58.0005 112.422C57.9667 112.446 57.9259 112.457 57.8848 112.454C57.8437 112.452 57.8048 112.435 57.7745 112.407C57.7442 112.379 57.7243 112.342 57.7182 112.301C57.6611 111.939 57.6 111.576 57.5402 111.214L57.5246 111.119C57.5205 111.095 57.5211 111.071 57.5264 111.048C57.5316 111.025 57.5414 111.003 57.5552 110.983C57.5689 110.964 57.5864 110.947 57.6066 110.935C57.6268 110.922 57.6493 110.914 57.6727 110.91C57.7202 110.902 57.7688 110.913 57.8079 110.941C57.8471 110.969 57.8736 111.012 57.8819 111.059L57.8975 111.154C57.9573 111.518 58.0183 111.88 58.0755 112.244C58.0803 112.271 58.0785 112.298 58.0703 112.324ZM66.8628 82.6976C66.8588 82.7133 66.8522 82.7282 66.8433 82.7418C66.6355 83.0783 66.4302 83.4238 66.2327 83.7668C66.209 83.8085 66.1696 83.839 66.1233 83.8517C66.077 83.8644 66.0276 83.8581 65.9859 83.8343C65.9442 83.8106 65.9137 83.7712 65.901 83.7249C65.8883 83.6786 65.8946 83.6292 65.9184 83.5875C66.1184 83.2393 66.325 82.8912 66.5354 82.5482C66.5581 82.5101 66.5939 82.4817 66.6362 82.4683C66.6784 82.4549 66.7241 82.4575 66.7646 82.4757C66.805 82.4938 66.8374 82.5262 66.8555 82.5666C66.8736 82.6071 66.8762 82.6528 66.8628 82.695V82.6976ZM62.6939 96.6971C62.685 96.7272 62.6683 96.7545 62.6455 96.7762C62.6227 96.7978 62.5946 96.8131 62.564 96.8205C62.2638 96.9017 61.971 97.0078 61.6884 97.1375C61.6884 97.1752 61.678 97.2128 61.6741 97.2505C61.6671 97.2947 61.644 97.3348 61.6093 97.3631C61.5746 97.3914 61.5307 97.4059 61.4859 97.4038C61.4412 97.4017 61.3988 97.3832 61.3669 97.3518C61.335 97.3204 61.3158 97.2783 61.3129 97.2336C61.2809 97.2163 61.2551 97.1895 61.2389 97.157C61.2175 97.1144 61.2139 97.0651 61.2287 97.0198C61.2436 96.9746 61.2757 96.937 61.3181 96.9153L61.3558 96.8958L61.3636 96.8439C61.4013 96.5685 61.4441 96.2878 61.4935 96.0124C61.5018 95.9653 61.5282 95.9233 61.567 95.8954C61.6058 95.8675 61.6541 95.8559 61.7014 95.863C61.7248 95.8668 61.7473 95.8752 61.7676 95.8877C61.7878 95.9002 61.8054 95.9166 61.8193 95.9359C61.8331 95.9552 61.8431 95.9771 61.8485 96.0003C61.8539 96.0234 61.8547 96.0474 61.8508 96.0709C61.8157 96.2852 61.7819 96.5022 61.7507 96.7205C61.9865 96.6233 62.2282 96.5413 62.4743 96.4749C62.5054 96.4664 62.5383 96.4663 62.5694 96.4747C62.6006 96.4831 62.6289 96.4998 62.6514 96.5228C62.674 96.5459 62.6899 96.5746 62.6976 96.6059C62.7053 96.6372 62.7045 96.6701 62.6952 96.701L62.6939 96.6971ZM61.5559 99.6721C61.543 99.7123 61.5166 99.7468 61.4811 99.7697C61.4457 99.7926 61.4033 99.8024 61.3614 99.7975C61.3195 99.7926 61.2805 99.7733 61.2513 99.7428C61.2221 99.7123 61.2044 99.6726 61.2012 99.6305C61.1772 99.2242 61.1772 98.8169 61.2012 98.4106C61.204 98.3627 61.2256 98.3179 61.2614 98.286C61.2972 98.2541 61.3443 98.2377 61.3922 98.2404C61.4401 98.2432 61.4849 98.2649 61.5168 98.3007C61.5487 98.3365 61.5651 98.3835 61.5624 98.4314C61.5396 98.8234 61.5396 99.2164 61.5624 99.6084C61.5635 99.6299 61.5613 99.6513 61.5559 99.6721ZM65.6689 84.7788C65.6657 84.7905 65.6614 84.8018 65.6559 84.8126C65.4702 85.1621 65.287 85.5193 65.1129 85.8753C65.0919 85.9184 65.0546 85.9513 65.0093 85.9669C64.964 85.9825 64.9143 85.9794 64.8712 85.9584C64.8282 85.9374 64.7952 85.9001 64.7796 85.8548C64.764 85.8095 64.7671 85.7599 64.7881 85.7168C64.9635 85.3569 65.148 84.9958 65.335 84.6424C65.3547 84.6006 65.3898 84.5679 65.4329 84.5511C65.476 84.5343 65.5239 84.5347 65.5667 84.5522C65.6095 84.5697 65.644 84.6029 65.663 84.6451C65.6821 84.6873 65.6842 84.7351 65.6689 84.7788ZM64.614 86.9328C64.6116 86.9408 64.6085 86.9486 64.6049 86.9562C64.4425 87.316 64.284 87.685 64.132 88.0513C64.123 88.0733 64.1097 88.0932 64.093 88.11C64.0762 88.1268 64.0564 88.1401 64.0345 88.1492C64.0126 88.1583 63.9891 88.163 63.9654 88.1631C63.9417 88.1631 63.9182 88.1585 63.8962 88.1494C63.8743 88.1404 63.8544 88.1271 63.8376 88.1104C63.8208 88.0936 63.8075 88.0737 63.7984 88.0518C63.7893 88.0299 63.7846 88.0065 63.7845 87.9827C63.7845 87.959 63.7891 87.9355 63.7982 87.9136C63.9502 87.5434 64.1113 87.1705 64.2749 86.8068C64.2941 86.7645 64.3286 86.7312 64.3715 86.7136C64.4144 86.696 64.4624 86.6954 64.5057 86.712C64.549 86.7286 64.5843 86.7611 64.6044 86.8028C64.6246 86.8446 64.628 86.8925 64.614 86.9367V86.9328ZM57.6805 109.956C57.6716 109.989 57.653 110.02 57.6272 110.043C57.6013 110.066 57.5693 110.081 57.535 110.086C57.5116 110.09 57.4876 110.089 57.4645 110.083C57.4414 110.078 57.4197 110.067 57.4005 110.053C57.3813 110.039 57.3651 110.022 57.3527 110.002C57.3404 109.981 57.3321 109.959 57.3285 109.935C57.2583 109.494 57.1986 109.104 57.1544 108.745C57.1512 108.722 57.1527 108.698 57.1588 108.675C57.1649 108.652 57.1755 108.63 57.1899 108.611C57.2043 108.593 57.2223 108.577 57.2429 108.565C57.2634 108.553 57.2861 108.545 57.3096 108.542C57.3332 108.539 57.3571 108.54 57.3801 108.546C57.403 108.552 57.4246 108.563 57.4434 108.577C57.4623 108.592 57.4782 108.61 57.4901 108.63C57.502 108.651 57.5098 108.674 57.513 108.697C57.561 109.053 57.6169 109.44 57.6857 109.879C57.6902 109.905 57.6884 109.931 57.6805 109.956ZM62.0573 94.9121C62.0458 94.9586 62.0162 94.9986 61.9752 95.0233C61.9341 95.0481 61.8849 95.0555 61.8384 95.0439C61.7919 95.0324 61.7519 95.0028 61.7272 94.9618C61.7024 94.9207 61.695 94.8715 61.7066 94.825C61.7832 94.4353 61.8689 94.0377 61.9599 93.6467C61.9653 93.6236 61.9751 93.6018 61.9889 93.5825C62.0028 93.5632 62.0202 93.5468 62.0404 93.5342C62.0605 93.5217 62.0829 93.5132 62.1064 93.5093C62.1298 93.5054 62.1537 93.5062 62.1768 93.5116C62.2 93.517 62.2218 93.5268 62.2411 93.5407C62.2604 93.5545 62.2768 93.5719 62.2893 93.5921C62.3019 93.6122 62.3103 93.6347 62.3142 93.6581C62.3181 93.6815 62.3173 93.7054 62.312 93.7285C62.2223 94.1183 62.1379 94.508 62.0612 94.8978L62.0573 94.9121ZM63.6981 89.1504V89.1621C63.5591 89.5336 63.424 89.9117 63.298 90.2871C63.2825 90.3326 63.2496 90.3701 63.2064 90.3913C63.1633 90.4125 63.1135 90.4157 63.0681 90.4002C63.0226 90.3847 62.9851 90.3517 62.9639 90.3086C62.9427 90.2655 62.9395 90.2157 62.955 90.1702C63.0849 89.7922 63.2149 89.4102 63.3591 89.0348C63.3744 88.9893 63.4072 88.9518 63.4502 88.9304C63.4932 88.9091 63.5429 88.9058 63.5884 88.9211C63.6338 88.9364 63.6714 88.9692 63.6927 89.0122C63.714 89.0552 63.7174 89.1049 63.702 89.1504H63.6981ZM62.6004 92.5762C62.5873 92.6224 62.5564 92.6615 62.5145 92.6849C62.4726 92.7082 62.4231 92.714 62.3769 92.7009C62.3307 92.6878 62.2917 92.6569 62.2683 92.615C62.2449 92.5731 62.2391 92.5237 62.2522 92.4775C62.3561 92.0877 62.4666 91.698 62.5822 91.3187C62.596 91.2727 62.6274 91.234 62.6697 91.2112C62.712 91.1885 62.7616 91.1834 62.8076 91.1972C62.8536 91.211 62.8922 91.2425 62.915 91.2847C62.9378 91.327 62.9428 91.3766 62.929 91.4226C62.8147 91.8019 62.7043 92.1865 62.6017 92.5697L62.6004 92.5762ZM60.5607 97.7637C60.5498 97.8004 60.5275 97.8327 60.4971 97.8559C60.187 98.0915 59.8967 98.3522 59.6292 98.6354C59.6137 98.6553 59.5942 98.6718 59.572 98.6838C59.5497 98.6957 59.5252 98.7028 59.5 98.7047C59.4748 98.7066 59.4495 98.7031 59.4257 98.6946C59.4019 98.6861 59.3802 98.6727 59.3619 98.6552C59.3436 98.6378 59.3292 98.6167 59.3196 98.5933C59.31 98.5699 59.3054 98.5448 59.3061 98.5196C59.3068 98.4943 59.3128 98.4695 59.3237 98.4467C59.3346 98.4239 59.3502 98.4036 59.3694 98.3872C59.6494 98.0881 59.9535 97.8126 60.2788 97.5636C60.3093 97.5409 60.3462 97.5284 60.3842 97.5278C60.4222 97.5272 60.4595 97.5385 60.4907 97.5601C60.522 97.5818 60.5457 97.6127 60.5585 97.6485C60.5712 97.6843 60.5725 97.7232 60.562 97.7598L60.5607 97.7637ZM57.37 107.579C57.3597 107.613 57.3392 107.644 57.3112 107.667C57.2832 107.691 57.249 107.705 57.2129 107.709C57.1892 107.711 57.1654 107.708 57.1428 107.701C57.1201 107.694 57.0991 107.683 57.0808 107.667C57.0626 107.652 57.0476 107.633 57.0366 107.612C57.0256 107.591 57.0188 107.568 57.0167 107.545L57.0063 107.432C56.9725 107.059 56.9478 106.691 56.9348 106.338C56.9336 106.314 56.9371 106.291 56.9452 106.268C56.9533 106.246 56.9657 106.225 56.9818 106.208C56.9979 106.191 57.0174 106.177 57.039 106.167C57.0606 106.157 57.0839 106.152 57.1076 106.151C57.1314 106.15 57.1552 106.153 57.1775 106.161C57.1999 106.169 57.2205 106.182 57.238 106.198C57.2555 106.214 57.2697 106.233 57.2797 106.255C57.2896 106.277 57.2952 106.3 57.296 106.324C57.309 106.671 57.3337 107.033 57.3662 107.399L57.3765 107.511C57.3792 107.534 57.3775 107.557 57.3713 107.579H57.37ZM57.2804 105.182C57.2678 105.223 57.2404 105.259 57.2035 105.282C57.1665 105.306 57.1225 105.315 57.0794 105.308C57.0363 105.301 56.9972 105.279 56.9692 105.245C56.9412 105.212 56.9262 105.169 56.927 105.126C56.9387 104.71 56.966 104.302 57.0089 103.914C57.0115 103.89 57.0188 103.867 57.0303 103.846C57.0418 103.826 57.0572 103.807 57.0758 103.792C57.0944 103.778 57.1157 103.767 57.1386 103.76C57.1614 103.753 57.1853 103.751 57.209 103.754C57.2326 103.757 57.2555 103.764 57.2763 103.775C57.2971 103.787 57.3155 103.802 57.3303 103.821C57.3451 103.839 57.3562 103.861 57.3628 103.884C57.3694 103.906 57.3714 103.93 57.3688 103.954C57.3272 104.332 57.2999 104.734 57.2882 105.136C57.2888 105.152 57.2866 105.167 57.2817 105.182H57.2804ZM58.9186 99.4993C58.9136 99.5176 58.9052 99.5348 58.8939 99.55C58.6723 99.8723 58.4747 100.211 58.3028 100.562C58.2818 100.605 58.2445 100.638 58.1992 100.654C58.1539 100.669 58.1043 100.666 58.0612 100.645C58.0181 100.624 57.9852 100.587 57.9696 100.542C57.954 100.496 57.957 100.447 57.978 100.403C58.157 100.035 58.3637 99.6814 58.5964 99.3447C58.6207 99.3087 58.657 99.2827 58.6989 99.2713C58.7407 99.2599 58.7852 99.264 58.8243 99.2828C58.8634 99.3015 58.8945 99.3337 58.9118 99.3735C58.9291 99.4132 58.9315 99.4579 58.9186 99.4993ZM57.5506 102.802C57.5389 102.848 57.5092 102.888 57.468 102.913C57.4269 102.937 57.3776 102.945 57.3311 102.933C57.2846 102.921 57.2446 102.891 57.22 102.85C57.1954 102.809 57.1881 102.76 57.1999 102.713C57.2609 102.422 57.3298 102.137 57.4155 101.861C57.448 101.752 57.4831 101.643 57.5182 101.536C57.5257 101.514 57.5377 101.493 57.5533 101.475C57.569 101.457 57.588 101.443 57.6093 101.432C57.6306 101.421 57.6537 101.415 57.6774 101.414C57.7011 101.412 57.7249 101.415 57.7474 101.423C57.77 101.43 57.7908 101.442 57.8087 101.458C57.8266 101.473 57.8412 101.492 57.8518 101.514C57.8623 101.535 57.8686 101.558 57.8702 101.582C57.8718 101.606 57.8687 101.629 57.8611 101.652C57.8273 101.755 57.7936 101.86 57.7624 101.966C57.6831 102.226 57.6143 102.508 57.5545 102.789L57.5506 102.802Z" fill="#196E7E"/>
<path d="M69.2791 79.2468C69.2724 79.2685 69.2618 79.2887 69.2479 79.3066C69.1245 79.4625 69.0011 79.6223 68.8803 79.7808C68.8668 79.802 68.849 79.8202 68.8281 79.8342C68.8072 79.8483 68.7836 79.8578 68.7588 79.8622C68.734 79.8666 68.7086 79.8659 68.6841 79.86C68.6596 79.8541 68.6367 79.8431 68.6166 79.8279C68.5966 79.8126 68.58 79.7934 68.5678 79.7714C68.5555 79.7494 68.548 79.7251 68.5457 79.7C68.5434 79.6749 68.5463 79.6497 68.5542 79.6258C68.5622 79.6019 68.575 79.5799 68.5919 79.5612C68.714 79.4014 68.84 79.2403 68.9634 79.0818C68.9899 79.0495 69.0268 79.0272 69.0677 79.0188C69.1087 79.0104 69.1514 79.0164 69.1884 79.0358C69.2255 79.0552 69.2548 79.0868 69.2713 79.1252C69.2878 79.1636 69.2906 79.2066 69.2791 79.2468Z" fill="#196E7E"/>
<path d="M76.1282 45.305L77.8171 44.6113C79.7658 43.1666 78.6213 42.2144 77.5729 40.8516C78.2848 39.3732 80.592 39.5135 80.883 37.5674C79.5229 36.5579 75.3526 39.4992 75.2968 36.9918C75.2643 35.3367 78.5628 32.9645 79.8931 32.467C81.2234 31.9694 84.9273 31.9057 86.2199 32.5501C87.2267 33.0529 87.7685 34.0012 87.584 35.0535C87.3826 36.2007 86.3173 36.6995 85.7652 37.7817C87.1358 38.3014 87.8321 36.5826 88.3193 35.7382C89.1313 34.3286 89.773 34.9015 91.1124 34.3858C92.331 33.9155 93.1014 32.9671 94.4564 32.6293C95.5113 32.3695 96.6974 32.1383 97.7757 31.9681C99.0073 31.7719 99.827 32.4085 100.955 32.4124C102.671 32.4124 102.068 29.9051 103.75 31.1834C104.348 31.6381 103.78 31.8213 104.731 32.1837C105.135 32.337 105.999 32.4436 106.466 32.5384C108.595 32.9723 107.528 32.0006 107.349 30.6027C107.122 28.8255 108.373 29.944 109.495 30.4442C110.318 30.8119 110.323 30.4676 110.683 31.3341C111.001 32.0993 110.324 32.3864 111.176 32.9113C112.803 33.9077 112.764 31.59 112.764 30.8274C112.764 29.5283 113.024 28.7904 111.769 27.9057C112.158 27.5796 112.533 27.0548 112.614 26.5442C111.445 25.9713 111.779 25.0658 111.168 24.2162C110.143 22.7871 109.616 24.0538 108.547 24.4461C107.443 24.8514 106.431 23.981 105.365 24.6631C104.258 25.3711 104.169 26.4182 102.74 25.071C103.361 24.6137 103.798 23.79 104.186 23.1223C103.776 22.7567 103.402 22.3535 103.068 21.918C104.143 20.3084 106.017 21.3594 107.332 22.0128C108.805 22.7455 110.169 21.6582 111.537 22.2337C112.814 22.7689 112.407 25.1424 114.51 25.0086C115.71 24.932 115.578 24.3318 115.679 23.5523C115.705 23.3444 115.537 22.7261 115.527 22.513C115.526 22.4909 115.526 22.4688 115.527 22.4467C116.75 22.9573 117.951 23.525 119.139 24.1356C118.945 24.8761 118.91 25.9037 118.879 26.4844C118.854 26.9106 119.058 27.3419 118.978 27.7745C118.887 28.2656 118.185 28.4838 118.497 29.0645C118.979 29.9609 122.88 28.8047 123.683 28.7332C124.702 28.6384 125.311 28.6202 125.502 27.9966C128.887 30.3938 131.967 33.1946 134.675 36.3371C134.718 36.8385 134.762 37.3556 134.783 37.909C134.827 39.0977 134.711 40.0656 135.518 41.1179C135.985 41.7259 137.94 42.9731 136.22 43.8201C134.631 44.5996 134.921 42.391 134.815 41.7415C134.666 40.8425 133.546 39.2056 132.746 40.5138C131.554 42.4625 136.034 44.9971 133.729 46.4716C134.041 47.1134 134.718 48.2904 134.055 48.9231C133.237 49.7026 132.427 48.3229 131.667 49.5168C130.591 51.2057 131.499 53.7948 133.59 54.3236C135.82 54.8822 136.127 51.4746 138.365 52.5918C139.247 53.0322 139.569 53.5896 139.913 54.6536C140.195 55.5201 139.866 56.8426 140.741 57.3051C141.165 56.853 141.023 56.2346 141.268 55.7228C141.798 56.3022 142.546 57.9443 142.543 58.738C142.543 59.9397 141.68 61.1051 143.742 60.9232C143.651 60.6231 143.795 60.1866 143.774 59.9813C145.492 61.1323 146.222 62.6406 145.968 64.627C145.399 69.0623 143.11 63.7176 141.749 65.3207C140.96 64.3399 141.051 63.2421 140.504 62.1833C140.244 61.6819 139.403 61.2986 139.241 60.8569C139.019 60.2515 139.51 59.7436 139.338 59.1772C138.656 56.9491 133.914 56.6607 132.008 56.5373C131.488 56.5035 131.078 56.2619 130.553 56.497C129.655 56.8985 130.151 57.4857 129.584 58.0417C128.774 58.8342 127.286 58.4587 126.428 58.9511C124.372 60.1463 124.456 63.8735 122.904 65.6871C122.042 66.6939 120.071 67.0954 119.916 68.314C119.848 68.8336 120.305 69.6274 120.256 70.2627C120.212 70.8434 119.944 71.4644 119.964 72.11C120.03 74.2029 120.433 76.7492 120.734 78.8655C120.907 80.0672 121.681 80.887 122.836 81.3534C123.788 81.7431 125.247 82.303 126.271 82.4472C127.639 82.6421 128.243 82.0328 129.019 83.2267C129.634 84.1816 129.668 85.7951 131.286 85.5535C131.578 86.9253 129.706 87.7308 128.915 88.5155C127.9 89.5223 127.688 90.8409 127.745 92.3077C127.814 94.068 127.875 94.4123 126.645 95.8829C125.684 97.03 124.617 97.9524 123.535 99.0008C122.496 100.005 121.16 100.399 120.373 101.668C119.648 102.837 119.53 104.091 118.562 105.22C117.707 106.215 116.782 107.462 115.793 108.338C114.78 109.23 113.373 109.684 112.309 110.58C111.298 111.435 110.473 112.863 110.635 114.218C110.802 115.636 111.913 115.627 113.273 115.543C115.956 115.375 118.296 113.619 120.694 112.582C123.143 111.521 125.494 110.633 127.579 109.235C128.022 108.939 128.499 108.673 128.977 108.409C122.213 114.148 114.069 118.023 105.35 119.652C96.6299 121.28 87.6362 120.606 79.257 117.695C70.8777 114.784 63.4027 109.738 57.5705 103.055C51.7383 96.371 47.7506 88.2815 46.0013 79.5852C43.316 66.2353 45.9922 52.6399 53.5363 41.3011C57.2298 35.7149 61.9945 30.9168 67.5547 27.1843C73.1148 23.4518 79.3601 20.8591 85.9289 19.5562C86.242 19.4938 86.5564 19.4483 86.8708 19.3912C86.4316 19.7636 85.9433 20.074 85.4196 20.3136C84.1634 20.8332 82.859 20.511 81.6119 20.954C80.4751 21.3581 79.1825 22.2532 78.3575 23.0067C77.465 23.8212 76.822 25.1061 75.8307 25.8518C74.5706 26.7988 73.2883 27.0067 72.4815 28.5397C73.8651 30.1987 75.1552 26.6377 76.7141 27.4458C76.4127 28.8969 74.6953 30.8236 73.7352 31.9824C72.414 33.5764 71.7982 33.7778 71.8411 35.9317C71.8761 37.6375 71.6254 38.5963 73.0727 39.8291C74.3978 40.9568 74.5628 42.0039 74.2419 43.7889C74.9525 44.493 74.4069 44.5359 76.4504 45.3063M125.646 24.9333C101.013 8.5486 67.7618 15.2339 51.3758 39.8668C34.9898 64.4997 41.6778 97.751 66.3159 114.136C90.9539 130.52 124.196 123.836 140.578 99.2035C156.96 74.5706 150.278 41.3193 125.646 24.9333Z" stroke="#176D7E" stroke-width="0.5" stroke-miterlimit="10"/>
</svg>
