<svg width="40" height="25" viewBox="0 0 40 25" fill="none" xmlns="http://www.w3.org/2000/svg">
<path opacity="0.07" d="M36.8421 0H3.15789C1.36842 0 0 1.35417 0 3.125V21.875C0 23.6458 1.47368 25 3.15789 25H36.8421C38.6316 25 40 23.6458 40 21.875V3.125C40 1.35417 38.5263 0 36.8421 0Z" fill="#263238"/>
<path d="M36.8422 1.0415C38.0001 1.0415 38.9475 1.979 38.9475 3.12484V21.8748C38.9475 23.0207 38.0001 23.9582 36.8422 23.9582H3.158C2.0001 23.9582 1.05273 23.0207 1.05273 21.8748V3.12484C1.05273 1.979 2.0001 1.0415 3.158 1.0415H36.8422Z" fill="white"/>
<path d="M16.2893 19.7918C20.3588 19.7918 23.6577 16.5272 23.6577 12.5002C23.6577 8.47309 20.3588 5.2085 16.2893 5.2085C12.2199 5.2085 8.9209 8.47309 8.9209 12.5002C8.9209 16.5272 12.2199 19.7918 16.2893 19.7918Z" fill="#EB001B"/>
<path d="M24.7102 19.7918C28.7797 19.7918 32.0786 16.5272 32.0786 12.5002C32.0786 8.47309 28.7797 5.2085 24.7102 5.2085C20.6408 5.2085 17.3418 8.47309 17.3418 12.5002C17.3418 16.5272 20.6408 19.7918 24.7102 19.7918Z" fill="#F79E1B"/>
<path d="M23.6576 12.5C23.6576 10 22.3944 7.8125 20.4997 6.5625C18.605 7.91667 17.3418 10.1042 17.3418 12.5C17.3418 14.8958 18.605 17.1875 20.4997 18.4375C22.3944 17.1875 23.6576 15 23.6576 12.5Z" fill="#FF5F00"/>
</svg>
