<svg width="393" height="798" viewBox="0 0 393 798" fill="none" xmlns="http://www.w3.org/2000/svg">
<g clip-path="url(#clip0_1075_2534)">
<path d="M1.39832 289.46C1.39832 288.535 2.15139 287.76 3.09811 287.76H3.93725V348.307H3.09811C2.17291 348.307 1.39832 347.554 1.39832 346.608V289.439V289.46Z" fill="#1C1C61"/>
<path d="M1.39832 212.582C1.39832 211.657 2.15139 210.882 3.09811 210.882H3.93725V271.429H3.09811C2.17291 271.429 1.39832 270.676 1.39832 269.73V212.56V212.582Z" fill="#1C1C61"/>
<path d="M-0.00012207 155.155C-0.00012207 154.23 0.752952 153.455 1.69967 153.455H3.95889V183.298H1.69967C0.774468 183.298 -0.00012207 182.545 -0.00012207 181.598V155.133V155.155Z" fill="#1C1C61"/>
<path d="M390.264 252.861H391.103C392.029 252.861 392.803 253.614 392.803 254.56V346.629C392.803 347.554 392.05 348.329 391.103 348.329H390.264V252.882V252.861Z" fill="#1C1C61"/>
<path d="M3.93762 153.735V183.449" stroke="black" stroke-width="0.250971"/>
<path d="M3.93762 211.183V271.3" stroke="black" stroke-width="0.250971"/>
<path d="M319.583 0H74.619C35.5827 0 3.93762 31.6451 3.93762 70.6813V727.319C3.93762 766.355 35.5827 798 74.619 798H319.583C358.619 798 390.264 766.355 390.264 727.319V70.6813C390.264 31.6451 358.619 0 319.583 0Z" fill="#1C1C61"/>
<path d="M315.646 9.57469H78.5564C42.6335 9.57469 13.5123 38.6959 13.5123 74.6187V723.381C13.5123 759.304 42.6335 788.425 78.5564 788.425H315.646C351.568 788.425 380.69 759.304 380.69 723.381V74.6187C380.69 38.6959 351.568 9.57469 315.646 9.57469Z" fill="#FBF5E2" stroke="black" stroke-width="10.0967"/>
<rect x="146" y="38" width="101" height="29" rx="14.5" fill="black"/>
<path d="M85.0327 793.632L90.67 793.783V798H85.0327V793.632Z" fill="black"/>
<path d="M386.047 83.9139H390.264V89.5512H386.047V83.9139Z" fill="black"/>
<path d="M386.047 710.988H390.264V716.625H385.896L386.047 710.988Z" fill="black"/>
<path d="M239.047 4.21713C238.896 6.11058 237.326 7.59521 235.389 7.59521H158.791C156.854 7.59521 155.284 6.11058 155.133 4.21713H239.025H239.047Z" fill="black" stroke="#272727" stroke-width="0.501941"/>
<path d="M304.113 0H309.75V4.36783L304.113 4.08811V0Z" fill="black"/>
<path d="M3.93753 85.0328H8.15475L8.00413 90.5195L3.91602 90.6701V85.0328H3.93753Z" fill="black"/>
<path d="M3.93762 710.988H8.02574L8.17635 716.625H3.95914V710.988H3.93762Z" fill="black"/>
</g>
<defs>
<clipPath id="clip0_1075_2534">
<rect width="392.803" height="798" fill="white"/>
</clipPath>
</defs>
</svg>
