<svg width="345" height="701" viewBox="0 0 345 701" fill="none" xmlns="http://www.w3.org/2000/svg">
<g clip-path="url(#clip0_1183_11237)">
<path d="M1.22754 254.275C1.22754 253.462 1.88897 252.782 2.72047 252.782H3.45749V305.969H2.72047C1.90786 305.969 1.22754 305.308 1.22754 304.476V254.256V254.275Z" fill="#1C1C61"/>
<path d="M1.22754 186.742C1.22754 185.929 1.88897 185.249 2.72047 185.249H3.45749V238.436H2.72047C1.90786 238.436 1.22754 237.775 1.22754 236.943V186.723V186.742Z" fill="#1C1C61"/>
<path d="M0 136.295C0 135.482 0.661426 134.802 1.49293 134.802H3.47721V161.019H1.49293C0.680324 161.019 0 160.357 0 159.525V136.276V136.295Z" fill="#1C1C61"/>
<path d="M342.771 222.124H343.508C344.32 222.124 345 222.786 345 223.618V304.495C345 305.308 344.339 305.988 343.508 305.988H342.771V222.143V222.124Z" fill="#1C1C61"/>
<path d="M3.45801 135.047V161.151" stroke="#263238" stroke-width="0.250971"/>
<path d="M3.45801 185.513V238.322" stroke="#263238" stroke-width="0.250971"/>
<path d="M280.69 0H65.5376C31.252 0 3.45801 27.7985 3.45801 62.0898V638.91C3.45801 673.201 31.252 701 65.5376 701H280.69C314.976 701 342.77 673.201 342.77 638.91V62.0898C342.77 27.7985 314.976 0 280.69 0Z" fill="#1C1C61"/>
<path d="M277.232 8.41113H68.9965C37.4454 8.41113 11.8682 33.9925 11.8682 65.5488V635.452C11.8682 667.008 37.4454 692.589 68.9965 692.589H277.232C308.784 692.589 334.361 667.008 334.361 635.452V65.5488C334.361 33.9925 308.784 8.41113 277.232 8.41113Z" fill="#FBF5E2" stroke="#263238" stroke-width="10.0967"/>
<path d="M186.039 348.293L168.043 337.295C167.74 337.11 167.393 337.008 167.038 337.002C166.682 336.995 166.332 337.083 166.022 337.257C165.712 337.43 165.454 337.684 165.274 337.99C165.095 338.297 165 338.646 165 339.001V360.999C165 361.354 165.095 361.703 165.275 362.009C165.454 362.316 165.712 362.569 166.022 362.742C166.332 362.916 166.683 363.004 167.038 362.998C167.393 362.991 167.74 362.89 168.043 362.705L186.039 351.707C186.331 351.528 186.573 351.277 186.741 350.978C186.908 350.68 186.996 350.343 186.996 350C186.996 349.657 186.908 349.32 186.741 349.021C186.573 348.723 186.331 348.472 186.039 348.293Z" fill="#353432"/>
<rect x="128.231" y="33.381" width="88.7085" height="25.4758" rx="12.7379" fill="#263238"/>
<path d="M74.6836 697.163L79.6348 697.296V701H74.6836V697.163Z" fill="#263238"/>
<path d="M339.066 73.7139H342.77V78.6661H339.066V73.7139Z" fill="#263238"/>
<path d="M339.066 624.564H342.77V629.516H338.934L339.066 624.564Z" fill="#263238"/>
<path d="M209.956 3.70465C209.823 5.368 208.444 6.67221 206.743 6.67221H139.467C137.766 6.67221 136.386 5.368 136.254 3.70465H209.937H209.956Z" fill="#263238" stroke="#272727" stroke-width="0.501941"/>
<path d="M267.102 0H272.053V3.83703L267.102 3.59131V0Z" fill="#263238"/>
<path d="M3.45933 74.6967H7.16332L7.03103 79.5166L3.44043 79.6489V74.6967H3.45933Z" fill="#263238"/>
<path d="M3.45801 624.564H7.04861L7.18089 629.516H3.47691V624.564H3.45801Z" fill="#263238"/>
</g>
<defs>
<clipPath id="clip0_1183_11237">
<rect width="345" height="701" fill="white"/>
</clipPath>
</defs>
</svg>
