<svg width="100" height="100" viewBox="0 0 100 100" fill="none" xmlns="http://www.w3.org/2000/svg">
<path d="M97.655 66.6554L40.5181 58.7121C39.0837 58.529 38.0085 57.3088 38.0085 55.8629L37.2246 16.0227C37.2246 16.0227 38.5273 15.0838 39.2652 14.7243C39.6408 14.5412 40.0731 14.4609 40.5236 14.5183L97.4905 21.7807C98.9249 21.9638 100 23.184 100 24.63V63.7609C100 64.4609 99.6803 65.0784 99.1851 65.4855C98.7292 65.8604 97.655 66.656 97.655 66.656V66.6554Z" fill="#C2E1DE"/>
<path d="M95.9101 67.1846L38.9432 59.9221C37.5088 59.739 36.4336 58.5188 36.4336 57.0729V17.9425C36.4336 16.5977 37.6143 15.5583 38.9487 15.7288L95.9156 22.9913C97.35 23.1743 98.4252 24.3946 98.4252 25.8405V64.9714C98.4252 66.3162 97.2445 67.3556 95.9101 67.1851V67.1846Z" fill="white"/>
<path d="M94.7007 65.5719L40.3057 58.6373C39.2627 58.5045 38.4805 57.617 38.4805 56.5657V18.82C38.4805 17.9222 39.2693 17.2276 40.1603 17.3413L94.5553 24.2759C95.5983 24.4087 96.3805 25.2961 96.3805 26.3475V64.0926C96.3805 64.9904 95.5917 65.685 94.7007 65.5713V65.5719Z" fill="#D8D8D8"/>
<path d="M96.1929 67.3829C96.0912 67.3829 95.9896 67.3764 95.8879 67.3638L38.921 60.1014C37.4002 59.9074 36.2539 58.6057 36.2539 57.0734V17.9425C36.2539 17.2496 36.5524 16.59 37.0722 16.1321C37.5921 15.6742 38.2847 15.4622 38.9723 15.5496L95.9393 22.812C97.46 23.006 98.6063 24.3077 98.6063 25.84V64.9709C98.6063 65.6638 98.3078 66.3234 97.788 66.7813C97.3452 67.1715 96.7767 67.3829 96.1929 67.3829ZM95.9332 67.0053C96.5182 67.0797 97.1069 66.8993 97.5491 66.5103C97.9913 66.1212 98.245 65.56 98.245 64.9709V25.84C98.245 24.4886 97.2337 23.341 95.8933 23.17L38.9264 15.9075C38.3421 15.8332 37.7528 16.0135 37.3106 16.4032C36.8683 16.7922 36.6147 17.3535 36.6147 17.9425V57.0734C36.6147 58.4248 37.626 59.5724 38.9669 59.7434L95.9338 67.0059L95.9332 67.0053Z" fill="#26AA9D"/>
<path d="M62.6765 90.23L4.08823 82.6769C3.6296 82.6184 3.37104 82.2342 3.37706 81.8506C3.38088 81.5861 3.40275 79.7216 3.40275 79.7216L34.3813 62.0174C35.9333 61.1311 37.9416 60.789 39.7144 61.0158L97.5625 68.4755C97.9107 68.5203 98.2091 68.746 98.3474 69.0689L98.4404 69.2864C98.4404 69.2864 98.3906 70.8411 98.4109 71.2045C98.4267 71.4887 98.2988 71.7816 98.0009 71.9515L67.8001 89.2136C66.2482 90.1 64.4492 90.4563 62.6765 90.2295V90.23Z" fill="#C2E1DE"/>
<path d="M11.2936 81.5197L4.29721 80.6164C3.52208 80.517 3.31873 79.4896 3.99711 79.1022L34.036 61.9516C35.5879 61.0652 37.3869 60.7089 39.1597 60.9357L97.5386 68.4747C98.3137 68.5741 98.5171 69.6015 97.8387 69.9889L67.7998 87.1395C66.2478 88.0259 64.4488 88.3822 62.6761 88.1554L11.2936 81.5197Z" fill="white"/>
<path d="M74.1063 78.6352L23.4842 72.0504C22.7845 71.9608 22.6003 71.0329 23.213 70.6831L35.1156 63.9557C36.5177 63.1551 38.1418 62.8333 39.7434 63.0382L90.3655 69.623C91.0652 69.7126 91.2494 70.6405 90.6366 70.9903L78.7341 77.7177C77.332 78.5183 75.7079 78.8401 74.1063 78.6352Z" fill="#D8D8D8"/>
<path d="M63.708 88.4014C63.3559 88.4014 63.0039 88.379 62.6535 88.3342L34.0648 84.6686C33.9659 84.656 33.8959 84.5653 33.909 84.4664C33.9216 84.3675 34.0129 84.2986 34.1107 84.3101L62.6994 87.9757C64.4224 88.1965 66.2017 87.8435 67.7105 86.9823L97.7494 69.8316C98.0413 69.665 98.0998 69.3748 98.0566 69.1584C98.014 68.942 97.8489 68.6961 97.5154 68.6535L39.1365 61.1145C37.4141 60.8937 35.6337 61.2467 34.1255 62.108L29.9169 64.5113C29.8305 64.5605 29.7201 64.5304 29.6704 64.4441C29.6206 64.3577 29.6512 64.2474 29.7376 64.1976L33.9462 61.7943C35.5227 60.8943 37.3829 60.526 39.1824 60.756L97.5613 68.295C97.9926 68.3502 98.3261 68.6617 98.4103 69.0879C98.495 69.5141 98.3053 69.9289 97.9281 70.1448L67.8892 87.2954C66.6194 88.0206 65.1658 88.4003 63.7074 88.4003L63.708 88.4014Z" fill="#C2E1DE"/>
<path d="M90.1704 63.7179L45.1814 58.0298C44.4068 57.932 43.7793 57.1899 43.7793 56.3724V1.49365C43.7793 0.676143 44.4068 0.0930703 45.1814 0.190887L90.1704 5.87899C90.945 5.9768 91.5725 6.7189 91.5725 7.5364V62.4157C91.5725 63.2332 90.945 63.8163 90.1704 63.7185V63.7179Z" fill="#C2E1DE"/>
<path d="M90.3406 63.909C90.2771 63.909 90.2132 63.9047 90.1487 63.897L45.1597 58.2089C44.2993 58.1002 43.5996 57.2767 43.5996 56.3728V1.4935C43.5996 1.03283 43.7756 0.62408 44.0949 0.342653C44.3961 0.0770736 44.7907 -0.0398688 45.2051 0.0120449L90.194 5.70069C91.0545 5.80944 91.7542 6.63295 91.7542 7.5368V62.4161C91.7542 62.8768 91.5781 63.2855 91.2589 63.567C91.0047 63.791 90.6838 63.9096 90.3406 63.9096V63.909ZM90.194 63.5386C90.5045 63.5779 90.7975 63.4916 91.02 63.2954C91.2605 63.0834 91.3928 62.7708 91.3928 62.415V7.53625C91.3928 6.80782 90.8347 6.14496 90.1487 6.05808L45.1592 0.369976C44.8487 0.330085 44.5557 0.416972 44.3332 0.613151C44.0927 0.825177 43.9604 1.13775 43.9604 1.4935V56.3728C43.9604 57.1013 44.5185 57.7641 45.2045 57.851L90.1935 63.5391L90.194 63.5386Z" fill="#263238"/>
<path d="M83.1605 33.3571L52.3109 29.4565C51.9884 29.4155 51.7266 29.1067 51.7266 28.7663V25.8067C51.7266 25.4662 51.9879 25.223 52.3109 25.264L83.1605 29.1647C83.483 29.2056 83.7449 29.5144 83.7449 29.8548V32.8145C83.7449 33.1549 83.483 33.3981 83.1605 33.3571Z" fill="white"/>
<path d="M83.3941 41.772L52.3117 37.8419C52.0531 37.8091 51.8438 37.5615 51.8438 37.2888V34.0833C51.8438 33.8106 52.0531 33.6161 52.3117 33.6489L83.3941 37.579C83.6527 37.6118 83.8621 37.8593 83.8621 38.132V41.3376C83.8621 41.6102 83.6527 41.8048 83.3941 41.772Z" fill="white"/>
<path d="M78.5459 49.9154L56.9275 47.182C56.5727 47.1372 56.2852 46.7973 56.2852 46.423V43.5858C56.2852 43.2114 56.5727 42.9442 56.9275 42.989L78.5459 45.7224C78.9007 45.7672 79.1882 46.1071 79.1882 46.4815V49.3187C79.1882 49.693 78.9007 49.9602 78.5459 49.9154Z" fill="#D8D8D8"/>
<path d="M72.5956 21.8229C75.312 19.5143 75.4019 15.1574 72.7963 12.0915C70.1907 9.02555 65.8763 8.41164 63.1598 10.7203C60.4433 13.0289 60.3535 17.3858 62.9591 20.4517C65.5647 23.5177 69.8791 24.1316 72.5956 21.8229Z" fill="#26AA9D"/>
<path d="M69.4107 17.2495C70.3589 16.4439 70.3902 14.9234 69.4805 13.8534C68.5708 12.7833 67.0646 12.5689 66.1164 13.3746C65.1681 14.1802 65.1369 15.7007 66.0466 16.7707C66.9563 17.8408 68.4624 18.0552 69.4107 17.2495Z" fill="white"/>
<path d="M62.8887 20.3661C63.7026 19.5578 64.6909 18.766 65.7438 18.2928C65.998 18.1786 66.2997 18.1824 66.5785 18.3048C67.6499 18.7753 68.4835 18.7218 69.4095 18.4868C69.6342 18.4299 69.8835 18.4704 70.0983 18.6043C71.2561 19.3261 72.2575 20.2524 73.0195 21.4262C70.0114 24.4492 65.1928 23.3765 62.8892 20.3661H62.8887Z" fill="white"/>
<path d="M67.8797 23.464C63.9614 22.9891 60.7734 19.3759 60.7734 15.4102C60.7734 11.4446 63.9614 8.60462 67.8797 9.08004C71.7981 9.55492 74.9861 13.1681 74.9861 17.1338C74.9861 21.0994 71.7981 23.9394 67.8797 23.464ZM67.8797 9.6664C64.2807 9.22977 61.3523 11.8386 61.3523 15.4807C61.3523 19.1229 64.2807 22.4415 67.8797 22.8782C71.4788 23.3148 74.4072 20.706 74.4072 17.0638C74.4072 13.4217 71.4788 10.103 67.8797 9.6664Z" fill="#D8D8D8"/>
<path d="M10.6819 49.9922C9.01461 50.6108 7.59936 51.9125 6.63619 53.6267C4.1785 58.0001 -2.23522 70.8178 0.798624 80.7153C4.51468 92.8391 35.9306 92.5145 44.1182 87.3548C46.1981 86.0438 54.7093 77.2005 43.7852 69.85C33.7725 63.1122 29.6339 68.0582 25.0169 65.4035C20.4 62.7488 17.065 52.0956 15.3616 50.5819C14.2613 49.6043 12.5503 49.2988 10.6819 49.9922Z" fill="#26AA9D"/>
<path d="M20.3459 79.1658C20.3 79.1658 20.2535 79.1483 20.2185 79.1128C16.0674 74.9657 6.41315 74.4745 6.3164 74.4701C6.21691 74.4657 6.13983 74.381 6.14475 74.2816C6.14913 74.1821 6.23604 74.1072 6.33334 74.1094C6.73512 74.128 16.2248 74.6122 20.4744 78.8571C20.5449 78.9276 20.5449 79.0418 20.4744 79.1123C20.4394 79.1472 20.3929 79.1653 20.3464 79.1653L20.3459 79.1658Z" fill="#C2E1DE"/>
<path d="M30.0712 79.3935C30.0466 79.3935 30.022 79.3886 29.998 79.3777C26.7608 77.9383 24.4758 79.229 24.4529 79.2427C24.3671 79.293 24.2566 79.264 24.2063 79.1777C24.156 79.0919 24.185 78.9815 24.2708 78.9312C24.3698 78.8733 26.7296 77.529 30.1445 79.0482C30.2358 79.0886 30.2768 79.1952 30.2358 79.2864C30.2057 79.3536 30.1401 79.3935 30.0707 79.3935H30.0712Z" fill="#C2E1DE"/>
<path d="M44.8157 87.0654C44.8446 87.1605 48.3131 91.0786 48.3131 91.0786L46.0008 91.9885L43.208 88.5901L44.8157 87.0654Z" fill="white"/>
<path d="M46.0006 92.1692C45.9476 92.1692 45.8962 92.1457 45.8612 92.1031L43.0684 88.7046C43.0083 88.6314 43.0148 88.5243 43.0837 88.4593L44.6914 86.9347C44.7368 86.8915 44.8013 86.8756 44.8619 86.8909C44.9106 86.9041 44.951 86.9363 44.9745 86.9795C45.1145 87.1784 47.1223 89.4609 48.4484 90.9588C48.4873 91.0031 48.5026 91.0632 48.4889 91.1206C48.4752 91.1779 48.4342 91.2249 48.3796 91.2462L46.0673 92.1561C46.046 92.1643 46.0235 92.1687 46.0011 92.1687L46.0006 92.1692ZM43.4538 88.6052L46.0563 91.7725L48.0068 91.0047C45.8322 88.5467 45.0697 87.662 44.798 87.3303L43.4538 88.6046V88.6052Z" fill="#263238"/>
<path d="M45.9612 90.393C46.0503 90.1968 46.2045 89.9728 46.4696 89.8301C46.8692 89.6154 47.3639 89.6886 47.7127 89.9788C48.5846 90.7045 50.9499 92.757 52.2886 94.722C52.7614 95.4166 52.4859 96.3008 51.3615 96.2401C49.5182 96.1401 46.6079 95.2718 44.2344 93.0581C43.9622 92.804 43.8343 92.4291 43.9031 92.063C43.9594 91.7641 44.0507 91.3903 44.1972 91.0384C44.3372 90.7023 44.704 90.5209 45.0576 90.605L45.3763 90.681C45.6158 90.7378 45.8607 90.6165 45.9618 90.3924L45.9612 90.393Z" fill="white"/>
<path d="M51.4722 96.4236C51.4329 96.4236 51.393 96.4225 51.3514 96.4203C49.413 96.3154 46.4929 95.4121 44.1106 93.1902C43.7892 92.8902 43.6449 92.4568 43.7247 92.03C43.7991 91.6339 43.9018 91.2765 44.0292 90.9699C44.203 90.5519 44.6524 90.3245 45.0979 90.4305L45.4166 90.5065C45.5702 90.5426 45.7303 90.4644 45.7959 90.3191C45.926 90.0322 46.1294 89.8081 46.3836 89.6715C46.8345 89.4289 47.4151 89.4972 47.8272 89.8409C48.7669 90.6229 51.0978 92.6552 52.4371 94.6214C52.7202 95.0372 52.7683 95.5225 52.5628 95.887C52.4469 96.0924 52.1539 96.4241 51.4717 96.4241L51.4722 96.4236ZM44.8803 90.7655C44.6567 90.7655 44.4512 90.8961 44.3626 91.1082C44.2446 91.3923 44.1495 91.7246 44.0795 92.0967C44.0221 92.4011 44.1259 92.7115 44.3566 92.9268C46.6684 95.0826 49.4956 95.9585 51.3706 96.0602C51.7969 96.0842 52.108 95.9585 52.2485 95.7094C52.3862 95.4651 52.3441 95.1257 52.1386 94.8235C50.825 92.8951 48.5248 90.8901 47.5966 90.1174C47.2959 89.8672 46.8772 89.8158 46.5547 89.989C46.3683 90.0896 46.2234 90.2502 46.125 90.4677C45.9883 90.7699 45.6543 90.9344 45.3335 90.8573L45.0148 90.7814C44.9694 90.7705 44.9246 90.7655 44.8803 90.7655Z" fill="#263238"/>
<path d="M50.9781 95.5122C49.9089 95.5122 47.8912 95.0564 44.7043 92.6416C44.625 92.5815 44.6092 92.4684 44.6693 92.3886C44.7295 92.3094 44.8426 92.2941 44.9224 92.3536C49.7514 96.0127 51.7352 95.0368 51.7543 95.0264C51.8423 94.9799 51.9517 95.0133 51.9981 95.1018C52.0446 95.1898 52.0112 95.2991 51.9227 95.3455C51.891 95.3625 51.5892 95.5116 50.9775 95.5116L50.9781 95.5122Z" fill="#263238"/>
<path d="M48.9753 93.4404C48.9316 93.4404 48.8873 93.4245 48.8529 93.3923C48.7796 93.3245 48.7752 93.2102 48.843 93.137L49.7789 92.1268C49.8467 92.0535 49.9609 92.0492 50.0342 92.117C50.1074 92.1847 50.1118 92.299 50.044 92.3722L49.1081 93.3824C49.0726 93.4207 49.024 93.4404 48.9759 93.4404H48.9753Z" fill="#263238"/>
<path d="M48.1464 92.7602C48.1005 92.7602 48.0546 92.7427 48.0191 92.7077C47.9485 92.6377 47.948 92.523 48.018 92.4524L49.0484 91.4138C49.1183 91.3433 49.2326 91.3428 49.3037 91.4127C49.3742 91.4827 49.3747 91.5975 49.3047 91.668L48.2743 92.7066C48.2393 92.7422 48.1929 92.7602 48.1464 92.7602Z" fill="#263238"/>
<path d="M37.5829 89.1612L36.5175 93.8361L34.7666 92.5033L35.5762 88.0098L37.5829 89.1612Z" fill="white"/>
<path d="M36.5174 94.0163C36.4785 94.0163 36.4397 94.0037 36.408 93.9797L34.6571 92.6469C34.603 92.6059 34.5768 92.5381 34.5888 92.4715L35.3984 87.9779C35.4088 87.92 35.4465 87.8708 35.5001 87.8462C35.5536 87.8216 35.6154 87.8238 35.6662 87.8533L37.673 89.0047C37.7418 89.0441 37.7768 89.1238 37.7593 89.2014L36.6945 93.8764C36.6808 93.936 36.6376 93.9852 36.5802 94.0059C36.56 94.013 36.5392 94.0169 36.5185 94.0169L36.5174 94.0163ZM34.9633 92.4267L36.4031 93.5229L37.3761 89.2512L35.7072 88.2938L34.9627 92.4267H34.9633Z" fill="#263238"/>
<path d="M37.1196 92.9884C37.0125 94.4431 36.7556 97.3683 35.6552 99.4427C35.36 99.999 34.2071 99.9575 33.789 99.199C32.9165 97.617 31.8014 94.9289 32.4574 91.6835C32.5087 91.4299 32.6782 91.2157 32.9127 91.107C33.1882 90.9797 33.6239 90.8195 34.2438 90.7064C34.5526 90.6501 34.8456 90.8665 34.8833 91.1786L35.0216 92.3223L35.1676 92.1327C35.3868 91.8469 35.7727 91.748 36.1023 91.8928C36.28 91.9709 36.4762 92.0567 36.6534 92.1349C36.9852 92.2808 37.147 92.6272 37.1202 92.989L37.1196 92.9884Z" fill="white"/>
<path d="M34.8911 100C34.3647 100 33.8711 99.7207 33.6311 99.2857C32.2251 96.7376 31.7709 94.1681 32.2803 91.6473C32.3432 91.3386 32.5509 91.0752 32.8368 90.9424C33.103 90.8189 33.5573 90.6473 34.2111 90.5282C34.4073 90.4927 34.6112 90.5397 34.7714 90.6582C34.9321 90.7768 35.0381 90.9582 35.0622 91.1561L35.1502 91.8861C35.4273 91.6413 35.8253 91.573 36.1746 91.7266L36.7256 91.9686C37.1083 92.1364 37.3335 92.5419 37.2996 93.0009C37.1629 94.8578 36.8606 97.5546 35.8144 99.5262C35.6591 99.8191 35.318 99.9956 34.9026 99.9989C34.8987 99.9989 34.8944 99.9989 34.8905 99.9989L34.8911 100ZM34.3423 90.8774C34.3204 90.8774 34.2985 90.8796 34.2761 90.8834C33.6595 90.996 33.2359 91.1561 32.9888 91.2703C32.8068 91.3544 32.6745 91.5222 32.6346 91.7189C32.1426 94.1534 32.5843 96.6403 33.9476 99.1114C34.1646 99.5049 34.5932 99.6426 34.9004 99.6388C35.177 99.6366 35.4055 99.5289 35.4962 99.3573C36.6278 97.2245 36.8546 94.137 36.9399 92.9747C36.9629 92.6654 36.8251 92.4064 36.5808 92.2993L36.0297 92.0572C35.7756 91.9457 35.4798 92.0217 35.3104 92.2419L35.1644 92.4315C35.1196 92.4894 35.0447 92.5151 34.9736 92.4954C34.9031 92.4763 34.8512 92.4157 34.8419 92.343L34.7036 91.1992C34.6916 91.0981 34.6391 91.0091 34.5571 90.9484C34.4937 90.9014 34.4188 90.8774 34.3417 90.8774H34.3423Z" fill="#263238"/>
<path d="M34.6959 99.0895C34.6363 99.0895 34.5778 99.06 34.5434 99.0059C32.5017 95.8004 32.9641 92.109 32.9849 91.9533C32.998 91.8544 33.0871 91.7844 33.1877 91.7981C33.2866 91.8112 33.3561 91.9019 33.3429 92.0008C33.338 92.0374 32.8788 95.7206 34.8484 98.8125C34.9019 98.8966 34.8773 99.0081 34.7932 99.0616C34.7631 99.0808 34.7298 99.0901 34.6964 99.0901L34.6959 99.0895Z" fill="#263238"/>
<path d="M36.7613 95.1626C36.7449 95.1626 36.7279 95.1604 36.711 95.1555L35.3493 94.7632C35.2536 94.7353 35.1984 94.6358 35.2257 94.5397C35.2536 94.444 35.3537 94.3888 35.4493 94.4162L36.811 94.8085C36.9067 94.8364 36.9619 94.9359 36.9345 95.032C36.9116 95.1113 36.8394 95.1626 36.7613 95.1626Z" fill="#263238"/>
<path d="M36.4999 96.3463C36.4786 96.3463 36.4573 96.3425 36.4365 96.3348L35.1503 95.8512C35.0568 95.8163 35.0098 95.7119 35.0448 95.619C35.0798 95.5255 35.1842 95.4785 35.2771 95.5135L36.5633 95.9971C36.6568 96.0321 36.7038 96.1365 36.6688 96.2294C36.6415 96.3015 36.5726 96.3463 36.4999 96.3463Z" fill="#263238"/>
<path d="M25.7092 67.8021C25.7092 67.8021 32.2279 67.0272 38.101 70.3486C39.5813 71.1857 40.4893 72.7606 40.48 74.4607C40.4614 77.8362 40.1039 84.0062 38.0354 89.3621C37.9179 89.667 37.5686 89.8107 37.2696 89.6785L34.626 88.5085C34.4483 88.4298 34.3226 88.267 34.2926 88.0752C34.0979 86.838 33.4414 82.1324 34.0996 78.7187C34.8632 74.7569 22.0938 70.5579 22.0938 70.5579L25.7092 67.8015V67.8021Z" fill="#263238"/>
<path d="M45.5279 87.8894L43.1719 89.4376C43.0145 89.5408 42.8051 89.5146 42.6783 89.3758C41.2286 87.7872 33.0449 78.8647 30.9928 77.6963C28.739 76.4132 24.5282 74.4815 20.7034 74.5044C16.8791 74.5274 16.0723 71.8716 16.0723 71.8716L21.5261 68.3491C21.5261 68.3491 30.9633 69.4175 34.951 72.6596C38.5517 75.5875 44.5221 85.4806 45.6471 87.3741C45.7515 87.5501 45.699 87.7769 45.5279 87.8894Z" fill="#263238"/>
<path d="M40.4372 79.1782C40.3809 79.1782 40.3257 79.152 40.2907 79.1028C38.7006 76.8908 36.2259 73.9279 34.8375 72.7989C33.3353 71.5775 30.8803 70.5245 27.542 69.6693C27.4452 69.6447 27.3873 69.5463 27.4119 69.4496C27.4365 69.3529 27.5344 69.2944 27.6317 69.3196C31.0214 70.1879 33.5222 71.2639 35.0654 72.5185C36.4774 73.6666 38.9799 76.6607 40.5837 78.8919C40.6417 78.9728 40.6236 79.0853 40.5427 79.1438C40.511 79.1668 40.4738 79.1777 40.4378 79.1777L40.4372 79.1782Z" fill="#26AA9D"/>
<path d="M21.4377 59.7642L22.1363 61.2014C22.9677 62.9118 24.2463 64.3648 25.8365 65.4069L26.481 65.8293C26.8942 66.1004 27.3856 66.2261 27.8782 66.1878L27.9536 66.1818C28.7063 66.1233 29.4541 66.343 30.0554 66.7993L28.3647 67.3425C27.3337 67.6736 26.2115 67.596 25.2455 67.1064C24.3201 66.6375 23.1891 65.8676 22.2456 64.6397C20.2695 62.0658 19.8125 60.4811 19.8125 60.4811L21.4382 59.7647L21.4377 59.7642Z" fill="white"/>
<path d="M27.0815 67.7255C26.4189 67.7255 25.7652 67.5714 25.1639 67.2671C23.9388 66.6457 22.9084 65.7987 22.1027 64.749C20.1282 62.1779 19.6581 60.597 19.639 60.5309C19.6138 60.444 19.657 60.3522 19.7395 60.3161L21.3653 59.5997C21.4544 59.5603 21.5582 59.5986 21.6003 59.686L22.2989 61.1232C23.1156 62.8036 24.3734 64.2326 25.9357 65.2566L26.5802 65.6791C26.9579 65.9266 27.4138 66.043 27.8643 66.0086L27.9391 66.0026C28.7367 65.9392 29.5266 66.1725 30.164 66.6561C30.2175 66.6966 30.2443 66.7638 30.2328 66.8305C30.2214 66.8966 30.1743 66.9512 30.1104 66.972L28.4196 67.5152C27.979 67.6567 27.5281 67.7272 27.0815 67.7272V67.7255ZM20.0364 60.5789C20.2004 61.0265 20.7995 62.4599 22.3886 64.5293C23.1615 65.5359 24.1504 66.3485 25.3268 66.9452C26.2484 67.4124 27.3072 67.4922 28.3092 67.1703L29.6436 66.7419C29.1385 66.4496 28.5547 66.3162 27.9676 66.3616L27.8921 66.3676C27.3619 66.4091 26.8262 66.2709 26.3818 65.9802L25.7373 65.5577C24.1203 64.4982 22.8193 63.0189 21.9737 61.2801L21.351 59.9997L20.0364 60.5795V60.5789Z" fill="#263238"/>
<path d="M19.286 73.545C19.286 73.545 17.1427 75.1811 15.9641 74.7101C14.7856 74.2396 16.8141 72.2242 17.4116 72.1461C18.0091 72.0679 19.286 73.5445 19.286 73.5445V73.545Z" fill="#263238"/>
<path d="M19.6594 49.4136C20.6237 49.2797 21.723 50.124 21.6136 51.5628C21.5245 52.7382 20.2979 53.0934 19.7299 53.7213C17.8938 55.7514 19.6561 57.9547 18.2207 59.9799C16.8535 61.9089 14.7779 60.581 11.9999 62.7964C9.81334 64.5401 17.762 61.8903 14.9791 63.7303C12.7592 65.1981 8.59379 65.0751 6.2405 62.3778C4.00256 59.8127 3.48763 55.9618 5.78078 54.1038C7.84216 52.4333 9.29731 54.382 11.4953 52.8147C13.6622 51.2699 13.0664 49.7721 14.4199 49.1267C16.2708 48.2441 16.9251 49.7934 19.6589 49.4141L19.6594 49.4136Z" fill="#263238"/>
<path d="M8.25293 63.7834C8.37592 63.0605 8.55467 62.2107 8.73725 61.6506C9.29865 59.9265 9.6813 58.8047 11.6055 57.7795C11.8935 57.6259 12.1958 57.5013 12.5058 57.3981L13.6685 57.0101C13.6685 57.0101 18.4674 55.6379 20.39 57.4926C20.5458 57.6429 20.7425 57.8123 20.8688 58.0112L22.1212 59.8987L22.1097 59.9036C20.9967 60.3582 20.531 61.6883 21.1263 62.7326C21.8107 63.9332 22.7542 65.3354 23.6928 65.9185C23.989 66.1026 26.3784 67.0841 26.3784 67.0841C26.3784 67.0841 26.9649 68.871 23.2882 70.4033C19.6115 71.9355 16.9325 72.4907 16.1612 74.3826C15.7047 75.5028 13.8456 70.1328 12.6485 65.101C12.4183 64.1326 11.512 63.4807 10.5209 63.5731L8.25348 63.7834H8.25293Z" fill="white"/>
<path d="M16.004 74.7126C15.9958 74.7126 15.9876 74.7126 15.9805 74.7115C15.8067 74.6978 15.3994 74.6667 14.3176 71.5644C13.6824 69.7431 13.0101 67.402 12.4727 65.1424C12.2645 64.267 11.4308 63.6692 10.5371 63.7522L8.26961 63.9626C8.2144 63.9686 8.15865 63.9468 8.12038 63.9058C8.08212 63.8648 8.06517 63.808 8.07501 63.7528C8.22042 62.8981 8.40354 62.0915 8.56535 61.5943C9.11417 59.9084 9.51103 58.6904 11.5205 57.6193C11.8031 57.4685 12.1065 57.3401 12.4481 57.2259L13.6108 56.8379C13.8186 56.7783 18.5404 55.457 20.5143 57.3619C20.5406 57.3871 20.5679 57.4127 20.5958 57.439C20.7401 57.575 20.9035 57.7292 21.0205 57.9133L22.2712 59.798C22.3013 59.8434 22.309 59.8991 22.2931 59.9511C22.2772 60.003 22.239 60.0445 22.1887 60.0653L22.1772 60.0702C21.6923 60.2685 21.3163 60.6658 21.1457 61.1609C20.9762 61.6522 21.026 62.1926 21.2824 62.6429C22.1865 64.2293 23.0529 65.3085 23.7876 65.7654C23.9959 65.8949 25.4915 66.525 26.4465 66.9173C26.4951 66.9375 26.5328 66.978 26.5492 67.0277C26.5755 67.107 27.1445 68.9917 23.3574 70.5699C22.5287 70.9152 21.7355 71.2169 21.0358 71.4825C18.6328 72.3961 16.8967 73.0563 16.3282 74.4508C16.2374 74.6732 16.0948 74.7131 16.004 74.7131V74.7126ZM10.7033 63.3839C11.6981 63.3839 12.5897 64.0746 12.8242 65.0588C13.9787 69.9119 15.4705 74.0213 15.9838 74.3377C15.9871 74.3311 15.9903 74.3235 15.9947 74.3142C16.6223 72.7743 18.4202 72.0912 20.9085 71.1447C21.606 70.8797 22.3959 70.5792 23.2191 70.236C26.2497 68.9731 26.2655 67.5529 26.2207 67.2135C25.7418 67.0162 23.8751 66.2435 23.5974 66.0709C22.8009 65.5758 21.9165 64.4823 20.9691 62.8205C20.6608 62.2801 20.6012 61.632 20.8046 61.0423C20.9866 60.5145 21.3638 60.0789 21.8541 59.8221L20.7177 58.1095C20.6231 57.9608 20.4772 57.8231 20.3482 57.7013C20.3192 57.674 20.2908 57.6472 20.264 57.621C18.4377 55.8592 13.765 57.1685 13.7174 57.1821L12.5624 57.5679C12.2404 57.6756 11.9545 57.7964 11.6899 57.9373C9.80895 58.9396 9.45036 60.0401 8.90864 61.7052C8.76651 62.1418 8.60634 62.8309 8.47132 63.5812L10.5037 63.3927C10.5704 63.3867 10.6371 63.3834 10.7033 63.3834V63.3839Z" fill="#263238"/>
<path d="M22.5805 68.3009L20.8001 67.7938C20.5356 67.7183 20.2508 67.7867 20.0485 67.973L19.275 68.6883C19.1274 68.8249 18.9334 68.8987 18.7322 68.8971C17.8548 68.8878 13.8097 67.9501 13.3675 67.2795C13.1488 66.9478 12.8165 65.7872 12.5661 64.8259C12.3562 64.0205 11.5936 63.486 10.7644 63.5636L8.97852 63.7308C8.97852 63.7308 9.74381 68.0107 11.2842 69.3075C12.4803 70.3146 15.184 70.7009 19.0487 70.2512C19.0487 70.2512 19.8545 70.1146 20.4886 69.2659C20.8936 68.7238 21.9661 68.932 22.5849 68.7435C22.8047 68.6763 22.8019 68.3648 22.5811 68.302L22.5805 68.3009Z" fill="white"/>
<path d="M16.0861 70.6173C13.7881 70.6173 12.0869 70.2189 11.1686 69.4457C9.59588 68.1221 8.83332 63.9401 8.80161 63.7625C8.79286 63.7128 8.80489 63.6619 8.8355 63.6215C8.86611 63.5811 8.91203 63.5559 8.96232 63.551L10.7482 63.3838C11.6698 63.298 12.5078 63.8849 12.7412 64.78C13.1999 66.5374 13.4251 67.038 13.5186 67.18C13.8925 67.7473 17.7714 68.7063 18.7346 68.7167C18.8866 68.7183 19.0391 68.6615 19.1528 68.556L19.9263 67.8407C20.1728 67.6128 20.527 67.5281 20.8495 67.6205L22.6299 68.1276C22.8065 68.1779 22.9262 68.3353 22.9279 68.5189C22.9295 68.7025 22.8125 68.8621 22.6371 68.9156C22.4009 68.9877 22.1232 69.0058 21.8291 69.0243C21.3459 69.0555 20.8463 69.0877 20.6325 69.3735C19.9629 70.2697 19.114 70.4227 19.0784 70.4288C17.9955 70.555 16.9935 70.6173 16.0856 70.6173H16.0861ZM9.1941 63.8915C9.3641 64.7325 10.1103 68.0828 11.4009 69.1692C12.5882 70.1686 15.3684 70.4976 19.0281 70.0714C19.0281 70.0714 19.765 69.932 20.3444 69.1571C20.6577 68.7375 21.2683 68.6981 21.8067 68.6637C22.0789 68.6462 22.3364 68.6298 22.5326 68.5697C22.5561 68.5626 22.5682 68.5462 22.5682 68.5216C22.5682 68.497 22.5556 68.4806 22.5321 68.4741L20.7517 67.967C20.5489 67.909 20.327 67.962 20.1723 68.1052L19.3988 68.8205C19.22 68.9861 18.9871 69.0768 18.7422 69.0768H18.7319C17.8682 69.0675 13.7126 68.1276 13.2185 67.3784C13.0304 67.0932 12.7527 66.2494 12.393 64.8707C12.2044 64.1472 11.5277 63.6745 10.7826 63.7423L9.19519 63.8909L9.1941 63.8915Z" fill="#263238"/>
<path d="M13.8655 57.0406C13.8655 57.0406 14.8681 53.8094 14.9025 53.417C14.9025 53.417 14.5833 53.2487 14.6013 52.7569C14.6352 51.8214 15.5639 52.2848 15.5639 52.2848L15.6552 52.3066C16.1877 52.435 16.7458 52.4072 17.2634 52.2268L18.3496 51.8481C18.3496 51.8481 18.577 52.2471 18.3124 53.017C18.1862 53.3842 18.2108 53.8105 18.2775 54.2564C18.2949 54.3739 18.214 54.4837 18.0965 54.5018L17.8063 54.546C17.6548 54.8974 17.5193 55.1061 17.2684 55.3318C17.1995 55.3936 17.1093 55.4275 17.0175 55.4225C16.8923 55.416 16.6993 55.3892 16.4828 55.2985L16.3194 56.6696L17.0399 56.6521C17.0399 56.6521 17.2995 57.5111 15.9351 58.133C15.1818 58.4762 14.1153 58.4068 13.3107 58.2751C12.898 58.2078 12.7952 57.6619 13.1571 57.4521L13.8661 57.0401L13.8655 57.0406Z" fill="white"/>
<path d="M14.5286 58.563C14.0863 58.563 13.6496 58.5139 13.2806 58.4538C13.016 58.4106 12.8132 58.2122 12.7645 57.9494C12.7164 57.6871 12.834 57.4308 13.0652 57.2969L13.713 56.9204C14.082 55.7291 14.6067 53.975 14.7057 53.4957C14.5827 53.3853 14.4045 53.1542 14.4192 52.7509C14.4313 52.4263 14.54 52.2001 14.7439 52.0793C15.0757 51.8826 15.5152 52.064 15.6229 52.1143L15.6956 52.1318C16.1958 52.252 16.7162 52.2263 17.2016 52.0569L18.2878 51.6782C18.3698 51.6498 18.4611 51.6837 18.5043 51.7591C18.5152 51.7782 18.7688 52.2383 18.4808 53.076C18.3583 53.4329 18.3982 53.8597 18.454 54.2302C18.4862 54.4455 18.3375 54.6477 18.1222 54.6804L17.9292 54.71C17.7761 55.0449 17.628 55.2504 17.3869 55.4668C17.282 55.5608 17.1437 55.61 17.0059 55.6034C16.9119 55.5985 16.7823 55.5832 16.6337 55.5422L16.5216 56.4843L17.0338 56.4717C17.1163 56.4756 17.1874 56.5226 17.2109 56.6002C17.2235 56.6417 17.4995 57.6182 16.0083 58.2975C15.5748 58.4953 15.0473 58.563 14.528 58.563H14.5286ZM15.0971 52.3509C15.0347 52.3509 14.9763 52.3618 14.9287 52.3897C14.838 52.4438 14.7882 52.57 14.7811 52.764C14.768 53.128 14.9801 53.2542 14.9888 53.2591C15.0495 53.2941 15.0878 53.3629 15.0818 53.4329C15.0468 53.8329 14.141 56.7614 14.0377 57.0942C14.024 57.1373 13.995 57.1739 13.9562 57.1969L13.2472 57.6089C13.098 57.6953 13.1122 57.8417 13.1204 57.8843C13.1368 57.9734 13.203 58.0761 13.3396 58.098C14.0912 58.2204 15.1392 58.2986 15.8596 57.9696C16.7517 57.563 16.8758 57.0707 16.8791 56.8373L16.3226 56.851C16.2701 56.8482 16.2199 56.8308 16.1849 56.792C16.1499 56.7532 16.1329 56.7013 16.139 56.6493L16.3024 55.2783C16.309 55.222 16.3418 55.1723 16.391 55.1438C16.4396 55.1154 16.4992 55.1116 16.5517 55.1335C16.7446 55.2143 16.9163 55.2384 17.0256 55.2438C17.0704 55.2471 17.1125 55.2296 17.1464 55.1996C17.3678 55.0007 17.4924 54.8182 17.6395 54.4761C17.6641 54.4192 17.7166 54.3783 17.7778 54.369L18.068 54.3247C18.0872 54.3214 18.1008 54.3034 18.0981 54.2843C18.0363 53.8706 17.9926 53.3897 18.1407 52.9596C18.2862 52.5367 18.2687 52.2416 18.2353 52.0804L17.3219 52.399C16.7709 52.5913 16.18 52.6203 15.612 52.4837L15.5207 52.4618C15.5076 52.4585 15.4945 52.4542 15.4824 52.4476C15.4174 52.4154 15.2474 52.352 15.0965 52.352L15.0971 52.3509Z" fill="#263238"/>
<path d="M16.4815 55.4794C16.4558 55.4794 16.4296 55.474 16.405 55.4625L16.2055 55.369C16.1153 55.3269 16.0765 55.2192 16.1185 55.129C16.1606 55.0388 16.2683 54.9995 16.3585 55.0421L16.558 55.1356C16.6482 55.1777 16.6871 55.2854 16.645 55.3756C16.6143 55.4412 16.5493 55.4794 16.4815 55.4794Z" fill="#263238"/>
<path d="M31.1688 66.6146L22.9463 69.1141L25.6915 59.7866C25.7932 59.4357 26.0709 59.1571 26.4273 59.0489L33.1001 57.0204C33.5238 56.8914 33.9195 57.2674 33.7987 57.6843L31.1677 66.6151L31.1688 66.6146Z" fill="#263238"/>
<path d="M29.2091 62.9371C29.1118 63.2733 28.7887 63.6199 28.4875 63.7117C28.1863 63.8036 28.0207 63.6051 28.1175 63.269C28.2148 62.9328 28.5378 62.5862 28.839 62.4944C29.1402 62.4025 29.3059 62.601 29.2091 62.9371Z" fill="white"/>
<path d="M30.8814 67.2435L17.9829 71.1644C17.7167 71.2453 17.4346 71.095 17.3537 70.8283L17.3154 70.7595L31.1788 66.5452L31.217 66.614C31.2979 66.8807 31.1476 67.1627 30.8814 67.2435Z" fill="#263238"/>
<path d="M39.4717 20.865L49.3167 23.7251L56.3022 15.9556L39.4717 20.865Z" fill="white"/>
<path d="M44.3777 25.482L43.0029 21.8907L52.1548 18.1523L44.7336 22.3934L46.7917 22.9912L44.3777 25.482Z" fill="#D8D8D8"/>
<path d="M44.6118 24.4505C44.6052 24.4505 44.5981 24.4505 44.5915 24.4494C44.4997 24.4385 44.4342 24.3548 44.4456 24.263L44.6407 22.6543C44.6517 22.5625 44.7369 22.4958 44.8271 22.5084C44.9189 22.5193 44.9844 22.6029 44.973 22.6947L44.7779 24.3035C44.7675 24.3887 44.6954 24.451 44.6118 24.451V24.4505Z" fill="white"/>
<path d="M3.20565 48.9746C3.15973 48.9746 3.11326 48.9571 3.07828 48.9216C3.00776 48.8511 3.00776 48.7368 3.07828 48.6663L3.4981 48.2465C3.56861 48.176 3.68286 48.176 3.75338 48.2465C3.82389 48.317 3.82389 48.4313 3.75338 48.5018L3.33356 48.9216C3.29857 48.9566 3.25211 48.9746 3.20619 48.9746H3.20565Z" fill="#F8931F"/>
<path d="M4.79158 47.3889C4.74566 47.3889 4.6992 47.3714 4.66422 47.3359C4.5937 47.2654 4.5937 47.1511 4.66422 47.0806L5.08403 46.6608C5.15455 46.5903 5.2688 46.5903 5.33931 46.6608C5.40983 46.7313 5.40983 46.8456 5.33931 46.9161L4.9195 47.3359C4.88451 47.3709 4.83805 47.3889 4.79213 47.3889H4.79158Z" fill="#F8931F"/>
<path d="M5.2114 48.9746C5.16548 48.9746 5.11902 48.9571 5.08403 48.9216L4.66422 48.5018C4.5937 48.4313 4.5937 48.317 4.66422 48.2465C4.73473 48.176 4.84898 48.176 4.9195 48.2465L5.33931 48.6663C5.40983 48.7368 5.40983 48.8511 5.33931 48.9216C5.30433 48.9566 5.25787 48.9746 5.21195 48.9746H5.2114Z" fill="#F8931F"/>
<path d="M3.62546 47.3889C3.57955 47.3889 3.53308 47.3714 3.4981 47.3359L3.07828 46.9161C3.00776 46.8456 3.00776 46.7313 3.07828 46.6608C3.14879 46.5903 3.26304 46.5903 3.33356 46.6608L3.75338 47.0806C3.82389 47.1511 3.82389 47.2654 3.75338 47.3359C3.71839 47.3709 3.67193 47.3889 3.62601 47.3889H3.62546Z" fill="#F8931F"/>
<path d="M23.5583 4.78658C23.5086 4.78658 23.4588 4.76581 23.4233 4.72591C23.3572 4.65102 23.3643 4.53731 23.4386 4.47117L23.883 4.07759C23.9579 4.01145 24.0722 4.01855 24.1378 4.0929C24.2039 4.16779 24.1968 4.28149 24.1224 4.34763L23.678 4.74121C23.6436 4.77182 23.601 4.78658 23.5583 4.78658Z" fill="#F8931F"/>
<path d="M25.237 3.30099C25.1873 3.30099 25.1375 3.28021 25.102 3.24031C25.0359 3.16542 25.043 3.05172 25.1173 2.98558L25.5617 2.592C25.6366 2.52585 25.7509 2.53296 25.8165 2.6073C25.8826 2.68219 25.8755 2.79589 25.8012 2.86203L25.3567 3.25562C25.3223 3.28623 25.2797 3.30099 25.237 3.30099Z" fill="#F8931F"/>
<path d="M25.5603 4.90871C25.5105 4.90871 25.4608 4.88794 25.4253 4.84803L25.0317 4.40361C24.9655 4.32872 24.9727 4.21502 25.047 4.14888C25.1219 4.08274 25.2356 4.08984 25.3017 4.16419L25.6953 4.6086C25.7615 4.68349 25.7543 4.79719 25.68 4.86334C25.6456 4.89395 25.6029 4.90871 25.5603 4.90871Z" fill="#F8931F"/>
<path d="M24.074 3.23C24.0242 3.23 23.9745 3.20923 23.9389 3.16932L23.5454 2.7249C23.4792 2.65056 23.4863 2.53631 23.5607 2.47017C23.6356 2.40403 23.7498 2.41113 23.8154 2.48547L24.209 2.92989C24.2751 3.00478 24.268 3.11848 24.1937 3.18463C24.1592 3.21524 24.1166 3.23 24.074 3.23Z" fill="#F8931F"/>
<path d="M19.2865 10.2489C19.2674 10.2489 19.2488 10.2483 19.2297 10.2472C18.9826 10.2319 18.7563 10.1221 18.5928 9.93684C18.4289 9.75159 18.3469 9.51388 18.3622 9.26688C18.3775 9.01988 18.4873 8.7942 18.6727 8.63026C18.858 8.46632 19.0941 8.3849 19.3428 8.39965C19.8523 8.4308 20.2415 8.87016 20.2104 9.38C20.1803 9.87018 19.7714 10.2494 19.2865 10.2494V10.2489ZM19.2854 8.75868C19.1477 8.75868 19.0159 8.80841 18.9121 8.90021C18.7989 9.00021 18.7317 9.13847 18.7224 9.28874C18.7033 9.59968 18.9411 9.86799 19.2521 9.88712C19.562 9.90624 19.8315 9.66853 19.8507 9.3576C19.8698 9.04666 19.632 8.77835 19.3215 8.75977C19.3095 8.75922 19.298 8.75868 19.286 8.75868H19.2854Z" fill="#F8931F"/>
<path d="M61.9148 95.0351C61.865 95.0351 61.8153 95.0143 61.7797 94.9744C61.7136 94.8995 61.7207 94.7859 61.795 94.7197L62.2395 94.3261C62.3143 94.26 62.4286 94.2671 62.4942 94.3414C62.5603 94.4163 62.5532 94.53 62.4789 94.5962L62.0345 94.9897C62 95.0204 61.9574 95.0351 61.9148 95.0351Z" fill="#F8931F"/>
<path d="M63.5944 93.5488C63.5447 93.5488 63.495 93.528 63.4594 93.4881C63.3933 93.4132 63.4004 93.2995 63.4747 93.2334L63.9192 92.8398C63.994 92.7737 64.1077 92.7808 64.1739 92.8551C64.24 92.93 64.2329 93.0437 64.1586 93.1098L63.7142 93.5034C63.6797 93.534 63.6371 93.5488 63.5944 93.5488Z" fill="#F8931F"/>
<path d="M63.9177 95.157C63.868 95.157 63.8182 95.1362 63.7827 95.0963L63.3891 94.6519C63.323 94.577 63.3301 94.4633 63.4044 94.3972C63.4788 94.331 63.5936 94.3381 63.6592 94.4125L64.0527 94.8569C64.1189 94.9318 64.1118 95.0455 64.0374 95.1116C64.003 95.1422 63.9604 95.157 63.9177 95.157Z" fill="#F8931F"/>
<path d="M62.4314 93.4776C62.3816 93.4776 62.3319 93.4568 62.2964 93.4169L61.9028 92.9725C61.8366 92.8976 61.8437 92.7839 61.9181 92.7177C61.9924 92.6516 62.1067 92.6587 62.1728 92.733L62.5664 93.1774C62.6326 93.2523 62.6254 93.366 62.5511 93.4322C62.5167 93.4628 62.474 93.4776 62.4314 93.4776Z" fill="#F8931F"/>
<path d="M18.0442 38.8303C17.6233 38.8303 17.1985 38.8166 16.782 38.7904C16.6825 38.7838 16.6071 38.698 16.6136 38.5986C16.6202 38.4991 16.6994 38.4221 16.8055 38.4303C17.2767 38.4603 17.7583 38.4729 18.2355 38.4685H18.2371C18.3361 38.4685 18.4164 38.5483 18.4175 38.6472C18.4186 38.7467 18.3383 38.8281 18.2388 38.8292C18.1743 38.8297 18.1092 38.8303 18.0447 38.8303H18.0442ZM19.6781 38.7647C19.5851 38.7647 19.5059 38.6931 19.4982 38.5986C19.4906 38.4991 19.5644 38.4122 19.6639 38.4046C20.1329 38.3674 20.6112 38.3133 21.0862 38.2434C21.1857 38.2292 21.2764 38.2969 21.2912 38.3958C21.3054 38.4942 21.2376 38.586 21.1387 38.6008C20.656 38.6712 20.1695 38.7264 19.6928 38.7647C19.6879 38.7647 19.683 38.7652 19.6781 38.7652V38.7647ZM15.358 38.645C15.3498 38.645 15.341 38.6445 15.3328 38.6434C14.8523 38.5762 14.3697 38.4893 13.8979 38.386C13.8006 38.3647 13.7388 38.2685 13.7602 38.1712C13.7815 38.074 13.8777 38.0117 13.975 38.0335C14.4374 38.1352 14.9108 38.2199 15.382 38.286C15.481 38.2997 15.5499 38.3909 15.5356 38.4898C15.5231 38.58 15.446 38.645 15.3569 38.645H15.358ZM22.5332 38.3483C22.4495 38.3483 22.3746 38.2898 22.3566 38.2051C22.3358 38.1073 22.3987 38.0117 22.496 37.9915C22.9563 37.8947 23.4247 37.7816 23.8894 37.6554C23.9861 37.6292 24.0845 37.686 24.1108 37.7822C24.137 37.8783 24.0802 37.9772 23.9839 38.0035C23.5127 38.1313 23.0372 38.2461 22.5703 38.3445C22.5578 38.3472 22.5452 38.3483 22.5326 38.3483H22.5332ZM12.5395 38.0259C12.522 38.0259 12.5045 38.0231 12.487 38.0182C12.0257 37.8789 11.5621 37.7199 11.109 37.5439C11.016 37.5078 10.9696 37.4035 11.0056 37.3106C11.0417 37.2177 11.1467 37.1712 11.2391 37.2073C11.684 37.3794 12.1388 37.5357 12.5914 37.6723C12.6871 37.7013 12.7407 37.8018 12.7122 37.8969C12.6887 37.9751 12.6171 38.0253 12.5395 38.0253V38.0259ZM25.3199 37.5936C25.244 37.5936 25.1734 37.5455 25.1483 37.4696C25.1171 37.375 25.1685 37.2729 25.2631 37.2417C25.7091 37.0947 26.1639 36.9319 26.6144 36.7575C26.7073 36.7215 26.8117 36.7679 26.8478 36.8608C26.8839 36.9537 26.8374 37.0581 26.7445 37.0942C26.288 37.2701 25.8278 37.4352 25.3762 37.5843C25.3577 37.5904 25.3385 37.5936 25.3194 37.5936H25.3199ZM9.85223 36.9778C9.82326 36.9778 9.79429 36.9712 9.76696 36.9565C9.34112 36.728 8.93278 36.4417 8.55396 36.1051C8.47962 36.039 8.47251 35.9247 8.5392 35.8504C8.60535 35.7761 8.71959 35.7695 8.79394 35.8357C9.15144 36.1537 9.53627 36.4237 9.93751 36.639C10.0255 36.686 10.0583 36.7953 10.0113 36.8832C9.9785 36.9439 9.91673 36.9783 9.85223 36.9783V36.9778ZM28.0149 36.5548C27.9454 36.5548 27.8793 36.5144 27.8498 36.4472C27.8093 36.3559 27.8509 36.2493 27.9422 36.2094C28.3735 36.0198 28.8119 35.8154 29.2448 35.6023C29.3345 35.5586 29.4427 35.5952 29.4864 35.6843C29.5307 35.7739 29.4935 35.8821 29.4044 35.9258C28.9671 36.1411 28.5238 36.3477 28.0881 36.5395C28.0646 36.5499 28.04 36.5548 28.0154 36.5548H28.0149ZM30.6076 35.2799C30.5436 35.2799 30.4819 35.246 30.4491 35.1854C30.4015 35.0979 30.4337 34.9881 30.5218 34.9406C30.9367 34.7149 31.3576 34.4761 31.773 34.2307C31.8588 34.1804 31.9693 34.2083 32.0206 34.2941C32.0715 34.3799 32.0431 34.4903 31.9572 34.5411C31.5385 34.7892 31.1138 35.0302 30.6945 35.2575C30.6672 35.2723 30.6376 35.2794 30.6087 35.2794L30.6076 35.2799ZM7.70011 35.0881C7.64545 35.0881 7.59133 35.0635 7.5558 35.016C7.26881 34.6356 7.00588 34.2165 6.77247 33.7701C6.72655 33.6815 6.76099 33.5728 6.849 33.5269C6.93755 33.481 7.04633 33.5149 7.09225 33.6034C7.31583 34.0324 7.56892 34.4345 7.84333 34.799C7.90346 34.8788 7.88761 34.9919 7.8078 35.0515C7.77555 35.0761 7.73728 35.0876 7.69957 35.0876L7.70011 35.0881ZM33.0953 33.8083C33.0357 33.8083 32.9778 33.7788 32.9434 33.7252C32.8898 33.6411 32.9138 33.5296 32.998 33.4761C33.3971 33.2203 33.8005 32.952 34.1974 32.6793C34.2794 32.623 34.392 32.6433 34.4483 32.7258C34.5046 32.8077 34.4843 32.9203 34.4018 32.9766C34.0017 33.252 33.595 33.522 33.1926 33.7799C33.1626 33.799 33.1287 33.8083 33.0953 33.8083ZM6.3603 32.5432C6.28596 32.5432 6.21599 32.4968 6.19029 32.423C6.03068 31.97 5.89675 31.4957 5.79234 31.0126C5.77157 30.9153 5.83334 30.8192 5.93064 30.7979C6.0274 30.7776 6.12415 30.8388 6.14547 30.9361C6.2466 31.4044 6.37615 31.8645 6.53085 32.3028C6.5642 32.3968 6.51445 32.4995 6.42043 32.5329C6.40075 32.54 6.38053 32.5432 6.3603 32.5432ZM35.477 32.17C35.4218 32.17 35.3672 32.1449 35.3316 32.0968C35.2726 32.0165 35.2895 31.9033 35.3699 31.8443C35.7531 31.5624 36.139 31.2689 36.5167 30.9727C36.5949 30.9115 36.7086 30.9252 36.7704 31.0033C36.8316 31.0815 36.8179 31.1951 36.7398 31.2569C36.3593 31.5552 35.9701 31.8509 35.5842 32.135C35.5519 32.1585 35.5142 32.17 35.477 32.17ZM37.7527 30.3858C37.7008 30.3858 37.6494 30.364 37.6139 30.3208C37.5499 30.2443 37.5603 30.1306 37.6368 30.0667C38.0058 29.759 38.3731 29.4432 38.7295 29.1273C38.8039 29.0612 38.9181 29.0678 38.9843 29.1426C39.0504 29.2169 39.0439 29.3312 38.969 29.3973C38.6098 29.7153 38.2398 30.0339 37.868 30.3437C37.8341 30.3722 37.7932 30.3858 37.7527 30.3858ZM5.74916 29.729C5.65732 29.729 5.57861 29.659 5.56986 29.5656C5.53323 29.1743 5.51465 28.7765 5.51465 28.3836C5.51465 28.2902 5.51574 28.1962 5.51793 28.1022C5.52012 28.0038 5.60047 27.9257 5.69832 27.9257H5.70269C5.80218 27.9278 5.88144 28.0104 5.87926 28.1104C5.87707 28.2016 5.87598 28.2923 5.87598 28.3836C5.87598 28.7656 5.89402 29.1514 5.92955 29.5317C5.93884 29.6312 5.86614 29.7191 5.76665 29.7284C5.76064 29.729 5.75517 29.7295 5.7497 29.7295L5.74916 29.729ZM39.9158 28.4656C39.8682 28.4656 39.8201 28.4464 39.7851 28.4093C39.7162 28.3371 39.7195 28.2229 39.7917 28.1541C40.2667 27.7038 40.6116 27.3552 40.8172 27.142C40.8866 27.0699 41.0008 27.0683 41.0724 27.1371C41.144 27.2065 41.1462 27.3207 41.0774 27.3923C40.8691 27.6082 40.5203 27.9606 40.0404 28.4158C40.0054 28.4492 39.9606 28.4656 39.9163 28.4656H39.9158ZM5.81475 26.8486C5.80655 26.8486 5.79781 26.848 5.78906 26.847C5.69012 26.8327 5.62179 26.7415 5.63546 26.6431C5.70433 26.1557 5.80327 25.6732 5.929 25.2081C5.95524 25.1119 6.05473 25.0551 6.15039 25.0808C6.2466 25.107 6.30345 25.2059 6.27776 25.3021C6.15586 25.7529 6.06019 26.2213 5.9935 26.6934C5.98093 26.7836 5.90331 26.8486 5.81475 26.8486ZM6.57021 24.0704C6.54725 24.0704 6.5232 24.066 6.50079 24.0562C6.40895 24.0179 6.36577 23.9119 6.40403 23.8201C6.59481 23.3644 6.81729 22.9234 7.06492 22.5092C7.1163 22.4239 7.22727 22.396 7.31255 22.4469C7.39837 22.4982 7.42625 22.6086 7.37486 22.6944C7.13598 23.0939 6.92115 23.5196 6.73748 23.9595C6.70851 24.0289 6.64127 24.0704 6.57076 24.0704H6.57021ZM8.05105 21.6048C8.0106 21.6048 7.96961 21.5911 7.93626 21.5632C7.85918 21.4998 7.8488 21.3862 7.91221 21.3091C8.22489 20.931 8.56982 20.5758 8.93606 20.2539C9.01095 20.1878 9.1252 20.1954 9.1908 20.2703C9.25694 20.3452 9.24929 20.4588 9.1744 20.525C8.82236 20.8348 8.4911 21.1758 8.19045 21.5392C8.15492 21.5824 8.10299 21.6048 8.05105 21.6048ZM10.2097 19.7069C10.1501 19.7069 10.0917 19.6774 10.0572 19.6227C10.0037 19.5386 10.0288 19.4271 10.1135 19.3736C10.5219 19.1156 10.9581 18.8845 11.4112 18.6856C11.5025 18.6457 11.6091 18.6872 11.649 18.7785C11.6889 18.8697 11.6474 18.9763 11.5561 19.0162C11.1193 19.2074 10.699 19.4304 10.3059 19.6785C10.2759 19.6976 10.2425 19.7064 10.2097 19.7064V19.7069Z" fill="#F8931F"/>
<path d="M30.2788 55.699C30.2602 55.699 30.2411 55.6963 30.2225 55.6897C30.1279 55.6586 30.0765 55.5564 30.1077 55.4619C30.1093 55.4569 30.275 54.9536 30.5237 54.082C30.551 53.9864 30.651 53.9312 30.7467 53.958C30.8424 53.9853 30.8981 54.0853 30.8708 54.181C30.6199 55.0602 30.4521 55.5695 30.4504 55.5744C30.4253 55.6504 30.3548 55.6985 30.2788 55.6985V55.699ZM31.078 52.9181C31.0627 52.9181 31.0474 52.9164 31.032 52.9121C30.9358 52.8869 30.8779 52.788 30.903 52.6918C31.0238 52.2312 31.1419 51.7612 31.2545 51.294C31.278 51.1973 31.3753 51.1377 31.4721 51.1607C31.5688 51.1842 31.6284 51.2814 31.6055 51.3782C31.4923 51.8476 31.3737 52.3203 31.2523 52.7831C31.231 52.864 31.1578 52.9181 31.078 52.9181ZM31.7547 50.1087C31.7421 50.1087 31.729 50.1076 31.7159 50.1044C31.6186 50.083 31.5568 49.9863 31.5787 49.8891C31.6815 49.4229 31.7815 48.9486 31.8755 48.4786C31.8952 48.3808 31.9903 48.318 32.0882 48.3371C32.186 48.3568 32.2494 48.4519 32.2297 48.5497C32.1352 49.0213 32.0346 49.4983 31.9313 49.9667C31.9127 50.0508 31.8378 50.1082 31.7552 50.1082L31.7547 50.1087ZM32.3227 47.2759C32.3123 47.2759 32.3013 47.2748 32.2904 47.2732C32.192 47.2557 32.127 47.1617 32.1445 47.0639C32.2297 46.5884 32.3112 46.1108 32.385 45.6431C32.4008 45.5447 32.4927 45.478 32.5916 45.4933C32.69 45.5092 32.7572 45.6015 32.7414 45.6999C32.667 46.1698 32.5856 46.6502 32.4998 47.1278C32.4839 47.2152 32.4079 47.2764 32.3221 47.2764L32.3227 47.2759ZM32.7747 44.4228C32.7665 44.4228 32.7583 44.4228 32.7501 44.4212C32.6512 44.4075 32.5823 44.3168 32.5954 44.2179C32.6605 43.7403 32.7206 43.2594 32.7736 42.7889C32.7846 42.69 32.8737 42.6179 32.9732 42.6299C33.0721 42.6408 33.1432 42.7304 33.1322 42.8293C33.0787 43.3026 33.0185 43.7862 32.9529 44.2665C32.9404 44.3572 32.8633 44.4228 32.7742 44.4228H32.7747ZM33.0978 41.5523C33.0923 41.5523 33.0869 41.5523 33.0819 41.5517C32.9825 41.543 32.9092 41.4555 32.918 41.3561C32.9606 40.8719 32.9967 40.3888 33.0245 39.9205C33.0306 39.8211 33.1136 39.7451 33.2159 39.7511C33.3154 39.7571 33.3913 39.8424 33.3853 39.9424C33.3569 40.414 33.3208 40.9003 33.2776 41.3878C33.2694 41.4818 33.1907 41.5523 33.0983 41.5523H33.0978ZM33.2716 38.6702C33.2716 38.6702 33.2678 38.6702 33.2656 38.6702C33.1661 38.667 33.088 38.5839 33.0907 38.4844C33.106 38.0068 33.1131 37.5298 33.1131 37.0669V37.0467C33.1131 36.9472 33.194 36.8664 33.2935 36.8664C33.393 36.8664 33.4739 36.9472 33.4739 37.0467V37.0669C33.4739 37.5336 33.4662 38.0145 33.4509 38.4959C33.4476 38.5937 33.3678 38.6708 33.2705 38.6708L33.2716 38.6702ZM33.2683 35.7827C33.1716 35.7827 33.0918 35.7062 33.088 35.609C33.0705 35.1248 33.0442 34.6423 33.0092 34.174C33.0016 34.0745 33.0765 33.9882 33.176 33.9805C33.2738 33.9734 33.3618 34.0477 33.3695 34.1472C33.405 34.6199 33.4318 35.1073 33.4493 35.5958C33.4526 35.6953 33.3749 35.7789 33.2755 35.7827C33.2733 35.7827 33.2711 35.7827 33.2689 35.7827H33.2683ZM33.0497 32.9034C32.9595 32.9034 32.8819 32.8362 32.8709 32.7444C32.8135 32.263 32.7447 31.7854 32.6665 31.3242C32.6496 31.2258 32.7162 31.1329 32.8141 31.1165C32.9108 31.099 33.0054 31.1662 33.0218 31.2641C33.1011 31.7307 33.1705 32.2149 33.2284 32.7018C33.2405 32.8007 33.1694 32.8903 33.0705 32.9023C33.0634 32.9034 33.0563 32.9034 33.0486 32.9034H33.0497ZM32.5643 30.0586C32.4817 30.0586 32.4074 30.0017 32.3883 29.9181C32.2806 29.4449 32.1592 28.9782 32.028 28.5323C32.0001 28.4367 32.0548 28.3361 32.1505 28.3083C32.2461 28.2809 32.3467 28.335 32.3746 28.4307C32.508 28.8842 32.631 29.358 32.7403 29.8389C32.7622 29.9362 32.7015 30.0329 32.6042 30.0547C32.5905 30.058 32.5774 30.0591 32.5643 30.0591V30.0586ZM31.746 27.2918C31.6727 27.2918 31.6038 27.247 31.577 27.1744C31.4076 26.7208 31.2217 26.2776 31.0249 25.8568C30.9828 25.7667 31.0217 25.659 31.1119 25.6169C31.2021 25.5743 31.3097 25.6137 31.3518 25.7038C31.553 26.1333 31.7427 26.5858 31.9154 27.0481C31.9504 27.1416 31.9028 27.2454 31.8094 27.2804C31.7886 27.288 31.7673 27.2918 31.7465 27.2918H31.746ZM30.5193 24.683C30.457 24.683 30.3969 24.6508 30.3635 24.5934C30.1213 24.1781 29.86 23.777 29.5862 23.4C29.5277 23.3191 29.5457 23.2065 29.6261 23.148C29.7064 23.0896 29.8196 23.1076 29.8781 23.1879C30.1585 23.5743 30.4264 23.9863 30.6751 24.4115C30.7254 24.4978 30.6964 24.6082 30.61 24.6585C30.5816 24.6754 30.5499 24.683 30.5193 24.683ZM28.8247 22.354C28.7755 22.354 28.7263 22.3338 28.6908 22.2945C28.3721 21.9425 28.0321 21.6059 27.6801 21.2955C27.6052 21.2294 27.5981 21.1158 27.6642 21.0409C27.7303 20.966 27.844 20.9589 27.9189 21.025C28.2814 21.3447 28.6312 21.6906 28.9586 22.0529C29.0253 22.1267 29.0199 22.2409 28.9461 22.3076C28.9116 22.3387 28.8684 22.354 28.8253 22.354H28.8247ZM26.666 20.4496C26.6305 20.4496 26.5944 20.4392 26.5627 20.4174C26.1779 20.1485 25.7706 19.8977 25.3536 19.6709C25.2661 19.6234 25.2338 19.5135 25.2814 19.4261C25.329 19.3387 25.4388 19.3064 25.5263 19.354C25.9554 19.5873 26.3736 19.8452 26.7699 20.1217C26.8519 20.1786 26.8716 20.2911 26.8147 20.3731C26.7797 20.4234 26.7234 20.4502 26.6666 20.4502L26.666 20.4496ZM24.1384 19.0714C24.1154 19.0714 24.0919 19.0671 24.0695 19.0578C23.6393 18.8791 23.1883 18.7173 22.7291 18.5764C22.634 18.5474 22.5805 18.4463 22.6094 18.3512C22.6384 18.2556 22.7395 18.2026 22.8346 18.2315C23.3053 18.3758 23.7672 18.5419 24.2078 18.7244C24.3002 18.7627 24.3434 18.8682 24.3051 18.9605C24.2761 19.0299 24.2094 19.072 24.1384 19.072V19.0714Z" fill="#F8931F"/>
<path d="M82.018 93.1178C82.018 93.1178 76.2237 81.7908 79.0394 70.778C79.1334 70.4097 80.5662 70.8195 80.6799 70.4523C80.8253 69.9829 79.6593 68.7375 79.8391 68.2719C80.5082 66.5407 81.4222 64.8401 82.6385 63.2161C82.6385 63.2161 84.9338 66.5577 86.1249 71.7742C86.2146 72.1676 84.7507 73.2627 84.8261 73.6769C84.8977 74.0682 86.5103 73.7769 86.5666 74.1857C87.298 79.47 86.6683 86.163 82.0175 93.1178H82.018Z" fill="#C2E1DE"/>
<path d="M76.9748 79.7462C76.7337 79.4167 75.3605 80.6063 75.1156 80.2932C74.874 79.9845 75.5256 77.7527 75.2818 77.4604C70.4943 71.7253 65.398 69.0957 65.398 69.0957C64.9465 72.0755 64.9973 74.9286 65.415 77.6298C65.4817 78.0609 67.4332 78.7812 67.5179 79.2047C67.6108 79.6692 66.0179 80.2495 66.1316 80.7047C67.8087 87.4251 71.4701 92.682 75.0987 96.7908C77.9303 95.7941 80.4984 94.5422 82.8151 93.0744C81.701 87.4677 79.5861 83.314 76.9759 79.7468L76.9748 79.7462Z" fill="#26AA9D"/>
<path d="M78.4053 93.0175C78.3473 93.0175 78.2905 92.9896 78.2555 92.9377C76.9725 91.0328 75.7224 89.0672 74.5395 87.0961C74.4881 87.0108 74.5159 86.8999 74.6012 86.8485C74.6865 86.7972 74.7975 86.825 74.8489 86.9103C76.029 88.8759 77.2759 90.836 78.5551 92.7361C78.6108 92.8186 78.589 92.9312 78.5064 92.9864C78.4753 93.0071 78.4403 93.017 78.4058 93.017L78.4053 93.0175Z" fill="#D8D8D8"/>
<path d="M73.0426 84.3523C72.9797 84.3523 72.9185 84.3195 72.8857 84.261C70.9736 80.8899 69.1882 77.3926 67.5784 73.8668L66.8426 72.2548C66.8011 72.164 66.841 72.0569 66.9317 72.0159C67.0225 71.9744 67.1296 72.0143 67.1706 72.105L67.9064 73.7171C69.5119 77.2335 71.2928 80.7216 73.1995 84.0834C73.2487 84.1703 73.2181 84.2802 73.1317 84.3293C73.1033 84.3452 73.0732 84.3528 73.0426 84.3528V84.3523Z" fill="#D8D8D8"/>
<path d="M81.6902 93.7508C81.6902 93.7508 79.397 81.6456 91.2514 77.4438C91.2514 77.4438 92.2447 88.0107 81.6902 93.7508Z" fill="#26AA9D"/>
<path d="M83.8181 90.5992C83.7984 90.5992 83.7782 90.5959 83.7585 90.5893C83.6645 90.5566 83.6147 90.4533 83.6481 90.3593C85.0081 86.4767 89.238 80.464 89.2806 80.4039C89.338 80.3224 89.4512 80.3033 89.5321 80.3607C89.6135 80.4181 89.6327 80.5307 89.5753 80.6121C89.5332 80.6722 85.3317 86.6433 83.9886 90.479C83.9624 90.5533 83.893 90.5997 83.8181 90.5997V90.5992Z" fill="#D8D8D8"/>
</svg>
