<svg width="113" height="63" viewBox="0 0 113 63" fill="none" xmlns="http://www.w3.org/2000/svg">
<path fill-rule="evenodd" clip-rule="evenodd" d="M96.9297 1.24135C96.7534 1.29383 96.5966 1.34518 96.4658 1.39595C96.3688 1.43361 96.1742 1.51138 96.0088 1.64512L96.0085 1.64536C95.9509 1.69187 95.6804 1.91064 95.6215 2.31383C95.5411 2.86516 95.8982 3.20276 96.0751 3.32004C96.2373 3.42752 96.3954 3.46706 96.4581 3.48166C96.5405 3.50082 96.6186 3.51109 96.6805 3.51732C97.0941 3.55893 97.8916 3.51221 98.7583 3.44615C99.1697 3.41479 99.5039 3.1387 99.6292 2.77144C99.8981 2.74433 100.177 2.72226 100.465 2.70522C101.016 2.67259 101.437 2.1992 101.404 1.64788C101.372 1.09656 100.898 0.67608 100.347 0.708716C99.103 0.782341 97.9173 0.947314 96.9297 1.24135ZM97.1477 3.27787C97.1461 3.27867 97.1453 3.27908 97.1454 3.27908C97.1456 3.27909 97.1489 3.27764 97.1548 3.27466C97.1516 3.27606 97.1493 3.27713 97.1477 3.27787ZM37.3764 22.2543C37.8932 22.0594 38.1542 21.4825 37.9593 20.9658C37.7645 20.449 37.1876 20.188 36.6708 20.3829C35.3082 20.8966 33.9806 21.4757 32.6992 22.1293C31.4483 22.7674 30.251 23.4336 29.1026 24.1281C28.63 24.4139 28.4786 25.0287 28.7644 25.5013C29.0501 25.9739 29.6649 26.1253 30.1375 25.8395C31.2438 25.1705 32.3989 24.5276 33.608 23.9109C34.8174 23.294 36.0765 22.7444 37.3764 22.2543ZM44.9614 18.0528C44.42 18.1622 44.0699 18.6898 44.1793 19.2311C44.2887 19.7725 44.8162 20.1226 45.3575 20.0132C48.0619 19.4667 50.8399 19.0822 53.6264 18.8029C54.1759 18.7478 54.5768 18.2576 54.5217 17.7081C54.4666 17.1586 53.9765 16.7577 53.4269 16.8128C50.5921 17.097 47.7462 17.49 44.9614 18.0528ZM104.108 0.970871C103.557 1.01599 103.148 1.49878 103.193 2.04922C103.238 2.59967 103.721 3.00931 104.271 2.96419C105.029 2.90212 105.722 2.85203 106.295 2.82361C106.42 2.91011 106.566 2.96937 106.727 2.99158C107.243 3.06282 107.737 3.14353 108.2 3.23174C107.878 3.49486 107.496 3.79239 107.069 4.11481C106.628 4.4475 106.54 5.07456 106.873 5.5154C107.206 5.95624 107.833 6.04392 108.273 5.71124C108.897 5.24055 109.462 4.79519 109.905 4.41315C109.675 5.06734 109.446 5.72329 109.219 6.37989C109.039 6.90195 109.316 7.47124 109.838 7.65144C110.36 7.83164 110.93 7.5545 111.11 7.03244C111.38 6.24851 111.655 5.46666 111.929 4.68243L111.932 4.67562L112.177 3.97475C112.453 3.18691 112.621 2.50592 112.612 1.94486C112.602 1.39265 112.146 0.952871 111.594 0.962572C111.1 0.971254 110.696 1.33708 110.623 1.80972C110.508 1.73337 110.394 1.68945 110.303 1.66416C110.097 1.60672 109.88 1.55118 109.656 1.4977C109.653 1.46251 109.648 1.42716 109.641 1.39174C109.532 0.850281 109.005 0.499583 108.463 0.608426C107.947 0.712318 107.432 0.791302 106.928 0.800075C106.199 0.812748 105.191 0.882078 104.108 0.970871ZM61.9194 16.2221C61.3677 16.2474 60.941 16.7152 60.9663 17.2669C60.9916 17.8186 61.4594 18.2453 62.0111 18.22C63.4371 18.1545 64.8449 18.1019 66.2263 18.0537C67.658 18.0038 69.0714 17.9418 70.4689 17.8627C71.0203 17.8315 71.442 17.3593 71.4108 16.8079C71.3796 16.2564 70.9073 15.8347 70.3559 15.8659C68.9753 15.944 67.5767 16.0054 66.1566 16.0549C64.7723 16.1032 63.3561 16.1561 61.9194 16.2221ZM23.7102 30.4506C24.1316 30.0936 24.1839 29.4626 23.8269 29.0412C23.4699 28.6198 22.8389 28.5675 22.4175 28.9245C20.2944 30.7229 18.3663 32.6561 16.581 34.7231C16.22 35.141 16.2661 35.7725 16.6841 36.1335C17.102 36.4945 17.7335 36.4484 18.0945 36.0304C19.8168 34.0364 21.6717 32.1773 23.7102 30.4506ZM102.609 9.67078C103.071 9.36774 103.199 8.74778 102.896 8.28606C102.593 7.82434 101.973 7.69571 101.512 7.99875C100.114 8.91603 99.0681 9.55274 98.733 9.70248C97.4459 10.2777 96.1634 10.8008 94.8824 11.2767C94.3647 11.4691 94.1009 12.0447 94.2932 12.5624C94.4856 13.0801 95.0612 13.3439 95.5789 13.1515C96.9 12.6607 98.2224 12.1214 99.5491 11.5284C100.064 11.2982 101.262 10.5549 102.609 9.67078ZM78.7016 15.1268C78.1537 15.1964 77.7659 15.6969 77.8354 16.2448C77.905 16.7926 78.4055 17.1804 78.9533 17.1109C81.794 16.7505 84.5914 16.2683 87.3716 15.6173C87.9093 15.4914 88.2432 14.9534 88.1173 14.4157C87.9914 13.8779 87.4534 13.5441 86.9156 13.67C84.2122 14.303 81.4839 14.7738 78.7016 15.1268ZM109.154 13.1558C109.304 12.6243 108.995 12.0718 108.463 11.9217C107.932 11.7716 107.379 12.0808 107.229 12.6123C106.932 13.6647 106.657 14.728 106.413 15.8045C106.291 16.3431 106.628 16.8787 107.167 17.0009C107.705 17.123 108.241 16.7854 108.363 16.2468C108.599 15.2092 108.865 14.1799 109.154 13.1558ZM13.3037 42.3748C13.61 41.9152 13.4858 41.2943 13.0263 40.988C12.5667 40.6817 11.9459 40.8059 11.6395 41.2654C10.1662 43.4756 8.77482 45.8042 7.4209 48.2491C7.15335 48.7323 7.32813 49.3409 7.81128 49.6084C8.29443 49.876 8.90299 49.7012 9.17055 49.218C10.5042 46.8096 11.8672 44.5296 13.3037 42.3748ZM5.45559 56.3421C5.70135 55.8475 5.49963 55.2474 5.00504 55.0016C4.51045 54.7559 3.91027 54.9576 3.66452 55.4522C3.1658 56.4559 2.66617 57.4765 2.16336 58.5138C2.08108 58.5275 1.99874 58.5464 1.91673 58.5708C0.858085 58.886 0.25538 59.9997 0.570554 61.0583C0.885728 62.117 1.99943 62.7197 3.05808 62.4045C4.11673 62.0893 4.71943 60.9756 4.40426 59.9169C4.32689 59.6571 4.20142 59.4247 4.04045 59.2266C4.51488 58.2489 4.98589 57.2874 5.45559 56.3421Z" fill="#FFB400"/>
</svg>
