<svg width="94" height="58" viewBox="0 0 94 58" fill="none" xmlns="http://www.w3.org/2000/svg">
<path fill-rule="evenodd" clip-rule="evenodd" d="M14.275 0.632458C14.425 0.67822 14.5647 0.725606 14.6851 0.775557C14.7694 0.810513 14.9712 0.895559 15.1411 1.05484C15.2211 1.12978 15.4418 1.35639 15.4743 1.73219C15.5133 2.18394 15.261 2.48774 15.0915 2.62466C14.9405 2.74665 14.7886 2.80024 14.7203 2.82217C14.637 2.84893 14.5592 2.86471 14.4996 2.87472C14.1178 2.93886 13.4184 2.9235 12.7065 2.895C12.295 2.87853 11.9515 2.61559 11.8126 2.25408C11.6308 2.24397 11.4427 2.23726 11.2491 2.23398C10.6969 2.22464 10.2568 1.76941 10.2662 1.21721C10.2755 0.665004 10.7307 0.224928 11.2829 0.234273C12.362 0.252534 13.4052 0.36708 14.275 0.632458ZM13.9431 2.63402C13.9435 2.63397 13.9386 2.63142 13.9273 2.62652C13.937 2.63163 13.9426 2.63407 13.9431 2.63402ZM60.5777 15.8518C61.1096 16.0007 61.42 16.5525 61.2712 17.0843C61.1223 17.6162 60.5705 17.9267 60.0387 17.7778C58.5877 17.3717 57.0883 17.0522 55.5578 16.8018C55.0127 16.7127 54.6432 16.1985 54.7324 15.6535C54.8215 15.1085 55.3357 14.7389 55.8807 14.8281C57.4727 15.0885 59.0453 15.423 60.5777 15.8518ZM64.3159 19.3123C63.8124 19.0853 63.5883 18.4932 63.8152 17.9897C64.0422 17.4862 64.6343 17.262 65.1378 17.4889C65.8807 17.8238 66.6075 18.1901 67.3151 18.5908C68.1273 19.0506 68.9102 19.5294 69.6656 20.0271C70.1268 20.331 70.2544 20.9512 69.9505 21.4124C69.6467 21.8736 69.0265 22.0011 68.5653 21.6973C67.8479 21.2246 67.1033 20.7692 66.3297 20.3311C65.6782 19.9622 65.0062 19.6234 64.3159 19.3123ZM8.16845 0.649601C8.72012 0.675565 9.14629 1.14383 9.12032 1.6955C9.09435 2.24718 8.62608 2.67335 8.0744 2.64738C7.45487 2.61822 6.89066 2.59803 6.42266 2.59314C6.30642 2.68397 6.16821 2.75039 6.01415 2.78295C5.57084 2.87665 5.14674 2.97893 4.75008 3.08723C5.00155 3.32892 5.30403 3.60494 5.64754 3.90673C6.06244 4.27124 6.10327 4.90309 5.73875 5.31799C5.37423 5.73289 4.74238 5.77374 4.32748 5.40922C3.97649 5.10086 3.64784 4.80205 3.36045 4.52562C3.51094 5.13117 3.66131 5.73823 3.80956 6.34599C3.94045 6.88254 3.61159 7.42361 3.07503 7.55449C2.53848 7.68537 1.99742 7.35651 1.86653 6.81996C1.67913 6.0517 1.48859 5.28566 1.29747 4.5173L1.12749 3.83354C0.956407 3.14456 0.860041 2.55804 0.864853 2.07182C0.870311 1.51956 1.32244 1.0763 1.8747 1.08176C2.25964 1.08557 2.59163 1.30638 2.75561 1.62686C2.77626 1.61786 2.79662 1.60971 2.81659 1.60237C2.96922 1.54625 3.1274 1.49125 3.2905 1.4375C3.29095 1.37638 3.29704 1.31444 3.30917 1.25228C3.41493 0.710214 3.94011 0.356528 4.48217 0.462294C4.92926 0.549527 5.36022 0.60975 5.78053 0.597657C6.40514 0.579685 7.26031 0.606858 8.16845 0.649601ZM51.1384 14.2541C51.6887 14.3001 52.0976 14.7835 52.0517 15.3339C52.0057 15.8842 51.5223 16.2931 50.9719 16.2472C49.4298 16.1183 47.8782 16.0395 46.3337 15.9933C45.7816 15.9767 45.3475 15.5158 45.3641 14.9638C45.3806 14.4117 45.8415 13.9776 46.3936 13.9942C47.9654 14.0412 49.5534 14.1217 51.1384 14.2541ZM72.7165 24.8759C72.3033 24.5095 72.2653 23.8774 72.6318 23.4642C72.9982 23.051 73.6302 23.013 74.0434 23.3795C75.4307 24.6096 76.7085 25.923 77.8965 27.3178C78.2546 27.7383 78.2041 28.3694 77.7836 28.7275C77.3632 29.0856 76.732 29.0351 76.3739 28.6146C75.2434 27.2874 74.0307 26.0412 72.7165 24.8759ZM41.6633 13.9348C42.2156 13.9341 42.6639 14.3813 42.6646 14.9336C42.6652 15.4859 42.2181 15.9341 41.6658 15.9348C40.8771 15.9358 40.0959 15.9407 39.3241 15.9472C38.5306 15.9538 37.7439 15.9549 36.9636 15.9491C36.4113 15.945 35.9669 15.494 35.971 14.9417C35.9751 14.3895 36.4261 13.9451 36.9784 13.9492C37.747 13.9549 38.5231 13.9538 39.3074 13.9472C40.0817 13.9408 40.8681 13.9358 41.6633 13.9348ZM32.338 13.8176C32.8895 13.8466 33.3131 14.3171 33.2842 14.8687C33.2552 15.4202 32.7846 15.8438 32.2331 15.8148C30.6348 15.7309 29.0582 15.6038 27.498 15.4205C26.9495 15.356 26.5571 14.8591 26.6215 14.3106C26.686 13.7621 27.1829 13.3697 27.7314 13.4341C29.243 13.6117 30.7763 13.7356 32.338 13.8176ZM8.91859 9.10873C8.47698 8.77707 8.38787 8.15021 8.71953 7.7086C9.0512 7.267 9.67806 7.17787 10.1197 7.50954C10.6732 7.92528 11.1724 8.28823 11.5725 8.56596C11.9942 8.85867 12.2513 9.01791 12.3473 9.06472C13.043 9.40409 13.7381 9.7209 14.4333 10.0166C14.9415 10.2327 15.1783 10.8199 14.9622 11.3282C14.746 11.8364 14.1588 12.0732 13.6506 11.857C12.9236 11.5479 12.1971 11.2168 11.4704 10.8622C11.2157 10.738 10.8377 10.4905 10.4321 10.209C10.0049 9.9125 9.48455 9.53379 8.91859 9.10873ZM23.1848 12.7138C23.7261 12.8236 24.0758 13.3514 23.9659 13.8927C23.8561 14.4339 23.3282 14.7836 22.787 14.6738C21.2315 14.3581 19.6877 13.9709 18.1498 13.4987C17.6218 13.3365 17.3253 12.7771 17.4874 12.2492C17.6495 11.7212 18.2089 11.4247 18.7369 11.5868C20.2087 12.0387 21.6892 12.4102 23.1848 12.7138ZM79.5223 32.8169C79.2174 32.3564 79.3436 31.7359 79.8041 31.4311C80.2646 31.1262 80.8851 31.2524 81.19 31.7129C82.1797 33.2078 83.104 34.7754 83.981 36.4138C84.2417 36.9007 84.0582 37.5067 83.5713 37.7674C83.0844 38.028 82.4784 37.8446 82.2177 37.3577C81.3661 35.7666 80.4732 34.2533 79.5223 32.8169ZM3.18592 12.7836C3.0835 12.2409 3.44043 11.7179 3.98313 11.6155C4.52584 11.5131 5.04882 11.87 5.15123 12.4127C5.34305 13.4291 5.51581 14.4566 5.66226 15.4978C5.73919 16.0447 5.3582 16.5504 4.8113 16.6274C4.2644 16.7043 3.75868 16.3233 3.68176 15.7764C3.54023 14.7702 3.37279 13.7738 3.18592 12.7836ZM84.5567 42.1223C84.3288 41.6193 84.5517 41.0267 85.0548 40.7987C85.5578 40.5707 86.1504 40.7937 86.3784 41.2967C87.1051 42.9002 87.8077 44.5617 88.4992 46.2798C88.7054 46.7922 88.4573 47.3747 87.9449 47.5809C87.4326 47.7871 86.8501 47.5389 86.6439 47.0266C85.9607 45.329 85.2693 43.6945 84.5567 42.1223ZM88.5727 52.0164C88.3793 51.4991 88.642 50.923 89.1593 50.7296C89.6766 50.5362 90.2527 50.7988 90.4461 51.3161C90.692 51.9739 90.9381 52.6392 91.1851 53.3119C91.3778 53.3153 91.5733 53.3454 91.7669 53.4044C92.8876 53.7463 93.5189 54.932 93.177 56.0527C92.8351 57.1735 91.6494 57.8048 90.5286 57.4629C89.4079 57.121 88.7766 55.9353 89.1185 54.8146C89.1827 54.6041 89.2767 54.4108 89.3945 54.238C89.1194 53.4875 88.8458 52.747 88.5727 52.0164Z" fill="#26AA9D"/>
</svg>
