<svg width="212" height="127" viewBox="0 0 212 127" fill="none" xmlns="http://www.w3.org/2000/svg">
<path fill-rule="evenodd" clip-rule="evenodd" d="M29.1926 1.41015C29.5169 1.50293 29.7924 1.59189 30.0135 1.67846C30.1985 1.7509 30.4649 1.86519 30.67 2.04693C30.7647 2.13077 31.0059 2.36649 31.0497 2.75934C31.103 3.23702 30.8362 3.56224 30.6535 3.71036C30.4892 3.84357 30.3167 3.90714 30.2228 3.93763C30.1131 3.97322 30.002 3.99714 29.9024 4.01443C29.1985 4.13661 27.7617 4.12802 26.0876 4.07822C25.5356 4.0618 25.1014 3.60097 25.1178 3.04893C25.1227 2.88487 25.1668 2.73123 25.2409 2.59671C24.9775 2.39131 24.8229 2.05861 24.8607 1.70198C24.919 1.15277 25.4114 0.754755 25.9606 0.812988C27.1225 0.936188 28.2142 1.13015 29.1926 1.41015ZM19.5614 0.730539C20.1127 0.697334 20.5865 1.11732 20.6197 1.66861C20.6529 2.21989 20.2329 2.69371 19.6816 2.72692C18.6388 2.78973 17.5765 2.88552 16.5134 3.00979C16.3583 3.38526 15.982 3.64311 15.5523 3.6274C13.4868 3.5519 11.6492 3.51459 10.3646 3.56267C9.65099 3.58938 8.95268 3.55029 8.28544 3.47685L8.29074 3.49526C8.43874 4.02734 8.12737 4.57866 7.59529 4.72666C6.91394 4.91618 6.26613 5.11341 5.65939 5.31611C5.9431 5.6319 6.33675 6.02518 6.83555 6.48763C7.24054 6.86312 7.26446 7.49583 6.88897 7.90083C6.51347 8.30583 5.88075 8.32975 5.47576 7.95426C4.72723 7.26027 4.10437 6.62408 3.72433 6.11184C3.55008 5.87697 3.34049 5.55698 3.26082 5.206C3.21799 5.01731 3.18997 4.72046 3.32916 4.40781C3.48089 4.06695 3.75711 3.87075 4.01102 3.77641C4.70758 3.5176 5.46112 3.26799 6.25831 3.03043C5.99072 2.80783 5.8471 2.45165 5.91288 2.08455C6.01029 1.54092 6.52996 1.17919 7.0736 1.27659C8.1211 1.46427 9.20405 1.60472 10.2898 1.56408C11.037 1.53611 11.9451 1.53549 12.9529 1.55304C13.0467 1.50305 13.1501 1.46728 13.2608 1.44903C15.3379 1.10666 17.4822 0.855774 19.5614 0.730539ZM138.712 37.2474C136.217 36.4585 133.655 35.7921 131.044 35.2304C130.504 35.1143 130.16 34.5824 130.277 34.0425C130.393 33.5026 130.925 33.159 131.464 33.2752C134.13 33.8486 136.754 34.5306 139.315 35.3404C139.842 35.5069 140.134 36.0687 139.967 36.5953C139.801 37.1219 139.239 37.4139 138.712 37.2474ZM146.101 40.0533C145.598 39.8262 145.374 39.234 145.601 38.7306C145.828 38.2271 146.42 38.0031 146.924 38.2302C148.166 38.7907 149.388 39.3903 150.585 40.0315C151.799 40.682 152.986 41.3504 154.145 42.0367C154.62 42.3181 154.777 42.9315 154.496 43.4067C154.214 43.8819 153.601 44.0391 153.126 43.7577C151.991 43.086 150.83 42.4317 149.641 41.7946C148.485 41.1756 147.304 40.596 146.101 40.0533ZM123.487 31.879C124.034 31.9548 124.416 32.4597 124.34 33.0068C124.264 33.5538 123.759 33.9359 123.212 33.8601C120.594 33.4974 117.948 33.2176 115.29 33.004C114.74 32.9598 114.329 32.4776 114.374 31.9271C114.418 31.3766 114.9 30.9662 115.45 31.0105C118.142 31.2267 120.826 31.5104 123.487 31.879ZM107.395 30.5472C107.947 30.5675 108.377 31.0315 108.357 31.5834C108.337 32.1353 107.873 32.5662 107.321 32.5458C104.645 32.4471 101.975 32.3983 99.3271 32.3823C98.7748 32.379 98.3298 31.9286 98.3332 31.3763C98.3365 30.824 98.7869 30.379 99.3392 30.3824C102.003 30.3985 104.694 30.4476 107.395 30.5472ZM159.802 48.1258C159.354 47.8026 159.253 47.1776 159.576 46.7297C159.899 46.2819 160.524 46.1808 160.972 46.5039C163.21 48.1184 165.336 49.8129 167.364 51.5866C167.78 51.9502 167.822 52.582 167.458 52.9977C167.095 53.4134 166.463 53.4556 166.047 53.092C164.066 51.359 161.988 49.7035 159.802 48.1258ZM0.382971 3.68591C0.378913 3.13364 0.823342 2.68265 1.3756 2.6786C1.92788 2.67454 2.37887 3.11896 2.38292 3.67123C2.38785 4.34362 2.5537 5.3434 2.96267 6.79978C3.10337 7.30076 3.24459 7.80292 3.3859 8.30535L3.3901 8.32029C3.55761 8.9159 3.72524 9.51188 3.89216 10.1067C4.04139 10.6385 3.73129 11.1905 3.19954 11.3397C2.66781 11.4889 2.11577 11.1789 1.96654 10.6471C1.79845 10.0482 1.63046 9.45083 1.46238 8.85322C1.32072 8.34952 1.17901 7.84565 1.03716 7.34051C0.611657 5.8253 0.389845 4.62393 0.382971 3.68591ZM91.2941 30.4177C91.8464 30.4106 92.2998 30.8526 92.3068 31.4048C92.3139 31.9571 91.8719 32.4105 91.3197 32.4175C89.972 32.4348 88.6355 32.4562 87.3121 32.4793C85.9645 32.5028 84.626 32.5194 83.296 32.5278C82.7437 32.5313 82.2932 32.0864 82.2897 31.5342C82.2862 30.9819 82.7311 30.5314 83.2834 30.5279C84.6052 30.5195 85.9363 30.503 87.2772 30.4796C88.6024 30.4564 89.9423 30.435 91.2941 30.4177ZM10.6032 12.2462C10.1691 11.9048 10.094 11.2761 10.4355 10.842C10.7769 10.4079 11.4056 10.3328 11.8397 10.6742C13.5179 11.9943 15.3316 13.367 17.0741 14.6476C17.5191 14.9746 17.6148 15.6005 17.2877 16.0456C16.9607 16.4906 16.3348 16.5862 15.8897 16.2592C14.1323 14.9676 12.301 13.5817 10.6032 12.2462ZM171.805 58.618C171.424 58.2178 171.44 57.5849 171.84 57.2042C172.24 56.8235 172.873 56.8393 173.254 57.2394C175.127 59.2079 176.91 61.2571 178.616 63.3859C178.961 63.8169 178.892 64.4462 178.461 64.7916C178.03 65.137 177.4 65.0676 177.055 64.6367C175.382 62.5497 173.637 60.5435 171.805 58.618ZM75.3038 30.467C75.8559 30.4798 76.2931 30.9378 76.2803 31.49C76.2674 32.0421 75.8094 32.4793 75.2573 32.4664C72.5476 32.4033 69.869 32.2935 67.2159 32.1254C66.6647 32.0905 66.2462 31.6154 66.2811 31.0642C66.3161 30.513 66.7912 30.0945 67.3424 30.1294C69.9657 30.2956 72.6174 30.4044 75.3038 30.467ZM21.319 20.1028C20.8608 19.7945 20.7392 19.1731 21.0475 18.7149C21.3557 18.2566 21.9771 18.135 22.4354 18.4433C23.7514 19.3285 24.6835 19.9028 25.0951 20.0926C26.3074 20.6515 27.5183 21.1821 28.7286 21.6858C29.2385 21.898 29.4798 22.4834 29.2676 22.9932C29.0553 23.5031 28.47 23.7445 27.9601 23.5322C26.7267 23.0189 25.4928 22.4782 24.2578 21.9088C23.6739 21.6397 22.6063 20.9686 21.319 20.1028ZM59.4156 29.4322C59.9643 29.495 60.3582 29.9907 60.2954 30.5394C60.2325 31.0881 59.7368 31.482 59.1881 31.4192C56.5074 31.1123 53.8476 30.7316 51.2025 30.2646C50.6587 30.1686 50.2956 29.6498 50.3916 29.1059C50.4877 28.5621 51.0064 28.199 51.5503 28.2951C54.1525 28.7545 56.7721 29.1296 59.4156 29.4322ZM35.5359 26.352C35.0114 26.1792 34.7262 25.6138 34.899 25.0893C35.0718 24.5647 35.6372 24.2796 36.1617 24.4524C38.6964 25.2874 41.2351 26.0161 43.784 26.6502C44.3199 26.7835 44.6463 27.3261 44.5129 27.862C44.3796 28.398 43.837 28.7244 43.3011 28.591C40.7057 27.9453 38.1193 27.203 35.5359 26.352ZM3.7888 17.2585C3.64589 16.725 3.96249 16.1767 4.49596 16.0338C5.02944 15.8909 5.57777 16.2075 5.72069 16.7409C6.31352 18.9538 6.88677 21.1794 7.42391 23.4237C7.55245 23.9609 7.22124 24.5005 6.68412 24.629C6.14701 24.7576 5.60738 24.4264 5.47884 23.8893C4.94693 21.6668 4.37838 19.4592 3.7888 17.2585ZM181.814 71.0641C181.502 70.6086 181.618 69.9862 182.074 69.6738C182.529 69.3615 183.152 69.4775 183.464 69.933C184.981 72.1447 186.438 74.43 187.847 76.7881C188.13 77.2622 187.975 77.8762 187.501 78.1595C187.027 78.4428 186.413 78.2882 186.13 77.8141C184.74 75.4886 183.306 73.2385 181.814 71.0641ZM6.93915 30.5596C6.83275 30.0176 7.18582 29.4921 7.72776 29.3857C8.26971 29.2793 8.79529 29.6323 8.90169 30.1743C9.12313 31.3022 9.33187 32.4364 9.52595 33.5778C9.61854 34.1222 9.25221 34.6387 8.70774 34.7313C8.16328 34.8238 7.64684 34.4575 7.55426 33.9131C7.36319 32.7895 7.15752 31.6719 6.93915 30.5596ZM190.066 84.8088C189.807 84.3211 189.992 83.7157 190.48 83.4565C190.967 83.1974 191.573 83.3827 191.832 83.8704C193.08 86.2191 194.296 88.6317 195.491 91.1075C195.731 91.6049 195.522 92.2027 195.025 92.4427C194.527 92.6827 193.93 92.474 193.69 91.9766C192.505 89.5213 191.3 87.132 190.066 84.8088ZM197.076 99.2792C196.851 98.775 197.077 98.1835 197.581 97.958C198.085 97.7326 198.677 97.9585 198.902 98.4627C199.984 100.882 201.056 103.356 202.125 105.884C202.34 106.393 202.102 106.98 201.593 107.195C201.084 107.41 200.498 107.172 200.283 106.663C199.218 104.145 198.152 101.684 197.076 99.2792ZM203.369 114.114C203.161 113.602 203.407 113.019 203.918 112.811C204.43 112.602 205.013 112.848 205.222 113.36C205.715 114.571 206.209 115.794 206.705 117.029C207.243 116.994 207.796 117.049 208.345 117.206C210.904 117.938 212.385 120.607 211.653 123.167C210.92 125.726 208.251 127.208 205.692 126.475C203.132 125.743 201.651 123.074 202.384 120.514C202.76 119.199 203.648 118.168 204.77 117.576C204.301 116.412 203.835 115.257 203.369 114.114Z" fill="#26AA9D"/>
</svg>
