<svg width="20" height="20" viewBox="0 0 20 20" fill="none" xmlns="http://www.w3.org/2000/svg">
<path d="M3.17257 12.7392C3.21987 12.8534 3.29998 12.951 3.40277 13.0197C3.50555 13.0883 3.62638 13.125 3.75 13.125L16.25 13.125C16.3736 13.125 16.4945 13.0883 16.5972 13.0197C16.7 12.951 16.7801 12.8534 16.8274 12.7392C16.8747 12.625 16.8871 12.4993 16.863 12.3781C16.8389 12.2568 16.7793 12.1455 16.6919 12.058L10.4419 5.80807C10.3839 5.75003 10.315 5.70399 10.2392 5.67258C10.1633 5.64117 10.0821 5.625 10 5.625C9.91792 5.625 9.83665 5.64117 9.76082 5.67258C9.685 5.70399 9.6161 5.75003 9.55806 5.80807L3.30807 12.058C3.22065 12.1455 3.16112 12.2568 3.137 12.3781C3.11289 12.4993 3.12526 12.625 3.17257 12.7392Z" fill="#353432"/>
</svg>
