<svg width="32" height="32" viewBox="0 0 32 32" fill="none" xmlns="http://www.w3.org/2000/svg">
<path d="M29.6034 5.51721H2.39656C1.07294 5.51721 0 6.59015 0 7.91377V24.0862C0 25.4098 1.07294 26.4828 2.39656 26.4828H29.6034C30.927 26.4828 32 25.4098 32 24.0862V7.91377C32 6.59015 30.9271 5.51721 29.6034 5.51721Z" fill="#F5F5F5"/>
<path d="M0.131836 7.12996H31.8681C31.5434 6.1914 30.6524 5.51721 29.6035 5.51721H2.39659C1.34759 5.51721 0.456648 6.1914 0.131836 7.12996Z" fill="#FF4B55"/>
<path d="M32 11.9681H0V13.5808H32V11.9681Z" fill="#FF4B55"/>
<path d="M32 8.74243H0V10.3551H32V8.74243Z" fill="#FF4B55"/>
<path d="M0 16.2546C0 16.5593 0.247063 16.8064 0.55175 16.8064H32V15.1936H0V16.2546Z" fill="#FF4B55"/>
<path d="M32 21.645H0V23.2578H32V21.645Z" fill="#FF4B55"/>
<path d="M31.8682 24.87H0.131836C0.456648 25.8086 1.34765 26.4827 2.39659 26.4827H29.6035C30.6525 26.4827 31.5434 25.8086 31.8682 24.87Z" fill="#FF4B55"/>
<path d="M32 18.4193H0V20.032H32V18.4193Z" fill="#FF4B55"/>
<path d="M0.55175 16.8064H14.3449C14.6496 16.8064 14.8966 16.5593 14.8966 16.2547V6.06896C14.8966 5.76421 14.6496 5.51721 14.3449 5.51721H2.39656C1.07294 5.51727 0 6.59021 0 7.91384V16.2547C0 16.5594 0.247063 16.8064 0.55175 16.8064Z" fill="#41479B"/>
<path d="M1.54915 6.78362L1.67127 7.14987L2.05733 7.1528C2.10733 7.15324 2.12802 7.21699 2.08783 7.24668L1.77727 7.47599L1.89377 7.84405C1.9089 7.89168 1.85458 7.93118 1.8139 7.90205L1.49983 7.67762L1.18577 7.90212C1.14508 7.93124 1.0909 7.89174 1.1059 7.84412L1.2224 7.47605L0.911835 7.24674C0.871647 7.21699 0.892335 7.15324 0.942335 7.15287L1.3284 7.14993L1.45052 6.78368C1.46627 6.73618 1.53327 6.73618 1.54915 6.78362Z" fill="#F5F5F5"/>
<path d="M1.54915 8.69934L1.67127 9.06559L2.05733 9.06853C2.10733 9.06897 2.12802 9.13265 2.08783 9.1624L1.77727 9.39178L1.89377 9.75984C1.9089 9.80747 1.85458 9.84697 1.8139 9.81784L1.49983 9.5934L1.18577 9.8179C1.14508 9.84697 1.0909 9.80753 1.1059 9.7599L1.2224 9.39184L0.911835 9.16247C0.871647 9.13272 0.892335 9.06903 0.942335 9.06859L1.3284 9.06565L1.45052 8.6994C1.46627 8.65197 1.53327 8.65197 1.54915 8.69934Z" fill="#F5F5F5"/>
<path d="M1.54915 10.6153L1.67127 10.9815L2.05733 10.9845C2.10733 10.9849 2.12802 11.0486 2.08783 11.0783L1.77727 11.3077L1.89377 11.6758C1.9089 11.7234 1.85458 11.7629 1.8139 11.7338L1.49983 11.5093L1.18577 11.7338C1.14508 11.7629 1.0909 11.7235 1.1059 11.6758L1.2224 11.3078L0.911835 11.0784C0.871647 11.0487 0.892335 10.985 0.942335 10.9845L1.3284 10.9816L1.45052 10.6153C1.46627 10.5678 1.53327 10.5678 1.54915 10.6153Z" fill="#F5F5F5"/>
<path d="M1.54915 12.5312L1.67127 12.8974L2.05733 12.9004C2.10733 12.9008 2.12802 12.9646 2.08783 12.9942L1.77727 13.2236L1.89377 13.5917C1.9089 13.6393 1.85458 13.6788 1.8139 13.6497L1.49983 13.4252L1.18577 13.6497C1.14508 13.6788 1.0909 13.6394 1.1059 13.5917L1.2224 13.2237L0.911835 12.9943C0.871647 12.9647 0.892335 12.9009 0.942335 12.9004L1.3284 12.8975L1.45052 12.5312C1.46627 12.4837 1.53327 12.4837 1.54915 12.5312Z" fill="#F5F5F5"/>
<path d="M1.54915 14.447L1.67127 14.8133L2.05733 14.8162C2.10733 14.8166 2.12802 14.8803 2.08783 14.9101L1.77727 15.1395L1.89377 15.5075C1.9089 15.5551 1.85458 15.5946 1.8139 15.5655L1.49983 15.3411L1.18577 15.5656C1.14508 15.5946 1.0909 15.5552 1.1059 15.5076L1.2224 15.1395L0.911835 14.9101C0.871647 14.8804 0.892335 14.8167 0.942335 14.8163L1.3284 14.8133L1.45052 14.4471C1.46627 14.3996 1.53327 14.3996 1.54915 14.447Z" fill="#F5F5F5"/>
<path d="M3.03645 7.72279L3.15858 8.08904L3.54464 8.09197C3.59464 8.09241 3.61533 8.15616 3.57514 8.18585L3.26458 8.41522L3.38108 8.78329C3.3962 8.83091 3.34189 8.87041 3.3012 8.84129L2.98714 8.61679L2.67308 8.84129C2.63239 8.87035 2.5782 8.83091 2.5932 8.78329L2.7097 8.41522L2.39914 8.18585C2.35895 8.1561 2.37964 8.09241 2.42964 8.09197L2.8157 8.08904L2.93783 7.72279C2.95358 7.67541 3.02064 7.67541 3.03645 7.72279Z" fill="#F5F5F5"/>
<path d="M3.03645 9.63873L3.15858 10.005L3.54464 10.0079C3.59464 10.0084 3.61533 10.0721 3.57514 10.1018L3.26458 10.3312L3.38108 10.6992C3.3962 10.7469 3.34189 10.7864 3.3012 10.7572L2.98714 10.5327L2.67308 10.7572C2.63239 10.7863 2.5782 10.7469 2.5932 10.6992L2.7097 10.3312L2.39914 10.1018C2.35895 10.0722 2.37964 10.0084 2.42964 10.0079L2.8157 10.005L2.93783 9.63873C2.95358 9.59129 3.02064 9.59129 3.03645 9.63873Z" fill="#F5F5F5"/>
<path d="M3.03645 11.5546L3.15858 11.9209L3.54464 11.9238C3.59464 11.9242 3.61533 11.9879 3.57514 12.0177L3.26458 12.2471L3.38108 12.6151C3.3962 12.6627 3.34189 12.7022 3.3012 12.6731L2.98714 12.4486L2.67308 12.6731C2.63239 12.7022 2.5782 12.6627 2.5932 12.6151L2.7097 12.2471L2.39914 12.0177C2.35895 11.9879 2.37964 11.9242 2.42964 11.9238L2.8157 11.9209L2.93783 11.5546C2.95358 11.5072 3.02064 11.5072 3.03645 11.5546Z" fill="#F5F5F5"/>
<path d="M3.03645 13.4705L3.15858 13.8367L3.54464 13.8397C3.59464 13.8401 3.61533 13.9038 3.57514 13.9335L3.26458 14.1629L3.38108 14.531C3.3962 14.5786 3.34189 14.6181 3.3012 14.589L2.98714 14.3645L2.67308 14.589C2.63239 14.6181 2.5782 14.5786 2.5932 14.531L2.7097 14.1629L2.39914 13.9335C2.35895 13.9038 2.37964 13.8401 2.42964 13.8397L2.8157 13.8367L2.93783 13.4705C2.95358 13.4231 3.02064 13.4231 3.03645 13.4705Z" fill="#F5F5F5"/>
<path d="M4.52376 6.7835L4.64588 7.14975L5.03194 7.15269C5.08194 7.15313 5.10263 7.21688 5.06244 7.24657L4.75188 7.47588L4.86838 7.84394C4.88351 7.89157 4.82919 7.93107 4.78851 7.90194L4.47444 7.67744L4.16038 7.90194C4.11969 7.93107 4.06551 7.89157 4.08051 7.84394L4.19701 7.47588L3.88644 7.24657C3.84626 7.21682 3.86694 7.15307 3.91694 7.15269L4.30301 7.14975L4.42513 6.7835C4.44088 6.73607 4.50794 6.73607 4.52376 6.7835Z" fill="#F5F5F5"/>
<path d="M4.52376 8.69935L4.64588 9.0656L5.03194 9.06854C5.08194 9.06898 5.10263 9.13266 5.06244 9.16241L4.75188 9.39179L4.86838 9.75985C4.88351 9.80747 4.82919 9.84698 4.78851 9.81785L4.47444 9.59335L4.16038 9.81785C4.11969 9.84691 4.06551 9.80747 4.08051 9.75985L4.19701 9.39179L3.88644 9.16241C3.84626 9.13266 3.86694 9.06898 3.91694 9.06854L4.30301 9.0656L4.42513 8.69935C4.44088 8.65197 4.50794 8.65197 4.52376 8.69935Z" fill="#F5F5F5"/>
<path d="M4.52376 10.6153L4.64588 10.9815L5.03194 10.9845C5.08194 10.9849 5.10263 11.0486 5.06244 11.0784L4.75188 11.3077L4.86838 11.6758C4.88351 11.7234 4.82919 11.7629 4.78851 11.7338L4.47444 11.5093L4.16038 11.7338C4.11969 11.7629 4.06551 11.7235 4.08051 11.6758L4.19701 11.3077L3.88644 11.0784C3.84626 11.0486 3.86694 10.9849 3.91694 10.9845L4.30301 10.9815L4.42513 10.6153C4.44088 10.5679 4.50794 10.5679 4.52376 10.6153Z" fill="#F5F5F5"/>
<path d="M4.52376 12.5312L4.64588 12.8974L5.03194 12.9004C5.08194 12.9008 5.10263 12.9646 5.06244 12.9942L4.75188 13.2236L4.86838 13.5917C4.88351 13.6393 4.82919 13.6788 4.78851 13.6497L4.47444 13.4252L4.16038 13.6497C4.11969 13.6787 4.06551 13.6393 4.08051 13.5917L4.19701 13.2236L3.88644 12.9942C3.84626 12.9646 3.86694 12.9008 3.91694 12.9004L4.30301 12.8974L4.42513 12.5312C4.44088 12.4837 4.50794 12.4837 4.52376 12.5312Z" fill="#F5F5F5"/>
<path d="M4.52376 14.447L4.64588 14.8133L5.03194 14.8162C5.08194 14.8167 5.10263 14.8803 5.06244 14.9101L4.75188 15.1395L4.86838 15.5075C4.88351 15.5552 4.82919 15.5947 4.78851 15.5655L4.47444 15.341L4.16038 15.5655C4.11969 15.5946 4.06551 15.5552 4.08051 15.5075L4.19701 15.1395L3.88644 14.9101C3.84626 14.8803 3.86694 14.8167 3.91694 14.8162L4.30301 14.8133L4.42513 14.447C4.44088 14.3997 4.50794 14.3997 4.52376 14.447Z" fill="#F5F5F5"/>
<path d="M6.01008 7.72279L6.13221 8.08904L6.51827 8.09197C6.56827 8.09241 6.58896 8.15616 6.54877 8.18585L6.23821 8.41522L6.35471 8.78329C6.36983 8.83091 6.31552 8.87041 6.27483 8.84129L5.96077 8.61679L5.64671 8.84129C5.60602 8.87035 5.55184 8.83091 5.56684 8.78329L5.68334 8.41522L5.37277 8.18585C5.33258 8.1561 5.35327 8.09241 5.40327 8.09197L5.78934 8.08904L5.91146 7.72279C5.92715 7.67541 5.99427 7.67541 6.01008 7.72279Z" fill="#F5F5F5"/>
<path d="M6.01008 9.63873L6.13221 10.005L6.51827 10.0079C6.56827 10.0084 6.58896 10.0721 6.54877 10.1018L6.23821 10.3312L6.35471 10.6992C6.36983 10.7469 6.31552 10.7864 6.27483 10.7572L5.96077 10.5327L5.64671 10.7572C5.60602 10.7863 5.55184 10.7469 5.56684 10.6992L5.68334 10.3312L5.37277 10.1018C5.33258 10.0722 5.35327 10.0084 5.40327 10.0079L5.78934 10.005L5.91146 9.63873C5.92715 9.59129 5.99427 9.59129 6.01008 9.63873Z" fill="#F5F5F5"/>
<path d="M6.01008 11.5546L6.13221 11.9209L6.51827 11.9238C6.56827 11.9242 6.58896 11.9879 6.54877 12.0177L6.23821 12.2471L6.35471 12.6151C6.36983 12.6627 6.31552 12.7022 6.27483 12.6731L5.96077 12.4486L5.64671 12.6731C5.60602 12.7022 5.55184 12.6627 5.56684 12.6151L5.68334 12.2471L5.37277 12.0177C5.33258 11.9879 5.35327 11.9242 5.40327 11.9238L5.78934 11.9209L5.91146 11.5546C5.92715 11.5072 5.99427 11.5072 6.01008 11.5546Z" fill="#F5F5F5"/>
<path d="M6.01008 13.4705L6.13221 13.8367L6.51827 13.8397C6.56827 13.8401 6.58896 13.9038 6.54877 13.9335L6.23821 14.1629L6.35471 14.531C6.36983 14.5786 6.31552 14.6181 6.27483 14.589L5.96077 14.3645L5.64671 14.589C5.60602 14.6181 5.55184 14.5786 5.56684 14.531L5.68334 14.1629L5.37277 13.9335C5.33258 13.9038 5.35327 13.8401 5.40327 13.8397L5.78934 13.8367L5.91146 13.4705C5.92715 13.4231 5.99427 13.4231 6.01008 13.4705Z" fill="#F5F5F5"/>
<path d="M7.49745 6.7835L7.61958 7.14975L8.00564 7.15268C8.05564 7.15312 8.07633 7.21687 8.03614 7.24656L7.72558 7.47587L7.84208 7.84393C7.8572 7.89156 7.80289 7.93106 7.7622 7.90193L7.44808 7.6775L7.13401 7.90199C7.09333 7.93112 7.03914 7.89162 7.05414 7.84399L7.17064 7.47593L6.86008 7.24662C6.81989 7.21687 6.84058 7.15312 6.89058 7.15274L7.27664 7.14981L7.39876 6.78356C7.41458 6.73606 7.48164 6.73606 7.49745 6.7835Z" fill="#F5F5F5"/>
<path d="M7.49745 8.69935L7.61958 9.0656L8.00564 9.06854C8.05564 9.06898 8.07633 9.13266 8.03614 9.16241L7.72558 9.39179L7.84208 9.75985C7.8572 9.80747 7.80289 9.84698 7.7622 9.81785L7.44808 9.59335L7.13401 9.81785C7.09333 9.84691 7.03914 9.80747 7.05414 9.75985L7.17064 9.39179L6.86008 9.16241C6.81989 9.13266 6.84058 9.06898 6.89058 9.06854L7.27664 9.0656L7.39876 8.69935C7.41458 8.65197 7.48164 8.65197 7.49745 8.69935Z" fill="#F5F5F5"/>
<path d="M7.49745 10.6153L7.61958 10.9815L8.00564 10.9845C8.05564 10.9849 8.07633 11.0486 8.03614 11.0784L7.72558 11.3077L7.84208 11.6758C7.8572 11.7234 7.80289 11.7629 7.7622 11.7338L7.44808 11.5092L7.13401 11.7337C7.09333 11.7628 7.03914 11.7234 7.05414 11.6757L7.17064 11.3077L6.86008 11.0783C6.81989 11.0485 6.84058 10.9849 6.89058 10.9844L7.27664 10.9815L7.39876 10.6152C7.41458 10.5679 7.48164 10.5679 7.49745 10.6153Z" fill="#F5F5F5"/>
<path d="M7.49745 12.5312L7.61958 12.8974L8.00564 12.9004C8.05564 12.9008 8.07633 12.9646 8.03614 12.9942L7.72558 13.2236L7.84208 13.5917C7.8572 13.6393 7.80289 13.6788 7.7622 13.6497L7.44808 13.4252L7.13401 13.6497C7.09333 13.6787 7.03914 13.6393 7.05414 13.5917L7.17064 13.2236L6.86008 12.9942C6.81989 12.9646 6.84058 12.9008 6.89058 12.9004L7.27664 12.8974L7.39876 12.5312C7.41458 12.4837 7.48164 12.4837 7.49745 12.5312Z" fill="#F5F5F5"/>
<path d="M7.49745 14.447L7.61958 14.8133L8.00564 14.8162C8.05564 14.8167 8.07633 14.8803 8.03614 14.9101L7.72558 15.1395L7.84208 15.5075C7.8572 15.5552 7.80289 15.5947 7.7622 15.5655L7.44808 15.341L7.13401 15.5655C7.09333 15.5946 7.03914 15.5552 7.05414 15.5075L7.17064 15.1395L6.86008 14.9101C6.81989 14.8803 6.84058 14.8167 6.89058 14.8162L7.27664 14.8133L7.39876 14.447C7.41458 14.3997 7.48164 14.3997 7.49745 14.447Z" fill="#F5F5F5"/>
<path d="M8.98469 7.72279L9.10682 8.08904L9.49288 8.09197C9.54288 8.09241 9.56357 8.15616 9.52338 8.18585L9.21282 8.41522L9.32932 8.78329C9.34444 8.83091 9.29013 8.87041 9.24944 8.84129L8.93538 8.61679L8.62132 8.84129C8.58063 8.87035 8.52644 8.83091 8.54144 8.78329L8.65794 8.41522L8.34738 8.18585C8.30719 8.1561 8.32788 8.09241 8.37788 8.09197L8.76394 8.08904L8.88607 7.72279C8.90188 7.67541 8.96888 7.67541 8.98469 7.72279Z" fill="#F5F5F5"/>
<path d="M8.98469 9.63873L9.10682 10.005L9.49288 10.0079C9.54288 10.0084 9.56357 10.0721 9.52338 10.1018L9.21282 10.3312L9.32932 10.6992C9.34444 10.7469 9.29013 10.7864 9.24944 10.7572L8.93538 10.5327L8.62132 10.7572C8.58063 10.7863 8.52644 10.7469 8.54144 10.6992L8.65794 10.3312L8.34738 10.1018C8.30719 10.0722 8.32788 10.0084 8.37788 10.0079L8.76394 10.005L8.88607 9.63873C8.90188 9.59129 8.96888 9.59129 8.98469 9.63873Z" fill="#F5F5F5"/>
<path d="M8.98469 11.5546L9.10682 11.9209L9.49288 11.9238C9.54288 11.9242 9.56357 11.9879 9.52338 12.0177L9.21282 12.2471L9.32932 12.6151C9.34444 12.6627 9.29013 12.7022 9.24944 12.6731L8.93538 12.4486L8.62132 12.6731C8.58063 12.7022 8.52644 12.6627 8.54144 12.6151L8.65794 12.2471L8.34738 12.0177C8.30719 11.9879 8.32788 11.9242 8.37788 11.9238L8.76394 11.9209L8.88607 11.5546C8.90188 11.5072 8.96888 11.5072 8.98469 11.5546Z" fill="#F5F5F5"/>
<path d="M8.98469 13.4705L9.10682 13.8367L9.49288 13.8397C9.54288 13.8401 9.56357 13.9038 9.52338 13.9335L9.21282 14.1629L9.32932 14.531C9.34444 14.5786 9.29013 14.6181 9.24944 14.589L8.93538 14.3645L8.62132 14.589C8.58063 14.6181 8.52644 14.5786 8.54144 14.531L8.65794 14.1629L8.34738 13.9335C8.30719 13.9038 8.32788 13.8401 8.37788 13.8397L8.76394 13.8367L8.88607 13.4705C8.90188 13.4231 8.96888 13.4231 8.98469 13.4705Z" fill="#F5F5F5"/>
<path d="M10.472 6.7835L10.5941 7.14975L10.9802 7.15269C11.0302 7.15313 11.0509 7.21688 11.0107 7.24657L10.7001 7.47588L10.8166 7.84394C10.8317 7.89157 10.7774 7.93107 10.7367 7.90194L10.4227 7.67744L10.1086 7.90194C10.0679 7.93107 10.0137 7.89157 10.0287 7.84394L10.1452 7.47588L9.83469 7.24657C9.7945 7.21682 9.81519 7.15307 9.86519 7.15269L10.2512 7.14975L10.3734 6.7835C10.3891 6.73607 10.4562 6.73607 10.472 6.7835Z" fill="#F5F5F5"/>
<path d="M10.472 8.69935L10.5941 9.0656L10.9802 9.06854C11.0302 9.06898 11.0509 9.13266 11.0107 9.16241L10.7001 9.39179L10.8166 9.75985C10.8317 9.80747 10.7774 9.84698 10.7367 9.81785L10.4227 9.59335L10.1086 9.81785C10.0679 9.84691 10.0137 9.80747 10.0287 9.75985L10.1452 9.39179L9.83469 9.16241C9.7945 9.13266 9.81519 9.06898 9.86519 9.06854L10.2512 9.0656L10.3734 8.69935C10.3891 8.65197 10.4562 8.65197 10.472 8.69935Z" fill="#F5F5F5"/>
<path d="M10.472 10.6153L10.5941 10.9815L10.9802 10.9845C11.0302 10.9849 11.0509 11.0486 11.0107 11.0784L10.7001 11.3077L10.8166 11.6758C10.8317 11.7234 10.7774 11.7629 10.7367 11.7338L10.4227 11.5093L10.1086 11.7338C10.0679 11.7629 10.0137 11.7235 10.0287 11.6758L10.1452 11.3077L9.83469 11.0784C9.7945 11.0486 9.81519 10.9849 9.86519 10.9845L10.2512 10.9815L10.3734 10.6153C10.3891 10.5679 10.4562 10.5679 10.472 10.6153Z" fill="#F5F5F5"/>
<path d="M10.472 12.5312L10.5941 12.8974L10.9802 12.9004C11.0302 12.9008 11.0509 12.9646 11.0107 12.9942L10.7001 13.2236L10.8166 13.5917C10.8317 13.6393 10.7774 13.6788 10.7367 13.6497L10.4227 13.4252L10.1086 13.6497C10.0679 13.6787 10.0137 13.6393 10.0287 13.5917L10.1452 13.2236L9.83469 12.9942C9.7945 12.9646 9.81519 12.9008 9.86519 12.9004L10.2512 12.8974L10.3734 12.5312C10.3891 12.4837 10.4562 12.4837 10.472 12.5312Z" fill="#F5F5F5"/>
<path d="M10.472 14.447L10.5941 14.8133L10.9802 14.8162C11.0302 14.8167 11.0509 14.8803 11.0107 14.9101L10.7001 15.1395L10.8166 15.5075C10.8317 15.5552 10.7774 15.5947 10.7367 15.5655L10.4227 15.341L10.1086 15.5655C10.0679 15.5946 10.0137 15.5552 10.0287 15.5075L10.1452 15.1395L9.83469 14.9101C9.7945 14.8803 9.81519 14.8167 9.86519 14.8162L10.2512 14.8133L10.3734 14.447C10.3891 14.3997 10.4562 14.3997 10.472 14.447Z" fill="#F5F5F5"/>
<path d="M11.9583 7.72279L12.0805 8.08904L12.4665 8.09197C12.5165 8.09241 12.5372 8.15616 12.497 8.18585L12.1865 8.41522L12.303 8.78329C12.3181 8.83091 12.2638 8.87041 12.2231 8.84129L11.909 8.61679L11.595 8.84129C11.5543 8.87035 11.5001 8.83091 11.5151 8.78329L11.6316 8.41522L11.321 8.18585C11.2808 8.1561 11.3015 8.09241 11.3515 8.09197L11.7376 8.08904L11.8597 7.72279C11.8755 7.67541 11.9425 7.67541 11.9583 7.72279Z" fill="#F5F5F5"/>
<path d="M11.9583 9.63873L12.0805 10.005L12.4665 10.0079C12.5165 10.0084 12.5372 10.0721 12.497 10.1018L12.1865 10.3312L12.303 10.6992C12.3181 10.7469 12.2638 10.7864 12.2231 10.7572L11.909 10.5327L11.595 10.7572C11.5543 10.7863 11.5001 10.7469 11.5151 10.6992L11.6316 10.3312L11.321 10.1018C11.2808 10.0722 11.3015 10.0084 11.3515 10.0079L11.7376 10.005L11.8597 9.63873C11.8755 9.59129 11.9425 9.59129 11.9583 9.63873Z" fill="#F5F5F5"/>
<path d="M11.9583 11.5546L12.0805 11.9209L12.4665 11.9238C12.5165 11.9242 12.5372 11.9879 12.497 12.0177L12.1865 12.2471L12.303 12.6151C12.3181 12.6627 12.2638 12.7022 12.2231 12.6731L11.909 12.4486L11.595 12.6731C11.5543 12.7022 11.5001 12.6627 11.5151 12.6151L11.6316 12.2471L11.321 12.0177C11.2808 11.9879 11.3015 11.9242 11.3515 11.9238L11.7376 11.9209L11.8597 11.5546C11.8755 11.5072 11.9425 11.5072 11.9583 11.5546Z" fill="#F5F5F5"/>
<path d="M11.9583 13.4705L12.0805 13.8367L12.4665 13.8397C12.5165 13.8401 12.5372 13.9038 12.497 13.9335L12.1865 14.1629L12.303 14.531C12.3181 14.5786 12.2638 14.6181 12.2231 14.589L11.909 14.3645L11.595 14.589C11.5543 14.6181 11.5001 14.5786 11.5151 14.531L11.6316 14.1629L11.321 13.9335C11.2808 13.9038 11.3015 13.8401 11.3515 13.8397L11.7376 13.8367L11.8597 13.4705C11.8755 13.4231 11.9425 13.4231 11.9583 13.4705Z" fill="#F5F5F5"/>
<path d="M13.4456 6.7835L13.5678 7.14975L13.9538 7.15269C14.0038 7.15313 14.0245 7.21688 13.9843 7.24657L13.6738 7.47588L13.7903 7.84394C13.8054 7.89157 13.7511 7.93107 13.7104 7.90194L13.3963 7.67744L13.0823 7.90194C13.0416 7.93107 12.9874 7.89157 13.0024 7.84394L13.1189 7.47588L12.8083 7.24657C12.7681 7.21682 12.7888 7.15307 12.8388 7.15269L13.2249 7.14975L13.347 6.7835C13.3628 6.73607 13.4298 6.73607 13.4456 6.7835Z" fill="#F5F5F5"/>
<path d="M13.4456 8.69935L13.5678 9.0656L13.9538 9.06854C14.0038 9.06898 14.0245 9.13266 13.9843 9.16241L13.6738 9.39179L13.7903 9.75985C13.8054 9.80747 13.7511 9.84698 13.7104 9.81785L13.3963 9.59335L13.0823 9.81785C13.0416 9.84691 12.9874 9.80747 13.0024 9.75985L13.1189 9.39179L12.8083 9.16241C12.7681 9.13266 12.7888 9.06898 12.8388 9.06854L13.2249 9.0656L13.347 8.69935C13.3628 8.65197 13.4298 8.65197 13.4456 8.69935Z" fill="#F5F5F5"/>
<path d="M13.4456 10.6153L13.5678 10.9815L13.9538 10.9845C14.0038 10.9849 14.0245 11.0486 13.9843 11.0784L13.6738 11.3077L13.7903 11.6758C13.8054 11.7234 13.7511 11.7629 13.7104 11.7338L13.3963 11.5093L13.0823 11.7338C13.0416 11.7629 12.9874 11.7235 13.0024 11.6758L13.1189 11.3077L12.8083 11.0784C12.7681 11.0486 12.7888 10.9849 12.8388 10.9845L13.2249 10.9815L13.347 10.6153C13.3628 10.5679 13.4298 10.5679 13.4456 10.6153Z" fill="#F5F5F5"/>
<path d="M13.4456 12.5312L13.5678 12.8974L13.9538 12.9004C14.0038 12.9008 14.0245 12.9646 13.9843 12.9942L13.6738 13.2236L13.7903 13.5917C13.8054 13.6393 13.7511 13.6788 13.7104 13.6497L13.3963 13.4252L13.0823 13.6497C13.0416 13.6787 12.9874 13.6393 13.0024 13.5917L13.1189 13.2236L12.8083 12.9942C12.7681 12.9646 12.7888 12.9008 12.8388 12.9004L13.2249 12.8974L13.347 12.5312C13.3628 12.4837 13.4298 12.4837 13.4456 12.5312Z" fill="#F5F5F5"/>
<path d="M13.4456 14.447L13.5678 14.8133L13.9538 14.8162C14.0038 14.8167 14.0245 14.8803 13.9843 14.9101L13.6738 15.1395L13.7903 15.5075C13.8054 15.5552 13.7511 15.5947 13.7104 15.5655L13.3963 15.341L13.0823 15.5655C13.0416 15.5946 12.9874 15.5552 13.0024 15.5075L13.1189 15.1395L12.8083 14.9101C12.7681 14.8803 12.7888 14.8167 12.8388 14.8162L13.2249 14.8133L13.347 14.447C13.3628 14.3997 13.4298 14.3997 13.4456 14.447Z" fill="#F5F5F5"/>
</svg>
