<svg width="40" height="25" viewBox="0 0 40 25" fill="none" xmlns="http://www.w3.org/2000/svg">
<path opacity="0.07" d="M36.8421 0H3.15789C1.36842 0 0 1.35417 0 3.125V21.875C0 23.6458 1.47368 25 3.15789 25H36.8421C38.6316 25 40 23.6458 40 21.875V3.125C40 1.35417 38.5263 0 36.8421 0Z" fill="#263238"/>
<path d="M36.8422 1.0415C38.0001 1.0415 38.9475 1.979 38.9475 3.12484V21.8748C38.9475 23.0207 38.0001 23.9582 36.8422 23.9582H3.158C2.0001 23.9582 1.05273 23.0207 1.05273 21.8748V3.12484C1.05273 1.979 2.0001 1.0415 3.158 1.0415H36.8422Z" fill="white"/>
<path d="M29.7368 10.521H29.421C28.9999 11.5627 28.6841 12.0835 28.3683 13.646H30.3683C30.0526 12.0835 30.0526 11.3543 29.7368 10.521ZM32.7894 16.6668H30.9999C30.8947 16.6668 30.8947 16.6668 30.7894 16.5627L30.5789 15.6252L30.4736 15.4168H27.9473C27.842 15.4168 27.7368 15.4168 27.7368 15.6252L27.421 16.5627C27.421 16.6668 27.3157 16.6668 27.3157 16.6668H25.1052L25.3157 16.146L28.3683 9.06266C28.3683 8.54183 28.6841 8.3335 29.2104 8.3335H30.7894C30.8947 8.3335 30.9999 8.3335 30.9999 8.54183L32.4736 15.3127C32.5789 15.7293 32.6841 16.0418 32.6841 16.4585C32.7894 16.5627 32.7894 16.5627 32.7894 16.6668ZM18.6841 16.3543L19.1052 14.4793C19.2105 14.4793 19.3157 14.5835 19.3157 14.5835C20.0526 14.896 20.7894 15.1043 21.5262 15.0002C21.7368 15.0002 22.0526 14.896 22.2631 14.7918C22.7894 14.5835 22.7894 14.0627 22.3683 13.646C22.1578 13.4377 21.842 13.3335 21.5262 13.1252C21.1052 12.9168 20.6841 12.7085 20.3683 12.396C19.1052 11.3543 19.5262 9.896 20.2631 9.16683C20.8947 8.75016 21.2104 8.3335 22.0526 8.3335C23.3157 8.3335 24.6841 8.3335 25.3157 8.54183H25.421C25.3157 9.16683 25.2104 9.68766 24.9999 10.3127C24.4736 10.1043 23.9473 9.896 23.421 9.896C23.1052 9.896 22.7894 9.896 22.4736 10.0002C22.2631 10.0002 22.1578 10.1043 22.0526 10.2085C21.842 10.4168 21.842 10.7293 22.0526 10.9377L22.5789 11.3543C22.9999 11.5627 23.421 11.771 23.7368 11.9793C24.2631 12.2918 24.7894 12.8127 24.8947 13.4377C25.1052 14.3752 24.7894 15.2085 23.9473 15.8335C23.421 16.2502 23.2104 16.4585 22.4736 16.4585C20.9999 16.4585 19.842 16.5627 18.8947 16.2502C18.7894 16.4585 18.7894 16.4585 18.6841 16.3543ZM14.9999 16.6668C15.1052 15.9377 15.1052 15.9377 15.2104 15.6252C15.7368 13.3335 16.2631 10.9377 16.6841 8.646C16.7894 8.43766 16.7894 8.3335 16.9999 8.3335H18.8947C18.6841 9.5835 18.4736 10.521 18.1578 11.6668C17.842 13.2293 17.5262 14.7918 17.1052 16.3543C17.1052 16.5627 16.9999 16.5627 16.7894 16.5627L14.9999 16.6668ZM5.21045 8.54183C5.21045 8.43766 5.42098 8.3335 5.52624 8.3335H9.10519C9.6315 8.3335 10.0526 8.646 10.1578 9.16683L11.1052 13.7502C11.1052 13.8543 11.1052 13.8543 11.2104 13.9585C11.2104 13.8543 11.3157 13.8543 11.3157 13.8543L13.5262 8.54183C13.421 8.43766 13.5262 8.3335 13.6315 8.3335H15.842C15.842 8.43766 15.842 8.43766 15.7368 8.54183L12.4736 16.146C12.3683 16.3543 12.3683 16.4585 12.2631 16.5627C12.1578 16.6668 11.9473 16.5627 11.7368 16.5627H10.1578C10.0526 16.5627 9.94729 16.5627 9.94729 16.3543L8.26308 9.896C8.05255 9.68766 7.73677 9.37516 7.31571 9.271C6.68413 8.9585 5.52624 8.75016 5.31571 8.75016L5.21045 8.54183Z" fill="#142688"/>
</svg>
